<?xml version="1.0" encoding="utf-8" standalone="no"?>
<!DOCTYPE svg PUBLIC "-//W3C//DTD SVG 1.1//EN"
  "http://www.w3.org/Graphics/SVG/1.1/DTD/svg11.dtd">
<!-- Created with matplotlib (https://matplotlib.org/) -->
<svg height="432pt" version="1.1" viewBox="0 0 432 432" width="432pt" xmlns="http://www.w3.org/2000/svg" xmlns:xlink="http://www.w3.org/1999/xlink">
 <defs>
  <style type="text/css">
*{stroke-linecap:butt;stroke-linejoin:round;}
  </style>
 </defs>
 <g id="figure_1">
  <g id="patch_1">
   <path d="M 0 432 
L 432 432 
L 432 0 
L 0 0 
z
" style="fill:#ffffff;"/>
  </g>
  <g id="axes_1">
   <g id="patch_2">
    <path d="M 24.19 98.405 
L 421.2 98.405 
L 421.2 26.88 
L 24.19 26.88 
z
" style="fill:#ffffff;"/>
   </g>
   <g id="matplotlib.axis_1"/>
   <g id="matplotlib.axis_2">
    <g id="ytick_1">
     <g id="line2d_1">
      <defs>
       <path d="M 0 0 
L -3.5 0 
" id="mb628668a55" style="stroke:#000000;stroke-width:0.8;"/>
      </defs>
      <g>
       <use style="stroke:#000000;stroke-width:0.8;" x="24.19" xlink:href="#mb628668a55" y="95.153864"/>
      </g>
     </g>
     <g id="text_1">
      <!-- 1 -->
      <defs>
       <path d="M 12.40625 8.296875 
L 28.515625 8.296875 
L 28.515625 63.921875 
L 10.984375 60.40625 
L 10.984375 69.390625 
L 28.421875 72.90625 
L 38.28125 72.90625 
L 38.28125 8.296875 
L 54.390625 8.296875 
L 54.390625 0 
L 12.40625 0 
z
" id="DejaVuSans-49"/>
      </defs>
      <g transform="translate(10.8275 98.953082)scale(0.1 -0.1)">
       <use xlink:href="#DejaVuSans-49"/>
      </g>
     </g>
    </g>
    <g id="ytick_2">
     <g id="line2d_2">
      <g>
       <use style="stroke:#000000;stroke-width:0.8;" x="24.19" xlink:href="#mb628668a55" y="62.6425"/>
      </g>
     </g>
     <g id="text_2">
      <!-- 2 -->
      <defs>
       <path d="M 19.1875 8.296875 
L 53.609375 8.296875 
L 53.609375 0 
L 7.328125 0 
L 7.328125 8.296875 
Q 12.9375 14.109375 22.625 23.890625 
Q 32.328125 33.6875 34.8125 36.53125 
Q 39.546875 41.84375 41.421875 45.53125 
Q 43.3125 49.21875 43.3125 52.78125 
Q 43.3125 58.59375 39.234375 62.25 
Q 35.15625 65.921875 28.609375 65.921875 
Q 23.96875 65.921875 18.8125 64.3125 
Q 13.671875 62.703125 7.8125 59.421875 
L 7.8125 69.390625 
Q 13.765625 71.78125 18.9375 73 
Q 24.125 74.21875 28.421875 74.21875 
Q 39.75 74.21875 46.484375 68.546875 
Q 53.21875 62.890625 53.21875 53.421875 
Q 53.21875 48.921875 51.53125 44.890625 
Q 49.859375 40.875 45.40625 35.40625 
Q 44.1875 33.984375 37.640625 27.21875 
Q 31.109375 20.453125 19.1875 8.296875 
z
" id="DejaVuSans-50"/>
      </defs>
      <g transform="translate(10.8275 66.441719)scale(0.1 -0.1)">
       <use xlink:href="#DejaVuSans-50"/>
      </g>
     </g>
    </g>
    <g id="ytick_3">
     <g id="line2d_3">
      <g>
       <use style="stroke:#000000;stroke-width:0.8;" x="24.19" xlink:href="#mb628668a55" y="30.131136"/>
      </g>
     </g>
     <g id="text_3">
      <!-- 3 -->
      <defs>
       <path d="M 40.578125 39.3125 
Q 47.65625 37.796875 51.625 33 
Q 55.609375 28.21875 55.609375 21.1875 
Q 55.609375 10.40625 48.1875 4.484375 
Q 40.765625 -1.421875 27.09375 -1.421875 
Q 22.515625 -1.421875 17.65625 -0.515625 
Q 12.796875 0.390625 7.625 2.203125 
L 7.625 11.71875 
Q 11.71875 9.328125 16.59375 8.109375 
Q 21.484375 6.890625 26.8125 6.890625 
Q 36.078125 6.890625 40.9375 10.546875 
Q 45.796875 14.203125 45.796875 21.1875 
Q 45.796875 27.640625 41.28125 31.265625 
Q 36.765625 34.90625 28.71875 34.90625 
L 20.21875 34.90625 
L 20.21875 43.015625 
L 29.109375 43.015625 
Q 36.375 43.015625 40.234375 45.921875 
Q 44.09375 48.828125 44.09375 54.296875 
Q 44.09375 59.90625 40.109375 62.90625 
Q 36.140625 65.921875 28.71875 65.921875 
Q 24.65625 65.921875 20.015625 65.03125 
Q 15.375 64.15625 9.8125 62.3125 
L 9.8125 71.09375 
Q 15.4375 72.65625 20.34375 73.4375 
Q 25.25 74.21875 29.59375 74.21875 
Q 40.828125 74.21875 47.359375 69.109375 
Q 53.90625 64.015625 53.90625 55.328125 
Q 53.90625 49.265625 50.4375 45.09375 
Q 46.96875 40.921875 40.578125 39.3125 
z
" id="DejaVuSans-51"/>
      </defs>
      <g transform="translate(10.8275 33.930355)scale(0.1 -0.1)">
       <use xlink:href="#DejaVuSans-51"/>
      </g>
     </g>
    </g>
   </g>
   <g id="line2d_4">
    <defs>
     <path d="M -7.5 7.5 
L 7.5 -7.5 
M -7.5 -7.5 
L 7.5 7.5 
" id="m4a3915339f" style="stroke:#008000;"/>
    </defs>
    <g clip-path="url(#p175025d0aa)">
     <use style="fill:#008000;stroke:#008000;" x="42.235909" xlink:href="#m4a3915339f" y="95.153864"/>
     <use style="fill:#008000;stroke:#008000;" x="68.015779" xlink:href="#m4a3915339f" y="95.153864"/>
     <use style="fill:#008000;stroke:#008000;" x="93.795649" xlink:href="#m4a3915339f" y="95.153864"/>
     <use style="fill:#008000;stroke:#008000;" x="119.575519" xlink:href="#m4a3915339f" y="62.6425"/>
     <use style="fill:#008000;stroke:#008000;" x="145.35539" xlink:href="#m4a3915339f" y="62.6425"/>
     <use style="fill:#008000;stroke:#008000;" x="171.13526" xlink:href="#m4a3915339f" y="62.6425"/>
     <use style="fill:#008000;stroke:#008000;" x="196.91513" xlink:href="#m4a3915339f" y="62.6425"/>
     <use style="fill:#008000;stroke:#008000;" x="222.695" xlink:href="#m4a3915339f" y="62.6425"/>
     <use style="fill:#008000;stroke:#008000;" x="248.47487" xlink:href="#m4a3915339f" y="30.131136"/>
     <use style="fill:#008000;stroke:#008000;" x="274.25474" xlink:href="#m4a3915339f" y="30.131136"/>
     <use style="fill:#008000;stroke:#008000;" x="300.03461" xlink:href="#m4a3915339f" y="30.131136"/>
     <use style="fill:#008000;stroke:#008000;" x="325.814481" xlink:href="#m4a3915339f" y="30.131136"/>
     <use style="fill:#008000;stroke:#008000;" x="351.594351" xlink:href="#m4a3915339f" y="30.131136"/>
     <use style="fill:#008000;stroke:#008000;" x="377.374221" xlink:href="#m4a3915339f" y="95.153864"/>
     <use style="fill:#008000;stroke:#008000;" x="403.154091" xlink:href="#m4a3915339f" y="95.153864"/>
    </g>
   </g>
   <g id="line2d_5">
    <defs>
     <path d="M 0 3 
C 0.795609 3 1.55874 2.683901 2.12132 2.12132 
C 2.683901 1.55874 3 0.795609 3 0 
C 3 -0.795609 2.683901 -1.55874 2.12132 -2.12132 
C 1.55874 -2.683901 0.795609 -3 0 -3 
C -0.795609 -3 -1.55874 -2.683901 -2.12132 -2.12132 
C -2.683901 -1.55874 -3 -0.795609 -3 0 
C -3 0.795609 -2.683901 1.55874 -2.12132 2.12132 
C -1.55874 2.683901 -0.795609 3 0 3 
z
" id="mef7c49ea99" style="stroke:#000000;stroke-opacity:0.5;"/>
    </defs>
    <g clip-path="url(#p175025d0aa)">
     <use style="fill-opacity:0.5;stroke:#000000;stroke-opacity:0.5;" x="42.235909" xlink:href="#mef7c49ea99" y="95.153864"/>
     <use style="fill-opacity:0.5;stroke:#000000;stroke-opacity:0.5;" x="171.13526" xlink:href="#mef7c49ea99" y="62.6425"/>
     <use style="fill-opacity:0.5;stroke:#000000;stroke-opacity:0.5;" x="300.03461" xlink:href="#mef7c49ea99" y="30.131136"/>
    </g>
   </g>
   <g id="patch_3">
    <path d="M 24.19 98.405 
L 24.19 26.88 
" style="fill:none;stroke:#000000;stroke-linecap:square;stroke-linejoin:miter;stroke-width:0.8;"/>
   </g>
   <g id="patch_4">
    <path d="M 421.2 98.405 
L 421.2 26.88 
" style="fill:none;stroke:#000000;stroke-linecap:square;stroke-linejoin:miter;stroke-width:0.8;"/>
   </g>
   <g id="patch_5">
    <path d="M 24.19 98.405 
L 421.2 98.405 
" style="fill:none;stroke:#000000;stroke-linecap:square;stroke-linejoin:miter;stroke-width:0.8;"/>
   </g>
   <g id="patch_6">
    <path d="M 24.19 26.88 
L 421.2 26.88 
" style="fill:none;stroke:#000000;stroke-linecap:square;stroke-linejoin:miter;stroke-width:0.8;"/>
   </g>
   <g id="text_4">
    <!-- nearest-periodic -->
    <defs>
     <path d="M 54.890625 33.015625 
L 54.890625 0 
L 45.90625 0 
L 45.90625 32.71875 
Q 45.90625 40.484375 42.875 44.328125 
Q 39.84375 48.1875 33.796875 48.1875 
Q 26.515625 48.1875 22.3125 43.546875 
Q 18.109375 38.921875 18.109375 30.90625 
L 18.109375 0 
L 9.078125 0 
L 9.078125 54.6875 
L 18.109375 54.6875 
L 18.109375 46.1875 
Q 21.34375 51.125 25.703125 53.5625 
Q 30.078125 56 35.796875 56 
Q 45.21875 56 50.046875 50.171875 
Q 54.890625 44.34375 54.890625 33.015625 
z
" id="DejaVuSans-110"/>
     <path d="M 56.203125 29.59375 
L 56.203125 25.203125 
L 14.890625 25.203125 
Q 15.484375 15.921875 20.484375 11.0625 
Q 25.484375 6.203125 34.421875 6.203125 
Q 39.59375 6.203125 44.453125 7.46875 
Q 49.3125 8.734375 54.109375 11.28125 
L 54.109375 2.78125 
Q 49.265625 0.734375 44.1875 -0.34375 
Q 39.109375 -1.421875 33.890625 -1.421875 
Q 20.796875 -1.421875 13.15625 6.1875 
Q 5.515625 13.8125 5.515625 26.8125 
Q 5.515625 40.234375 12.765625 48.109375 
Q 20.015625 56 32.328125 56 
Q 43.359375 56 49.78125 48.890625 
Q 56.203125 41.796875 56.203125 29.59375 
z
M 47.21875 32.234375 
Q 47.125 39.59375 43.09375 43.984375 
Q 39.0625 48.390625 32.421875 48.390625 
Q 24.90625 48.390625 20.390625 44.140625 
Q 15.875 39.890625 15.1875 32.171875 
z
" id="DejaVuSans-101"/>
     <path d="M 34.28125 27.484375 
Q 23.390625 27.484375 19.1875 25 
Q 14.984375 22.515625 14.984375 16.5 
Q 14.984375 11.71875 18.140625 8.90625 
Q 21.296875 6.109375 26.703125 6.109375 
Q 34.1875 6.109375 38.703125 11.40625 
Q 43.21875 16.703125 43.21875 25.484375 
L 43.21875 27.484375 
z
M 52.203125 31.203125 
L 52.203125 0 
L 43.21875 0 
L 43.21875 8.296875 
Q 40.140625 3.328125 35.546875 0.953125 
Q 30.953125 -1.421875 24.3125 -1.421875 
Q 15.921875 -1.421875 10.953125 3.296875 
Q 6 8.015625 6 15.921875 
Q 6 25.140625 12.171875 29.828125 
Q 18.359375 34.515625 30.609375 34.515625 
L 43.21875 34.515625 
L 43.21875 35.40625 
Q 43.21875 41.609375 39.140625 45 
Q 35.0625 48.390625 27.6875 48.390625 
Q 23 48.390625 18.546875 47.265625 
Q 14.109375 46.140625 10.015625 43.890625 
L 10.015625 52.203125 
Q 14.9375 54.109375 19.578125 55.046875 
Q 24.21875 56 28.609375 56 
Q 40.484375 56 46.34375 49.84375 
Q 52.203125 43.703125 52.203125 31.203125 
z
" id="DejaVuSans-97"/>
     <path d="M 41.109375 46.296875 
Q 39.59375 47.171875 37.8125 47.578125 
Q 36.03125 48 33.890625 48 
Q 26.265625 48 22.1875 43.046875 
Q 18.109375 38.09375 18.109375 28.8125 
L 18.109375 0 
L 9.078125 0 
L 9.078125 54.6875 
L 18.109375 54.6875 
L 18.109375 46.1875 
Q 20.953125 51.171875 25.484375 53.578125 
Q 30.03125 56 36.53125 56 
Q 37.453125 56 38.578125 55.875 
Q 39.703125 55.765625 41.0625 55.515625 
z
" id="DejaVuSans-114"/>
     <path d="M 44.28125 53.078125 
L 44.28125 44.578125 
Q 40.484375 46.53125 36.375 47.5 
Q 32.28125 48.484375 27.875 48.484375 
Q 21.1875 48.484375 17.84375 46.4375 
Q 14.5 44.390625 14.5 40.28125 
Q 14.5 37.15625 16.890625 35.375 
Q 19.28125 33.59375 26.515625 31.984375 
L 29.59375 31.296875 
Q 39.15625 29.25 43.1875 25.515625 
Q 47.21875 21.78125 47.21875 15.09375 
Q 47.21875 7.46875 41.1875 3.015625 
Q 35.15625 -1.421875 24.609375 -1.421875 
Q 20.21875 -1.421875 15.453125 -0.5625 
Q 10.6875 0.296875 5.421875 2 
L 5.421875 11.28125 
Q 10.40625 8.6875 15.234375 7.390625 
Q 20.0625 6.109375 24.8125 6.109375 
Q 31.15625 6.109375 34.5625 8.28125 
Q 37.984375 10.453125 37.984375 14.40625 
Q 37.984375 18.0625 35.515625 20.015625 
Q 33.0625 21.96875 24.703125 23.78125 
L 21.578125 24.515625 
Q 13.234375 26.265625 9.515625 29.90625 
Q 5.8125 33.546875 5.8125 39.890625 
Q 5.8125 47.609375 11.28125 51.796875 
Q 16.75 56 26.8125 56 
Q 31.78125 56 36.171875 55.265625 
Q 40.578125 54.546875 44.28125 53.078125 
z
" id="DejaVuSans-115"/>
     <path d="M 18.3125 70.21875 
L 18.3125 54.6875 
L 36.8125 54.6875 
L 36.8125 47.703125 
L 18.3125 47.703125 
L 18.3125 18.015625 
Q 18.3125 11.328125 20.140625 9.421875 
Q 21.96875 7.515625 27.59375 7.515625 
L 36.8125 7.515625 
L 36.8125 0 
L 27.59375 0 
Q 17.1875 0 13.234375 3.875 
Q 9.28125 7.765625 9.28125 18.015625 
L 9.28125 47.703125 
L 2.6875 47.703125 
L 2.6875 54.6875 
L 9.28125 54.6875 
L 9.28125 70.21875 
z
" id="DejaVuSans-116"/>
     <path d="M 4.890625 31.390625 
L 31.203125 31.390625 
L 31.203125 23.390625 
L 4.890625 23.390625 
z
" id="DejaVuSans-45"/>
     <path d="M 18.109375 8.203125 
L 18.109375 -20.796875 
L 9.078125 -20.796875 
L 9.078125 54.6875 
L 18.109375 54.6875 
L 18.109375 46.390625 
Q 20.953125 51.265625 25.265625 53.625 
Q 29.59375 56 35.59375 56 
Q 45.5625 56 51.78125 48.09375 
Q 58.015625 40.1875 58.015625 27.296875 
Q 58.015625 14.40625 51.78125 6.484375 
Q 45.5625 -1.421875 35.59375 -1.421875 
Q 29.59375 -1.421875 25.265625 0.953125 
Q 20.953125 3.328125 18.109375 8.203125 
z
M 48.6875 27.296875 
Q 48.6875 37.203125 44.609375 42.84375 
Q 40.53125 48.484375 33.40625 48.484375 
Q 26.265625 48.484375 22.1875 42.84375 
Q 18.109375 37.203125 18.109375 27.296875 
Q 18.109375 17.390625 22.1875 11.75 
Q 26.265625 6.109375 33.40625 6.109375 
Q 40.53125 6.109375 44.609375 11.75 
Q 48.6875 17.390625 48.6875 27.296875 
z
" id="DejaVuSans-112"/>
     <path d="M 9.421875 54.6875 
L 18.40625 54.6875 
L 18.40625 0 
L 9.421875 0 
z
M 9.421875 75.984375 
L 18.40625 75.984375 
L 18.40625 64.59375 
L 9.421875 64.59375 
z
" id="DejaVuSans-105"/>
     <path d="M 30.609375 48.390625 
Q 23.390625 48.390625 19.1875 42.75 
Q 14.984375 37.109375 14.984375 27.296875 
Q 14.984375 17.484375 19.15625 11.84375 
Q 23.34375 6.203125 30.609375 6.203125 
Q 37.796875 6.203125 41.984375 11.859375 
Q 46.1875 17.53125 46.1875 27.296875 
Q 46.1875 37.015625 41.984375 42.703125 
Q 37.796875 48.390625 30.609375 48.390625 
z
M 30.609375 56 
Q 42.328125 56 49.015625 48.375 
Q 55.71875 40.765625 55.71875 27.296875 
Q 55.71875 13.875 49.015625 6.21875 
Q 42.328125 -1.421875 30.609375 -1.421875 
Q 18.84375 -1.421875 12.171875 6.21875 
Q 5.515625 13.875 5.515625 27.296875 
Q 5.515625 40.765625 12.171875 48.375 
Q 18.84375 56 30.609375 56 
z
" id="DejaVuSans-111"/>
     <path d="M 45.40625 46.390625 
L 45.40625 75.984375 
L 54.390625 75.984375 
L 54.390625 0 
L 45.40625 0 
L 45.40625 8.203125 
Q 42.578125 3.328125 38.25 0.953125 
Q 33.9375 -1.421875 27.875 -1.421875 
Q 17.96875 -1.421875 11.734375 6.484375 
Q 5.515625 14.40625 5.515625 27.296875 
Q 5.515625 40.1875 11.734375 48.09375 
Q 17.96875 56 27.875 56 
Q 33.9375 56 38.25 53.625 
Q 42.578125 51.265625 45.40625 46.390625 
z
M 14.796875 27.296875 
Q 14.796875 17.390625 18.875 11.75 
Q 22.953125 6.109375 30.078125 6.109375 
Q 37.203125 6.109375 41.296875 11.75 
Q 45.40625 17.390625 45.40625 27.296875 
Q 45.40625 37.203125 41.296875 42.84375 
Q 37.203125 48.484375 30.078125 48.484375 
Q 22.953125 48.484375 18.875 42.84375 
Q 14.796875 37.203125 14.796875 27.296875 
z
" id="DejaVuSans-100"/>
     <path d="M 48.78125 52.59375 
L 48.78125 44.1875 
Q 44.96875 46.296875 41.140625 47.34375 
Q 37.3125 48.390625 33.40625 48.390625 
Q 24.65625 48.390625 19.8125 42.84375 
Q 14.984375 37.3125 14.984375 27.296875 
Q 14.984375 17.28125 19.8125 11.734375 
Q 24.65625 6.203125 33.40625 6.203125 
Q 37.3125 6.203125 41.140625 7.25 
Q 44.96875 8.296875 48.78125 10.40625 
L 48.78125 2.09375 
Q 45.015625 0.34375 40.984375 -0.53125 
Q 36.96875 -1.421875 32.421875 -1.421875 
Q 20.0625 -1.421875 12.78125 6.34375 
Q 5.515625 14.109375 5.515625 27.296875 
Q 5.515625 40.671875 12.859375 48.328125 
Q 20.21875 56 33.015625 56 
Q 37.15625 56 41.109375 55.140625 
Q 45.0625 54.296875 48.78125 52.59375 
z
" id="DejaVuSans-99"/>
    </defs>
    <g transform="translate(173.777187 20.88)scale(0.12 -0.12)">
     <use xlink:href="#DejaVuSans-110"/>
     <use x="63.378906" xlink:href="#DejaVuSans-101"/>
     <use x="124.902344" xlink:href="#DejaVuSans-97"/>
     <use x="186.181641" xlink:href="#DejaVuSans-114"/>
     <use x="225.044922" xlink:href="#DejaVuSans-101"/>
     <use x="286.568359" xlink:href="#DejaVuSans-115"/>
     <use x="338.667969" xlink:href="#DejaVuSans-116"/>
     <use x="377.876953" xlink:href="#DejaVuSans-45"/>
     <use x="413.960938" xlink:href="#DejaVuSans-112"/>
     <use x="477.4375" xlink:href="#DejaVuSans-101"/>
     <use x="538.960938" xlink:href="#DejaVuSans-114"/>
     <use x="580.074219" xlink:href="#DejaVuSans-105"/>
     <use x="607.857422" xlink:href="#DejaVuSans-111"/>
     <use x="669.039062" xlink:href="#DejaVuSans-100"/>
     <use x="732.515625" xlink:href="#DejaVuSans-105"/>
     <use x="760.298828" xlink:href="#DejaVuSans-99"/>
    </g>
   </g>
  </g>
  <g id="axes_2">
   <g id="patch_7">
    <path d="M 24.19 200.31 
L 421.2 200.31 
L 421.2 128.785 
L 24.19 128.785 
z
" style="fill:#ffffff;"/>
   </g>
   <g id="matplotlib.axis_3"/>
   <g id="matplotlib.axis_4">
    <g id="ytick_4">
     <g id="line2d_6">
      <g>
       <use style="stroke:#000000;stroke-width:0.8;" x="24.19" xlink:href="#mb628668a55" y="197.058864"/>
      </g>
     </g>
     <g id="text_5">
      <!-- 1 -->
      <g transform="translate(10.8275 200.858082)scale(0.1 -0.1)">
       <use xlink:href="#DejaVuSans-49"/>
      </g>
     </g>
    </g>
    <g id="ytick_5">
     <g id="line2d_7">
      <g>
       <use style="stroke:#000000;stroke-width:0.8;" x="24.19" xlink:href="#mb628668a55" y="164.5475"/>
      </g>
     </g>
     <g id="text_6">
      <!-- 2 -->
      <g transform="translate(10.8275 168.346719)scale(0.1 -0.1)">
       <use xlink:href="#DejaVuSans-50"/>
      </g>
     </g>
    </g>
    <g id="ytick_6">
     <g id="line2d_8">
      <g>
       <use style="stroke:#000000;stroke-width:0.8;" x="24.19" xlink:href="#mb628668a55" y="132.036136"/>
      </g>
     </g>
     <g id="text_7">
      <!-- 3 -->
      <g transform="translate(10.8275 135.835355)scale(0.1 -0.1)">
       <use xlink:href="#DejaVuSans-51"/>
      </g>
     </g>
    </g>
   </g>
   <g id="line2d_9">
    <g clip-path="url(#pbbb313cae2)">
     <use style="fill:#008000;stroke:#008000;" x="42.235909" xlink:href="#m4a3915339f" y="197.058864"/>
     <use style="fill:#008000;stroke:#008000;" x="68.015779" xlink:href="#m4a3915339f" y="190.556589"/>
     <use style="fill:#008000;stroke:#008000;" x="93.795649" xlink:href="#m4a3915339f" y="184.054315"/>
     <use style="fill:#008000;stroke:#008000;" x="119.575519" xlink:href="#m4a3915339f" y="177.552045"/>
     <use style="fill:#008000;stroke:#008000;" x="145.35539" xlink:href="#m4a3915339f" y="171.049774"/>
     <use style="fill:#008000;stroke:#008000;" x="171.13526" xlink:href="#m4a3915339f" y="164.5475"/>
     <use style="fill:#008000;stroke:#008000;" x="196.91513" xlink:href="#m4a3915339f" y="158.045226"/>
     <use style="fill:#008000;stroke:#008000;" x="222.695" xlink:href="#m4a3915339f" y="151.542951"/>
     <use style="fill:#008000;stroke:#008000;" x="248.47487" xlink:href="#m4a3915339f" y="145.040685"/>
     <use style="fill:#008000;stroke:#008000;" x="274.25474" xlink:href="#m4a3915339f" y="138.538411"/>
     <use style="fill:#008000;stroke:#008000;" x="300.03461" xlink:href="#m4a3915339f" y="132.036136"/>
     <use style="fill:#008000;stroke:#008000;" x="325.814481" xlink:href="#m4a3915339f" y="138.538403"/>
     <use style="fill:#008000;stroke:#008000;" x="351.594351" xlink:href="#m4a3915339f" y="145.040677"/>
     <use style="fill:#008000;stroke:#008000;" x="377.374221" xlink:href="#m4a3915339f" y="151.542951"/>
     <use style="fill:#008000;stroke:#008000;" x="403.154091" xlink:href="#m4a3915339f" y="158.045226"/>
    </g>
   </g>
   <g id="line2d_10">
    <g clip-path="url(#pbbb313cae2)">
     <use style="fill-opacity:0.5;stroke:#000000;stroke-opacity:0.5;" x="42.235909" xlink:href="#mef7c49ea99" y="197.058864"/>
     <use style="fill-opacity:0.5;stroke:#000000;stroke-opacity:0.5;" x="171.13526" xlink:href="#mef7c49ea99" y="164.5475"/>
     <use style="fill-opacity:0.5;stroke:#000000;stroke-opacity:0.5;" x="300.03461" xlink:href="#mef7c49ea99" y="132.036136"/>
    </g>
   </g>
   <g id="patch_8">
    <path d="M 24.19 200.31 
L 24.19 128.785 
" style="fill:none;stroke:#000000;stroke-linecap:square;stroke-linejoin:miter;stroke-width:0.8;"/>
   </g>
   <g id="patch_9">
    <path d="M 421.2 200.31 
L 421.2 128.785 
" style="fill:none;stroke:#000000;stroke-linecap:square;stroke-linejoin:miter;stroke-width:0.8;"/>
   </g>
   <g id="patch_10">
    <path d="M 24.19 200.31 
L 421.2 200.31 
" style="fill:none;stroke:#000000;stroke-linecap:square;stroke-linejoin:miter;stroke-width:0.8;"/>
   </g>
   <g id="patch_11">
    <path d="M 24.19 128.785 
L 421.2 128.785 
" style="fill:none;stroke:#000000;stroke-linecap:square;stroke-linejoin:miter;stroke-width:0.8;"/>
   </g>
   <g id="text_8">
    <!-- linear-mirror -->
    <defs>
     <path d="M 9.421875 75.984375 
L 18.40625 75.984375 
L 18.40625 0 
L 9.421875 0 
z
" id="DejaVuSans-108"/>
     <path d="M 52 44.1875 
Q 55.375 50.25 60.0625 53.125 
Q 64.75 56 71.09375 56 
Q 79.640625 56 84.28125 50.015625 
Q 88.921875 44.046875 88.921875 33.015625 
L 88.921875 0 
L 79.890625 0 
L 79.890625 32.71875 
Q 79.890625 40.578125 77.09375 44.375 
Q 74.3125 48.1875 68.609375 48.1875 
Q 61.625 48.1875 57.5625 43.546875 
Q 53.515625 38.921875 53.515625 30.90625 
L 53.515625 0 
L 44.484375 0 
L 44.484375 32.71875 
Q 44.484375 40.625 41.703125 44.40625 
Q 38.921875 48.1875 33.109375 48.1875 
Q 26.21875 48.1875 22.15625 43.53125 
Q 18.109375 38.875 18.109375 30.90625 
L 18.109375 0 
L 9.078125 0 
L 9.078125 54.6875 
L 18.109375 54.6875 
L 18.109375 46.1875 
Q 21.1875 51.21875 25.484375 53.609375 
Q 29.78125 56 35.6875 56 
Q 41.65625 56 45.828125 52.96875 
Q 50 49.953125 52 44.1875 
z
" id="DejaVuSans-109"/>
    </defs>
    <g transform="translate(185.599063 122.785)scale(0.12 -0.12)">
     <use xlink:href="#DejaVuSans-108"/>
     <use x="27.783203" xlink:href="#DejaVuSans-105"/>
     <use x="55.566406" xlink:href="#DejaVuSans-110"/>
     <use x="118.945312" xlink:href="#DejaVuSans-101"/>
     <use x="180.46875" xlink:href="#DejaVuSans-97"/>
     <use x="241.748047" xlink:href="#DejaVuSans-114"/>
     <use x="276.486328" xlink:href="#DejaVuSans-45"/>
     <use x="312.570312" xlink:href="#DejaVuSans-109"/>
     <use x="409.982422" xlink:href="#DejaVuSans-105"/>
     <use x="437.765625" xlink:href="#DejaVuSans-114"/>
     <use x="477.128906" xlink:href="#DejaVuSans-114"/>
     <use x="515.992188" xlink:href="#DejaVuSans-111"/>
     <use x="577.173828" xlink:href="#DejaVuSans-114"/>
    </g>
   </g>
  </g>
  <g id="axes_3">
   <g id="patch_12">
    <path d="M 24.19 302.215 
L 421.2 302.215 
L 421.2 230.69 
L 24.19 230.69 
z
" style="fill:#ffffff;"/>
   </g>
   <g id="matplotlib.axis_5"/>
   <g id="matplotlib.axis_6">
    <g id="ytick_7">
     <g id="line2d_11">
      <g>
       <use style="stroke:#000000;stroke-width:0.8;" x="24.19" xlink:href="#mb628668a55" y="298.963864"/>
      </g>
     </g>
     <g id="text_9">
      <!-- 1 -->
      <g transform="translate(10.8275 302.763082)scale(0.1 -0.1)">
       <use xlink:href="#DejaVuSans-49"/>
      </g>
     </g>
    </g>
    <g id="ytick_8">
     <g id="line2d_12">
      <g>
       <use style="stroke:#000000;stroke-width:0.8;" x="24.19" xlink:href="#mb628668a55" y="266.4525"/>
      </g>
     </g>
     <g id="text_10">
      <!-- 2 -->
      <g transform="translate(10.8275 270.251719)scale(0.1 -0.1)">
       <use xlink:href="#DejaVuSans-50"/>
      </g>
     </g>
    </g>
    <g id="ytick_9">
     <g id="line2d_13">
      <g>
       <use style="stroke:#000000;stroke-width:0.8;" x="24.19" xlink:href="#mb628668a55" y="233.941136"/>
      </g>
     </g>
     <g id="text_11">
      <!-- 3 -->
      <g transform="translate(10.8275 237.740355)scale(0.1 -0.1)">
       <use xlink:href="#DejaVuSans-51"/>
      </g>
     </g>
    </g>
   </g>
   <g id="line2d_14">
    <g clip-path="url(#pdacd449f7c)">
     <use style="fill:#008000;stroke:#008000;" x="42.235909" xlink:href="#m4a3915339f" y="298.963864"/>
     <use style="fill:#008000;stroke:#008000;" x="68.015779" xlink:href="#m4a3915339f" y="292.461589"/>
     <use style="fill:#008000;stroke:#008000;" x="93.795649" xlink:href="#m4a3915339f" y="285.959315"/>
     <use style="fill:#008000;stroke:#008000;" x="119.575519" xlink:href="#m4a3915339f" y="279.457045"/>
     <use style="fill:#008000;stroke:#008000;" x="145.35539" xlink:href="#m4a3915339f" y="272.954774"/>
     <use style="fill:#008000;stroke:#008000;" x="171.13526" xlink:href="#m4a3915339f" y="266.4525"/>
     <use style="fill:#008000;stroke:#008000;" x="196.91513" xlink:href="#m4a3915339f" y="259.950226"/>
     <use style="fill:#008000;stroke:#008000;" x="222.695" xlink:href="#m4a3915339f" y="253.447951"/>
     <use style="fill:#008000;stroke:#008000;" x="248.47487" xlink:href="#m4a3915339f" y="246.945685"/>
     <use style="fill:#008000;stroke:#008000;" x="274.25474" xlink:href="#m4a3915339f" y="240.443403"/>
     <use style="fill:#008000;stroke:#008000;" x="300.03461" xlink:href="#m4a3915339f" y="233.941136"/>
     <use style="fill:#008000;stroke:#008000;" x="325.814481" xlink:href="#m4a3915339f" y="246.945677"/>
     <use style="fill:#008000;stroke:#008000;" x="351.594351" xlink:href="#m4a3915339f" y="259.950226"/>
     <use style="fill:#008000;stroke:#008000;" x="377.374221" xlink:href="#m4a3915339f" y="272.954774"/>
     <use style="fill:#008000;stroke:#008000;" x="403.154091" xlink:href="#m4a3915339f" y="285.959319"/>
    </g>
   </g>
   <g id="line2d_15">
    <g clip-path="url(#pdacd449f7c)">
     <use style="fill-opacity:0.5;stroke:#000000;stroke-opacity:0.5;" x="42.235909" xlink:href="#mef7c49ea99" y="298.963864"/>
     <use style="fill-opacity:0.5;stroke:#000000;stroke-opacity:0.5;" x="171.13526" xlink:href="#mef7c49ea99" y="266.4525"/>
     <use style="fill-opacity:0.5;stroke:#000000;stroke-opacity:0.5;" x="300.03461" xlink:href="#mef7c49ea99" y="233.941136"/>
    </g>
   </g>
   <g id="patch_13">
    <path d="M 24.19 302.215 
L 24.19 230.69 
" style="fill:none;stroke:#000000;stroke-linecap:square;stroke-linejoin:miter;stroke-width:0.8;"/>
   </g>
   <g id="patch_14">
    <path d="M 421.2 302.215 
L 421.2 230.69 
" style="fill:none;stroke:#000000;stroke-linecap:square;stroke-linejoin:miter;stroke-width:0.8;"/>
   </g>
   <g id="patch_15">
    <path d="M 24.19 302.215 
L 421.2 302.215 
" style="fill:none;stroke:#000000;stroke-linecap:square;stroke-linejoin:miter;stroke-width:0.8;"/>
   </g>
   <g id="patch_16">
    <path d="M 24.19 230.69 
L 421.2 230.69 
" style="fill:none;stroke:#000000;stroke-linecap:square;stroke-linejoin:miter;stroke-width:0.8;"/>
   </g>
   <g id="text_12">
    <!-- linear-periodic -->
    <g transform="translate(179.860625 224.69)scale(0.12 -0.12)">
     <use xlink:href="#DejaVuSans-108"/>
     <use x="27.783203" xlink:href="#DejaVuSans-105"/>
     <use x="55.566406" xlink:href="#DejaVuSans-110"/>
     <use x="118.945312" xlink:href="#DejaVuSans-101"/>
     <use x="180.46875" xlink:href="#DejaVuSans-97"/>
     <use x="241.748047" xlink:href="#DejaVuSans-114"/>
     <use x="276.486328" xlink:href="#DejaVuSans-45"/>
     <use x="312.570312" xlink:href="#DejaVuSans-112"/>
     <use x="376.046875" xlink:href="#DejaVuSans-101"/>
     <use x="437.570312" xlink:href="#DejaVuSans-114"/>
     <use x="478.683594" xlink:href="#DejaVuSans-105"/>
     <use x="506.466797" xlink:href="#DejaVuSans-111"/>
     <use x="567.648438" xlink:href="#DejaVuSans-100"/>
     <use x="631.125" xlink:href="#DejaVuSans-105"/>
     <use x="658.908203" xlink:href="#DejaVuSans-99"/>
    </g>
   </g>
  </g>
  <g id="axes_4">
   <g id="patch_17">
    <path d="M 24.19 404.12 
L 421.2 404.12 
L 421.2 332.595 
L 24.19 332.595 
z
" style="fill:#ffffff;"/>
   </g>
   <g id="matplotlib.axis_7">
    <g id="xtick_1">
     <g id="line2d_16">
      <defs>
       <path d="M 0 0 
L 0 3.5 
" id="mbdbfbcf1d7" style="stroke:#000000;stroke-width:0.8;"/>
      </defs>
      <g>
       <use style="stroke:#000000;stroke-width:0.8;" x="42.235909" xlink:href="#mbdbfbcf1d7" y="404.12"/>
      </g>
     </g>
     <g id="text_13">
      <!-- 0 -->
      <defs>
       <path d="M 31.78125 66.40625 
Q 24.171875 66.40625 20.328125 58.90625 
Q 16.5 51.421875 16.5 36.375 
Q 16.5 21.390625 20.328125 13.890625 
Q 24.171875 6.390625 31.78125 6.390625 
Q 39.453125 6.390625 43.28125 13.890625 
Q 47.125 21.390625 47.125 36.375 
Q 47.125 51.421875 43.28125 58.90625 
Q 39.453125 66.40625 31.78125 66.40625 
z
M 31.78125 74.21875 
Q 44.046875 74.21875 50.515625 64.515625 
Q 56.984375 54.828125 56.984375 36.375 
Q 56.984375 17.96875 50.515625 8.265625 
Q 44.046875 -1.421875 31.78125 -1.421875 
Q 19.53125 -1.421875 13.0625 8.265625 
Q 6.59375 17.96875 6.59375 36.375 
Q 6.59375 54.828125 13.0625 64.515625 
Q 19.53125 74.21875 31.78125 74.21875 
z
" id="DejaVuSans-48"/>
      </defs>
      <g transform="translate(39.054659 418.718437)scale(0.1 -0.1)">
       <use xlink:href="#DejaVuSans-48"/>
      </g>
     </g>
    </g>
    <g id="xtick_2">
     <g id="line2d_17">
      <g>
       <use style="stroke:#000000;stroke-width:0.8;" x="93.795649" xlink:href="#mbdbfbcf1d7" y="404.12"/>
      </g>
     </g>
     <g id="text_14">
      <!-- 2 -->
      <g transform="translate(90.614399 418.718437)scale(0.1 -0.1)">
       <use xlink:href="#DejaVuSans-50"/>
      </g>
     </g>
    </g>
    <g id="xtick_3">
     <g id="line2d_18">
      <g>
       <use style="stroke:#000000;stroke-width:0.8;" x="145.35539" xlink:href="#mbdbfbcf1d7" y="404.12"/>
      </g>
     </g>
     <g id="text_15">
      <!-- 4 -->
      <defs>
       <path d="M 37.796875 64.3125 
L 12.890625 25.390625 
L 37.796875 25.390625 
z
M 35.203125 72.90625 
L 47.609375 72.90625 
L 47.609375 25.390625 
L 58.015625 25.390625 
L 58.015625 17.1875 
L 47.609375 17.1875 
L 47.609375 0 
L 37.796875 0 
L 37.796875 17.1875 
L 4.890625 17.1875 
L 4.890625 26.703125 
z
" id="DejaVuSans-52"/>
      </defs>
      <g transform="translate(142.17414 418.718437)scale(0.1 -0.1)">
       <use xlink:href="#DejaVuSans-52"/>
      </g>
     </g>
    </g>
    <g id="xtick_4">
     <g id="line2d_19">
      <g>
       <use style="stroke:#000000;stroke-width:0.8;" x="196.91513" xlink:href="#mbdbfbcf1d7" y="404.12"/>
      </g>
     </g>
     <g id="text_16">
      <!-- 6 -->
      <defs>
       <path d="M 33.015625 40.375 
Q 26.375 40.375 22.484375 35.828125 
Q 18.609375 31.296875 18.609375 23.390625 
Q 18.609375 15.53125 22.484375 10.953125 
Q 26.375 6.390625 33.015625 6.390625 
Q 39.65625 6.390625 43.53125 10.953125 
Q 47.40625 15.53125 47.40625 23.390625 
Q 47.40625 31.296875 43.53125 35.828125 
Q 39.65625 40.375 33.015625 40.375 
z
M 52.59375 71.296875 
L 52.59375 62.3125 
Q 48.875 64.0625 45.09375 64.984375 
Q 41.3125 65.921875 37.59375 65.921875 
Q 27.828125 65.921875 22.671875 59.328125 
Q 17.53125 52.734375 16.796875 39.40625 
Q 19.671875 43.65625 24.015625 45.921875 
Q 28.375 48.1875 33.59375 48.1875 
Q 44.578125 48.1875 50.953125 41.515625 
Q 57.328125 34.859375 57.328125 23.390625 
Q 57.328125 12.15625 50.6875 5.359375 
Q 44.046875 -1.421875 33.015625 -1.421875 
Q 20.359375 -1.421875 13.671875 8.265625 
Q 6.984375 17.96875 6.984375 36.375 
Q 6.984375 53.65625 15.1875 63.9375 
Q 23.390625 74.21875 37.203125 74.21875 
Q 40.921875 74.21875 44.703125 73.484375 
Q 48.484375 72.75 52.59375 71.296875 
z
" id="DejaVuSans-54"/>
      </defs>
      <g transform="translate(193.73388 418.718437)scale(0.1 -0.1)">
       <use xlink:href="#DejaVuSans-54"/>
      </g>
     </g>
    </g>
    <g id="xtick_5">
     <g id="line2d_20">
      <g>
       <use style="stroke:#000000;stroke-width:0.8;" x="248.47487" xlink:href="#mbdbfbcf1d7" y="404.12"/>
      </g>
     </g>
     <g id="text_17">
      <!-- 8 -->
      <defs>
       <path d="M 31.78125 34.625 
Q 24.75 34.625 20.71875 30.859375 
Q 16.703125 27.09375 16.703125 20.515625 
Q 16.703125 13.921875 20.71875 10.15625 
Q 24.75 6.390625 31.78125 6.390625 
Q 38.8125 6.390625 42.859375 10.171875 
Q 46.921875 13.96875 46.921875 20.515625 
Q 46.921875 27.09375 42.890625 30.859375 
Q 38.875 34.625 31.78125 34.625 
z
M 21.921875 38.8125 
Q 15.578125 40.375 12.03125 44.71875 
Q 8.5 49.078125 8.5 55.328125 
Q 8.5 64.0625 14.71875 69.140625 
Q 20.953125 74.21875 31.78125 74.21875 
Q 42.671875 74.21875 48.875 69.140625 
Q 55.078125 64.0625 55.078125 55.328125 
Q 55.078125 49.078125 51.53125 44.71875 
Q 48 40.375 41.703125 38.8125 
Q 48.828125 37.15625 52.796875 32.3125 
Q 56.78125 27.484375 56.78125 20.515625 
Q 56.78125 9.90625 50.3125 4.234375 
Q 43.84375 -1.421875 31.78125 -1.421875 
Q 19.734375 -1.421875 13.25 4.234375 
Q 6.78125 9.90625 6.78125 20.515625 
Q 6.78125 27.484375 10.78125 32.3125 
Q 14.796875 37.15625 21.921875 38.8125 
z
M 18.3125 54.390625 
Q 18.3125 48.734375 21.84375 45.5625 
Q 25.390625 42.390625 31.78125 42.390625 
Q 38.140625 42.390625 41.71875 45.5625 
Q 45.3125 48.734375 45.3125 54.390625 
Q 45.3125 60.0625 41.71875 63.234375 
Q 38.140625 66.40625 31.78125 66.40625 
Q 25.390625 66.40625 21.84375 63.234375 
Q 18.3125 60.0625 18.3125 54.390625 
z
" id="DejaVuSans-56"/>
      </defs>
      <g transform="translate(245.29362 418.718437)scale(0.1 -0.1)">
       <use xlink:href="#DejaVuSans-56"/>
      </g>
     </g>
    </g>
    <g id="xtick_6">
     <g id="line2d_21">
      <g>
       <use style="stroke:#000000;stroke-width:0.8;" x="300.03461" xlink:href="#mbdbfbcf1d7" y="404.12"/>
      </g>
     </g>
     <g id="text_18">
      <!-- 10 -->
      <g transform="translate(293.67211 418.718437)scale(0.1 -0.1)">
       <use xlink:href="#DejaVuSans-49"/>
       <use x="63.623047" xlink:href="#DejaVuSans-48"/>
      </g>
     </g>
    </g>
    <g id="xtick_7">
     <g id="line2d_22">
      <g>
       <use style="stroke:#000000;stroke-width:0.8;" x="351.594351" xlink:href="#mbdbfbcf1d7" y="404.12"/>
      </g>
     </g>
     <g id="text_19">
      <!-- 12 -->
      <g transform="translate(345.231851 418.718437)scale(0.1 -0.1)">
       <use xlink:href="#DejaVuSans-49"/>
       <use x="63.623047" xlink:href="#DejaVuSans-50"/>
      </g>
     </g>
    </g>
    <g id="xtick_8">
     <g id="line2d_23">
      <g>
       <use style="stroke:#000000;stroke-width:0.8;" x="403.154091" xlink:href="#mbdbfbcf1d7" y="404.12"/>
      </g>
     </g>
     <g id="text_20">
      <!-- 14 -->
      <g transform="translate(396.791591 418.718437)scale(0.1 -0.1)">
       <use xlink:href="#DejaVuSans-49"/>
       <use x="63.623047" xlink:href="#DejaVuSans-52"/>
      </g>
     </g>
    </g>
   </g>
   <g id="matplotlib.axis_8">
    <g id="ytick_10">
     <g id="line2d_24">
      <g>
       <use style="stroke:#000000;stroke-width:0.8;" x="24.19" xlink:href="#mb628668a55" y="400.868864"/>
      </g>
     </g>
     <g id="text_21">
      <!-- 0 -->
      <g transform="translate(10.8275 404.668082)scale(0.1 -0.1)">
       <use xlink:href="#DejaVuSans-48"/>
      </g>
     </g>
    </g>
    <g id="ytick_11">
     <g id="line2d_25">
      <g>
       <use style="stroke:#000000;stroke-width:0.8;" x="24.19" xlink:href="#mb628668a55" y="357.520379"/>
      </g>
     </g>
     <g id="text_22">
      <!-- 2 -->
      <g transform="translate(10.8275 361.319598)scale(0.1 -0.1)">
       <use xlink:href="#DejaVuSans-50"/>
      </g>
     </g>
    </g>
   </g>
   <g id="line2d_26">
    <g clip-path="url(#p2f48800cca)">
     <use style="fill:#008000;stroke:#008000;" x="42.235909" xlink:href="#m4a3915339f" y="379.194621"/>
     <use style="fill:#008000;stroke:#008000;" x="68.015779" xlink:href="#m4a3915339f" y="400.868864"/>
     <use style="fill:#008000;stroke:#008000;" x="93.795649" xlink:href="#m4a3915339f" y="400.868864"/>
     <use style="fill:#008000;stroke:#008000;" x="119.575519" xlink:href="#m4a3915339f" y="400.868864"/>
     <use style="fill:#008000;stroke:#008000;" x="145.35539" xlink:href="#m4a3915339f" y="400.868864"/>
     <use style="fill:#008000;stroke:#008000;" x="171.13526" xlink:href="#m4a3915339f" y="357.520379"/>
     <use style="fill:#008000;stroke:#008000;" x="196.91513" xlink:href="#m4a3915339f" y="400.868864"/>
     <use style="fill:#008000;stroke:#008000;" x="222.695" xlink:href="#m4a3915339f" y="400.868864"/>
     <use style="fill:#008000;stroke:#008000;" x="248.47487" xlink:href="#m4a3915339f" y="400.868864"/>
     <use style="fill:#008000;stroke:#008000;" x="274.25474" xlink:href="#m4a3915339f" y="400.868864"/>
     <use style="fill:#008000;stroke:#008000;" x="300.03461" xlink:href="#m4a3915339f" y="335.846136"/>
     <use style="fill:#008000;stroke:#008000;" x="325.814481" xlink:href="#m4a3915339f" y="400.868864"/>
     <use style="fill:#008000;stroke:#008000;" x="351.594351" xlink:href="#m4a3915339f" y="400.868864"/>
     <use style="fill:#008000;stroke:#008000;" x="377.374221" xlink:href="#m4a3915339f" y="400.868864"/>
     <use style="fill:#008000;stroke:#008000;" x="403.154091" xlink:href="#m4a3915339f" y="400.868864"/>
    </g>
   </g>
   <g id="line2d_27">
    <g clip-path="url(#p2f48800cca)">
     <use style="fill-opacity:0.5;stroke:#000000;stroke-opacity:0.5;" x="42.235909" xlink:href="#mef7c49ea99" y="379.194621"/>
     <use style="fill-opacity:0.5;stroke:#000000;stroke-opacity:0.5;" x="171.13526" xlink:href="#mef7c49ea99" y="357.520379"/>
     <use style="fill-opacity:0.5;stroke:#000000;stroke-opacity:0.5;" x="300.03461" xlink:href="#mef7c49ea99" y="335.846136"/>
    </g>
   </g>
   <g id="patch_18">
    <path d="M 24.19 404.12 
L 24.19 332.595 
" style="fill:none;stroke:#000000;stroke-linecap:square;stroke-linejoin:miter;stroke-width:0.8;"/>
   </g>
   <g id="patch_19">
    <path d="M 421.2 404.12 
L 421.2 332.595 
" style="fill:none;stroke:#000000;stroke-linecap:square;stroke-linejoin:miter;stroke-width:0.8;"/>
   </g>
   <g id="patch_20">
    <path d="M 24.19 404.12 
L 421.2 404.12 
" style="fill:none;stroke:#000000;stroke-linecap:square;stroke-linejoin:miter;stroke-width:0.8;"/>
   </g>
   <g id="patch_21">
    <path d="M 24.19 332.595 
L 421.2 332.595 
" style="fill:none;stroke:#000000;stroke-linecap:square;stroke-linejoin:miter;stroke-width:0.8;"/>
   </g>
   <g id="text_23">
    <!-- constant-0 -->
    <g transform="translate(190.630625 326.595)scale(0.12 -0.12)">
     <use xlink:href="#DejaVuSans-99"/>
     <use x="54.980469" xlink:href="#DejaVuSans-111"/>
     <use x="116.162109" xlink:href="#DejaVuSans-110"/>
     <use x="179.541016" xlink:href="#DejaVuSans-115"/>
     <use x="231.640625" xlink:href="#DejaVuSans-116"/>
     <use x="270.849609" xlink:href="#DejaVuSans-97"/>
     <use x="332.128906" xlink:href="#DejaVuSans-110"/>
     <use x="395.507812" xlink:href="#DejaVuSans-116"/>
     <use x="434.716797" xlink:href="#DejaVuSans-45"/>
     <use x="470.800781" xlink:href="#DejaVuSans-48"/>
    </g>
   </g>
  </g>
 </g>
 <defs>
  <clipPath id="p175025d0aa">
   <rect height="71.525" width="397.01" x="24.19" y="26.88"/>
  </clipPath>
  <clipPath id="pbbb313cae2">
   <rect height="71.525" width="397.01" x="24.19" y="128.785"/>
  </clipPath>
  <clipPath id="pdacd449f7c">
   <rect height="71.525" width="397.01" x="24.19" y="230.69"/>
  </clipPath>
  <clipPath id="p2f48800cca">
   <rect height="71.525" width="397.01" x="24.19" y="332.595"/>
  </clipPath>
 </defs>
</svg>
