<?xml version="1.0" encoding="utf-8" standalone="no"?>
<!DOCTYPE svg PUBLIC "-//W3C//DTD SVG 1.1//EN"
  "http://www.w3.org/Graphics/SVG/1.1/DTD/svg11.dtd">
<!-- Created with matplotlib (https://matplotlib.org/) -->
<svg height="648pt" version="1.1" viewBox="0 0 216 648" width="216pt" xmlns="http://www.w3.org/2000/svg" xmlns:xlink="http://www.w3.org/1999/xlink">
 <defs>
  <style type="text/css">
*{stroke-linecap:butt;stroke-linejoin:round;}
  </style>
 </defs>
 <g id="figure_1">
  <g id="patch_1">
   <path d="M 0 648 
L 216 648 
L 216 0 
L 0 0 
z
" style="fill:#ffffff;"/>
  </g>
  <g id="axes_1">
   <g id="patch_2">
    <path d="M 13.32 209.88 
L 202.68 209.88 
L 202.68 26.88 
L 13.32 26.88 
z
" style="fill:#ffffff;"/>
   </g>
   <g id="matplotlib.axis_1"/>
   <g id="matplotlib.axis_2"/>
   <g id="line2d_1">
    <path clip-path="url(#pd35ae625f3)" d="M 21.927273 157.593262 
L 22.264152 173.647393 
L 22.601032 155.533301 
L 22.937911 166.659081 
L 23.274791 158.027871 
L 23.611671 164.774469 
L 23.94855 160.761219 
L 24.28543 168.332693 
L 24.622309 148.514521 
L 24.959189 166.739346 
L 25.296068 163.528743 
L 25.632948 146.948028 
L 25.969827 182.56704 
L 26.306707 181.525908 
L 26.643587 156.516997 
L 26.980466 180.05534 
L 27.317346 145.316745 
L 27.654225 171.219583 
L 27.991105 174.697047 
L 28.327984 144.882143 
L 28.664864 149.548437 
L 29.001743 145.017553 
L 29.338623 155.420866 
L 29.675503 174.744466 
L 30.012382 143.776375 
L 30.349262 167.637422 
L 30.686141 155.499688 
L 31.023021 153.610902 
L 31.3599 165.531963 
L 31.69678 156.712697 
L 32.033659 152.993866 
L 32.370539 158.729132 
L 32.707419 174.762092 
L 33.381178 147.229153 
L 33.718057 169.282038 
L 34.054937 162.899843 
L 34.391816 165.712138 
L 34.728696 140.044585 
L 35.065576 152.720881 
L 35.402455 155.28492 
L 35.739335 167.953186 
L 36.076214 153.065757 
L 36.413094 166.122791 
L 36.749973 157.904038 
L 37.086853 164.900612 
L 37.423732 149.954406 
L 37.760612 150.647782 
L 38.097492 158.925219 
L 38.434371 151.805345 
L 38.771251 167.87311 
L 39.10813 171.848931 
L 39.44501 150.016824 
L 39.781889 152.591206 
L 40.118769 146.949368 
L 40.455648 127.12311 
L 41.129408 162.708158 
L 41.466287 139.744568 
L 41.803167 166.220666 
L 42.140046 156.270801 
L 42.476926 151.423268 
L 42.813805 131.18981 
L 43.150685 157.924705 
L 43.487564 158.325419 
L 43.824444 149.750661 
L 44.161324 155.497024 
L 44.498203 135.145119 
L 44.835083 159.069613 
L 45.171962 159.290354 
L 45.508842 150.895886 
L 45.845721 151.026684 
L 46.182601 123.590035 
L 47.19324 156.89852 
L 47.530119 133.40933 
L 47.866999 153.285319 
L 48.203878 158.753963 
L 48.540758 127.907596 
L 48.877637 136.986601 
L 49.214517 129.719808 
L 49.551397 135.811825 
L 49.888276 129.267258 
L 50.225156 145.387408 
L 50.562035 149.043921 
L 50.898915 129.440903 
L 51.235794 145.298291 
L 51.572674 143.43814 
L 51.909553 140.243767 
L 52.246433 134.398609 
L 52.583313 137.907086 
L 52.920192 148.608786 
L 53.257072 139.893489 
L 53.593951 156.781543 
L 53.930831 124.602769 
L 54.26771 148.660006 
L 54.60459 142.523916 
L 54.941469 129.085687 
L 55.278349 137.231162 
L 55.615229 111.313053 
L 55.952108 142.102541 
L 56.288988 124.187439 
L 56.625867 126.947485 
L 56.962747 138.818446 
L 57.299626 119.441819 
L 57.636506 126.501375 
L 57.973386 115.409642 
L 58.310265 114.195279 
L 58.647145 98.709176 
L 58.984024 107.224866 
L 59.320904 125.478352 
L 59.657783 123.394437 
L 59.994663 107.912 
L 60.331542 112.18823 
L 60.668422 111.707771 
L 61.005302 136.066308 
L 61.342181 117.771637 
L 61.679061 125.029429 
L 62.01594 113.10107 
L 62.35282 116.639696 
L 62.689699 104.817591 
L 63.026579 110.736811 
L 63.363458 104.888915 
L 63.700338 118.118334 
L 64.037218 122.764499 
L 64.710977 111.189904 
L 65.047856 106.151585 
L 65.384736 84.672113 
L 65.721615 109.524425 
L 66.058495 119.000571 
L 66.395374 111.596354 
L 66.732254 112.254203 
L 67.069134 101.139039 
L 67.406013 122.901598 
L 67.742893 104.487573 
L 68.416652 101.336043 
L 68.753531 109.888534 
L 69.090411 105.270317 
L 69.427291 117.777366 
L 69.76417 106.832292 
L 70.10105 106.749997 
L 70.437929 95.4965 
L 70.774809 112.288624 
L 71.111688 90.198279 
L 71.448568 81.672354 
L 71.785447 120.543783 
L 72.122327 92.268251 
L 72.459207 88.875042 
L 72.796086 102.823575 
L 73.469845 96.013848 
L 73.806725 97.235269 
L 74.143604 96.756738 
L 74.480484 111.302267 
L 74.817363 79.368944 
L 75.154243 79.580671 
L 75.491123 99.963116 
L 75.828002 106.611155 
L 76.164882 84.006717 
L 76.501761 95.578446 
L 76.838641 87.048978 
L 77.17552 91.585974 
L 77.5124 79.816031 
L 77.849279 79.214072 
L 78.186159 94.388114 
L 78.523039 101.117072 
L 78.859918 102.773469 
L 79.196798 77.921998 
L 79.533677 97.309898 
L 79.870557 89.210777 
L 80.207436 89.664141 
L 80.544316 83.10584 
L 80.881196 103.446815 
L 81.218075 79.377346 
L 81.554955 75.144011 
L 82.228714 83.365835 
L 82.902473 74.49218 
L 83.239352 109.135458 
L 83.576232 56.254567 
L 83.913112 73.116264 
L 84.249991 84.185004 
L 84.586871 80.811802 
L 84.92375 70.538687 
L 85.26063 76.829537 
L 85.597509 97.581473 
L 85.934389 51.754112 
L 86.271268 75.402634 
L 86.608148 62.430897 
L 86.945028 80.962895 
L 87.281907 55.840395 
L 87.618787 69.263 
L 87.955666 65.268613 
L 88.292546 83.179656 
L 88.629425 57.770519 
L 88.966305 63.142977 
L 89.303184 55.964516 
L 89.640064 76.95563 
L 89.976944 74.940947 
L 90.313823 43.706185 
L 90.650703 80.603732 
L 90.987582 69.998959 
L 91.324462 55.53629 
L 91.661341 66.695741 
L 91.998221 60.972188 
L 92.335101 71.515641 
L 92.67198 62.655475 
L 93.00886 80.903151 
L 93.345739 47.735126 
L 93.682619 67.100835 
L 94.019498 73.019708 
L 94.356378 57.799392 
L 95.030137 79.383425 
L 95.367017 79.240776 
L 95.703896 56.359514 
L 96.040776 65.547281 
L 96.377655 65.000787 
L 96.714535 51.325827 
L 97.051414 75.505438 
L 98.062053 61.280817 
L 98.398933 62.576185 
L 98.735812 65.077482 
L 99.072692 62.378946 
L 99.409571 62.68954 
L 99.746451 69.285263 
L 100.08333 70.139075 
L 100.42021 57.916553 
L 100.757089 70.662714 
L 101.093969 73.455956 
L 101.430849 63.941787 
L 101.767728 62.084717 
L 102.104608 35.198182 
L 102.441487 67.880109 
L 102.778367 49.500151 
L 103.115246 51.558553 
L 103.452126 72.903373 
L 103.789006 51.064427 
L 104.462765 88.918635 
L 104.799644 52.662633 
L 105.136524 78.765977 
L 105.473403 54.254593 
L 105.810283 66.775745 
L 106.147162 40.764619 
L 106.484042 47.274859 
L 106.820922 64.106059 
L 107.157801 66.680745 
L 107.494681 72.495912 
L 107.83156 63.922156 
L 108.16844 62.143163 
L 108.505319 63.085218 
L 109.179078 52.673109 
L 109.515958 55.239365 
L 109.852838 67.617787 
L 110.189717 75.127208 
L 110.526597 44.13245 
L 110.863476 66.950409 
L 111.200356 66.607355 
L 111.537235 65.230992 
L 111.874115 79.960457 
L 112.210994 64.927315 
L 112.547874 65.04485 
L 112.884754 52.963758 
L 113.221633 52.212436 
L 113.558513 60.030649 
L 113.895392 49.87705 
L 114.232272 56.571235 
L 114.569151 60.655514 
L 114.906031 58.85012 
L 115.242911 62.904212 
L 115.57979 65.332749 
L 115.91667 64.097908 
L 116.253549 73.810182 
L 116.590429 58.393523 
L 116.927308 72.699409 
L 117.264188 52.574135 
L 117.601067 64.87281 
L 117.937947 61.777802 
L 118.274827 57.07916 
L 118.611706 55.654597 
L 118.948586 80.422465 
L 119.622345 53.767564 
L 119.959224 82.59335 
L 120.296104 59.75528 
L 120.632983 89.310285 
L 121.306743 64.460147 
L 121.643622 83.538007 
L 121.980502 76.40262 
L 122.317381 82.098745 
L 122.654261 47.845873 
L 122.99114 64.608021 
L 123.32802 60.470229 
L 123.664899 69.557086 
L 124.001779 71.346809 
L 124.338659 85.688099 
L 124.675538 71.365797 
L 125.012418 76.929616 
L 125.349297 59.354043 
L 126.023056 53.362574 
L 126.359936 60.550981 
L 126.696816 77.020985 
L 127.033695 83.14928 
L 127.370575 62.69513 
L 127.707454 67.651316 
L 128.044334 91.608666 
L 128.381213 68.496989 
L 128.718093 63.838165 
L 129.054972 72.642511 
L 129.391852 75.784124 
L 130.065611 90.654314 
L 130.402491 66.215787 
L 130.73937 78.967984 
L 131.07625 78.595745 
L 131.413129 57.282688 
L 131.750009 69.3728 
L 132.423768 76.351006 
L 132.760648 61.576012 
L 133.097527 59.86131 
L 133.434407 69.116585 
L 133.771286 73.470673 
L 134.108166 103.639585 
L 134.445045 79.577659 
L 134.781925 82.910418 
L 135.118804 80.95298 
L 135.455684 72.075006 
L 135.792564 113.411393 
L 136.129443 89.903194 
L 136.466323 81.147621 
L 137.140082 100.933926 
L 137.476961 76.162556 
L 137.813841 83.28132 
L 138.150721 97.67079 
L 138.4876 83.989893 
L 138.82448 78.94529 
L 139.161359 88.563099 
L 139.498239 80.329235 
L 140.508877 103.797224 
L 140.845757 92.494299 
L 141.182637 89.98347 
L 141.519516 83.029359 
L 141.856396 94.608374 
L 142.193275 88.868008 
L 142.530155 105.228963 
L 142.867034 103.82113 
L 143.203914 96.984184 
L 143.540793 108.059488 
L 143.877673 87.903074 
L 144.214553 92.478296 
L 144.551432 95.138175 
L 144.888312 95.098647 
L 145.225191 77.086755 
L 145.89895 125.126125 
L 146.23583 99.158453 
L 146.572709 102.560234 
L 147.246469 114.115491 
L 147.920228 102.53867 
L 148.257107 110.759406 
L 148.593987 79.101814 
L 148.930866 117.115427 
L 149.267746 115.905114 
L 149.604626 133.119688 
L 149.941505 105.622935 
L 150.278385 131.396886 
L 150.615264 115.680832 
L 150.952144 113.406646 
L 151.289023 118.864713 
L 151.625903 92.385029 
L 151.962782 101.28324 
L 152.299662 98.335383 
L 152.636542 123.377686 
L 152.973421 101.747225 
L 153.310301 109.406449 
L 153.98406 104.796876 
L 154.320939 126.921047 
L 154.657819 122.203317 
L 154.994698 108.594272 
L 155.331578 148.222826 
L 155.668458 102.681362 
L 156.005337 113.967216 
L 156.342217 121.248625 
L 156.679096 118.944925 
L 157.015976 133.443942 
L 157.352855 126.553783 
L 157.689735 111.128711 
L 158.026614 109.579296 
L 158.363494 94.728099 
L 158.700374 126.058473 
L 159.037253 133.173025 
L 159.374133 132.209675 
L 159.711012 138.42554 
L 160.047892 128.641004 
L 160.384771 124.168324 
L 160.721651 129.416607 
L 161.058531 117.516743 
L 161.39541 132.882951 
L 161.73229 134.759669 
L 162.069169 137.970107 
L 162.406049 150.23616 
L 162.742928 150.132542 
L 163.079808 146.439507 
L 163.416687 119.565946 
L 163.753567 124.67329 
L 164.090447 119.962899 
L 164.427326 150.55847 
L 164.764206 158.208215 
L 165.101085 144.305636 
L 165.437965 135.63712 
L 165.774844 132.649206 
L 166.111724 127.149517 
L 166.448603 136.193489 
L 166.785483 120.614618 
L 167.122363 142.964492 
L 167.796122 160.26572 
L 168.133001 152.052798 
L 168.469881 140.081865 
L 168.80676 153.167905 
L 169.14364 133.495818 
L 169.480519 128.775552 
L 169.817399 171.221845 
L 170.154279 135.935554 
L 170.491158 170.858635 
L 170.828038 142.128667 
L 171.164917 133.533708 
L 171.838676 162.324293 
L 172.175556 155.14611 
L 172.512436 152.067831 
L 172.849315 151.692412 
L 173.186195 152.420662 
L 173.523074 151.884629 
L 173.859954 148.791466 
L 174.196833 165.031469 
L 174.533713 154.801921 
L 174.870592 135.773128 
L 175.207472 157.325123 
L 175.544352 158.444461 
L 175.881231 142.03934 
L 176.218111 182.792174 
L 176.55499 141.796028 
L 176.89187 162.327776 
L 177.228749 153.946371 
L 177.565629 155.125689 
L 177.902508 146.175372 
L 178.239388 160.000881 
L 178.576268 164.961048 
L 178.913147 143.476399 
L 179.250027 184.450413 
L 179.586906 158.426275 
L 179.923786 173.974586 
L 180.260665 167.860754 
L 180.597545 137.515779 
L 180.934424 160.663619 
L 181.271304 158.372121 
L 181.608184 180.629592 
L 182.281943 159.408874 
L 182.618822 157.994244 
L 182.955702 155.421598 
L 183.292581 162.48576 
L 183.629461 157.060806 
L 183.966341 158.183747 
L 184.30322 183.78884 
L 184.6401 163.404536 
L 184.976979 155.597994 
L 185.313859 157.854916 
L 185.650738 168.699446 
L 186.324497 177.592836 
L 186.998257 153.155166 
L 187.335136 187.576591 
L 187.672016 173.498482 
L 188.008895 179.044037 
L 188.345775 157.940033 
L 188.682654 172.992408 
L 189.019534 172.272195 
L 189.356413 169.661044 
L 189.693293 162.514947 
L 190.030173 171.982079 
L 190.367052 201.561818 
L 190.703932 161.96297 
L 191.040811 163.281112 
L 191.71457 180.45954 
L 192.05145 164.692125 
L 192.388329 164.521092 
L 192.725209 174.056178 
L 193.062089 171.367912 
L 193.398968 179.38291 
L 193.735848 171.159087 
L 194.072727 186.453872 
L 194.072727 186.453872 
" style="fill:none;stroke:#0000ff;stroke-linecap:square;stroke-width:1.5;"/>
   </g>
   <g id="line2d_2">
    <path clip-path="url(#pd35ae625f3)" d="M 21.927273 172.041977 
L 22.264152 157.184169 
L 22.601032 165.711589 
L 22.937911 158.796243 
L 23.274791 164.176644 
L 23.611671 161.102759 
L 23.94855 167.609699 
L 24.28543 150.424041 
L 24.622309 165.107814 
L 24.959189 163.686648 
L 25.296068 148.621891 
L 25.632948 179.172526 
L 25.969827 181.290568 
L 26.306707 158.994352 
L 26.643587 177.949247 
L 26.980466 148.579996 
L 27.317346 168.955625 
L 27.654225 174.122899 
L 27.991105 147.806218 
L 28.327984 149.374212 
L 28.664864 145.453218 
L 29.001743 154.4241 
L 29.338623 172.712428 
L 29.675503 146.669978 
L 30.012382 165.540674 
L 30.349262 156.503787 
L 30.686141 153.900186 
L 31.023021 164.368787 
L 31.3599 157.478305 
L 31.69678 153.442307 
L 32.033659 158.20045 
L 32.370539 173.105925 
L 33.044298 148.542981 
L 33.381178 167.208132 
L 33.718057 163.330673 
L 34.054937 165.473988 
L 34.391816 142.587523 
L 34.728696 151.707547 
L 35.065576 154.927182 
L 35.402455 166.650581 
L 35.739335 154.424238 
L 36.076214 164.952937 
L 36.413094 158.608928 
L 36.749973 164.271442 
L 37.086853 151.386107 
L 37.423732 150.721614 
L 37.760612 158.104856 
L 38.097492 152.435292 
L 38.434371 166.32933 
L 38.771251 171.29697 
L 39.10813 152.144838 
L 39.44501 152.546567 
L 39.781889 147.509088 
L 40.118769 129.161708 
L 40.455648 141.255423 
L 40.792528 160.562884 
L 41.129408 141.8264 
L 41.466287 163.781238 
L 42.140046 151.983126 
L 42.476926 133.269141 
L 42.813805 155.459149 
L 43.150685 158.038791 
L 43.487564 150.579476 
L 43.824444 155.005269 
L 44.161324 137.131133 
L 44.498203 156.875762 
L 44.835083 159.048894 
L 45.171962 151.711185 
L 45.508842 151.095135 
L 45.845721 126.340544 
L 46.519481 141.92873 
L 46.85636 155.40154 
L 47.19324 135.608551 
L 47.530119 151.517639 
L 47.866999 158.030328 
L 48.203878 130.919868 
L 48.540758 136.379928 
L 48.877637 130.385821 
L 49.214517 135.269225 
L 49.551397 129.867454 
L 49.888276 143.835411 
L 50.225156 148.523071 
L 50.562035 131.349119 
L 50.898915 143.903371 
L 51.235794 143.484664 
L 51.572674 140.567857 
L 51.909553 135.015533 
L 52.246433 137.61793 
L 52.583313 147.509699 
L 52.920192 140.655109 
L 53.257072 155.168896 
L 53.593951 127.659382 
L 53.930831 146.559942 
L 54.26771 142.927516 
L 54.60459 130.46987 
L 54.941469 136.555031 
L 55.278349 113.837251 
L 55.615229 139.276012 
L 55.952108 125.696296 
L 56.288988 126.822366 
L 56.625867 137.618838 
L 56.962747 121.259521 
L 57.299626 125.977189 
L 57.636506 116.466397 
L 57.973386 114.422391 
L 58.310265 100.280498 
L 58.647145 106.530429 
L 58.984024 123.583559 
L 59.320904 123.413349 
L 59.657783 109.462135 
L 59.994663 111.915621 
L 60.331542 111.728556 
L 60.668422 133.632532 
L 61.005302 119.357727 
L 61.342181 124.462258 
L 61.679061 114.237189 
L 62.01594 116.399445 
L 62.35282 105.975777 
L 62.689699 110.260708 
L 63.026579 105.426094 
L 63.363458 116.84911 
L 63.700338 122.17296 
L 64.710977 106.711436 
L 65.047856 86.876044 
L 65.384736 107.259587 
L 65.721615 117.826472 
L 66.058495 112.219366 
L 66.395374 112.25072 
L 66.732254 102.250207 
L 67.069134 120.836459 
L 67.406013 106.122463 
L 67.742893 103.144661 
L 68.079772 101.516905 
L 68.416652 109.051371 
L 68.753531 105.648423 
L 69.090411 116.564472 
L 69.427291 107.80551 
L 69.76417 106.855549 
L 70.10105 96.632407 
L 70.437929 110.723002 
L 70.774809 92.250754 
L 71.111688 82.730195 
L 71.448568 116.762423 
L 71.785447 94.717668 
L 72.122327 89.459305 
L 72.459207 101.487149 
L 72.796086 99.745143 
L 73.132966 96.386979 
L 73.469845 97.15044 
L 73.806725 96.796108 
L 74.143604 109.851651 
L 74.480484 82.417215 
L 74.817363 79.864325 
L 75.154243 97.953238 
L 75.491123 105.745363 
L 75.828002 86.180582 
L 76.164882 94.638659 
L 76.501761 87.807946 
L 76.838641 91.208173 
L 77.17552 80.955246 
L 77.5124 79.38819 
L 77.849279 92.888122 
L 78.186159 100.294177 
L 78.523039 102.525541 
L 78.859918 80.382355 
L 79.196798 95.617145 
L 79.533677 89.851414 
L 79.870557 89.68287 
L 80.207436 83.763543 
L 80.544316 101.478489 
L 80.881196 81.58746 
L 81.218075 75.788358 
L 81.891834 82.937899 
L 82.565593 74.922566 
L 82.902473 105.714169 
L 83.239352 61.200528 
L 83.913112 82.958975 
L 84.249991 81.026521 
L 84.586871 71.587472 
L 84.92375 76.305331 
L 85.26063 95.453861 
L 85.597509 56.12409 
L 85.934389 73.474779 
L 86.271268 63.535286 
L 86.608148 79.220135 
L 86.945028 58.178372 
L 87.281907 68.154539 
L 87.618787 65.557206 
L 87.955666 81.41741 
L 88.292546 60.135207 
L 88.629425 62.842201 
L 88.966305 56.652286 
L 89.303184 74.925296 
L 89.640064 74.939382 
L 89.976944 46.829503 
L 90.313823 77.226312 
L 90.650703 70.721696 
L 90.987582 57.054831 
L 91.324462 65.73165 
L 91.661341 61.448133 
L 91.998221 70.508894 
L 92.335101 63.440818 
L 92.67198 79.15692 
L 93.00886 50.877305 
L 93.345739 65.478484 
L 93.682619 72.265586 
L 94.019498 59.246011 
L 94.693257 78.336882 
L 95.030137 79.150385 
L 95.367017 58.638608 
L 95.703896 64.856414 
L 96.040776 64.986352 
L 96.377655 52.69188 
L 96.714535 73.224083 
L 97.051414 71.112298 
L 97.388294 67.24459 
L 97.725173 61.877196 
L 98.062053 62.506286 
L 98.398933 64.820364 
L 98.735812 62.623092 
L 99.072692 62.682896 
L 99.409571 68.625028 
L 99.746451 69.987671 
L 100.08333 59.123668 
L 100.42021 69.508812 
L 100.757089 73.061242 
L 101.093969 64.853733 
L 101.430849 62.361615 
L 101.767728 37.914526 
L 102.104608 64.883553 
L 102.441487 51.038492 
L 102.778367 51.506547 
L 103.115246 70.763694 
L 103.452126 53.034349 
L 104.125885 87.096246 
L 104.462765 56.105995 
L 104.799644 76.49998 
L 105.136524 56.479126 
L 105.473403 65.746086 
L 105.810283 43.262766 
L 106.147162 46.87365 
L 106.484042 62.38282 
L 106.820922 66.250954 
L 107.157801 71.871418 
L 107.494681 64.717083 
L 107.83156 62.400555 
L 108.16844 63.016754 
L 108.842199 53.195107 
L 109.179078 55.034942 
L 109.852838 74.250438 
L 110.189717 47.14425 
L 110.526597 64.969792 
L 110.863476 66.443598 
L 111.200356 65.352251 
L 111.537235 78.499638 
L 111.874115 66.284548 
L 112.210994 65.168819 
L 112.547874 54.184266 
L 112.884754 52.409618 
L 113.221633 59.268546 
L 113.558513 50.816199 
L 114.232272 60.189537 
L 114.569151 58.984062 
L 115.242911 65.050696 
L 115.57979 64.193189 
L 115.91667 72.848485 
L 116.253549 59.839021 
L 116.590429 71.413371 
L 116.927308 54.458055 
L 117.264188 63.831333 
L 117.601067 61.983155 
L 117.937947 57.569562 
L 118.274827 55.846094 
L 118.611706 77.964831 
L 119.285465 55.070768 
L 119.622345 79.841093 
L 119.959224 61.763864 
L 120.296104 86.555644 
L 120.969863 65.713334 
L 121.306743 81.755541 
L 121.643622 76.937911 
L 121.980502 81.582662 
L 122.317381 51.21955 
L 122.654261 63.269173 
L 122.99114 60.750129 
L 123.32802 68.676389 
L 123.664899 71.079768 
L 124.001779 84.227266 
L 124.338659 72.651945 
L 124.675538 76.501852 
L 125.012418 61.068827 
L 125.686177 53.730059 
L 126.023056 59.868887 
L 126.359936 75.305778 
L 126.696816 82.364929 
L 127.033695 64.662112 
L 127.370575 67.352395 
L 127.707454 89.18304 
L 128.044334 70.565598 
L 128.381213 64.51091 
L 128.718093 71.829352 
L 129.054972 75.388646 
L 129.728732 89.824126 
L 130.065611 68.576625 
L 130.402491 77.928846 
L 130.73937 78.529055 
L 131.07625 59.407327 
L 131.413129 68.37625 
L 132.086888 75.999345 
L 132.423768 63.018349 
L 132.760648 60.177013 
L 133.097527 68.222628 
L 133.434407 72.945869 
L 133.771286 100.570213 
L 134.108166 81.676916 
L 134.445045 82.787067 
L 134.781925 81.13639 
L 135.118804 72.981144 
L 135.455684 109.368368 
L 135.792564 91.849713 
L 136.129443 82.217831 
L 136.466323 89.093122 
L 136.803202 99.749845 
L 137.140082 78.521285 
L 137.476961 82.805317 
L 137.813841 96.184243 
L 138.150721 85.209329 
L 138.4876 79.571692 
L 138.82448 87.663958 
L 139.161359 81.062711 
L 140.171998 102.825642 
L 140.508877 93.527433 
L 140.845757 90.337869 
L 141.182637 83.760212 
L 141.519516 93.523558 
L 141.856396 89.333564 
L 142.193275 103.639423 
L 142.530155 103.802959 
L 142.867034 97.666062 
L 143.203914 107.020146 
L 143.540793 89.814782 
L 144.214553 94.845553 
L 144.551432 95.073338 
L 144.888312 78.885415 
L 145.562071 122.879443 
L 145.89895 101.530553 
L 146.23583 102.457266 
L 146.909589 113.481643 
L 147.246469 109.245169 
L 147.583348 103.209321 
L 147.920228 110.004397 
L 148.257107 82.192073 
L 148.593987 113.623092 
L 148.930866 115.676912 
L 149.267746 131.375409 
L 149.604626 108.198182 
L 149.941505 129.077015 
L 150.278385 117.020451 
L 150.615264 113.768027 
L 150.952144 118.355044 
L 151.289023 94.982032 
L 151.625903 100.653119 
L 151.962782 98.567157 
L 152.299662 120.896633 
L 152.636542 103.662165 
L 152.973421 108.832021 
L 153.64718 105.036004 
L 153.98406 124.732543 
L 154.320939 122.45624 
L 154.657819 109.980469 
L 154.994698 144.398588 
L 155.331578 106.853085 
L 156.005337 120.449342 
L 156.342217 119.095367 
L 156.679096 132.009084 
L 157.015976 127.099313 
L 157.352855 112.725771 
L 157.689735 109.893943 
L 158.026614 96.244683 
L 158.363494 123.077094 
L 158.700374 132.163431 
L 159.037253 132.205052 
L 159.374133 137.803492 
L 159.711012 129.557253 
L 160.047892 124.707216 
L 160.384771 128.945668 
L 160.721651 118.659636 
L 161.058531 131.460618 
L 161.73229 137.616073 
L 162.069169 148.97415 
L 162.406049 150.016705 
L 162.742928 146.797225 
L 163.079808 122.289073 
L 163.416687 124.434868 
L 163.753567 120.410096 
L 164.090447 147.543629 
L 164.427326 157.141756 
L 165.101085 136.632332 
L 165.437965 133.047519 
L 165.774844 127.739318 
L 166.111724 135.348072 
L 166.448603 122.087964 
L 166.785483 140.876838 
L 167.459242 159.254719 
L 167.796122 152.77299 
L 168.133001 141.350975 
L 168.469881 151.986213 
L 168.80676 135.344857 
L 169.14364 129.432483 
L 169.480519 167.042907 
L 169.817399 139.046288 
L 170.154279 167.677395 
L 170.491158 144.683538 
L 170.828038 134.648692 
L 171.164917 145.683006 
L 171.501797 160.660162 
L 171.838676 155.697515 
L 172.175556 152.430798 
L 172.512436 151.766248 
L 172.849315 152.35522 
L 173.186195 151.931688 
L 173.523074 149.105488 
L 173.859954 163.438874 
L 174.196833 155.665615 
L 174.533713 137.762375 
L 174.870592 155.368848 
L 175.207472 158.136898 
L 175.544352 143.649097 
L 175.881231 178.877862 
L 176.218111 145.504209 
L 176.55499 160.645419 
L 176.89187 154.616275 
L 177.228749 155.074748 
L 177.565629 147.065312 
L 177.902508 158.707326 
L 178.239388 164.335672 
L 178.576268 145.562327 
L 178.913147 180.561608 
L 179.250027 160.639806 
L 179.586906 172.641106 
L 179.923786 168.338788 
L 180.260665 140.598079 
L 180.597545 158.657064 
L 180.934424 158.400613 
L 181.271304 178.406696 
L 181.945063 160.490796 
L 182.618822 155.703828 
L 182.955702 161.807563 
L 183.292581 157.535481 
L 183.629461 158.118922 
L 183.966341 181.221848 
L 184.30322 165.186268 
L 184.6401 156.556822 
L 184.976979 157.725107 
L 185.313859 167.602012 
L 185.987618 177.157398 
L 186.324497 167.93594 
L 186.661377 154.633241 
L 186.998257 184.282255 
L 187.335136 174.576862 
L 187.672016 178.597317 
L 188.008895 160.00576 
L 188.345775 171.693736 
L 188.682654 172.214351 
L 189.019534 169.916374 
L 189.356413 163.255089 
L 189.693293 171.109381 
L 190.030173 198.516566 
L 190.367052 165.618326 
L 190.703932 163.514832 
L 191.040811 170.011496 
L 191.377691 179.414729 
L 191.71457 166.164385 
L 192.05145 164.685422 
L 192.388329 173.1191 
L 192.725209 171.54303 
L 193.062089 178.598922 
L 193.398968 171.903072 
L 193.735848 184.998793 
L 193.735848 184.998793 
" style="fill:none;stroke:#ff0000;stroke-linecap:square;stroke-width:1.5;"/>
   </g>
   <g id="patch_3">
    <path d="M 13.32 209.88 
L 13.32 26.88 
" style="fill:none;stroke:#000000;stroke-linecap:square;stroke-linejoin:miter;stroke-width:0.8;"/>
   </g>
   <g id="patch_4">
    <path d="M 202.68 209.88 
L 202.68 26.88 
" style="fill:none;stroke:#000000;stroke-linecap:square;stroke-linejoin:miter;stroke-width:0.8;"/>
   </g>
   <g id="patch_5">
    <path d="M 13.32 209.88 
L 202.68 209.88 
" style="fill:none;stroke:#000000;stroke-linecap:square;stroke-linejoin:miter;stroke-width:0.8;"/>
   </g>
   <g id="patch_6">
    <path d="M 13.32 26.88 
L 202.68 26.88 
" style="fill:none;stroke:#000000;stroke-linecap:square;stroke-linejoin:miter;stroke-width:0.8;"/>
   </g>
   <g id="text_1">
    <!-- EMA: 0.1 -->
    <defs>
     <path d="M 9.8125 72.90625 
L 55.90625 72.90625 
L 55.90625 64.59375 
L 19.671875 64.59375 
L 19.671875 43.015625 
L 54.390625 43.015625 
L 54.390625 34.71875 
L 19.671875 34.71875 
L 19.671875 8.296875 
L 56.78125 8.296875 
L 56.78125 0 
L 9.8125 0 
z
" id="DejaVuSans-69"/>
     <path d="M 9.8125 72.90625 
L 24.515625 72.90625 
L 43.109375 23.296875 
L 61.8125 72.90625 
L 76.515625 72.90625 
L 76.515625 0 
L 66.890625 0 
L 66.890625 64.015625 
L 48.09375 14.015625 
L 38.1875 14.015625 
L 19.390625 64.015625 
L 19.390625 0 
L 9.8125 0 
z
" id="DejaVuSans-77"/>
     <path d="M 34.1875 63.1875 
L 20.796875 26.90625 
L 47.609375 26.90625 
z
M 28.609375 72.90625 
L 39.796875 72.90625 
L 67.578125 0 
L 57.328125 0 
L 50.6875 18.703125 
L 17.828125 18.703125 
L 11.1875 0 
L 0.78125 0 
z
" id="DejaVuSans-65"/>
     <path d="M 11.71875 12.40625 
L 22.015625 12.40625 
L 22.015625 0 
L 11.71875 0 
z
M 11.71875 51.703125 
L 22.015625 51.703125 
L 22.015625 39.3125 
L 11.71875 39.3125 
z
" id="DejaVuSans-58"/>
     <path id="DejaVuSans-32"/>
     <path d="M 31.78125 66.40625 
Q 24.171875 66.40625 20.328125 58.90625 
Q 16.5 51.421875 16.5 36.375 
Q 16.5 21.390625 20.328125 13.890625 
Q 24.171875 6.390625 31.78125 6.390625 
Q 39.453125 6.390625 43.28125 13.890625 
Q 47.125 21.390625 47.125 36.375 
Q 47.125 51.421875 43.28125 58.90625 
Q 39.453125 66.40625 31.78125 66.40625 
z
M 31.78125 74.21875 
Q 44.046875 74.21875 50.515625 64.515625 
Q 56.984375 54.828125 56.984375 36.375 
Q 56.984375 17.96875 50.515625 8.265625 
Q 44.046875 -1.421875 31.78125 -1.421875 
Q 19.53125 -1.421875 13.0625 8.265625 
Q 6.59375 17.96875 6.59375 36.375 
Q 6.59375 54.828125 13.0625 64.515625 
Q 19.53125 74.21875 31.78125 74.21875 
z
" id="DejaVuSans-48"/>
     <path d="M 10.6875 12.40625 
L 21 12.40625 
L 21 0 
L 10.6875 0 
z
" id="DejaVuSans-46"/>
     <path d="M 12.40625 8.296875 
L 28.515625 8.296875 
L 28.515625 63.921875 
L 10.984375 60.40625 
L 10.984375 69.390625 
L 28.421875 72.90625 
L 38.28125 72.90625 
L 38.28125 8.296875 
L 54.390625 8.296875 
L 54.390625 0 
L 12.40625 0 
z
" id="DejaVuSans-49"/>
    </defs>
    <g transform="translate(81.458438 20.88)scale(0.12 -0.12)">
     <use xlink:href="#DejaVuSans-69"/>
     <use x="63.183594" xlink:href="#DejaVuSans-77"/>
     <use x="149.462891" xlink:href="#DejaVuSans-65"/>
     <use x="217.855469" xlink:href="#DejaVuSans-58"/>
     <use x="251.546875" xlink:href="#DejaVuSans-32"/>
     <use x="283.333984" xlink:href="#DejaVuSans-48"/>
     <use x="346.957031" xlink:href="#DejaVuSans-46"/>
     <use x="378.744141" xlink:href="#DejaVuSans-49"/>
    </g>
   </g>
  </g>
  <g id="axes_2">
   <g id="patch_7">
    <path d="M 13.32 422.28 
L 202.68 422.28 
L 202.68 239.28 
L 13.32 239.28 
z
" style="fill:#ffffff;"/>
   </g>
   <g id="matplotlib.axis_3"/>
   <g id="matplotlib.axis_4"/>
   <g id="line2d_3">
    <path clip-path="url(#pc2179d26ba)" d="M 21.927273 369.993262 
L 22.264152 386.047393 
L 22.601032 367.933301 
L 22.937911 379.059081 
L 23.274791 370.427871 
L 23.611671 377.174469 
L 23.94855 373.161219 
L 24.28543 380.732693 
L 24.622309 360.914521 
L 24.959189 379.139346 
L 25.296068 375.928743 
L 25.632948 359.348028 
L 25.969827 394.96704 
L 26.306707 393.925908 
L 26.643587 368.916997 
L 26.980466 392.45534 
L 27.317346 357.716745 
L 27.654225 383.619583 
L 27.991105 387.097047 
L 28.327984 357.282143 
L 28.664864 361.948437 
L 29.001743 357.417553 
L 29.338623 367.820866 
L 29.675503 387.144466 
L 30.012382 356.176375 
L 30.349262 380.037422 
L 30.686141 367.899688 
L 31.023021 366.010902 
L 31.3599 377.931963 
L 31.69678 369.112697 
L 32.033659 365.393866 
L 32.370539 371.129132 
L 32.707419 387.162092 
L 33.381178 359.629153 
L 33.718057 381.682038 
L 34.054937 375.299843 
L 34.391816 378.112138 
L 34.728696 352.444585 
L 35.065576 365.120881 
L 35.402455 367.68492 
L 35.739335 380.353186 
L 36.076214 365.465757 
L 36.413094 378.522791 
L 36.749973 370.304038 
L 37.086853 377.300612 
L 37.423732 362.354406 
L 37.760612 363.047782 
L 38.097492 371.325219 
L 38.434371 364.205345 
L 38.771251 380.27311 
L 39.10813 384.248931 
L 39.44501 362.416824 
L 39.781889 364.991206 
L 40.118769 359.349368 
L 40.455648 339.52311 
L 41.129408 375.108158 
L 41.466287 352.144568 
L 41.803167 378.620666 
L 42.140046 368.670801 
L 42.476926 363.823268 
L 42.813805 343.58981 
L 43.150685 370.324705 
L 43.487564 370.725419 
L 43.824444 362.150661 
L 44.161324 367.897024 
L 44.498203 347.545119 
L 44.835083 371.469613 
L 45.171962 371.690354 
L 45.508842 363.295886 
L 45.845721 363.426684 
L 46.182601 335.990035 
L 47.19324 369.29852 
L 47.530119 345.80933 
L 47.866999 365.685319 
L 48.203878 371.153963 
L 48.540758 340.307596 
L 48.877637 349.386601 
L 49.214517 342.119808 
L 49.551397 348.211825 
L 49.888276 341.667258 
L 50.225156 357.787408 
L 50.562035 361.443921 
L 50.898915 341.840903 
L 51.235794 357.698291 
L 51.572674 355.83814 
L 51.909553 352.643767 
L 52.246433 346.798609 
L 52.583313 350.307086 
L 52.920192 361.008786 
L 53.257072 352.293489 
L 53.593951 369.181543 
L 53.930831 337.002769 
L 54.26771 361.060006 
L 54.60459 354.923916 
L 54.941469 341.485687 
L 55.278349 349.631162 
L 55.615229 323.713053 
L 55.952108 354.502541 
L 56.288988 336.587439 
L 56.625867 339.347485 
L 56.962747 351.218446 
L 57.299626 331.841819 
L 57.636506 338.901375 
L 57.973386 327.809642 
L 58.310265 326.595279 
L 58.647145 311.109176 
L 58.984024 319.624866 
L 59.320904 337.878352 
L 59.657783 335.794437 
L 59.994663 320.312 
L 60.331542 324.58823 
L 60.668422 324.107771 
L 61.005302 348.466308 
L 61.342181 330.171637 
L 61.679061 337.429429 
L 62.01594 325.50107 
L 62.35282 329.039696 
L 62.689699 317.217591 
L 63.026579 323.136811 
L 63.363458 317.288915 
L 63.700338 330.518334 
L 64.037218 335.164499 
L 64.710977 323.589904 
L 65.047856 318.551585 
L 65.384736 297.072113 
L 65.721615 321.924425 
L 66.058495 331.400571 
L 66.395374 323.996354 
L 66.732254 324.654203 
L 67.069134 313.539039 
L 67.406013 335.301598 
L 67.742893 316.887573 
L 68.416652 313.736043 
L 68.753531 322.288534 
L 69.090411 317.670317 
L 69.427291 330.177366 
L 69.76417 319.232292 
L 70.10105 319.149997 
L 70.437929 307.8965 
L 70.774809 324.688624 
L 71.111688 302.598279 
L 71.448568 294.072354 
L 71.785447 332.943783 
L 72.122327 304.668251 
L 72.459207 301.275042 
L 72.796086 315.223575 
L 73.469845 308.413848 
L 73.806725 309.635269 
L 74.143604 309.156738 
L 74.480484 323.702267 
L 74.817363 291.768944 
L 75.154243 291.980671 
L 75.491123 312.363116 
L 75.828002 319.011155 
L 76.164882 296.406717 
L 76.501761 307.978446 
L 76.838641 299.448978 
L 77.17552 303.985974 
L 77.5124 292.216031 
L 77.849279 291.614072 
L 78.186159 306.788114 
L 78.523039 313.517072 
L 78.859918 315.173469 
L 79.196798 290.321998 
L 79.533677 309.709898 
L 79.870557 301.610777 
L 80.207436 302.064141 
L 80.544316 295.50584 
L 80.881196 315.846815 
L 81.218075 291.777346 
L 81.554955 287.544011 
L 82.228714 295.765835 
L 82.902473 286.89218 
L 83.239352 321.535458 
L 83.576232 268.654567 
L 83.913112 285.516264 
L 84.249991 296.585004 
L 84.586871 293.211802 
L 84.92375 282.938687 
L 85.26063 289.229537 
L 85.597509 309.981473 
L 85.934389 264.154112 
L 86.271268 287.802634 
L 86.608148 274.830897 
L 86.945028 293.362895 
L 87.281907 268.240395 
L 87.618787 281.663 
L 87.955666 277.668613 
L 88.292546 295.579656 
L 88.629425 270.170519 
L 88.966305 275.542977 
L 89.303184 268.364516 
L 89.640064 289.35563 
L 89.976944 287.340947 
L 90.313823 256.106185 
L 90.650703 293.003732 
L 90.987582 282.398959 
L 91.324462 267.93629 
L 91.661341 279.095741 
L 91.998221 273.372188 
L 92.335101 283.915641 
L 92.67198 275.055475 
L 93.00886 293.303151 
L 93.345739 260.135126 
L 93.682619 279.500835 
L 94.019498 285.419708 
L 94.356378 270.199392 
L 95.030137 291.783425 
L 95.367017 291.640776 
L 95.703896 268.759514 
L 96.040776 277.947281 
L 96.377655 277.400787 
L 96.714535 263.725827 
L 97.051414 287.905438 
L 98.062053 273.680817 
L 98.398933 274.976185 
L 98.735812 277.477482 
L 99.072692 274.778946 
L 99.409571 275.08954 
L 99.746451 281.685263 
L 100.08333 282.539075 
L 100.42021 270.316553 
L 100.757089 283.062714 
L 101.093969 285.855956 
L 101.430849 276.341787 
L 101.767728 274.484717 
L 102.104608 247.598182 
L 102.441487 280.280109 
L 102.778367 261.900151 
L 103.115246 263.958553 
L 103.452126 285.303373 
L 103.789006 263.464427 
L 104.462765 301.318635 
L 104.799644 265.062633 
L 105.136524 291.165977 
L 105.473403 266.654593 
L 105.810283 279.175745 
L 106.147162 253.164619 
L 106.484042 259.674859 
L 106.820922 276.506059 
L 107.157801 279.080745 
L 107.494681 284.895912 
L 107.83156 276.322156 
L 108.16844 274.543163 
L 108.505319 275.485218 
L 109.179078 265.073109 
L 109.515958 267.639365 
L 109.852838 280.017787 
L 110.189717 287.527208 
L 110.526597 256.53245 
L 110.863476 279.350409 
L 111.200356 279.007355 
L 111.537235 277.630992 
L 111.874115 292.360457 
L 112.210994 277.327315 
L 112.547874 277.44485 
L 112.884754 265.363758 
L 113.221633 264.612436 
L 113.558513 272.430649 
L 113.895392 262.27705 
L 114.232272 268.971235 
L 114.569151 273.055514 
L 114.906031 271.25012 
L 115.242911 275.304212 
L 115.57979 277.732749 
L 115.91667 276.497908 
L 116.253549 286.210182 
L 116.590429 270.793523 
L 116.927308 285.099409 
L 117.264188 264.974135 
L 117.601067 277.27281 
L 117.937947 274.177802 
L 118.274827 269.47916 
L 118.611706 268.054597 
L 118.948586 292.822465 
L 119.622345 266.167564 
L 119.959224 294.99335 
L 120.296104 272.15528 
L 120.632983 301.710285 
L 121.306743 276.860147 
L 121.643622 295.938007 
L 121.980502 288.80262 
L 122.317381 294.498745 
L 122.654261 260.245873 
L 122.99114 277.008021 
L 123.32802 272.870229 
L 123.664899 281.957086 
L 124.001779 283.746809 
L 124.338659 298.088099 
L 124.675538 283.765797 
L 125.012418 289.329616 
L 125.349297 271.754043 
L 126.023056 265.762574 
L 126.359936 272.950981 
L 126.696816 289.420985 
L 127.033695 295.54928 
L 127.370575 275.09513 
L 127.707454 280.051316 
L 128.044334 304.008666 
L 128.381213 280.896989 
L 128.718093 276.238165 
L 129.054972 285.042511 
L 129.391852 288.184124 
L 130.065611 303.054314 
L 130.402491 278.615787 
L 130.73937 291.367984 
L 131.07625 290.995745 
L 131.413129 269.682688 
L 131.750009 281.7728 
L 132.423768 288.751006 
L 132.760648 273.976012 
L 133.097527 272.26131 
L 133.434407 281.516585 
L 133.771286 285.870673 
L 134.108166 316.039585 
L 134.445045 291.977659 
L 134.781925 295.310418 
L 135.118804 293.35298 
L 135.455684 284.475006 
L 135.792564 325.811393 
L 136.129443 302.303194 
L 136.466323 293.547621 
L 137.140082 313.333926 
L 137.476961 288.562556 
L 137.813841 295.68132 
L 138.150721 310.07079 
L 138.4876 296.389893 
L 138.82448 291.34529 
L 139.161359 300.963099 
L 139.498239 292.729235 
L 140.508877 316.197224 
L 140.845757 304.894299 
L 141.182637 302.38347 
L 141.519516 295.429359 
L 141.856396 307.008374 
L 142.193275 301.268008 
L 142.530155 317.628963 
L 142.867034 316.22113 
L 143.203914 309.384184 
L 143.540793 320.459488 
L 143.877673 300.303074 
L 144.214553 304.878296 
L 144.551432 307.538175 
L 144.888312 307.498647 
L 145.225191 289.486755 
L 145.89895 337.526125 
L 146.23583 311.558453 
L 146.572709 314.960234 
L 147.246469 326.515491 
L 147.920228 314.93867 
L 148.257107 323.159406 
L 148.593987 291.501814 
L 148.930866 329.515427 
L 149.267746 328.305114 
L 149.604626 345.519688 
L 149.941505 318.022935 
L 150.278385 343.796886 
L 150.615264 328.080832 
L 150.952144 325.806646 
L 151.289023 331.264713 
L 151.625903 304.785029 
L 151.962782 313.68324 
L 152.299662 310.735383 
L 152.636542 335.777686 
L 152.973421 314.147225 
L 153.310301 321.806449 
L 153.98406 317.196876 
L 154.320939 339.321047 
L 154.657819 334.603317 
L 154.994698 320.994272 
L 155.331578 360.622826 
L 155.668458 315.081362 
L 156.005337 326.367216 
L 156.342217 333.648625 
L 156.679096 331.344925 
L 157.015976 345.843942 
L 157.352855 338.953783 
L 157.689735 323.528711 
L 158.026614 321.979296 
L 158.363494 307.128099 
L 158.700374 338.458473 
L 159.037253 345.573025 
L 159.374133 344.609675 
L 159.711012 350.82554 
L 160.047892 341.041004 
L 160.384771 336.568324 
L 160.721651 341.816607 
L 161.058531 329.916743 
L 161.39541 345.282951 
L 161.73229 347.159669 
L 162.069169 350.370107 
L 162.406049 362.63616 
L 162.742928 362.532542 
L 163.079808 358.839507 
L 163.416687 331.965946 
L 163.753567 337.07329 
L 164.090447 332.362899 
L 164.427326 362.95847 
L 164.764206 370.608215 
L 165.101085 356.705636 
L 165.437965 348.03712 
L 165.774844 345.049206 
L 166.111724 339.549517 
L 166.448603 348.593489 
L 166.785483 333.014618 
L 167.122363 355.364492 
L 167.796122 372.66572 
L 168.133001 364.452798 
L 168.469881 352.481865 
L 168.80676 365.567905 
L 169.14364 345.895818 
L 169.480519 341.175552 
L 169.817399 383.621845 
L 170.154279 348.335554 
L 170.491158 383.258635 
L 170.828038 354.528667 
L 171.164917 345.933708 
L 171.838676 374.724293 
L 172.175556 367.54611 
L 172.512436 364.467831 
L 172.849315 364.092412 
L 173.186195 364.820662 
L 173.523074 364.284629 
L 173.859954 361.191466 
L 174.196833 377.431469 
L 174.533713 367.201921 
L 174.870592 348.173128 
L 175.207472 369.725123 
L 175.544352 370.844461 
L 175.881231 354.43934 
L 176.218111 395.192174 
L 176.55499 354.196028 
L 176.89187 374.727776 
L 177.228749 366.346371 
L 177.565629 367.525689 
L 177.902508 358.575372 
L 178.239388 372.400881 
L 178.576268 377.361048 
L 178.913147 355.876399 
L 179.250027 396.850413 
L 179.586906 370.826275 
L 179.923786 386.374586 
L 180.260665 380.260754 
L 180.597545 349.915779 
L 180.934424 373.063619 
L 181.271304 370.772121 
L 181.608184 393.029592 
L 182.281943 371.808874 
L 182.618822 370.394244 
L 182.955702 367.821598 
L 183.292581 374.88576 
L 183.629461 369.460806 
L 183.966341 370.583747 
L 184.30322 396.18884 
L 184.6401 375.804536 
L 184.976979 367.997994 
L 185.313859 370.254916 
L 185.650738 381.099446 
L 186.324497 389.992836 
L 186.998257 365.555166 
L 187.335136 399.976591 
L 187.672016 385.898482 
L 188.008895 391.444037 
L 188.345775 370.340033 
L 188.682654 385.392408 
L 189.019534 384.672195 
L 189.356413 382.061044 
L 189.693293 374.914947 
L 190.030173 384.382079 
L 190.367052 413.961818 
L 190.703932 374.36297 
L 191.040811 375.681112 
L 191.71457 392.85954 
L 192.05145 377.092125 
L 192.388329 376.921092 
L 192.725209 386.456178 
L 193.062089 383.767912 
L 193.398968 391.78291 
L 193.735848 383.559087 
L 194.072727 398.853872 
L 194.072727 398.853872 
" style="fill:none;stroke:#0000ff;stroke-linecap:square;stroke-width:1.5;"/>
   </g>
   <g id="line2d_4">
    <path clip-path="url(#pc2179d26ba)" d="M 21.927273 378.020327 
L 22.264152 372.976815 
L 22.601032 376.017948 
L 22.937911 373.222908 
L 23.274791 375.19869 
L 23.611671 374.179952 
L 23.94855 377.456324 
L 24.28543 369.185421 
L 24.622309 374.162386 
L 24.959189 375.045566 
L 25.296068 367.196795 
L 25.632948 381.081918 
L 25.969827 387.503916 
L 26.306707 378.210458 
L 26.643587 385.332897 
L 26.980466 371.524821 
L 27.654225 382.334627 
L 27.991105 369.808383 
L 28.664864 361.647979 
L 29.001743 364.734421 
L 29.338623 375.939444 
L 29.675503 366.05791 
L 30.012382 373.047668 
L 30.686141 368.242288 
L 31.023021 373.087126 
L 31.3599 371.099913 
L 31.69678 368.246888 
L 32.033659 369.688008 
L 32.370539 378.425051 
L 32.707419 374.888546 
L 33.044298 367.258851 
L 33.381178 374.470443 
L 33.718057 374.885145 
L 34.054937 376.498639 
L 34.391816 364.471614 
L 34.728696 364.796246 
L 35.065576 366.240583 
L 35.402455 373.296884 
L 35.739335 369.381321 
L 36.076214 373.952056 
L 36.413094 372.128048 
L 36.749973 374.71433 
L 37.086853 368.534367 
L 37.423732 365.791075 
L 37.760612 368.558147 
L 38.097492 366.381747 
L 38.771251 378.78818 
L 39.10813 370.602504 
L 39.44501 367.796855 
L 39.781889 363.573113 
L 40.118769 351.548112 
L 40.455648 353.27364 
L 40.792528 364.190897 
L 41.129408 358.167733 
L 41.466287 368.3942 
L 41.803167 368.532501 
L 42.140046 366.177886 
L 42.476926 354.883849 
L 42.813805 362.604277 
L 43.150685 366.664848 
L 43.487564 364.407755 
L 43.824444 366.152388 
L 44.161324 356.848754 
L 44.498203 364.159185 
L 44.835083 367.924771 
L 45.171962 365.61033 
L 45.508842 364.518508 
L 45.845721 350.254271 
L 46.182601 348.279285 
L 46.519481 351.79183 
L 46.85636 360.545175 
L 47.19324 353.177254 
L 47.866999 365.292625 
L 48.203878 352.800111 
L 48.540758 351.093357 
L 48.877637 346.606583 
L 49.214517 347.409203 
L 49.551397 344.53823 
L 50.225156 356.303368 
L 50.562035 349.072135 
L 50.898915 353.385213 
L 51.235794 354.611678 
L 51.572674 353.627723 
L 51.909553 350.213165 
L 52.246433 350.260125 
L 52.583313 355.634457 
L 52.920192 353.963973 
L 53.257072 361.572758 
L 53.593951 349.287763 
L 53.930831 355.173884 
L 54.26771 355.048899 
L 54.60459 348.267294 
L 54.941469 348.949228 
L 55.278349 336.33114 
L 55.615229 345.416841 
L 55.952108 341.00214 
L 56.288988 340.174812 
L 56.625867 345.696628 
L 56.962747 338.769224 
L 57.299626 338.835299 
L 57.636506 333.322471 
L 57.973386 329.958875 
L 58.310265 320.534026 
L 58.647145 320.079446 
L 58.984024 328.978899 
L 59.320904 332.386668 
L 59.657783 326.349334 
L 60.331542 324.788276 
L 60.668422 336.627292 
L 61.005302 333.399465 
L 61.342181 335.414447 
L 61.679061 330.457758 
L 62.01594 329.748727 
L 62.35282 323.483159 
L 62.689699 323.309985 
L 63.026579 320.29945 
L 63.700338 330.286696 
L 64.037218 329.440285 
L 64.374097 326.515095 
L 64.710977 322.53334 
L 65.047856 309.802725 
L 65.721615 323.632073 
L 66.058495 323.814213 
L 66.395374 324.234208 
L 66.732254 318.886623 
L 67.069134 327.094111 
L 67.406013 321.990842 
L 68.079772 316.169181 
L 68.416652 319.228857 
L 68.753531 318.449587 
L 69.090411 324.313477 
L 69.427291 321.772885 
L 69.76417 320.461441 
L 70.10105 314.178971 
L 70.437929 319.433797 
L 71.111688 302.544197 
L 71.448568 317.74399 
L 72.122327 306.240581 
L 72.459207 310.732078 
L 72.796086 311.341834 
L 73.132966 309.877841 
L 73.469845 309.756554 
L 73.806725 309.456647 
L 74.143604 316.579457 
L 74.480484 304.174201 
L 74.817363 298.077437 
L 75.491123 312.115717 
L 75.828002 304.261217 
L 76.164882 306.119831 
L 76.501761 302.784404 
L 76.838641 303.385189 
L 77.17552 297.80061 
L 77.5124 294.707343 
L 78.523039 311.152934 
L 78.859918 300.737466 
L 79.196798 305.223683 
L 79.533677 303.417231 
L 79.870557 302.740685 
L 80.207436 299.123264 
L 80.544316 307.485039 
L 81.218075 293.587603 
L 81.554955 292.720249 
L 81.891834 294.243042 
L 82.228714 292.489441 
L 82.565593 289.690808 
L 82.902473 305.613132 
L 83.239352 287.133851 
L 83.576232 286.32506 
L 83.913112 291.455032 
L 84.249991 292.333418 
L 84.586871 287.636051 
L 84.92375 288.432793 
L 85.26063 299.207133 
L 85.597509 281.680622 
L 85.934389 284.741626 
L 86.271268 279.786263 
L 86.608148 286.57458 
L 86.945028 277.407487 
L 87.281907 279.535244 
L 87.618787 278.601927 
L 87.955666 287.09079 
L 88.292546 278.630654 
L 88.629425 277.086817 
L 88.966305 272.725666 
L 89.303184 281.040646 
L 89.640064 284.190798 
L 89.976944 270.148487 
L 90.313823 281.57611 
L 90.650703 281.987533 
L 90.987582 274.96191 
L 91.324462 277.028825 
L 91.661341 275.200504 
L 91.998221 279.558073 
L 92.335101 277.306772 
L 92.67198 285.304962 
L 93.00886 272.720042 
L 93.345739 276.110437 
L 93.682619 280.765073 
L 94.019498 275.482231 
L 94.356378 278.937449 
L 94.693257 285.360437 
L 95.030137 288.500608 
L 95.367017 278.630063 
L 96.040776 277.844729 
L 96.377655 270.785277 
L 96.714535 279.345356 
L 97.051414 281.311506 
L 97.388294 280.263174 
L 97.725173 276.971996 
L 98.062053 275.97409 
L 98.398933 276.725784 
L 98.735812 275.752366 
L 99.072692 275.420954 
L 99.409571 278.553111 
L 99.746451 280.546093 
L 100.08333 275.431322 
L 100.757089 282.551486 
L 101.430849 276.965676 
L 101.767728 262.281932 
L 102.104608 271.281022 
L 102.441487 266.590586 
L 102.778367 265.274569 
L 103.115246 275.28897 
L 103.452126 269.376694 
L 103.789006 277.216854 
L 104.125885 289.267745 
L 104.462765 277.165188 
L 104.799644 284.165585 
L 105.136524 275.410088 
L 105.473403 277.292917 
L 105.810283 265.228771 
L 106.147162 262.451816 
L 106.820922 274.279841 
L 107.157801 279.587876 
L 107.83156 276.249091 
L 108.16844 275.867157 
L 108.842199 268.934269 
L 109.179078 268.28682 
L 109.852838 280.839756 
L 110.189717 268.686102 
L 110.526597 274.018255 
L 110.863476 276.512803 
L 111.200356 277.071899 
L 111.537235 284.716178 
L 111.874115 281.021746 
L 112.210994 279.233295 
L 112.547874 272.298528 
L 112.884754 268.455482 
L 113.221633 270.443065 
L 113.558513 266.360058 
L 113.895392 267.665648 
L 114.232272 270.360583 
L 114.569151 270.805353 
L 115.242911 275.393766 
L 115.57979 275.945835 
L 115.91667 281.07801 
L 116.253549 275.935768 
L 116.590429 280.517587 
L 116.927308 272.74586 
L 117.264188 275.009336 
L 117.601067 274.59357 
L 118.274827 270.04548 
L 118.611706 281.433972 
L 118.948586 279.696483 
L 119.285465 272.932023 
L 119.622345 283.962688 
L 119.959224 278.058984 
L 120.296104 289.884635 
L 120.632983 289.107014 
L 120.969863 282.98358 
L 121.306743 289.460796 
L 121.643622 289.131706 
L 121.980502 291.815223 
L 122.317381 276.030546 
L 122.654261 276.519281 
L 122.99114 274.694754 
L 123.664899 281.036363 
L 124.001779 289.562231 
L 124.338659 286.664016 
L 124.675538 287.996816 
L 125.349297 274.432472 
L 125.686177 270.097525 
L 126.023056 271.524252 
L 126.696816 288.010949 
L 127.033695 281.553039 
L 127.370575 280.802177 
L 127.707454 292.405423 
L 128.381213 281.444683 
L 128.718093 283.243597 
L 129.054972 285.713859 
L 129.728732 296.83717 
L 130.065611 287.726477 
L 130.402491 289.54723 
L 130.73937 290.271485 
L 131.07625 279.977088 
L 131.413129 280.874942 
L 132.086888 286.026674 
L 132.423768 280.001344 
L 132.760648 276.131325 
L 133.434407 282.347312 
L 133.771286 299.193449 
L 134.108166 295.585554 
L 134.445045 295.447985 
L 134.781925 294.400482 
L 135.118804 289.437742 
L 135.455684 307.624568 
L 135.792564 304.963881 
L 136.129443 299.25575 
L 136.466323 300.756396 
L 136.803202 307.045161 
L 137.140082 297.803859 
L 137.476961 296.742589 
L 137.813841 303.406689 
L 138.4876 295.621792 
L 138.82448 298.292445 
L 139.161359 295.510841 
L 139.498239 298.41179 
L 139.835118 302.777353 
L 140.171998 309.487289 
L 140.845757 304.787132 
L 141.182637 300.108245 
L 141.519516 303.558309 
L 141.856396 302.413159 
L 142.193275 310.02106 
L 142.530155 313.121095 
L 142.867034 311.252639 
L 143.203914 315.856063 
L 143.540793 308.079569 
L 143.877673 306.478933 
L 144.214553 307.008554 
L 144.551432 307.2536 
L 144.888312 298.370179 
L 145.225191 308.035515 
L 145.562071 322.78082 
L 145.89895 317.169637 
L 146.23583 316.064936 
L 146.572709 318.416517 
L 146.909589 322.466004 
L 147.246469 321.820227 
L 147.583348 318.379449 
L 147.920228 320.769427 
L 148.257107 306.13562 
L 148.593987 317.825524 
L 148.930866 323.065319 
L 149.267746 334.292503 
L 149.604626 326.157719 
L 149.941505 334.977303 
L 150.615264 328.667857 
L 150.952144 329.966285 
L 151.289023 317.375657 
L 151.962782 313.132416 
L 152.299662 324.455051 
L 152.636542 319.301138 
L 152.973421 320.553794 
L 153.310301 319.979648 
L 153.64718 318.588262 
L 153.98406 328.954655 
L 154.320939 331.778986 
L 154.657819 326.386629 
L 154.994698 343.504728 
L 155.331578 329.293045 
L 155.668458 327.830131 
L 156.005337 330.739378 
L 156.342217 331.042151 
L 156.679096 338.443046 
L 157.015976 338.698414 
L 157.352855 331.113562 
L 157.689735 326.546429 
L 158.026614 316.837264 
L 158.700374 336.610447 
L 159.374133 345.7178 
L 159.711012 343.379402 
L 160.047892 339.973863 
L 160.384771 340.895235 
L 160.721651 335.405989 
L 161.39541 343.752069 
L 161.73229 347.061087 
L 162.069169 354.848624 
L 162.406049 358.690584 
L 162.742928 358.765045 
L 163.079808 345.365496 
L 163.753567 336.791146 
L 164.427326 360.241513 
L 164.764206 358.473574 
L 165.774844 344.350897 
L 166.111724 346.472193 
L 166.448603 339.743406 
L 167.459242 364.118024 
L 167.796122 364.285412 
L 168.133001 358.383636 
L 168.469881 361.975772 
L 169.14364 347.555673 
L 169.480519 365.588759 
L 169.817399 356.962156 
L 170.154279 370.110394 
L 170.828038 354.126618 
L 171.164917 356.71783 
L 171.501797 365.721061 
L 171.838676 366.633585 
L 172.512436 364.821559 
L 172.849315 364.82111 
L 173.186195 364.552868 
L 173.523074 362.872166 
L 173.859954 370.151817 
L 174.196833 368.676868 
L 174.533713 358.424996 
L 174.870592 364.075059 
L 175.207472 367.459761 
L 175.544352 360.949552 
L 175.881231 378.070863 
L 176.218111 366.133445 
L 176.55499 370.430612 
L 176.89187 368.388491 
L 177.228749 367.957091 
L 177.565629 363.266232 
L 178.239388 372.597305 
L 178.576268 364.236853 
L 178.913147 380.543634 
L 179.250027 375.684955 
L 179.586906 381.029771 
L 179.923786 380.645261 
L 180.260665 365.280521 
L 180.597545 369.172068 
L 180.934424 369.972093 
L 181.271304 381.500844 
L 181.608184 381.610111 
L 181.945063 376.709494 
L 182.618822 370.686736 
L 182.955702 372.786247 
L 183.292581 371.123528 
L 183.629461 370.853638 
L 183.966341 383.521241 
L 184.30322 379.662891 
L 184.6401 373.830443 
L 184.976979 372.04268 
L 185.987618 385.705362 
L 186.324497 382.508348 
L 186.661377 374.031755 
L 186.998257 387.004175 
L 187.335136 386.451327 
L 187.672016 388.947677 
L 188.008895 379.643855 
L 188.345775 382.518128 
L 188.682654 383.595158 
L 189.019534 382.8281 
L 189.356413 378.871524 
L 189.693293 381.626802 
L 190.030173 397.794311 
L 190.367052 386.078638 
L 190.703932 380.879876 
L 191.040811 382.006613 
L 191.377691 387.433076 
L 191.71457 382.262599 
L 192.05145 379.591847 
L 192.388329 383.024017 
L 192.725209 383.395966 
L 193.062089 387.589436 
L 193.398968 385.574262 
L 193.735848 392.214064 
L 193.735848 392.214064 
" style="fill:none;stroke:#ff0000;stroke-linecap:square;stroke-width:1.5;"/>
   </g>
   <g id="patch_8">
    <path d="M 13.32 422.28 
L 13.32 239.28 
" style="fill:none;stroke:#000000;stroke-linecap:square;stroke-linejoin:miter;stroke-width:0.8;"/>
   </g>
   <g id="patch_9">
    <path d="M 202.68 422.28 
L 202.68 239.28 
" style="fill:none;stroke:#000000;stroke-linecap:square;stroke-linejoin:miter;stroke-width:0.8;"/>
   </g>
   <g id="patch_10">
    <path d="M 13.32 422.28 
L 202.68 422.28 
" style="fill:none;stroke:#000000;stroke-linecap:square;stroke-linejoin:miter;stroke-width:0.8;"/>
   </g>
   <g id="patch_11">
    <path d="M 13.32 239.28 
L 202.68 239.28 
" style="fill:none;stroke:#000000;stroke-linecap:square;stroke-linejoin:miter;stroke-width:0.8;"/>
   </g>
   <g id="text_2">
    <!-- EMA: 0.5 -->
    <defs>
     <path d="M 10.796875 72.90625 
L 49.515625 72.90625 
L 49.515625 64.59375 
L 19.828125 64.59375 
L 19.828125 46.734375 
Q 21.96875 47.46875 24.109375 47.828125 
Q 26.265625 48.1875 28.421875 48.1875 
Q 40.625 48.1875 47.75 41.5 
Q 54.890625 34.8125 54.890625 23.390625 
Q 54.890625 11.625 47.5625 5.09375 
Q 40.234375 -1.421875 26.90625 -1.421875 
Q 22.3125 -1.421875 17.546875 -0.640625 
Q 12.796875 0.140625 7.71875 1.703125 
L 7.71875 11.625 
Q 12.109375 9.234375 16.796875 8.0625 
Q 21.484375 6.890625 26.703125 6.890625 
Q 35.15625 6.890625 40.078125 11.328125 
Q 45.015625 15.765625 45.015625 23.390625 
Q 45.015625 31 40.078125 35.4375 
Q 35.15625 39.890625 26.703125 39.890625 
Q 22.75 39.890625 18.8125 39.015625 
Q 14.890625 38.140625 10.796875 36.28125 
z
" id="DejaVuSans-53"/>
    </defs>
    <g transform="translate(81.458438 233.28)scale(0.12 -0.12)">
     <use xlink:href="#DejaVuSans-69"/>
     <use x="63.183594" xlink:href="#DejaVuSans-77"/>
     <use x="149.462891" xlink:href="#DejaVuSans-65"/>
     <use x="217.855469" xlink:href="#DejaVuSans-58"/>
     <use x="251.546875" xlink:href="#DejaVuSans-32"/>
     <use x="283.333984" xlink:href="#DejaVuSans-48"/>
     <use x="346.957031" xlink:href="#DejaVuSans-46"/>
     <use x="378.744141" xlink:href="#DejaVuSans-53"/>
    </g>
   </g>
  </g>
  <g id="axes_3">
   <g id="patch_12">
    <path d="M 13.32 634.68 
L 202.68 634.68 
L 202.68 451.68 
L 13.32 451.68 
z
" style="fill:#ffffff;"/>
   </g>
   <g id="matplotlib.axis_5"/>
   <g id="matplotlib.axis_6"/>
   <g id="line2d_5">
    <path clip-path="url(#p6a1cf73e8c)" d="M 21.927273 582.393262 
L 22.264152 598.447393 
L 22.601032 580.333301 
L 22.937911 591.459081 
L 23.274791 582.827871 
L 23.611671 589.574469 
L 23.94855 585.561219 
L 24.28543 593.132693 
L 24.622309 573.314521 
L 24.959189 591.539346 
L 25.296068 588.328743 
L 25.632948 571.748028 
L 25.969827 607.36704 
L 26.306707 606.325908 
L 26.643587 581.316997 
L 26.980466 604.85534 
L 27.317346 570.116745 
L 27.654225 596.019583 
L 27.991105 599.497047 
L 28.327984 569.682143 
L 28.664864 574.348437 
L 29.001743 569.817553 
L 29.338623 580.220866 
L 29.675503 599.544466 
L 30.012382 568.576375 
L 30.349262 592.437422 
L 30.686141 580.299688 
L 31.023021 578.410902 
L 31.3599 590.331963 
L 31.69678 581.512697 
L 32.033659 577.793866 
L 32.370539 583.529132 
L 32.707419 599.562092 
L 33.381178 572.029153 
L 33.718057 594.082038 
L 34.054937 587.699843 
L 34.391816 590.512138 
L 34.728696 564.844585 
L 35.065576 577.520881 
L 35.402455 580.08492 
L 35.739335 592.753186 
L 36.076214 577.865757 
L 36.413094 590.922791 
L 36.749973 582.704038 
L 37.086853 589.700612 
L 37.423732 574.754406 
L 37.760612 575.447782 
L 38.097492 583.725219 
L 38.434371 576.605345 
L 38.771251 592.67311 
L 39.10813 596.648931 
L 39.44501 574.816824 
L 39.781889 577.391206 
L 40.118769 571.749368 
L 40.455648 551.92311 
L 41.129408 587.508158 
L 41.466287 564.544568 
L 41.803167 591.020666 
L 42.140046 581.070801 
L 42.476926 576.223268 
L 42.813805 555.98981 
L 43.150685 582.724705 
L 43.487564 583.125419 
L 43.824444 574.550661 
L 44.161324 580.297024 
L 44.498203 559.945119 
L 44.835083 583.869613 
L 45.171962 584.090354 
L 45.508842 575.695886 
L 45.845721 575.826684 
L 46.182601 548.390035 
L 47.19324 581.69852 
L 47.530119 558.20933 
L 47.866999 578.085319 
L 48.203878 583.553963 
L 48.540758 552.707596 
L 48.877637 561.786601 
L 49.214517 554.519808 
L 49.551397 560.611825 
L 49.888276 554.067258 
L 50.225156 570.187408 
L 50.562035 573.843921 
L 50.898915 554.240903 
L 51.235794 570.098291 
L 51.572674 568.23814 
L 51.909553 565.043767 
L 52.246433 559.198609 
L 52.583313 562.707086 
L 52.920192 573.408786 
L 53.257072 564.693489 
L 53.593951 581.581543 
L 53.930831 549.402769 
L 54.26771 573.460006 
L 54.60459 567.323916 
L 54.941469 553.885687 
L 55.278349 562.031162 
L 55.615229 536.113053 
L 55.952108 566.902541 
L 56.288988 548.987439 
L 56.625867 551.747485 
L 56.962747 563.618446 
L 57.299626 544.241819 
L 57.636506 551.301375 
L 57.973386 540.209642 
L 58.310265 538.995279 
L 58.647145 523.509176 
L 58.984024 532.024866 
L 59.320904 550.278352 
L 59.657783 548.194437 
L 59.994663 532.712 
L 60.331542 536.98823 
L 60.668422 536.507771 
L 61.005302 560.866308 
L 61.342181 542.571637 
L 61.679061 549.829429 
L 62.01594 537.90107 
L 62.35282 541.439696 
L 62.689699 529.617591 
L 63.026579 535.536811 
L 63.363458 529.688915 
L 63.700338 542.918334 
L 64.037218 547.564499 
L 64.710977 535.989904 
L 65.047856 530.951585 
L 65.384736 509.472113 
L 65.721615 534.324425 
L 66.058495 543.800571 
L 66.395374 536.396354 
L 66.732254 537.054203 
L 67.069134 525.939039 
L 67.406013 547.701598 
L 67.742893 529.287573 
L 68.416652 526.136043 
L 68.753531 534.688534 
L 69.090411 530.070317 
L 69.427291 542.577366 
L 69.76417 531.632292 
L 70.10105 531.549997 
L 70.437929 520.2965 
L 70.774809 537.088624 
L 71.111688 514.998279 
L 71.448568 506.472354 
L 71.785447 545.343783 
L 72.122327 517.068251 
L 72.459207 513.675042 
L 72.796086 527.623575 
L 73.469845 520.813848 
L 73.806725 522.035269 
L 74.143604 521.556738 
L 74.480484 536.102267 
L 74.817363 504.168944 
L 75.154243 504.380671 
L 75.491123 524.763116 
L 75.828002 531.411155 
L 76.164882 508.806717 
L 76.501761 520.378446 
L 76.838641 511.848978 
L 77.17552 516.385974 
L 77.5124 504.616031 
L 77.849279 504.014072 
L 78.186159 519.188114 
L 78.523039 525.917072 
L 78.859918 527.573469 
L 79.196798 502.721998 
L 79.533677 522.109898 
L 79.870557 514.010777 
L 80.207436 514.464141 
L 80.544316 507.90584 
L 80.881196 528.246815 
L 81.218075 504.177346 
L 81.554955 499.944011 
L 82.228714 508.165835 
L 82.902473 499.29218 
L 83.239352 533.935458 
L 83.576232 481.054567 
L 83.913112 497.916264 
L 84.249991 508.985004 
L 84.586871 505.611802 
L 84.92375 495.338687 
L 85.26063 501.629537 
L 85.597509 522.381473 
L 85.934389 476.554112 
L 86.271268 500.202634 
L 86.608148 487.230897 
L 86.945028 505.762895 
L 87.281907 480.640395 
L 87.618787 494.063 
L 87.955666 490.068613 
L 88.292546 507.979656 
L 88.629425 482.570519 
L 88.966305 487.942977 
L 89.303184 480.764516 
L 89.640064 501.75563 
L 89.976944 499.740947 
L 90.313823 468.506185 
L 90.650703 505.403732 
L 90.987582 494.798959 
L 91.324462 480.33629 
L 91.661341 491.495741 
L 91.998221 485.772188 
L 92.335101 496.315641 
L 92.67198 487.455475 
L 93.00886 505.703151 
L 93.345739 472.535126 
L 93.682619 491.900835 
L 94.019498 497.819708 
L 94.356378 482.599392 
L 95.030137 504.183425 
L 95.367017 504.040776 
L 95.703896 481.159514 
L 96.040776 490.347281 
L 96.377655 489.800787 
L 96.714535 476.125827 
L 97.051414 500.305438 
L 98.062053 486.080817 
L 98.398933 487.376185 
L 98.735812 489.877482 
L 99.072692 487.178946 
L 99.409571 487.48954 
L 99.746451 494.085263 
L 100.08333 494.939075 
L 100.42021 482.716553 
L 100.757089 495.462714 
L 101.093969 498.255956 
L 101.430849 488.741787 
L 101.767728 486.884717 
L 102.104608 459.998182 
L 102.441487 492.680109 
L 102.778367 474.300151 
L 103.115246 476.358553 
L 103.452126 497.703373 
L 103.789006 475.864427 
L 104.462765 513.718635 
L 104.799644 477.462633 
L 105.136524 503.565977 
L 105.473403 479.054593 
L 105.810283 491.575745 
L 106.147162 465.564619 
L 106.484042 472.074859 
L 106.820922 488.906059 
L 107.157801 491.480745 
L 107.494681 497.295912 
L 107.83156 488.722156 
L 108.16844 486.943163 
L 108.505319 487.885218 
L 109.179078 477.473109 
L 109.515958 480.039365 
L 109.852838 492.417787 
L 110.189717 499.927208 
L 110.526597 468.93245 
L 110.863476 491.750409 
L 111.200356 491.407355 
L 111.537235 490.030992 
L 111.874115 504.760457 
L 112.210994 489.727315 
L 112.547874 489.84485 
L 112.884754 477.763758 
L 113.221633 477.012436 
L 113.558513 484.830649 
L 113.895392 474.67705 
L 114.232272 481.371235 
L 114.569151 485.455514 
L 114.906031 483.65012 
L 115.242911 487.704212 
L 115.57979 490.132749 
L 115.91667 488.897908 
L 116.253549 498.610182 
L 116.590429 483.193523 
L 116.927308 497.499409 
L 117.264188 477.374135 
L 117.601067 489.67281 
L 117.937947 486.577802 
L 118.274827 481.87916 
L 118.611706 480.454597 
L 118.948586 505.222465 
L 119.622345 478.567564 
L 119.959224 507.39335 
L 120.296104 484.55528 
L 120.632983 514.110285 
L 121.306743 489.260147 
L 121.643622 508.338007 
L 121.980502 501.20262 
L 122.317381 506.898745 
L 122.654261 472.645873 
L 122.99114 489.408021 
L 123.32802 485.270229 
L 123.664899 494.357086 
L 124.001779 496.146809 
L 124.338659 510.488099 
L 124.675538 496.165797 
L 125.012418 501.729616 
L 125.349297 484.154043 
L 126.023056 478.162574 
L 126.359936 485.350981 
L 126.696816 501.820985 
L 127.033695 507.94928 
L 127.370575 487.49513 
L 127.707454 492.451316 
L 128.044334 516.408666 
L 128.381213 493.296989 
L 128.718093 488.638165 
L 129.054972 497.442511 
L 129.391852 500.584124 
L 130.065611 515.454314 
L 130.402491 491.015787 
L 130.73937 503.767984 
L 131.07625 503.395745 
L 131.413129 482.082688 
L 131.750009 494.1728 
L 132.423768 501.151006 
L 132.760648 486.376012 
L 133.097527 484.66131 
L 133.434407 493.916585 
L 133.771286 498.270673 
L 134.108166 528.439585 
L 134.445045 504.377659 
L 134.781925 507.710418 
L 135.118804 505.75298 
L 135.455684 496.875006 
L 135.792564 538.211393 
L 136.129443 514.703194 
L 136.466323 505.947621 
L 137.140082 525.733926 
L 137.476961 500.962556 
L 137.813841 508.08132 
L 138.150721 522.47079 
L 138.4876 508.789893 
L 138.82448 503.74529 
L 139.161359 513.363099 
L 139.498239 505.129235 
L 140.508877 528.597224 
L 140.845757 517.294299 
L 141.182637 514.78347 
L 141.519516 507.829359 
L 141.856396 519.408374 
L 142.193275 513.668008 
L 142.530155 530.028963 
L 142.867034 528.62113 
L 143.203914 521.784184 
L 143.540793 532.859488 
L 143.877673 512.703074 
L 144.214553 517.278296 
L 144.551432 519.938175 
L 144.888312 519.898647 
L 145.225191 501.886755 
L 145.89895 549.926125 
L 146.23583 523.958453 
L 146.572709 527.360234 
L 147.246469 538.915491 
L 147.920228 527.33867 
L 148.257107 535.559406 
L 148.593987 503.901814 
L 148.930866 541.915427 
L 149.267746 540.705114 
L 149.604626 557.919688 
L 149.941505 530.422935 
L 150.278385 556.196886 
L 150.615264 540.480832 
L 150.952144 538.206646 
L 151.289023 543.664713 
L 151.625903 517.185029 
L 151.962782 526.08324 
L 152.299662 523.135383 
L 152.636542 548.177686 
L 152.973421 526.547225 
L 153.310301 534.206449 
L 153.98406 529.596876 
L 154.320939 551.721047 
L 154.657819 547.003317 
L 154.994698 533.394272 
L 155.331578 573.022826 
L 155.668458 527.481362 
L 156.005337 538.767216 
L 156.342217 546.048625 
L 156.679096 543.744925 
L 157.015976 558.243942 
L 157.352855 551.353783 
L 157.689735 535.928711 
L 158.026614 534.379296 
L 158.363494 519.528099 
L 158.700374 550.858473 
L 159.037253 557.973025 
L 159.374133 557.009675 
L 159.711012 563.22554 
L 160.047892 553.441004 
L 160.384771 548.968324 
L 160.721651 554.216607 
L 161.058531 542.316743 
L 161.39541 557.682951 
L 161.73229 559.559669 
L 162.069169 562.770107 
L 162.406049 575.03616 
L 162.742928 574.932542 
L 163.079808 571.239507 
L 163.416687 544.365946 
L 163.753567 549.47329 
L 164.090447 544.762899 
L 164.427326 575.35847 
L 164.764206 583.008215 
L 165.101085 569.105636 
L 165.437965 560.43712 
L 165.774844 557.449206 
L 166.111724 551.949517 
L 166.448603 560.993489 
L 166.785483 545.414618 
L 167.122363 567.764492 
L 167.796122 585.06572 
L 168.133001 576.852798 
L 168.469881 564.881865 
L 168.80676 577.967905 
L 169.14364 558.295818 
L 169.480519 553.575552 
L 169.817399 596.021845 
L 170.154279 560.735554 
L 170.491158 595.658635 
L 170.828038 566.928667 
L 171.164917 558.333708 
L 171.838676 587.124293 
L 172.175556 579.94611 
L 172.512436 576.867831 
L 172.849315 576.492412 
L 173.186195 577.220662 
L 173.523074 576.684629 
L 173.859954 573.591466 
L 174.196833 589.831469 
L 174.533713 579.601921 
L 174.870592 560.573128 
L 175.207472 582.125123 
L 175.544352 583.244461 
L 175.881231 566.83934 
L 176.218111 607.592174 
L 176.55499 566.596028 
L 176.89187 587.127776 
L 177.228749 578.746371 
L 177.565629 579.925689 
L 177.902508 570.975372 
L 178.239388 584.800881 
L 178.576268 589.761048 
L 178.913147 568.276399 
L 179.250027 609.250413 
L 179.586906 583.226275 
L 179.923786 598.774586 
L 180.260665 592.660754 
L 180.597545 562.315779 
L 180.934424 585.463619 
L 181.271304 583.172121 
L 181.608184 605.429592 
L 182.281943 584.208874 
L 182.618822 582.794244 
L 182.955702 580.221598 
L 183.292581 587.28576 
L 183.629461 581.860806 
L 183.966341 582.983747 
L 184.30322 608.58884 
L 184.6401 588.204536 
L 184.976979 580.397994 
L 185.313859 582.654916 
L 185.650738 593.499446 
L 186.324497 602.392836 
L 186.998257 577.955166 
L 187.335136 612.376591 
L 187.672016 598.298482 
L 188.008895 603.844037 
L 188.345775 582.740033 
L 188.682654 597.792408 
L 189.019534 597.072195 
L 189.356413 594.461044 
L 189.693293 587.314947 
L 190.030173 596.782079 
L 190.367052 626.361818 
L 190.703932 586.76297 
L 191.040811 588.081112 
L 191.71457 605.25954 
L 192.05145 589.492125 
L 192.388329 589.321092 
L 192.725209 598.856178 
L 193.062089 596.167912 
L 193.398968 604.18291 
L 193.735848 595.959087 
L 194.072727 611.253872 
L 194.072727 611.253872 
" style="fill:none;stroke:#0000ff;stroke-linecap:square;stroke-width:1.5;"/>
   </g>
   <g id="line2d_6">
    <path clip-path="url(#p6a1cf73e8c)" d="M 21.927273 583.998676 
L 22.264152 583.632138 
L 22.601032 584.414834 
L 22.937911 584.256137 
L 23.274791 584.787969 
L 23.611671 584.865293 
L 23.94855 585.692034 
L 24.28543 584.454282 
L 24.622309 585.162791 
L 24.959189 585.479386 
L 25.296068 584.106249 
L 25.969827 588.421689 
L 26.306707 587.711219 
L 26.643587 589.425634 
L 26.980466 587.494745 
L 27.654225 589.462212 
L 27.991105 587.484205 
L 28.664864 584.535322 
L 29.001743 584.103875 
L 29.338623 585.647936 
L 29.675503 583.94078 
L 30.012382 584.790445 
L 30.686141 583.748323 
L 31.023021 584.406688 
L 31.3599 584.117288 
L 31.69678 583.484945 
L 32.033659 583.489363 
L 32.370539 585.096636 
L 32.707419 584.962175 
L 33.044298 583.668872 
L 33.381178 584.710189 
L 33.718057 585.009155 
L 34.054937 585.559455 
L 34.391816 583.487966 
L 34.728696 582.891258 
L 35.065576 582.610624 
L 35.402455 583.624881 
L 35.739335 583.048968 
L 36.076214 583.83635 
L 36.413094 583.72312 
L 36.749973 584.320868 
L 37.423732 582.572576 
L 37.760612 582.68784 
L 38.097492 582.079591 
L 38.771251 584.489943 
L 39.10813 583.52263 
L 39.44501 582.909488 
L 39.781889 581.793476 
L 40.118769 578.806439 
L 40.455648 577.665711 
L 40.792528 578.649957 
L 41.129408 577.239419 
L 41.466287 578.617545 
L 41.803167 578.862872 
L 42.140046 578.598912 
L 42.476926 576.338002 
L 43.150685 577.591547 
L 43.487564 577.287459 
L 43.824444 577.588417 
L 44.161324 575.824087 
L 44.835083 577.374811 
L 45.508842 577.068894 
L 45.845721 574.201007 
L 46.182601 572.651336 
L 46.519481 572.156641 
L 46.85636 573.110829 
L 47.19324 571.620679 
L 47.530119 572.267143 
L 47.866999 573.395825 
L 48.203878 571.327002 
L 48.540758 570.372962 
L 48.877637 568.787647 
L 49.214517 567.970063 
L 49.551397 566.579782 
L 49.888276 566.940544 
L 50.225156 567.630882 
L 50.562035 566.291884 
L 50.898915 566.672525 
L 51.235794 566.829086 
L 51.572674 566.650554 
L 51.909553 565.90536 
L 52.246433 565.585532 
L 52.583313 566.367858 
L 52.920192 566.20042 
L 53.257072 567.738531 
L 53.593951 565.904955 
L 53.930831 566.66046 
L 54.26771 566.726805 
L 54.60459 565.442694 
L 54.941469 565.10154 
L 55.278349 562.202691 
L 55.615229 562.672676 
L 56.288988 560.348484 
L 56.625867 560.675481 
L 56.962747 559.032114 
L 57.299626 558.25904 
L 57.973386 554.708218 
L 58.310265 551.588313 
L 58.647145 549.631968 
L 58.984024 549.696607 
L 59.320904 549.546389 
L 59.657783 547.86295 
L 60.331542 545.748706 
L 60.668422 547.260467 
L 61.005302 546.791584 
L 61.342181 547.095368 
L 61.679061 546.175938 
L 62.01594 545.702314 
L 62.35282 544.093841 
L 62.689699 543.238138 
L 63.026579 541.883215 
L 63.363458 541.986727 
L 63.700338 542.544505 
L 64.037218 542.389442 
L 64.374097 541.749488 
L 64.710977 540.669697 
L 65.047856 537.549938 
L 65.384736 537.227387 
L 65.721615 537.884705 
L 66.395374 537.667703 
L 66.732254 536.494837 
L 67.069134 537.615513 
L 68.079772 534.892848 
L 68.416652 534.872416 
L 68.753531 534.392206 
L 69.090411 535.210722 
L 69.76417 534.522591 
L 70.10105 533.099982 
L 70.437929 533.498846 
L 70.774809 531.648789 
L 71.111688 529.131145 
L 71.448568 530.752409 
L 72.122327 527.813097 
L 72.459207 527.794145 
L 72.796086 527.449889 
L 73.469845 526.311183 
L 73.806725 525.835739 
L 74.143604 526.862392 
L 74.817363 522.571808 
L 75.154243 522.790939 
L 75.491123 523.652961 
L 75.828002 522.168336 
L 76.164882 521.989346 
L 76.501761 520.975309 
L 76.838641 520.516376 
L 77.5124 517.435115 
L 77.849279 517.610414 
L 78.523039 519.35432 
L 78.859918 517.691087 
L 79.196798 518.132967 
L 79.870557 517.395087 
L 80.207436 516.446162 
L 80.544316 517.626227 
L 81.554955 513.608134 
L 81.891834 513.063904 
L 82.565593 510.793204 
L 82.902473 513.10743 
L 83.239352 509.902142 
L 83.576232 508.703555 
L 83.913112 508.731701 
L 84.249991 508.419711 
L 84.586871 507.111609 
L 84.92375 506.563403 
L 85.26063 508.145212 
L 85.597509 504.986101 
L 85.934389 504.507754 
L 86.271268 502.780069 
L 86.608148 503.078352 
L 86.945028 500.834556 
L 87.281907 500.1574 
L 87.618787 499.148522 
L 87.955666 500.031636 
L 88.292546 498.285523 
L 88.629425 497.25127 
L 88.966305 495.602594 
L 89.303184 496.217898 
L 89.640064 496.570204 
L 89.976944 493.763802 
L 90.313823 494.927795 
L 90.650703 494.914911 
L 90.987582 493.457047 
L 91.324462 493.260915 
L 91.661341 492.512041 
L 91.998221 492.8924 
L 92.335101 492.348708 
L 92.67198 493.684153 
L 93.00886 491.569251 
L 93.345739 491.602409 
L 93.682619 492.224139 
L 94.019498 491.261663 
L 94.356378 491.614765 
L 95.030137 493.988545 
L 95.367017 492.705643 
L 96.040776 492.202905 
L 96.377655 490.595195 
L 96.714535 491.56622 
L 97.051414 491.977363 
L 97.388294 491.941111 
L 98.062053 490.957192 
L 98.398933 490.849223 
L 99.072692 490.18293 
L 99.746451 491.009756 
L 100.08333 490.180437 
L 100.42021 490.708666 
L 100.757089 491.463395 
L 101.093969 491.191233 
L 101.430849 490.760582 
L 101.767728 487.68434 
L 102.104608 488.183919 
L 102.778367 485.75184 
L 103.115246 486.946993 
L 103.452126 485.838737 
L 103.789006 487.000567 
L 104.125885 489.672376 
L 104.462765 488.451401 
L 104.799644 489.962859 
L 105.136524 488.872031 
L 105.473403 489.142403 
L 105.810283 486.784624 
L 106.147162 485.313648 
L 106.484042 485.672888 
L 106.820922 486.253674 
L 107.157801 487.357898 
L 107.494681 487.494324 
L 108.16844 487.483811 
L 108.505319 486.947799 
L 108.842199 486.00033 
L 109.179078 485.404233 
L 109.515958 486.105589 
L 109.852838 487.48775 
L 110.189717 485.632218 
L 110.863476 486.760368 
L 111.200356 487.087431 
L 111.537235 488.854735 
L 112.210994 489.032277 
L 112.884754 486.816124 
L 113.221633 486.617576 
L 113.558513 485.423523 
L 113.895392 485.018293 
L 114.232272 485.062014 
L 114.569151 484.920824 
L 114.906031 485.199163 
L 115.57979 486.013059 
L 115.91667 487.272771 
L 116.253549 486.864848 
L 116.590429 487.928303 
L 116.927308 486.872885 
L 117.264188 487.152878 
L 117.601067 487.095372 
L 118.274827 485.961833 
L 118.611706 487.887898 
L 118.948586 488.135007 
L 119.285465 487.178263 
L 119.622345 489.199774 
L 119.959224 488.735324 
L 120.296104 491.27282 
L 120.632983 492.218476 
L 120.969863 491.922643 
L 121.306743 493.564181 
L 121.643622 494.328026 
L 121.980502 495.585097 
L 122.317381 493.291174 
L 122.654261 492.902857 
L 122.99114 492.139593 
L 123.32802 492.361341 
L 123.664899 492.739887 
L 124.001779 494.51471 
L 124.338659 494.67982 
L 124.675538 495.384798 
L 125.349297 492.974503 
L 125.686177 491.49331 
L 126.023056 490.879075 
L 126.359936 491.973265 
L 126.696816 493.570867 
L 127.033695 492.963293 
L 127.370575 492.912096 
L 127.707454 495.261752 
L 128.044334 495.065274 
L 128.381213 494.422564 
L 128.718093 494.724558 
L 129.054972 495.310515 
L 129.391852 496.572083 
L 129.728732 498.460308 
L 130.065611 497.715855 
L 130.73937 498.828535 
L 131.07625 497.153952 
L 131.413129 496.855838 
L 131.750009 496.983229 
L 132.086888 497.400005 
L 132.760648 495.133977 
L 133.097527 495.012239 
L 133.434407 495.338083 
L 133.771286 498.648234 
L 134.108166 499.221178 
L 134.781925 500.638389 
L 135.118804 500.262051 
L 135.455684 504.056988 
L 135.792564 505.121609 
L 136.129443 505.20421 
L 136.466323 506.149493 
L 136.803202 508.107936 
L 137.140082 507.393399 
L 137.476961 507.462191 
L 137.813841 508.96305 
L 138.150721 508.945735 
L 138.4876 508.425691 
L 138.82448 508.919432 
L 139.161359 508.540413 
L 139.498239 509.057647 
L 139.835118 510.106175 
L 140.171998 511.95528 
L 140.508877 512.489182 
L 140.845757 512.718611 
L 141.182637 512.229686 
L 141.519516 512.947556 
L 141.856396 513.0196 
L 142.530155 516.110595 
L 142.867034 516.677954 
L 143.203914 518.296108 
L 143.540793 517.736804 
L 143.877673 517.690953 
L 144.551432 518.113973 
L 144.888312 516.491252 
L 145.225191 517.852211 
L 145.562071 521.059602 
L 145.89895 521.349487 
L 146.23583 521.950562 
L 146.572709 523.072316 
L 146.909589 524.656635 
L 147.246469 525.548416 
L 147.583348 525.727442 
L 147.920228 526.710638 
L 148.257107 524.429756 
L 148.930866 527.631003 
L 149.267746 530.659873 
L 149.604626 530.636179 
L 149.941505 533.19225 
L 150.278385 533.921109 
L 150.615264 534.349663 
L 150.952144 535.281168 
L 151.289023 533.471553 
L 151.962782 531.772988 
L 152.299662 533.413458 
L 152.636542 532.726834 
L 152.973421 532.874796 
L 153.310301 532.767867 
L 153.64718 532.450767 
L 153.98406 534.377796 
L 154.320939 535.640348 
L 154.657819 535.415741 
L 154.994698 539.17645 
L 155.331578 538.006941 
L 155.668458 538.082969 
L 156.005337 538.879535 
L 156.342217 539.366074 
L 156.679096 541.253861 
L 157.015976 542.263853 
L 157.689735 540.905234 
L 158.026614 538.76752 
L 158.363494 539.976616 
L 159.374133 545.292195 
L 159.711012 546.107076 
L 160.047892 546.3932 
L 160.384771 547.175541 
L 160.721651 546.689661 
L 161.73229 550.346464 
L 162.406049 555.027147 
L 162.742928 556.648384 
L 163.079808 555.420141 
L 163.416687 554.825455 
L 163.753567 553.819199 
L 164.764206 559.719536 
L 165.101085 559.791294 
L 165.437965 559.557084 
L 165.774844 558.796328 
L 166.111724 559.016045 
L 166.448603 557.655901 
L 166.785483 558.666761 
L 167.122363 560.398754 
L 167.459242 562.865452 
L 167.796122 564.264187 
L 168.133001 564.325955 
L 168.469881 565.69015 
L 168.80676 564.950716 
L 169.14364 563.8132 
L 169.480519 567.034065 
L 169.817399 566.404214 
L 170.154279 569.329655 
L 170.491158 569.089555 
L 170.828038 568.013972 
L 171.164917 568.383477 
L 171.501797 570.25756 
L 171.838676 571.226415 
L 172.849315 572.756734 
L 173.186195 573.149524 
L 173.523074 573.193717 
L 173.859954 574.857493 
L 174.196833 575.331938 
L 174.533713 573.856055 
L 175.207472 575.539111 
L 175.544352 574.669135 
L 175.881231 577.961439 
L 176.218111 576.824898 
L 176.55499 577.855186 
L 177.228749 578.142444 
L 177.565629 577.425737 
L 177.902508 578.163253 
L 178.239388 579.323032 
L 178.576268 578.218368 
L 178.913147 581.321574 
L 179.250027 581.512043 
L 179.586906 583.238298 
L 179.923786 584.180543 
L 180.260665 581.994065 
L 180.597545 582.341022 
L 180.934424 582.424131 
L 181.271304 584.724677 
L 181.608184 585.664149 
L 181.945063 585.518623 
L 182.281943 585.246184 
L 182.618822 584.743726 
L 182.955702 584.997929 
L 183.629461 584.51417 
L 183.966341 586.921639 
L 184.30322 587.049929 
L 184.6401 586.384735 
L 184.976979 586.011753 
L 185.313859 586.760521 
L 185.987618 589.39513 
L 186.324497 589.626751 
L 186.661377 588.459592 
L 186.998257 590.851291 
L 187.335136 591.596011 
L 187.672016 592.820812 
L 188.008895 591.812734 
L 188.682654 592.876849 
L 189.019534 593.035269 
L 189.356413 592.463237 
L 189.693293 592.895122 
L 190.030173 596.241792 
L 190.703932 594.572628 
L 191.040811 594.668701 
L 191.377691 595.727788 
L 192.05145 594.525905 
L 192.388329 594.958934 
L 192.725209 595.07983 
L 193.062089 595.990139 
L 193.398968 595.987035 
L 193.735848 597.513722 
L 193.735848 597.513722 
" style="fill:none;stroke:#ff0000;stroke-linecap:square;stroke-width:1.5;"/>
   </g>
   <g id="patch_13">
    <path d="M 13.32 634.68 
L 13.32 451.68 
" style="fill:none;stroke:#000000;stroke-linecap:square;stroke-linejoin:miter;stroke-width:0.8;"/>
   </g>
   <g id="patch_14">
    <path d="M 202.68 634.68 
L 202.68 451.68 
" style="fill:none;stroke:#000000;stroke-linecap:square;stroke-linejoin:miter;stroke-width:0.8;"/>
   </g>
   <g id="patch_15">
    <path d="M 13.32 634.68 
L 202.68 634.68 
" style="fill:none;stroke:#000000;stroke-linecap:square;stroke-linejoin:miter;stroke-width:0.8;"/>
   </g>
   <g id="patch_16">
    <path d="M 13.32 451.68 
L 202.68 451.68 
" style="fill:none;stroke:#000000;stroke-linecap:square;stroke-linejoin:miter;stroke-width:0.8;"/>
   </g>
   <g id="text_3">
    <!-- EMA: 0.9 -->
    <defs>
     <path d="M 10.984375 1.515625 
L 10.984375 10.5 
Q 14.703125 8.734375 18.5 7.8125 
Q 22.3125 6.890625 25.984375 6.890625 
Q 35.75 6.890625 40.890625 13.453125 
Q 46.046875 20.015625 46.78125 33.40625 
Q 43.953125 29.203125 39.59375 26.953125 
Q 35.25 24.703125 29.984375 24.703125 
Q 19.046875 24.703125 12.671875 31.3125 
Q 6.296875 37.9375 6.296875 49.421875 
Q 6.296875 60.640625 12.9375 67.421875 
Q 19.578125 74.21875 30.609375 74.21875 
Q 43.265625 74.21875 49.921875 64.515625 
Q 56.59375 54.828125 56.59375 36.375 
Q 56.59375 19.140625 48.40625 8.859375 
Q 40.234375 -1.421875 26.421875 -1.421875 
Q 22.703125 -1.421875 18.890625 -0.6875 
Q 15.09375 0.046875 10.984375 1.515625 
z
M 30.609375 32.421875 
Q 37.25 32.421875 41.125 36.953125 
Q 45.015625 41.5 45.015625 49.421875 
Q 45.015625 57.28125 41.125 61.84375 
Q 37.25 66.40625 30.609375 66.40625 
Q 23.96875 66.40625 20.09375 61.84375 
Q 16.21875 57.28125 16.21875 49.421875 
Q 16.21875 41.5 20.09375 36.953125 
Q 23.96875 32.421875 30.609375 32.421875 
z
" id="DejaVuSans-57"/>
    </defs>
    <g transform="translate(81.458438 445.68)scale(0.12 -0.12)">
     <use xlink:href="#DejaVuSans-69"/>
     <use x="63.183594" xlink:href="#DejaVuSans-77"/>
     <use x="149.462891" xlink:href="#DejaVuSans-65"/>
     <use x="217.855469" xlink:href="#DejaVuSans-58"/>
     <use x="251.546875" xlink:href="#DejaVuSans-32"/>
     <use x="283.333984" xlink:href="#DejaVuSans-48"/>
     <use x="346.957031" xlink:href="#DejaVuSans-46"/>
     <use x="378.744141" xlink:href="#DejaVuSans-57"/>
    </g>
   </g>
  </g>
 </g>
 <defs>
  <clipPath id="pd35ae625f3">
   <rect height="183" width="189.36" x="13.32" y="26.88"/>
  </clipPath>
  <clipPath id="pc2179d26ba">
   <rect height="183" width="189.36" x="13.32" y="239.28"/>
  </clipPath>
  <clipPath id="p6a1cf73e8c">
   <rect height="183" width="189.36" x="13.32" y="451.68"/>
  </clipPath>
 </defs>
</svg>
