<?xml version="1.0" encoding="utf-8" standalone="no"?>
<!DOCTYPE svg PUBLIC "-//W3C//DTD SVG 1.1//EN"
  "http://www.w3.org/Graphics/SVG/1.1/DTD/svg11.dtd">
<!-- Created with matplotlib (https://matplotlib.org/) -->
<svg height="144pt" version="1.1" viewBox="0 0 360 144" width="360pt" xmlns="http://www.w3.org/2000/svg" xmlns:xlink="http://www.w3.org/1999/xlink">
 <defs>
  <style type="text/css">
*{stroke-linecap:butt;stroke-linejoin:round;}
  </style>
 </defs>
 <g id="figure_1">
  <g id="patch_1">
   <path d="M 0 144 
L 360 144 
L 360 0 
L 0 0 
z
" style="fill:#ffffff;"/>
  </g>
  <g id="axes_1">
   <g id="patch_2">
    <path d="M 14.3 129.7 
L 349.2 129.7 
L 349.2 26.88 
L 14.3 26.88 
z
" style="fill:#ffffff;"/>
   </g>
   <g id="matplotlib.axis_1"/>
   <g id="matplotlib.axis_2"/>
   <g id="line2d_1">
    <path clip-path="url(#p63dfb15623)" d="M 29.522727 100.322282 
L 30.118529 109.342423 
L 30.71433 99.164877 
L 31.310132 105.415984 
L 31.905933 100.56647 
L 32.501735 104.3571 
L 33.097536 102.102224 
L 33.693337 106.356316 
L 34.289139 95.221319 
L 34.88494 105.461082 
L 35.480742 103.657179 
L 36.076543 94.341173 
L 36.672345 114.353997 
L 37.268146 113.769029 
L 37.863948 99.717574 
L 38.459749 112.942778 
L 39.055551 93.424624 
L 39.651352 107.978338 
L 40.247154 109.932179 
L 40.842955 93.180439 
L 41.438756 95.802233 
L 42.034558 93.25652 
L 42.630359 99.101704 
L 43.226161 109.958822 
L 43.821962 92.559154 
L 44.417764 105.965673 
L 45.013565 99.145991 
L 45.609367 98.084762 
L 46.205168 104.782704 
L 46.80097 99.82753 
L 47.396771 97.738075 
L 47.992572 100.96048 
L 48.588374 109.968725 
L 49.184175 101.085723 
L 49.779977 94.499125 
L 50.375778 106.889713 
L 50.97158 103.303827 
L 51.567381 104.883937 
L 52.163183 90.462419 
L 52.758984 97.584696 
L 53.354786 99.025321 
L 53.950587 106.143088 
L 54.546389 97.778468 
L 55.14219 105.114665 
L 55.737991 100.496894 
L 56.333793 104.427975 
L 56.929594 96.03033 
L 57.525396 96.419909 
L 58.121197 101.070653 
L 58.716999 97.070295 
L 59.3128 106.098096 
L 59.908602 108.331943 
L 60.504403 96.0654 
L 61.100205 97.511837 
L 61.696006 94.341926 
L 62.291808 83.202386 
L 62.887609 91.897732 
L 63.48341 103.196127 
L 64.079212 90.293852 
L 64.675013 105.169658 
L 65.270815 99.579247 
L 65.866616 96.855622 
L 66.462418 85.487293 
L 67.058219 100.508506 
L 67.654021 100.73365 
L 68.249822 95.915855 
L 68.845624 99.144494 
L 69.441425 87.709615 
L 70.037226 101.151781 
L 70.633028 101.275807 
L 71.228829 96.559308 
L 71.824631 96.632798 
L 72.420432 81.2173 
L 73.612035 92.069216 
L 74.207837 99.931936 
L 74.803638 86.734348 
L 75.39944 97.90183 
L 75.995241 100.974431 
L 76.591043 83.643156 
L 77.186844 88.744266 
L 77.782645 84.661361 
L 78.378447 88.084209 
L 78.974248 84.407092 
L 79.57005 93.464326 
L 80.165851 95.518767 
L 80.761653 84.504656 
L 81.357454 93.414255 
L 81.953256 92.369114 
L 82.549057 90.574331 
L 83.144859 87.290183 
L 83.74066 89.261448 
L 84.336461 95.274283 
L 84.932263 90.377524 
L 85.528064 99.866211 
L 86.123866 81.786312 
L 86.719667 95.303061 
L 87.315469 91.855451 
L 87.91127 84.305075 
L 88.507072 88.881675 
L 89.102873 74.31938 
L 89.698675 91.618698 
L 90.294476 81.552956 
L 90.890278 83.103709 
L 91.486079 89.773503 
L 92.08188 78.886592 
L 92.677682 82.853059 
L 93.273483 76.621081 
L 93.869285 75.938781 
L 94.465086 67.237792 
L 95.060888 72.0224 
L 95.656689 82.278265 
L 96.252491 81.107401 
L 96.848292 72.408471 
L 97.444094 74.811105 
L 98.039895 74.541155 
L 98.635696 88.227192 
L 99.231498 77.948187 
L 99.827299 82.026034 
L 100.423101 75.323991 
L 101.018902 77.312196 
L 101.614704 70.669853 
L 102.210505 73.995614 
L 102.806307 70.709927 
L 103.402108 78.142981 
L 103.99791 80.753465 
L 104.593711 77.061708 
L 105.785314 71.419368 
L 106.381115 59.350957 
L 106.976917 73.314425 
L 107.572718 78.638672 
L 108.16852 74.478555 
L 108.764321 74.848173 
L 109.360123 68.603029 
L 109.955924 80.830496 
L 110.551726 70.48443 
L 111.743329 68.713718 
L 112.33913 73.519002 
L 112.934932 70.924221 
L 113.530733 77.951405 
L 114.126534 71.801829 
L 114.722336 71.755591 
L 115.318137 65.432724 
L 115.913939 74.867512 
L 116.50974 62.455877 
L 117.105542 57.665518 
L 117.701343 79.505738 
L 118.297145 63.618907 
L 118.892946 61.712405 
L 119.488748 69.5495 
L 120.68035 65.7234 
L 121.276152 66.409666 
L 121.871953 66.140799 
L 122.467755 74.31332 
L 123.063556 56.371329 
L 123.659358 56.49029 
L 124.255159 67.942328 
L 124.850961 71.677581 
L 125.446762 58.977099 
L 126.042564 65.478766 
L 126.638365 60.686417 
L 127.234167 63.235564 
L 127.829968 56.622528 
L 128.425769 56.284313 
L 129.021571 64.809968 
L 129.617372 68.590687 
L 130.213174 69.521347 
L 130.808975 55.558351 
L 131.404777 66.451596 
L 132.000578 61.901041 
L 132.59638 62.155767 
L 133.192181 58.470934 
L 133.787983 69.899672 
L 134.383784 56.37605 
L 134.979585 53.997517 
L 136.171188 58.617014 
L 136.76699 55.79087 
L 137.362791 53.63128 
L 137.958593 73.095881 
L 138.554394 43.384333 
L 139.150196 52.858211 
L 139.745997 59.077271 
L 140.341799 57.18201 
L 140.9376 51.409979 
L 141.533402 54.944543 
L 142.129203 66.604183 
L 142.725004 40.855717 
L 143.320806 54.142826 
L 143.916607 46.854553 
L 144.512409 57.266903 
L 145.10821 43.151627 
L 145.704012 50.693225 
L 146.299813 48.448946 
L 146.895615 58.512408 
L 147.491416 44.236083 
L 148.087218 47.254641 
L 148.683019 43.221366 
L 149.27882 55.015389 
L 149.874622 53.883424 
L 150.470423 36.333926 
L 151.066225 57.065104 
L 151.662026 51.106729 
L 152.257828 42.980764 
L 152.853629 49.25079 
L 153.449431 46.034966 
L 154.045232 51.958889 
L 154.641034 46.980734 
L 155.236835 57.233336 
L 155.832637 38.597618 
L 156.428438 49.478395 
L 157.024239 52.803961 
L 157.620041 44.252305 
L 158.215842 51.103194 
L 158.811644 56.379465 
L 159.407445 56.299317 
L 160.003247 43.443299 
L 160.599048 48.605518 
L 161.19485 48.298466 
L 161.790651 40.615082 
L 162.386453 54.200588 
L 164.173857 46.208371 
L 164.769658 46.936185 
L 165.36546 48.341558 
L 165.961261 46.825364 
L 166.557063 46.999874 
L 167.152864 50.705733 
L 167.748666 51.185454 
L 168.344467 44.318133 
L 168.940269 51.479665 
L 169.53607 53.04907 
L 170.131872 47.703459 
L 170.727673 46.660049 
L 171.323474 31.553636 
L 171.919276 49.916236 
L 172.515077 39.589311 
L 173.110879 40.74584 
L 173.70668 52.738597 
L 174.302482 40.468212 
L 174.898283 52.600179 
L 175.494085 61.736899 
L 176.089886 41.366177 
L 176.685688 56.032548 
L 177.281489 42.260632 
L 177.877291 49.29574 
L 178.473092 34.681183 
L 179.068893 38.339013 
L 179.664695 47.795756 
L 180.260496 49.242364 
L 180.856298 52.509661 
L 181.452099 47.692429 
L 182.047901 46.692888 
L 182.643702 47.222189 
L 183.239504 43.985036 
L 183.835305 41.372063 
L 184.431107 42.813934 
L 185.026908 49.768848 
L 185.622709 53.988076 
L 186.218511 36.573426 
L 186.814312 49.393877 
L 187.410114 49.201129 
L 188.005915 48.427809 
L 188.601717 56.703675 
L 189.197518 48.257186 
L 189.79332 48.323223 
L 190.389121 41.535366 
L 190.984923 41.11323 
L 191.580724 45.505955 
L 192.176526 39.801075 
L 192.772327 43.562256 
L 193.368128 45.85704 
L 193.96393 44.842665 
L 194.559731 47.120489 
L 195.155533 48.484982 
L 195.751334 47.791177 
L 196.347136 53.248094 
L 196.942937 44.586122 
L 197.538739 52.623998 
L 198.13454 41.316453 
L 198.730342 48.226561 
L 199.326143 46.487607 
L 199.921944 43.847637 
L 200.517746 43.047235 
L 201.113547 56.963258 
L 201.709349 48.6121 
L 202.30515 41.986991 
L 202.900952 58.182987 
L 203.496753 45.351237 
L 204.092555 61.95695 
L 205.284158 47.994704 
L 205.879959 58.71375 
L 206.475761 54.704677 
L 207.071562 57.905089 
L 207.667363 38.659842 
L 208.263165 48.077788 
L 208.858966 45.752937 
L 209.454768 50.858459 
L 210.050569 51.864029 
L 210.646371 59.921797 
L 211.242172 51.874698 
L 211.837974 55.000774 
L 212.433775 45.125798 
L 213.625378 41.759444 
L 214.22118 45.798307 
L 214.816981 55.052109 
L 215.412782 58.495341 
L 216.008584 47.003014 
L 216.604385 49.787687 
L 217.200187 63.248314 
L 217.795988 50.262835 
L 218.39179 47.645238 
L 218.987591 52.59203 
L 219.583393 54.35717 
L 220.774996 62.712104 
L 221.370797 48.981124 
L 221.966598 56.146047 
L 222.5624 55.936901 
L 223.158201 43.961991 
L 223.754003 50.754916 
L 224.349804 52.978158 
L 224.945606 54.675677 
L 225.541407 46.374229 
L 226.137209 45.41081 
L 226.73301 50.61096 
L 227.328812 53.057339 
L 227.924613 70.007981 
L 228.520415 56.488597 
L 229.116216 58.361134 
L 229.712017 57.261332 
L 230.307819 52.273172 
L 230.90362 75.498349 
L 231.499422 62.290081 
L 232.095223 57.370693 
L 232.691025 62.26415 
L 233.286826 68.487785 
L 233.882628 54.569795 
L 234.478429 58.569529 
L 235.074231 66.654366 
L 235.670032 58.967646 
L 236.265833 56.133296 
L 236.861635 61.537138 
L 237.457436 56.910876 
L 238.053238 61.733588 
L 238.649039 65.009317 
L 239.244841 70.096552 
L 239.840642 63.745914 
L 240.436444 62.335185 
L 241.032245 58.427963 
L 241.628047 64.933724 
L 242.223848 61.708454 
L 242.81965 70.900985 
L 243.415451 70.109983 
L 244.011252 66.268591 
L 244.607054 72.491338 
L 245.202855 61.166298 
L 245.798657 63.736922 
L 246.394458 65.231397 
L 246.99026 65.209187 
L 247.586061 55.089063 
L 248.181863 70.941376 
L 248.777664 82.080364 
L 249.373466 67.490221 
L 249.969267 69.401539 
L 251.16087 75.893952 
L 252.352473 69.389423 
L 252.948274 74.008309 
L 253.544076 56.22124 
L 254.139877 77.57949 
L 254.735679 76.899466 
L 255.33148 86.571611 
L 255.927282 71.122342 
L 256.523083 85.60364 
L 257.118885 76.773451 
L 257.714686 75.495682 
L 258.310487 78.56234 
L 258.906289 63.68452 
L 259.50209 68.68405 
L 260.097892 67.027773 
L 260.693693 81.09799 
L 261.289495 68.944743 
L 261.885296 73.248139 
L 263.076899 70.658214 
L 263.672701 83.088855 
L 264.268502 80.438161 
L 264.864304 72.791811 
L 265.460105 95.057428 
L 266.055906 69.469596 
L 266.651708 75.810642 
L 267.247509 79.90176 
L 267.843311 78.607408 
L 268.439112 86.753795 
L 269.034914 82.882505 
L 269.630715 74.215806 
L 270.226517 73.345254 
L 270.822318 65.000992 
L 271.41812 82.604211 
L 272.013921 86.601578 
L 272.609722 86.060313 
L 273.205524 89.552746 
L 273.801325 84.055226 
L 274.397127 81.542215 
L 274.992928 84.491005 
L 275.58873 77.804972 
L 276.184531 86.438598 
L 276.780333 87.493047 
L 277.376134 89.296857 
L 277.971936 96.188636 
L 278.567737 96.130417 
L 279.163539 94.055456 
L 279.75934 78.956333 
L 280.355141 81.825935 
L 280.950943 79.179365 
L 281.546744 96.369728 
L 282.142546 100.667798 
L 282.738347 92.856524 
L 283.334149 87.98605 
L 283.92995 86.307266 
L 284.525752 83.217223 
L 285.121553 88.29865 
L 285.717355 79.545538 
L 286.313156 92.102991 
L 287.504759 101.823824 
L 288.10056 97.209328 
L 288.696362 90.483365 
L 289.292163 97.83586 
L 289.887965 86.782942 
L 290.483766 84.130823 
L 291.079568 107.979609 
L 291.675369 88.153727 
L 292.271171 107.775537 
L 292.866972 91.633377 
L 293.462774 86.804231 
L 294.654376 102.980449 
L 295.250178 98.94733 
L 295.845979 97.217775 
L 296.441781 97.006843 
L 297.037582 97.416016 
L 297.633384 97.114841 
L 298.229185 95.376923 
L 298.824987 104.501498 
L 299.420788 98.753945 
L 300.01659 88.062467 
L 300.612391 100.171626 
L 301.208192 100.800535 
L 301.803994 91.583188 
L 302.399795 114.480491 
L 302.995597 91.446481 
L 303.591398 102.982406 
L 304.1872 98.273247 
L 304.783001 98.935857 
L 305.378803 93.90705 
L 305.974604 101.675022 
L 306.570406 104.461931 
L 307.166207 92.39061 
L 307.762009 115.412185 
L 308.35781 100.790317 
L 308.953611 109.526259 
L 309.549413 106.091154 
L 310.145214 89.041589 
L 310.741016 102.047387 
L 311.336817 100.75989 
L 311.932619 113.265427 
L 313.124222 101.342398 
L 313.720023 100.547577 
L 314.315825 99.102115 
L 314.911626 103.071171 
L 315.507428 100.023117 
L 316.103229 100.654051 
L 316.69903 115.040475 
L 317.294832 103.587392 
L 317.890633 99.201225 
L 318.486435 100.469294 
L 319.082236 106.56238 
L 319.678038 109.464519 
L 320.273839 111.559201 
L 320.869641 105.557714 
L 321.465442 97.828703 
L 322.061244 117.168653 
L 322.657045 109.258756 
L 323.252846 112.37457 
L 323.848648 100.517118 
L 324.444449 108.974414 
L 325.040251 108.569757 
L 325.636052 107.102661 
L 326.231854 103.08757 
L 326.827655 108.406753 
L 327.423457 125.026364 
L 328.019258 102.777437 
L 328.61506 103.518046 
L 329.210861 107.705143 
L 329.806663 113.169882 
L 330.402464 104.310835 
L 330.998265 104.214738 
L 331.594067 109.572102 
L 332.189868 108.061678 
L 332.78567 112.564969 
L 333.381471 107.944348 
L 333.977273 116.537845 
L 333.977273 116.537845 
" style="fill:none;stroke:#0000ff;stroke-linecap:square;stroke-width:1.5;"/>
   </g>
   <g id="line2d_2">
    <path clip-path="url(#p63dfb15623)" d="M 29.522727 102.831011 
L 30.118529 103.164501 
L 30.71433 101.664374 
L 31.310132 103.183286 
L 31.905933 104.018591 
L 32.501735 103.933699 
L 33.097536 104.79227 
L 33.693337 103.92451 
L 34.289139 104.086711 
L 34.88494 105.557797 
L 35.480742 104.329733 
L 36.076543 103.544241 
L 36.672345 103.435774 
L 37.268146 101.910542 
L 37.863948 101.529522 
L 39.055551 100.115971 
L 39.651352 100.688106 
L 40.247154 99.698749 
L 40.842955 99.183801 
L 41.438756 99.848508 
L 42.034558 100.042092 
L 42.630359 100.812489 
L 43.226161 101.89919 
L 43.821962 101.011882 
L 45.013565 101.298282 
L 45.609367 101.714068 
L 46.205168 102.393987 
L 46.80097 100.961954 
L 47.396771 100.737672 
L 47.992572 100.866398 
L 48.588374 101.384657 
L 49.184175 100.165633 
L 49.779977 100.568528 
L 50.375778 101.168304 
L 50.97158 100.92213 
L 52.163183 99.348379 
L 52.758984 100.4092 
L 53.354786 100.357759 
L 53.950587 101.065035 
L 54.546389 101.283921 
L 55.14219 101.112614 
L 56.333793 99.736837 
L 56.929594 97.614276 
L 57.525396 97.201016 
L 58.121197 97.878641 
L 58.716999 96.800959 
L 59.3128 97.610896 
L 59.908602 96.959011 
L 61.100205 94.753568 
L 61.696006 95.053236 
L 62.291808 95.692407 
L 62.887609 96.963754 
L 63.48341 97.688429 
L 64.079212 96.139779 
L 64.675013 97.225572 
L 65.866616 96.534192 
L 66.462418 96.511911 
L 67.058219 96.084911 
L 67.654021 94.735306 
L 68.249822 93.868864 
L 68.845624 94.27047 
L 69.441425 93.029456 
L 70.037226 94.048677 
L 70.633028 94.030942 
L 71.228829 92.267677 
L 71.824631 91.486172 
L 72.420432 90.28903 
L 73.016234 90.975721 
L 73.612035 90.715185 
L 74.207837 90.854697 
L 74.803638 90.413379 
L 75.39944 90.190409 
L 75.995241 89.741652 
L 76.591043 88.88112 
L 77.186844 89.574238 
L 77.782645 89.42883 
L 78.378447 89.888839 
L 79.57005 91.204888 
L 80.165851 91.845077 
L 80.761653 90.471833 
L 81.357454 91.551672 
L 81.953256 91.395792 
L 82.549057 90.589387 
L 83.144859 90.420124 
L 83.74066 89.123044 
L 84.336461 89.358767 
L 84.932263 87.986634 
L 85.528064 87.259253 
L 86.123866 86.249983 
L 86.719667 85.96001 
L 87.315469 84.715009 
L 87.91127 83.191572 
L 88.507072 82.354943 
L 89.102873 80.190555 
L 89.698675 79.960857 
L 90.294476 79.026814 
L 90.890278 78.982258 
L 91.486079 77.912734 
L 92.08188 76.416495 
L 92.677682 75.981951 
L 93.273483 76.519364 
L 93.869285 76.652075 
L 94.465086 77.2608 
L 95.060888 78.06942 
L 95.656689 78.5984 
L 96.252491 77.437559 
L 96.848292 76.72638 
L 97.444094 76.556525 
L 98.039895 76.889713 
L 98.635696 77.510944 
L 99.231498 76.394396 
L 99.827299 76.024596 
L 100.423101 74.963929 
L 101.018902 73.366626 
L 101.614704 72.966849 
L 102.210505 73.76373 
L 102.806307 73.812025 
L 103.402108 74.225849 
L 103.99791 73.271854 
L 104.593711 73.279557 
L 105.189513 72.621829 
L 105.785314 72.15121 
L 106.381115 71.880646 
L 106.976917 73.29745 
L 107.572718 73.05843 
L 108.16852 72.989703 
L 109.955924 72.095742 
L 110.551726 71.499444 
L 111.147527 70.696588 
L 111.743329 69.50874 
L 112.33913 70.587942 
L 113.530733 68.676751 
L 114.126534 67.836561 
L 114.722336 67.427489 
L 115.318137 66.824269 
L 115.913939 66.921964 
L 116.50974 66.049292 
L 117.105542 67.235035 
L 117.701343 67.105616 
L 118.297145 64.804072 
L 118.892946 65.236414 
L 119.488748 66.232932 
L 120.084549 65.175692 
L 120.68035 64.952458 
L 121.276152 64.448759 
L 121.871953 64.131349 
L 122.467755 63.179521 
L 123.063556 61.376622 
L 123.659358 62.220485 
L 124.255159 63.430526 
L 124.850961 63.588427 
L 125.446762 61.976503 
L 126.042564 62.723953 
L 126.638365 62.366182 
L 127.234167 62.513116 
L 127.829968 62.036654 
L 128.425769 63.364367 
L 129.021571 63.37354 
L 130.808975 59.984644 
L 131.404777 60.007895 
L 132.000578 58.725864 
L 132.59638 59.845347 
L 133.192181 57.968205 
L 133.787983 57.406934 
L 134.383784 56.324694 
L 134.979585 56.405288 
L 136.171188 55.999139 
L 136.76699 56.797856 
L 137.362791 55.304341 
L 137.958593 55.355495 
L 138.554394 52.731362 
L 139.150196 54.119619 
L 140.341799 52.310556 
L 140.9376 51.437249 
L 141.533402 52.147492 
L 142.129203 51.076647 
L 142.725004 49.141691 
L 143.320806 49.378257 
L 143.916607 49.465514 
L 144.512409 50.168401 
L 145.10821 48.075102 
L 145.704012 49.466449 
L 146.299813 49.507801 
L 146.895615 48.960982 
L 147.491416 48.03482 
L 148.087218 48.214707 
L 149.27882 49.061071 
L 149.874622 49.282866 
L 150.470423 47.754284 
L 151.066225 49.06873 
L 151.662026 48.642618 
L 152.257828 47.957174 
L 154.045232 50.508721 
L 154.641034 49.657163 
L 155.236835 49.819641 
L 155.832637 48.926151 
L 156.428438 49.1279 
L 157.024239 49.600117 
L 157.620041 49.479765 
L 158.215842 49.986308 
L 158.811644 49.496824 
L 160.003247 47.756722 
L 160.599048 48.094929 
L 161.19485 47.934362 
L 161.790651 48.175089 
L 162.386453 49.232128 
L 162.982254 48.243882 
L 163.578056 48.231805 
L 164.173857 48.604941 
L 164.769658 48.754451 
L 165.36546 48.726839 
L 165.961261 47.048044 
L 166.557063 47.357132 
L 167.152864 46.616076 
L 167.748666 45.620083 
L 168.344467 45.7754 
L 168.940269 45.390408 
L 169.53607 45.502457 
L 170.131872 46.371241 
L 170.727673 45.737515 
L 171.919276 47.745462 
L 172.515077 47.683413 
L 173.110879 47.192599 
L 173.70668 46.951918 
L 174.302482 46.457635 
L 174.898283 47.33505 
L 175.494085 47.325996 
L 176.089886 45.921548 
L 176.685688 46.454221 
L 177.281489 45.573184 
L 177.877291 45.745628 
L 178.473092 44.95326 
L 179.068893 45.766536 
L 179.664695 46.909515 
L 180.260496 47.528747 
L 180.856298 46.261854 
L 181.452099 45.950276 
L 182.643702 46.274637 
L 183.239504 47.222787 
L 183.835305 47.650004 
L 184.431107 48.345118 
L 185.026908 48.21726 
L 186.218511 46.503487 
L 186.814312 46.826253 
L 187.410114 46.243089 
L 188.601717 45.550168 
L 189.197518 44.591845 
L 190.389121 44.56142 
L 190.984923 45.732693 
L 191.580724 46.079988 
L 192.176526 46.791791 
L 192.772327 46.943327 
L 193.368128 47.409757 
L 193.96393 47.472814 
L 194.559731 47.373312 
L 195.155533 46.965984 
L 195.751334 47.813814 
L 196.347136 47.895907 
L 196.942937 46.769795 
L 197.538739 48.129482 
L 198.13454 47.402207 
L 198.730342 49.466256 
L 199.326143 50.087476 
L 199.921944 50.238187 
L 200.517746 51.724798 
L 201.113547 52.890543 
L 201.709349 52.984727 
L 202.30515 51.989502 
L 202.900952 52.59858 
L 203.496753 51.355575 
L 204.092555 51.906297 
L 204.688356 50.897003 
L 205.284158 51.445306 
L 205.879959 51.833306 
L 206.475761 51.462007 
L 207.071562 50.50412 
L 207.667363 49.070863 
L 208.263165 49.380825 
L 208.858966 49.152877 
L 210.050569 50.846482 
L 210.646371 50.36038 
L 211.242172 49.346971 
L 211.837974 50.484329 
L 212.433775 50.010535 
L 213.029577 50.262479 
L 213.625378 51.16443 
L 214.816981 53.69261 
L 215.412782 54.458609 
L 216.008584 53.507188 
L 216.604385 54.421492 
L 217.200187 55.036412 
L 217.795988 53.107779 
L 218.39179 53.156989 
L 218.987591 53.690278 
L 219.583393 53.898644 
L 220.179194 53.100351 
L 221.370797 50.58308 
L 221.966598 50.990699 
L 222.5624 52.376893 
L 223.158201 52.432065 
L 223.754003 53.871981 
L 224.349804 54.522622 
L 224.945606 54.452124 
L 225.541407 56.534391 
L 226.137209 58.125974 
L 227.328812 60.487283 
L 227.924613 62.030327 
L 228.520415 60.486507 
L 229.116216 60.694602 
L 229.712017 61.523925 
L 230.307819 61.694555 
L 230.90362 62.080568 
L 231.499422 60.684447 
L 232.095223 60.146526 
L 232.691025 60.582817 
L 233.882628 61.018209 
L 234.478429 61.93582 
L 235.074231 62.312388 
L 235.670032 61.489747 
L 236.861635 62.643872 
L 237.457436 63.580255 
L 238.053238 64.900165 
L 238.649039 65.353666 
L 239.244841 66.101869 
L 239.840642 65.208844 
L 240.436444 65.207945 
L 241.032245 65.497565 
L 241.628047 66.175688 
L 242.223848 65.191222 
L 243.415451 67.232452 
L 244.011252 66.970477 
L 244.607054 67.283771 
L 245.202855 67.30111 
L 245.798657 68.773875 
L 246.394458 69.689487 
L 246.99026 70.10529 
L 247.586061 70.985202 
L 248.181863 71.09842 
L 248.777664 71.762232 
L 249.373466 71.244142 
L 249.969267 73.152281 
L 250.565068 73.324361 
L 251.16087 74.618251 
L 251.756671 74.706202 
L 252.352473 74.966465 
L 252.948274 75.883757 
L 253.544076 74.851378 
L 254.139877 76.097659 
L 254.735679 75.042487 
L 255.33148 75.46234 
L 255.927282 73.699653 
L 256.523083 73.912233 
L 257.118885 72.541784 
L 257.714686 71.93026 
L 258.310487 72.689577 
L 258.906289 72.877159 
L 259.50209 73.787888 
L 260.097892 76.425227 
L 260.693693 76.669409 
L 261.289495 76.140674 
L 261.885296 77.236376 
L 262.481098 77.772303 
L 263.672701 80.480197 
L 264.864304 78.883601 
L 265.460105 78.104519 
L 266.055906 76.859197 
L 266.651708 78.572395 
L 267.843311 80.562461 
L 268.439112 81.107243 
L 269.034914 80.586085 
L 269.630715 80.746934 
L 270.226517 81.105852 
L 270.822318 82.415186 
L 271.41812 84.664391 
L 272.013921 85.333656 
L 273.205524 87.299373 
L 273.801325 87.749644 
L 274.397127 87.239755 
L 274.992928 87.268127 
L 275.58873 86.736963 
L 276.184531 88.593439 
L 276.780333 90.016359 
L 277.376134 90.552705 
L 277.971936 90.421624 
L 278.567737 89.433488 
L 279.163539 88.142167 
L 279.75934 87.566487 
L 280.355141 87.625408 
L 280.950943 88.653113 
L 281.546744 90.407446 
L 282.142546 90.952858 
L 283.334149 90.369694 
L 283.92995 91.354675 
L 285.121553 91.493601 
L 285.717355 93.461699 
L 286.313156 94.322516 
L 286.908957 95.889772 
L 287.504759 95.380839 
L 288.10056 93.878879 
L 288.696362 93.589874 
L 289.292163 94.839583 
L 289.887965 94.950731 
L 290.483766 95.994214 
L 291.079568 97.281816 
L 291.675369 96.225453 
L 292.271171 97.121565 
L 292.866972 95.881704 
L 294.058575 98.363488 
L 294.654376 97.737808 
L 295.250178 97.456926 
L 295.845979 97.642247 
L 296.441781 97.078789 
L 297.037582 98.826151 
L 297.633384 98.229198 
L 298.229185 98.815955 
L 298.824987 99.105587 
L 300.01659 98.064333 
L 300.612391 99.425589 
L 301.208192 99.854621 
L 301.803994 99.013626 
L 302.399795 101.396525 
L 302.995597 100.02751 
L 303.591398 101.835488 
L 304.1872 102.146364 
L 304.783001 101.2232 
L 305.378803 101.534351 
L 305.974604 102.219636 
L 306.570406 103.378676 
L 307.166207 103.623551 
L 307.762009 104.51873 
L 308.35781 103.03227 
L 308.953611 102.863447 
L 310.145214 101.611137 
L 311.336817 104.071691 
L 311.932619 104.354441 
L 312.52842 102.948023 
L 313.124222 102.303883 
L 313.720023 102.825881 
L 314.315825 103.717574 
L 314.911626 104.963282 
L 315.507428 105.211936 
L 316.103229 104.992496 
L 316.69903 106.643958 
L 317.294832 106.065784 
L 317.890633 106.944503 
L 318.486435 107.076091 
L 319.082236 107.926602 
L 319.678038 108.12734 
L 320.273839 107.891152 
L 320.869641 107.043989 
L 321.465442 107.328896 
L 322.061244 110.04866 
L 322.657045 108.60954 
L 323.848648 107.568527 
L 324.444449 108.833802 
L 325.636052 107.931941 
L 326.231854 108.178885 
L 327.423457 109.092118 
L 328.019258 107.383918 
L 328.61506 108.759961 
L 328.61506 108.759961 
" style="fill:none;stroke:#ff0000;stroke-linecap:square;stroke-width:1.5;"/>
   </g>
   <g id="patch_3">
    <path d="M 14.3 129.7 
L 14.3 26.88 
" style="fill:none;stroke:#000000;stroke-linecap:square;stroke-linejoin:miter;stroke-width:0.8;"/>
   </g>
   <g id="patch_4">
    <path d="M 349.2 129.7 
L 349.2 26.88 
" style="fill:none;stroke:#000000;stroke-linecap:square;stroke-linejoin:miter;stroke-width:0.8;"/>
   </g>
   <g id="patch_5">
    <path d="M 14.3 129.7 
L 349.2 129.7 
" style="fill:none;stroke:#000000;stroke-linecap:square;stroke-linejoin:miter;stroke-width:0.8;"/>
   </g>
   <g id="patch_6">
    <path d="M 14.3 26.88 
L 349.2 26.88 
" style="fill:none;stroke:#000000;stroke-linecap:square;stroke-linejoin:miter;stroke-width:0.8;"/>
   </g>
   <g id="text_1">
    <!-- SMA: 10 -->
    <defs>
     <path d="M 53.515625 70.515625 
L 53.515625 60.890625 
Q 47.90625 63.578125 42.921875 64.890625 
Q 37.9375 66.21875 33.296875 66.21875 
Q 25.25 66.21875 20.875 63.09375 
Q 16.5 59.96875 16.5 54.203125 
Q 16.5 49.359375 19.40625 46.890625 
Q 22.3125 44.4375 30.421875 42.921875 
L 36.375 41.703125 
Q 47.40625 39.59375 52.65625 34.296875 
Q 57.90625 29 57.90625 20.125 
Q 57.90625 9.515625 50.796875 4.046875 
Q 43.703125 -1.421875 29.984375 -1.421875 
Q 24.8125 -1.421875 18.96875 -0.25 
Q 13.140625 0.921875 6.890625 3.21875 
L 6.890625 13.375 
Q 12.890625 10.015625 18.65625 8.296875 
Q 24.421875 6.59375 29.984375 6.59375 
Q 38.421875 6.59375 43.015625 9.90625 
Q 47.609375 13.234375 47.609375 19.390625 
Q 47.609375 24.75 44.3125 27.78125 
Q 41.015625 30.8125 33.5 32.328125 
L 27.484375 33.5 
Q 16.453125 35.6875 11.515625 40.375 
Q 6.59375 45.0625 6.59375 53.421875 
Q 6.59375 63.09375 13.40625 68.65625 
Q 20.21875 74.21875 32.171875 74.21875 
Q 37.3125 74.21875 42.625 73.28125 
Q 47.953125 72.359375 53.515625 70.515625 
z
" id="DejaVuSans-83"/>
     <path d="M 9.8125 72.90625 
L 24.515625 72.90625 
L 43.109375 23.296875 
L 61.8125 72.90625 
L 76.515625 72.90625 
L 76.515625 0 
L 66.890625 0 
L 66.890625 64.015625 
L 48.09375 14.015625 
L 38.1875 14.015625 
L 19.390625 64.015625 
L 19.390625 0 
L 9.8125 0 
z
" id="DejaVuSans-77"/>
     <path d="M 34.1875 63.1875 
L 20.796875 26.90625 
L 47.609375 26.90625 
z
M 28.609375 72.90625 
L 39.796875 72.90625 
L 67.578125 0 
L 57.328125 0 
L 50.6875 18.703125 
L 17.828125 18.703125 
L 11.1875 0 
L 0.78125 0 
z
" id="DejaVuSans-65"/>
     <path d="M 11.71875 12.40625 
L 22.015625 12.40625 
L 22.015625 0 
L 11.71875 0 
z
M 11.71875 51.703125 
L 22.015625 51.703125 
L 22.015625 39.3125 
L 11.71875 39.3125 
z
" id="DejaVuSans-58"/>
     <path id="DejaVuSans-32"/>
     <path d="M 12.40625 8.296875 
L 28.515625 8.296875 
L 28.515625 63.921875 
L 10.984375 60.40625 
L 10.984375 69.390625 
L 28.421875 72.90625 
L 38.28125 72.90625 
L 38.28125 8.296875 
L 54.390625 8.296875 
L 54.390625 0 
L 12.40625 0 
z
" id="DejaVuSans-49"/>
     <path d="M 31.78125 66.40625 
Q 24.171875 66.40625 20.328125 58.90625 
Q 16.5 51.421875 16.5 36.375 
Q 16.5 21.390625 20.328125 13.890625 
Q 24.171875 6.390625 31.78125 6.390625 
Q 39.453125 6.390625 43.28125 13.890625 
Q 47.125 21.390625 47.125 36.375 
Q 47.125 51.421875 43.28125 58.90625 
Q 39.453125 66.40625 31.78125 66.40625 
z
M 31.78125 74.21875 
Q 44.046875 74.21875 50.515625 64.515625 
Q 56.984375 54.828125 56.984375 36.375 
Q 56.984375 17.96875 50.515625 8.265625 
Q 44.046875 -1.421875 31.78125 -1.421875 
Q 19.53125 -1.421875 13.0625 8.265625 
Q 6.59375 17.96875 6.59375 36.375 
Q 6.59375 54.828125 13.0625 64.515625 
Q 19.53125 74.21875 31.78125 74.21875 
z
" id="DejaVuSans-48"/>
    </defs>
    <g transform="translate(157.201562 20.88)scale(0.12 -0.12)">
     <use xlink:href="#DejaVuSans-83"/>
     <use x="63.476562" xlink:href="#DejaVuSans-77"/>
     <use x="149.755859" xlink:href="#DejaVuSans-65"/>
     <use x="216.414062" xlink:href="#DejaVuSans-58"/>
     <use x="250.105469" xlink:href="#DejaVuSans-32"/>
     <use x="281.892578" xlink:href="#DejaVuSans-49"/>
     <use x="345.515625" xlink:href="#DejaVuSans-48"/>
    </g>
   </g>
  </g>
 </g>
 <defs>
  <clipPath id="p63dfb15623">
   <rect height="102.82" width="334.9" x="14.3" y="26.88"/>
  </clipPath>
 </defs>
</svg>
