<?xml version="1.0" encoding="utf-8" standalone="no"?>
<!DOCTYPE svg PUBLIC "-//W3C//DTD SVG 1.1//EN"
  "http://www.w3.org/Graphics/SVG/1.1/DTD/svg11.dtd">
<!-- Created with matplotlib (https://matplotlib.org/) -->
<svg height="144pt" version="1.1" viewBox="0 0 360 144" width="360pt" xmlns="http://www.w3.org/2000/svg" xmlns:xlink="http://www.w3.org/1999/xlink">
 <defs>
  <style type="text/css">
*{stroke-linecap:butt;stroke-linejoin:round;}
  </style>
 </defs>
 <g id="figure_1">
  <g id="patch_1">
   <path d="M 0 144 
L 360 144 
L 360 0 
L 0 0 
z
" style="fill:#ffffff;"/>
  </g>
  <g id="axes_1">
   <g id="patch_2">
    <path d="M 13.32 130.68 
L 346.68 130.68 
L 346.68 26.88 
L 13.32 26.88 
z
" style="fill:#ffffff;"/>
   </g>
   <g id="matplotlib.axis_1"/>
   <g id="matplotlib.axis_2"/>
   <g id="line2d_1">
    <path clip-path="url(#pfb6108c33b)" d="M 28.472727 101.022276 
L 29.065789 110.12839 
L 29.658851 99.85384 
L 30.251912 106.164528 
L 30.844974 101.268792 
L 31.438036 105.095551 
L 32.031098 102.819183 
L 32.624159 107.113822 
L 33.217221 95.872695 
L 33.810283 106.210055 
L 34.403345 104.388959 
L 34.996406 94.98416 
L 35.589468 115.187731 
L 36.18253 114.597187 
L 36.775592 100.411805 
L 37.368653 113.763062 
L 37.961715 94.058875 
L 38.554777 108.751305 
L 39.147838 110.723768 
L 39.7409 93.812363 
L 40.333962 96.459146 
L 40.927024 93.889169 
L 41.520085 99.790065 
L 42.113147 110.750664 
L 42.706209 93.185157 
L 43.299271 106.719456 
L 43.892332 99.834774 
L 44.485394 98.76343 
L 45.078456 105.525212 
L 45.671518 100.522809 
L 46.264579 98.413439 
L 46.857641 101.666557 
L 47.450703 110.760662 
L 48.043764 101.792994 
L 48.636826 95.143618 
L 49.229888 107.652304 
L 49.82295 104.032239 
L 50.416011 105.627409 
L 51.009073 91.068437 
L 51.602135 98.258598 
L 52.195197 99.712954 
L 52.788258 106.898562 
L 53.38132 98.454216 
L 53.974382 105.860337 
L 54.567444 101.198553 
L 55.160505 105.167101 
L 55.753567 96.689417 
L 56.346629 97.082709 
L 56.93969 101.77778 
L 57.532752 97.739294 
L 58.125814 106.853141 
L 58.718876 109.108279 
L 59.311937 96.724821 
L 59.904999 98.185045 
L 60.498061 94.98492 
L 61.091123 83.739207 
L 61.684184 92.517431 
L 62.277246 103.923513 
L 62.870308 90.898263 
L 63.46337 105.915853 
L 64.056431 100.272159 
L 64.649493 97.522575 
L 65.242555 86.045892 
L 65.835616 101.210276 
L 66.428678 101.437566 
L 67.02174 96.57385 
L 67.614802 99.833263 
L 68.207863 88.289396 
L 68.800925 101.859682 
L 69.393987 101.98489 
L 69.987049 97.223437 
L 70.58011 97.297627 
L 71.173172 81.7352 
L 72.359295 92.690548 
L 72.952357 100.62821 
L 73.545419 87.304833 
L 74.138481 98.578755 
L 74.731542 101.680641 
L 75.324604 84.184178 
L 75.917666 89.333908 
L 76.510728 85.212088 
L 77.103789 88.66756 
L 77.696851 84.955395 
L 78.289913 94.098956 
L 78.882975 96.172978 
L 79.476036 85.053889 
L 80.069098 94.048407 
L 80.66216 92.993305 
L 81.255221 91.181415 
L 81.848283 87.865965 
L 82.441345 89.856019 
L 83.034407 95.926164 
L 83.627468 90.982733 
L 84.22053 100.561859 
L 84.813592 82.309636 
L 85.406654 95.955217 
L 85.999715 92.474746 
L 86.592777 84.852406 
L 87.185839 89.472626 
L 87.778901 74.771535 
L 88.371962 92.235736 
L 88.965024 82.074055 
L 89.558086 83.63959 
L 90.151147 90.372955 
L 90.744209 79.382278 
L 91.337271 83.38655 
L 91.930333 77.095174 
L 92.523394 76.406371 
L 93.116456 67.622451 
L 93.709518 72.452662 
L 94.30258 82.806278 
L 94.895641 81.624255 
L 95.488703 72.842413 
L 96.081765 75.267947 
L 96.674827 74.995424 
L 97.267888 88.811906 
L 97.86095 78.434929 
L 98.454012 82.551643 
L 99.047073 75.785722 
L 99.640135 77.792877 
L 100.233197 71.087224 
L 100.826259 74.444683 
L 101.41932 71.127679 
L 102.012382 78.63158 
L 102.605444 81.266945 
L 103.198506 77.540001 
L 104.384629 71.843883 
L 104.977691 59.660444 
L 105.570753 73.757002 
L 106.163814 79.131996 
L 106.756876 74.932227 
L 107.349938 75.305368 
L 107.942999 69.000701 
L 108.536061 81.34471 
L 109.129123 70.900033 
L 110.315246 69.112444 
L 110.908308 73.963529 
L 111.50137 71.344016 
L 112.094432 78.438178 
L 112.687493 72.229989 
L 113.280555 72.18331 
L 113.873617 65.800179 
L 114.466679 75.324891 
L 115.05974 62.794959 
L 115.652802 57.958942 
L 116.245864 80.007326 
L 116.838925 63.969073 
L 117.431987 62.044401 
L 118.025049 69.956192 
L 119.211172 66.093625 
L 119.804234 66.786431 
L 120.397296 66.515002 
L 120.990358 74.765417 
L 121.583419 56.652417 
L 122.176481 56.772512 
L 122.769543 68.333702 
L 123.362605 72.104557 
L 123.955666 59.283023 
L 124.548728 65.84666 
L 125.14179 61.008633 
L 125.734851 63.582077 
L 126.327913 56.906011 
L 126.920975 56.564572 
L 127.514037 65.171487 
L 128.107098 68.988241 
L 128.70016 69.927771 
L 129.293222 55.831691 
L 129.886284 66.828762 
L 130.479345 62.234834 
L 131.072407 62.491988 
L 131.665469 58.772034 
L 132.258531 70.309702 
L 132.851592 56.657183 
L 133.444654 54.25598 
L 134.630777 58.919507 
L 135.223839 56.066426 
L 135.816901 53.886253 
L 136.409963 73.536374 
L 137.003024 43.54164 
L 137.596086 53.105815 
L 138.189148 59.38415 
L 138.78221 57.470826 
L 139.375271 51.64378 
L 139.968333 55.212032 
L 140.561395 66.982803 
L 141.154457 40.988923 
L 141.747518 54.402674 
L 142.34058 47.044935 
L 142.933642 57.556527 
L 143.526703 43.306716 
L 144.119765 50.920194 
L 144.712827 48.654525 
L 145.305889 58.813903 
L 145.89895 44.401508 
L 146.492012 47.448836 
L 147.085074 43.377119 
L 147.678136 55.283554 
L 148.271197 54.140799 
L 148.864259 36.424033 
L 149.457321 57.352805 
L 150.050382 51.337639 
L 150.643444 43.134224 
L 151.236506 49.464011 
L 151.829568 46.217536 
L 152.422629 52.197921 
L 153.015691 47.172319 
L 153.608753 57.52264 
L 154.201815 38.709301 
L 154.794876 49.693785 
L 155.387938 53.051048 
L 155.981 44.417885 
L 156.574062 51.33407 
L 157.167123 56.660631 
L 157.760185 56.579719 
L 158.353247 43.601167 
L 158.946308 48.812589 
L 159.53937 48.50261 
L 160.132432 40.745994 
L 160.725494 54.460986 
L 162.504679 46.392594 
L 163.097741 47.127344 
L 163.690802 48.546113 
L 164.283864 47.015468 
L 164.876926 47.191641 
L 165.469988 50.932822 
L 166.063049 51.417115 
L 166.656111 44.48434 
L 167.249173 51.71413 
L 167.842234 53.298493 
L 168.435296 47.901932 
L 169.028358 46.848577 
L 169.62142 31.598182 
L 170.214481 50.135799 
L 170.807543 39.710446 
L 171.400605 40.877999 
L 171.993667 52.985061 
L 172.586728 40.597724 
L 173.17979 52.845324 
L 173.772852 62.069128 
L 174.365914 41.504247 
L 174.958975 56.310407 
L 175.552037 42.407228 
L 176.145099 49.50939 
L 176.73816 34.755538 
L 177.331222 38.448231 
L 177.924284 47.995109 
L 178.517346 49.455505 
L 179.110407 52.753943 
L 179.703469 47.890797 
L 180.296531 46.881729 
L 180.889593 47.416075 
L 181.482654 44.148068 
L 182.075716 41.51019 
L 182.668778 42.965804 
L 183.26184 49.987007 
L 183.854901 54.246449 
L 184.447963 36.665816 
L 185.041025 49.608462 
L 185.634086 49.413877 
L 186.227148 48.633186 
L 186.82021 56.987931 
L 187.413272 48.460936 
L 188.006333 48.527603 
L 188.599395 41.675049 
L 189.192457 41.24889 
L 189.785519 45.683483 
L 190.37858 39.924228 
L 190.971642 43.721258 
L 191.564704 46.037915 
L 192.157766 45.013871 
L 192.750827 47.313405 
L 193.343889 48.690903 
L 193.936951 47.990486 
L 194.530012 53.499415 
L 195.123074 44.754883 
L 195.716136 52.86937 
L 196.309198 41.45405 
L 196.902259 48.43002 
L 197.495321 46.674491 
L 198.088383 44.009359 
L 198.681445 43.201329 
L 199.274506 57.249988 
L 199.867568 48.819234 
L 200.46063 42.130979 
L 201.053692 58.481343 
L 201.646753 45.52729 
L 202.239815 62.291276 
L 203.425938 48.195952 
L 204.019 59.017165 
L 204.612062 54.96988 
L 205.205124 58.200796 
L 205.798185 38.772118 
L 206.391247 48.279828 
L 206.984309 45.932819 
L 207.577371 51.087003 
L 208.170432 52.102157 
L 208.763494 60.236725 
L 209.356556 52.112928 
L 209.949618 55.268799 
L 210.542679 45.299703 
L 211.728803 41.901263 
L 212.321864 45.978622 
L 212.914926 55.320624 
L 213.507988 58.796674 
L 214.10105 47.194811 
L 214.694111 50.006025 
L 215.287173 63.594948 
L 215.880235 50.485702 
L 216.473297 47.843156 
L 217.066358 52.837097 
L 217.65942 54.619061 
L 218.845543 63.053627 
L 219.438605 49.191774 
L 220.031667 56.424988 
L 220.624729 56.213849 
L 221.21779 44.124803 
L 221.810852 50.982473 
L 222.403914 53.226905 
L 222.996976 54.940603 
L 223.590037 46.560033 
L 224.183099 45.587431 
L 224.776161 50.837145 
L 225.369223 53.306841 
L 225.962284 70.419043 
L 226.555346 56.770803 
L 227.148408 58.661188 
L 227.741469 57.550903 
L 228.334531 52.5152 
L 228.927593 75.961741 
L 229.520655 62.627582 
L 230.113716 57.661307 
L 230.706778 62.601404 
L 231.29984 68.884358 
L 231.892902 54.833712 
L 232.485963 58.871568 
L 233.079025 67.033464 
L 233.672087 59.27348 
L 234.265149 56.412115 
L 234.85821 61.867463 
L 235.451272 57.197107 
L 236.044334 62.065786 
L 236.637395 65.372736 
L 237.230457 70.508458 
L 237.823519 64.097291 
L 238.416581 62.673116 
L 239.009642 58.728653 
L 239.602704 65.296422 
L 240.195766 62.040411 
L 240.788828 71.320559 
L 241.381889 70.522018 
L 241.974951 66.644013 
L 242.568013 72.92607 
L 243.161075 61.493088 
L 243.754136 64.088214 
L 244.347198 65.596932 
L 244.94026 65.574511 
L 245.533321 55.35793 
L 246.126383 71.361334 
L 246.719445 82.60649 
L 247.312507 67.877286 
L 247.905568 69.806821 
L 249.091692 76.361114 
L 250.277815 69.79459 
L 250.870877 74.457499 
L 251.463939 56.500898 
L 252.057001 78.062718 
L 252.650062 77.376212 
L 253.243124 87.140544 
L 253.836186 71.544025 
L 254.429247 86.163348 
L 255.022309 77.248997 
L 255.615371 75.959049 
L 256.208433 79.054935 
L 256.801494 64.035312 
L 257.394556 69.082493 
L 257.987618 67.41043 
L 258.58068 81.614753 
L 259.173741 69.345672 
L 259.766803 73.690084 
L 260.952927 71.075474 
L 261.545988 83.624594 
L 262.13905 80.948636 
L 262.732112 73.229407 
L 263.325173 95.707242 
L 263.918235 69.875527 
L 264.511297 76.277011 
L 265.104359 80.407122 
L 265.69742 79.100433 
L 266.290482 87.324465 
L 266.883544 83.416277 
L 267.476606 74.666974 
L 268.069667 73.788125 
L 268.662729 65.364332 
L 269.255791 83.13533 
L 269.848853 87.170798 
L 270.441914 86.624373 
L 271.034976 90.150093 
L 271.628038 84.600176 
L 272.221099 82.063213 
L 272.814161 85.040108 
L 273.407223 78.290349 
L 274.000285 87.006264 
L 274.593346 88.070763 
L 275.186408 89.891766 
L 275.77947 96.849232 
L 276.372532 96.790458 
L 276.965593 94.69572 
L 277.558655 79.452684 
L 278.151717 82.349637 
L 278.744779 79.677841 
L 279.33784 97.03205 
L 279.930902 101.371086 
L 280.523964 93.485361 
L 281.117025 88.568465 
L 281.710087 86.873681 
L 282.303149 83.754185 
L 282.896211 88.884045 
L 283.489272 80.047505 
L 284.082334 92.724646 
L 285.268458 102.53813 
L 285.861519 97.879653 
L 286.454581 91.089582 
L 287.047643 98.512156 
L 287.640705 87.35389 
L 288.233766 84.676493 
L 288.826828 108.752587 
L 289.41989 88.737741 
L 290.012951 108.54657 
L 290.606013 92.250556 
L 291.199075 87.375382 
L 292.385198 103.705779 
L 292.97826 99.63422 
L 293.571322 97.88818 
L 294.164384 97.675237 
L 294.757445 98.08831 
L 295.350507 97.784265 
L 295.943569 96.029782 
L 296.53663 105.241325 
L 297.129692 99.438991 
L 297.722754 88.64561 
L 298.315816 100.870184 
L 298.908877 101.505088 
L 299.501939 92.199888 
L 300.095001 115.31543 
L 300.688063 92.061878 
L 301.281124 103.707755 
L 301.874186 98.953712 
L 302.467248 99.622637 
L 303.06031 94.5459 
L 303.653371 102.38791 
L 304.246433 105.201381 
L 304.839495 93.015006 
L 305.432556 116.256005 
L 306.025618 101.494772 
L 306.61868 110.313978 
L 307.211742 106.846133 
L 307.804803 89.634065 
L 308.397865 102.763823 
L 308.990927 101.464055 
L 309.583989 114.088785 
L 310.770112 102.052115 
L 311.363174 101.249719 
L 311.956236 99.79048 
L 312.549297 103.797366 
L 313.142359 100.72026 
L 313.735421 101.357208 
L 314.328482 115.880752 
L 314.921544 104.318507 
L 315.514606 99.890534 
L 316.107668 101.17069 
L 316.700729 107.32185 
L 317.293791 110.251651 
L 317.886853 112.366297 
L 318.479915 106.307609 
L 319.072976 98.50493 
L 319.666038 118.029214 
L 320.2591 110.043926 
L 320.852162 113.189437 
L 321.445223 101.218969 
L 322.038285 109.756874 
L 322.631347 109.34836 
L 323.224408 107.867281 
L 323.81747 103.813921 
L 324.410532 109.183802 
L 325.003594 125.961818 
L 325.596655 103.500832 
L 326.189717 104.2485 
L 326.782779 108.475505 
L 327.375841 113.992329 
L 327.968902 105.048845 
L 328.561964 104.951832 
L 329.155026 110.360259 
L 329.748088 108.835439 
L 330.341149 113.381651 
L 330.934211 108.71699 
L 331.527273 117.392393 
L 331.527273 117.392393 
" style="fill:none;stroke:#0000ff;stroke-linecap:square;stroke-width:1.5;"/>
   </g>
   <g id="line2d_2">
    <path clip-path="url(#pfb6108c33b)" d="M 28.472727 103.554917 
L 29.065789 103.891585 
L 29.658851 102.37716 
L 30.251912 103.91055 
L 30.844974 104.753816 
L 31.438036 104.668114 
L 32.031098 105.534869 
L 32.624159 104.658838 
L 33.217221 104.822585 
L 33.810283 106.307692 
L 34.403345 105.067924 
L 34.996406 104.274945 
L 35.589468 104.165444 
L 36.18253 102.625675 
L 36.775592 102.241023 
L 37.961715 100.813999 
L 38.554777 101.391587 
L 39.147838 100.392801 
L 39.7409 99.872945 
L 40.333962 100.543987 
L 40.927024 100.739416 
L 41.520085 101.517156 
L 42.113147 102.614215 
L 42.706209 101.718449 
L 43.892332 102.007579 
L 44.485394 102.427327 
L 45.078456 103.113728 
L 45.671518 101.668046 
L 46.264579 101.441625 
L 46.857641 101.571578 
L 47.450703 102.094778 
L 48.043764 100.864134 
L 48.636826 101.27087 
L 49.229888 101.876362 
L 49.82295 101.627842 
L 51.009073 100.039091 
L 51.602135 101.110023 
L 52.195197 101.058092 
L 52.788258 101.772109 
L 53.38132 101.993081 
L 53.974382 101.820142 
L 55.160505 100.431251 
L 55.753567 98.28846 
L 56.346629 97.871261 
L 56.93969 98.555344 
L 57.532752 97.467391 
L 58.125814 98.285048 
L 58.718876 97.626949 
L 59.904999 95.400486 
L 60.498061 95.70301 
L 61.091123 96.348273 
L 61.684184 97.631738 
L 62.277246 98.36332 
L 62.870308 96.799909 
L 63.46337 97.896051 
L 64.649493 97.198082 
L 65.242555 97.175588 
L 65.835616 96.744519 
L 66.428678 95.382049 
L 67.02174 94.50735 
L 67.614802 94.912784 
L 68.207863 93.659941 
L 68.800925 94.688877 
L 69.393987 94.670972 
L 69.987049 92.890901 
L 70.58011 92.101948 
L 71.173172 90.893395 
L 71.766234 91.586631 
L 72.359295 91.323612 
L 72.952357 91.464454 
L 73.545419 91.01893 
L 74.138481 90.793835 
L 74.731542 90.3408 
L 75.324604 89.472066 
L 75.917666 90.17179 
L 76.510728 90.024997 
L 77.103789 90.48939 
L 78.289913 91.817983 
L 78.882975 92.464274 
L 79.476036 91.077941 
L 80.069098 92.168072 
L 80.66216 92.010706 
L 81.255221 91.196615 
L 81.848283 91.025739 
L 82.441345 89.716296 
L 83.034407 89.954266 
L 83.627468 88.569054 
L 84.22053 87.834741 
L 84.813592 86.815851 
L 85.406654 86.523114 
L 85.999715 85.266248 
L 86.592777 83.72829 
L 87.185839 82.883687 
L 87.778901 80.69867 
L 88.371962 80.466782 
L 88.965024 79.523836 
L 89.558086 79.478857 
L 90.151147 78.399139 
L 90.744209 76.888638 
L 91.337271 76.449952 
L 91.930333 76.992488 
L 92.523394 77.126464 
L 93.116456 77.740991 
L 93.709518 78.557318 
L 94.30258 79.091339 
L 94.895641 77.919434 
L 95.488703 77.201477 
L 96.081765 77.030003 
L 96.674827 77.366367 
L 97.267888 77.993519 
L 97.86095 76.866328 
L 98.454012 76.493004 
L 99.047073 75.422228 
L 99.640135 73.8097 
L 100.233197 73.406112 
L 100.826259 74.210589 
L 101.41932 74.259344 
L 102.012382 74.677113 
L 102.605444 73.714025 
L 103.198506 73.721801 
L 103.791567 73.057805 
L 104.384629 72.5827 
L 104.977691 72.309557 
L 105.570753 73.739865 
L 106.163814 73.498567 
L 106.756876 73.429185 
L 108.536061 72.526703 
L 109.129123 71.924721 
L 109.722185 71.114214 
L 110.315246 69.915044 
L 110.908308 71.004532 
L 112.094432 69.075125 
L 112.687493 68.226927 
L 113.280555 67.813956 
L 113.873617 67.204987 
L 114.466679 67.303613 
L 115.05974 66.422623 
L 115.652802 67.619668 
L 116.245864 67.489015 
L 116.838925 65.165534 
L 117.431987 65.601997 
L 118.025049 66.608014 
L 118.618111 65.540696 
L 119.211172 65.315335 
L 119.804234 64.806835 
L 120.397296 64.486399 
L 120.990358 63.5255 
L 121.583419 61.705416 
L 122.176481 62.557323 
L 122.769543 63.778897 
L 123.362605 63.938303 
L 123.955666 62.311016 
L 124.548728 63.065589 
L 125.14179 62.704409 
L 125.734851 62.852743 
L 126.327913 62.37174 
L 126.920975 63.712108 
L 127.514037 63.721368 
L 129.293222 60.300171 
L 129.886284 60.323644 
L 130.479345 59.029393 
L 131.072407 60.159547 
L 131.665469 58.264513 
L 132.258531 57.697893 
L 132.851592 56.605338 
L 133.444654 56.6867 
L 134.630777 56.27668 
L 135.223839 57.083009 
L 135.816901 55.575259 
L 136.409963 55.626901 
L 137.003024 52.977757 
L 137.596086 54.379246 
L 138.78221 52.55294 
L 139.375271 51.67131 
L 139.968333 52.388322 
L 140.561395 51.307271 
L 141.154457 49.353872 
L 141.747518 49.592693 
L 142.34058 49.680781 
L 142.933642 50.390368 
L 143.526703 48.277118 
L 144.119765 49.681725 
L 144.712827 49.723472 
L 145.305889 49.171441 
L 145.89895 48.236451 
L 146.492012 48.418053 
L 147.678136 49.272484 
L 148.271197 49.496392 
L 148.864259 47.953241 
L 149.457321 49.280215 
L 150.050382 48.850042 
L 150.643444 48.158065 
L 152.422629 50.733932 
L 153.015691 49.874257 
L 153.608753 50.038284 
L 154.201815 49.136277 
L 154.794876 49.339949 
L 155.387938 49.816667 
L 155.981 49.695169 
L 156.574062 50.206539 
L 157.167123 49.71239 
L 158.353247 47.955702 
L 158.946308 48.297133 
L 159.53937 48.135036 
L 160.132432 48.378057 
L 160.725494 49.445171 
L 161.318555 48.447506 
L 161.911617 48.435314 
L 162.504679 48.812006 
L 163.097741 48.962941 
L 163.690802 48.935066 
L 164.283864 47.24027 
L 164.876926 47.552304 
L 165.469988 46.804185 
L 166.063049 45.798699 
L 166.656111 45.955496 
L 167.249173 45.566835 
L 167.842234 45.679952 
L 168.435296 46.557017 
L 169.028358 45.91725 
L 170.214481 47.944336 
L 170.807543 47.881695 
L 171.400605 47.386203 
L 171.993667 47.143228 
L 172.586728 46.644234 
L 173.17979 47.530011 
L 173.772852 47.520872 
L 174.365914 46.103038 
L 174.958975 46.640788 
L 175.552037 45.751352 
L 176.145099 45.92544 
L 176.73816 45.12552 
L 177.331222 45.946548 
L 177.924284 47.100421 
L 178.517346 47.725555 
L 179.110407 46.446587 
L 179.703469 46.132039 
L 180.889593 46.459491 
L 181.482654 47.416679 
L 182.075716 47.847967 
L 182.668778 48.549707 
L 183.26184 48.42063 
L 184.447963 46.690522 
L 185.041025 47.016365 
L 185.634086 46.427643 
L 186.82021 45.728117 
L 187.413272 44.760661 
L 188.599395 44.729945 
L 189.192457 45.912382 
L 189.785519 46.262987 
L 190.37858 46.981574 
L 190.971642 47.134555 
L 191.564704 47.605431 
L 192.157766 47.669089 
L 192.750827 47.568638 
L 193.343889 47.157428 
L 193.936951 48.013339 
L 194.530012 48.096214 
L 195.123074 46.959369 
L 195.716136 48.332016 
L 196.309198 47.597808 
L 196.902259 49.68153 
L 197.495321 50.308672 
L 198.088383 50.460819 
L 198.681445 51.961599 
L 199.274506 53.138455 
L 199.867568 53.233536 
L 200.46063 52.228826 
L 201.053692 52.84371 
L 201.646753 51.588857 
L 202.239815 52.144829 
L 202.832877 51.125914 
L 203.425938 51.679444 
L 204.019 52.071141 
L 204.612062 51.696303 
L 205.205124 50.729287 
L 205.798185 49.282369 
L 206.391247 49.595285 
L 206.984309 49.365164 
L 208.170432 51.074912 
L 208.763494 50.584177 
L 209.356556 49.561109 
L 209.949618 50.709307 
L 210.542679 50.230997 
L 211.135741 50.485342 
L 211.728803 51.395891 
L 212.914926 53.948167 
L 213.507988 54.721467 
L 214.10105 53.760978 
L 214.694111 54.683996 
L 215.287173 55.304777 
L 215.880235 53.357762 
L 216.473297 53.407441 
L 217.066358 53.945812 
L 217.65942 54.156165 
L 218.252482 53.350263 
L 219.438605 50.809 
L 220.031667 51.220503 
L 220.624729 52.61991 
L 221.21779 52.675608 
L 221.810852 54.129248 
L 222.403914 54.78609 
L 222.996976 54.71492 
L 223.590037 56.817033 
L 224.183099 58.423786 
L 225.369223 60.807601 
L 225.962284 62.365352 
L 226.555346 60.806818 
L 227.148408 61.016896 
L 227.741469 61.854124 
L 228.334531 62.02638 
L 228.927593 62.416072 
L 229.520655 61.006645 
L 230.113716 60.463596 
L 230.706778 60.904046 
L 231.892902 61.343588 
L 232.485963 62.269945 
L 233.079025 62.650102 
L 233.672087 61.81962 
L 234.85821 62.984745 
L 235.451272 63.930053 
L 236.044334 65.262544 
L 236.637395 65.720367 
L 237.230457 66.475701 
L 237.823519 65.574164 
L 238.416581 65.573257 
L 239.009642 65.865638 
L 239.602704 66.550224 
L 240.195766 65.556374 
L 241.381889 67.61706 
L 241.974951 67.352588 
L 242.568013 67.668868 
L 243.161075 67.686373 
L 243.754136 69.173175 
L 244.347198 70.097513 
L 244.94026 70.51728 
L 245.533321 71.405579 
L 246.126383 71.519876 
L 246.719445 72.190014 
L 247.312507 71.666986 
L 247.905568 73.593312 
L 248.49863 73.767032 
L 249.091692 75.073255 
L 249.684754 75.162044 
L 250.277815 75.424788 
L 250.870877 76.350822 
L 251.463939 75.308604 
L 252.057001 76.566764 
L 252.650062 75.501535 
L 253.243124 75.925389 
L 253.836186 74.145901 
L 254.429247 74.360507 
L 255.022309 72.976996 
L 255.615371 72.359644 
L 256.208433 73.126198 
L 256.801494 73.315568 
L 257.394556 74.234978 
L 257.987618 76.897453 
L 258.58068 77.143963 
L 259.173741 76.610188 
L 259.766803 77.716334 
L 260.359865 78.257368 
L 261.545988 80.991072 
L 262.732112 79.379258 
L 263.325173 78.592751 
L 263.918235 77.335559 
L 264.511297 79.065087 
L 265.69742 81.07412 
L 266.290482 81.624095 
L 266.883544 81.097969 
L 267.476606 81.260352 
L 268.069667 81.62269 
L 268.662729 82.944504 
L 269.255791 85.215147 
L 269.848853 85.890791 
L 271.034976 87.875243 
L 271.628038 88.329806 
L 272.221099 87.815057 
L 272.814161 87.843699 
L 273.407223 87.307473 
L 274.000285 89.181644 
L 274.593346 90.618126 
L 275.186408 91.159583 
L 275.77947 91.027253 
L 276.372532 90.029699 
L 276.965593 88.726071 
L 277.558655 88.144903 
L 278.151717 88.204385 
L 278.744779 89.241886 
L 279.33784 91.01294 
L 279.930902 91.563551 
L 281.117025 90.974829 
L 281.710087 91.969198 
L 282.896211 92.109448 
L 283.489272 94.096303 
L 284.082334 94.965326 
L 284.675396 96.54752 
L 285.268458 96.033735 
L 285.861519 94.51746 
L 286.454581 94.2257 
L 287.047643 95.487321 
L 287.640705 95.599528 
L 288.233766 96.652956 
L 288.826828 97.952831 
L 289.41989 96.8864 
L 290.012951 97.791052 
L 290.606013 96.539374 
L 291.792137 99.044813 
L 292.385198 98.413169 
L 292.97826 98.12961 
L 293.571322 98.316698 
L 294.164384 97.747869 
L 294.757445 99.511885 
L 295.350507 98.909243 
L 295.943569 99.501592 
L 296.53663 99.793985 
L 297.722754 98.742806 
L 298.315816 100.117037 
L 298.908877 100.550158 
L 299.501939 99.701147 
L 300.095001 102.106759 
L 300.688063 100.724695 
L 301.281124 102.549905 
L 301.874186 102.863744 
L 302.467248 101.931781 
L 303.06031 102.245898 
L 303.653371 102.937715 
L 304.246433 104.107802 
L 304.839495 104.355011 
L 305.432556 105.258721 
L 306.025618 103.758094 
L 306.61868 103.587662 
L 307.804803 102.323415 
L 308.990927 104.807422 
L 309.583989 105.092867 
L 310.17705 103.673044 
L 310.770112 103.022765 
L 311.363174 103.549738 
L 311.956236 104.449929 
L 312.549297 105.707511 
L 313.142359 105.958535 
L 313.735421 105.737003 
L 314.328482 107.404206 
L 314.921544 106.820521 
L 315.514606 107.707615 
L 316.107668 107.840458 
L 316.700729 108.699075 
L 317.293791 108.901726 
L 317.886853 108.663287 
L 318.479915 107.808049 
L 319.072976 108.095672 
L 319.666038 110.841358 
L 320.2591 109.388522 
L 321.445223 108.337587 
L 322.038285 109.614922 
L 323.224408 108.704465 
L 323.81747 108.953763 
L 325.003594 109.8757 
L 325.596655 108.151218 
L 326.189717 109.540376 
L 326.189717 109.540376 
" style="fill:none;stroke:#ff0000;stroke-linecap:square;stroke-width:1.5;"/>
   </g>
   <g id="patch_3">
    <path d="M 13.32 130.68 
L 13.32 26.88 
" style="fill:none;stroke:#000000;stroke-linecap:square;stroke-linejoin:miter;stroke-width:0.8;"/>
   </g>
   <g id="patch_4">
    <path d="M 346.68 130.68 
L 346.68 26.88 
" style="fill:none;stroke:#000000;stroke-linecap:square;stroke-linejoin:miter;stroke-width:0.8;"/>
   </g>
   <g id="patch_5">
    <path d="M 13.32 130.68 
L 346.68 130.68 
" style="fill:none;stroke:#000000;stroke-linecap:square;stroke-linejoin:miter;stroke-width:0.8;"/>
   </g>
   <g id="patch_6">
    <path d="M 13.32 26.88 
L 346.68 26.88 
" style="fill:none;stroke:#000000;stroke-linecap:square;stroke-linejoin:miter;stroke-width:0.8;"/>
   </g>
   <g id="text_1">
    <!-- SMA: 10 -->
    <defs>
     <path d="M 53.515625 70.515625 
L 53.515625 60.890625 
Q 47.90625 63.578125 42.921875 64.890625 
Q 37.9375 66.21875 33.296875 66.21875 
Q 25.25 66.21875 20.875 63.09375 
Q 16.5 59.96875 16.5 54.203125 
Q 16.5 49.359375 19.40625 46.890625 
Q 22.3125 44.4375 30.421875 42.921875 
L 36.375 41.703125 
Q 47.40625 39.59375 52.65625 34.296875 
Q 57.90625 29 57.90625 20.125 
Q 57.90625 9.515625 50.796875 4.046875 
Q 43.703125 -1.421875 29.984375 -1.421875 
Q 24.8125 -1.421875 18.96875 -0.25 
Q 13.140625 0.921875 6.890625 3.21875 
L 6.890625 13.375 
Q 12.890625 10.015625 18.65625 8.296875 
Q 24.421875 6.59375 29.984375 6.59375 
Q 38.421875 6.59375 43.015625 9.90625 
Q 47.609375 13.234375 47.609375 19.390625 
Q 47.609375 24.75 44.3125 27.78125 
Q 41.015625 30.8125 33.5 32.328125 
L 27.484375 33.5 
Q 16.453125 35.6875 11.515625 40.375 
Q 6.59375 45.0625 6.59375 53.421875 
Q 6.59375 63.09375 13.40625 68.65625 
Q 20.21875 74.21875 32.171875 74.21875 
Q 37.3125 74.21875 42.625 73.28125 
Q 47.953125 72.359375 53.515625 70.515625 
z
" id="DejaVuSans-83"/>
     <path d="M 9.8125 72.90625 
L 24.515625 72.90625 
L 43.109375 23.296875 
L 61.8125 72.90625 
L 76.515625 72.90625 
L 76.515625 0 
L 66.890625 0 
L 66.890625 64.015625 
L 48.09375 14.015625 
L 38.1875 14.015625 
L 19.390625 64.015625 
L 19.390625 0 
L 9.8125 0 
z
" id="DejaVuSans-77"/>
     <path d="M 34.1875 63.1875 
L 20.796875 26.90625 
L 47.609375 26.90625 
z
M 28.609375 72.90625 
L 39.796875 72.90625 
L 67.578125 0 
L 57.328125 0 
L 50.6875 18.703125 
L 17.828125 18.703125 
L 11.1875 0 
L 0.78125 0 
z
" id="DejaVuSans-65"/>
     <path d="M 11.71875 12.40625 
L 22.015625 12.40625 
L 22.015625 0 
L 11.71875 0 
z
M 11.71875 51.703125 
L 22.015625 51.703125 
L 22.015625 39.3125 
L 11.71875 39.3125 
z
" id="DejaVuSans-58"/>
     <path id="DejaVuSans-32"/>
     <path d="M 12.40625 8.296875 
L 28.515625 8.296875 
L 28.515625 63.921875 
L 10.984375 60.40625 
L 10.984375 69.390625 
L 28.421875 72.90625 
L 38.28125 72.90625 
L 38.28125 8.296875 
L 54.390625 8.296875 
L 54.390625 0 
L 12.40625 0 
z
" id="DejaVuSans-49"/>
     <path d="M 31.78125 66.40625 
Q 24.171875 66.40625 20.328125 58.90625 
Q 16.5 51.421875 16.5 36.375 
Q 16.5 21.390625 20.328125 13.890625 
Q 24.171875 6.390625 31.78125 6.390625 
Q 39.453125 6.390625 43.28125 13.890625 
Q 47.125 21.390625 47.125 36.375 
Q 47.125 51.421875 43.28125 58.90625 
Q 39.453125 66.40625 31.78125 66.40625 
z
M 31.78125 74.21875 
Q 44.046875 74.21875 50.515625 64.515625 
Q 56.984375 54.828125 56.984375 36.375 
Q 56.984375 17.96875 50.515625 8.265625 
Q 44.046875 -1.421875 31.78125 -1.421875 
Q 19.53125 -1.421875 13.0625 8.265625 
Q 6.59375 17.96875 6.59375 36.375 
Q 6.59375 54.828125 13.0625 64.515625 
Q 19.53125 74.21875 31.78125 74.21875 
z
" id="DejaVuSans-48"/>
    </defs>
    <g transform="translate(155.3475 20.88)scale(0.12 -0.12)">
     <use xlink:href="#DejaVuSans-83"/>
     <use x="63.476562" xlink:href="#DejaVuSans-77"/>
     <use x="149.755859" xlink:href="#DejaVuSans-65"/>
     <use x="218.148438" xlink:href="#DejaVuSans-58"/>
     <use x="251.839844" xlink:href="#DejaVuSans-32"/>
     <use x="283.626953" xlink:href="#DejaVuSans-49"/>
     <use x="347.25" xlink:href="#DejaVuSans-48"/>
    </g>
   </g>
  </g>
 </g>
 <defs>
  <clipPath id="pfb6108c33b">
   <rect height="103.8" width="333.36" x="13.32" y="26.88"/>
  </clipPath>
 </defs>
</svg>
