<?xml version="1.0" encoding="utf-8" standalone="no"?>
<!DOCTYPE svg PUBLIC "-//W3C//DTD SVG 1.1//EN"
  "http://www.w3.org/Graphics/SVG/1.1/DTD/svg11.dtd">
<!-- Created with matplotlib (https://matplotlib.org/) -->
<svg height="648pt" version="1.1" viewBox="0 0 216 648" width="216pt" xmlns="http://www.w3.org/2000/svg" xmlns:xlink="http://www.w3.org/1999/xlink">
 <defs>
  <style type="text/css">
*{stroke-linecap:butt;stroke-linejoin:round;}
  </style>
 </defs>
 <g id="figure_1">
  <g id="patch_1">
   <path d="M 0 648 
L 216 648 
L 216 0 
L 0 0 
z
" style="fill:#ffffff;"/>
  </g>
  <g id="axes_1">
   <g id="patch_2">
    <path d="M 14.3 208.9 
L 205.2 208.9 
L 205.2 26.88 
L 14.3 26.88 
z
" style="fill:#ffffff;"/>
   </g>
   <g id="matplotlib.axis_1"/>
   <g id="matplotlib.axis_2"/>
   <g id="line2d_1">
    <path clip-path="url(#p9818891d74)" d="M 22.977273 180.184477 
L 23.316892 185.761683 
L 23.996131 168.770029 
L 24.33575 162.800995 
L 24.675369 189.433645 
L 25.014988 177.048389 
L 25.354608 192.419862 
L 25.694227 185.002526 
L 26.033846 161.039064 
L 26.373466 155.82292 
L 26.713085 182.062383 
L 27.052704 179.782807 
L 27.392323 172.50196 
L 27.731943 198.740626 
L 28.071562 165.50135 
L 28.411181 198.608179 
L 28.750801 172.711511 
L 29.09042 180.844993 
L 29.430039 183.460866 
L 29.769658 177.546393 
L 30.109278 182.437598 
L 30.448897 175.493723 
L 30.788516 183.83394 
L 31.128136 182.12161 
L 31.467755 168.573745 
L 31.807374 177.675375 
L 32.146993 174.590011 
L 32.486613 196.195635 
L 32.826232 196.052502 
L 33.165851 178.348113 
L 33.505471 169.67138 
L 33.84509 178.656815 
L 34.184709 175.149484 
L 34.524328 180.450093 
L 34.863948 188.272239 
L 35.203567 163.960568 
L 35.882806 185.818934 
L 36.222425 174.57895 
L 36.562044 169.429066 
L 36.901663 177.453721 
L 37.241283 194.559377 
L 37.580902 175.814106 
L 37.920521 174.965527 
L 38.260141 162.219234 
L 38.59976 169.432876 
L 38.939379 171.933193 
L 39.278998 187.537254 
L 39.618618 181.752318 
L 39.958237 178.228899 
L 40.297856 171.155393 
L 40.637476 156.839216 
L 40.977095 150.33038 
L 41.316714 158.882536 
L 41.656333 148.571551 
L 41.995953 179.118583 
L 42.335572 161.190782 
L 42.675191 176.528358 
L 43.014811 166.740524 
L 43.35443 150.714267 
L 43.694049 161.471372 
L 44.033668 157.054751 
L 44.373288 142.49687 
L 44.712907 175.004484 
L 45.052526 173.248793 
L 45.392146 161.358335 
L 45.731765 164.745182 
L 46.071384 141.031141 
L 46.411003 176.080613 
L 46.750623 155.894873 
L 47.090242 158.811835 
L 47.429861 178.215067 
L 47.769481 141.116282 
L 48.1091 160.527946 
L 48.448719 150.831245 
L 48.788338 146.942194 
L 49.127958 151.712668 
L 49.467577 158.600988 
L 49.807196 150.656508 
L 50.146816 158.208753 
L 50.486435 155.275332 
L 50.826054 137.130628 
L 51.165673 145.912704 
L 51.844912 175.794183 
L 52.184531 161.161742 
L 52.524151 156.481352 
L 52.86377 160.118742 
L 53.203389 155.628202 
L 53.543008 152.75351 
L 53.882628 159.22634 
L 54.222247 146.012878 
L 54.561866 156.305468 
L 54.901486 124.360147 
L 55.241105 158.40379 
L 55.580724 165.821522 
L 55.920343 141.676234 
L 56.259963 160.370134 
L 56.599582 162.984604 
L 56.939201 135.870095 
L 57.27882 139.043468 
L 57.61844 95.21631 
L 57.958059 141.387949 
L 58.297678 140.085862 
L 58.637298 141.354645 
L 58.976917 126.485793 
L 59.316536 139.273623 
L 59.656155 127.963213 
L 59.995775 128.760508 
L 60.335394 148.220513 
L 60.675013 116.968299 
L 61.014633 148.053142 
L 61.354252 146.363308 
L 61.693871 131.650454 
L 62.03349 130.390227 
L 62.37311 143.016384 
L 62.712729 124.689272 
L 63.052348 115.376618 
L 63.391968 128.966776 
L 63.731587 134.49819 
L 64.071206 133.520439 
L 64.750445 93.843878 
L 65.090064 119.424042 
L 65.429683 96.940493 
L 65.769303 128.745032 
L 66.108922 102.805789 
L 66.448541 138.651444 
L 66.78816 107.97063 
L 67.12778 112.219679 
L 67.467399 128.846588 
L 68.486257 105.690989 
L 68.825876 122.915912 
L 69.165495 113.510032 
L 69.505115 119.366043 
L 69.844734 108.518253 
L 70.184353 119.180412 
L 70.863592 88.491507 
L 71.203211 115.84168 
L 71.54283 113.578784 
L 71.88245 106.844155 
L 72.222069 110.182161 
L 72.561688 106.434638 
L 72.901308 115.793235 
L 73.240927 110.955616 
L 73.580546 115.191948 
L 73.920165 90.478935 
L 74.259785 107.213774 
L 74.939023 79.307598 
L 75.278643 92.398593 
L 75.618262 96.782259 
L 75.957881 96.878834 
L 76.2975 105.296891 
L 76.63712 96.476529 
L 76.976739 108.698278 
L 77.655978 97.79507 
L 77.995597 108.932432 
L 78.335216 75.820187 
L 78.674835 100.899419 
L 79.014455 91.223039 
L 79.354074 89.875862 
L 79.693693 96.487644 
L 80.033313 81.012856 
L 80.372932 85.341456 
L 80.712551 102.391863 
L 81.05217 106.971773 
L 81.39179 105.123832 
L 81.731409 76.885479 
L 82.071028 93.739191 
L 82.410648 63.116521 
L 82.750267 97.420405 
L 83.089886 116.599534 
L 83.429505 97.679772 
L 83.769125 89.108899 
L 84.108744 67.31755 
L 84.448363 93.565716 
L 84.787983 85.927084 
L 85.127602 67.126895 
L 85.467221 77.240942 
L 85.80684 81.839106 
L 86.14646 79.432045 
L 86.486079 73.600935 
L 86.825698 85.430707 
L 87.165318 91.745373 
L 87.504937 73.5857 
L 87.844556 75.574455 
L 88.184175 78.585131 
L 88.523795 90.393712 
L 88.863414 82.020702 
L 89.203033 95.34397 
L 89.542653 78.055744 
L 89.882272 75.081633 
L 90.221891 61.540637 
L 90.56151 86.434571 
L 90.90113 58.071697 
L 91.240749 60.847618 
L 91.580368 87.318147 
L 91.919988 75.807013 
L 92.259607 86.994809 
L 92.599226 79.023983 
L 92.938845 87.635586 
L 93.278465 69.981729 
L 93.618084 86.316401 
L 93.957703 69.613226 
L 94.297323 92.450751 
L 94.976561 72.779185 
L 95.31618 86.889786 
L 95.6558 60.499805 
L 95.995419 49.987994 
L 96.335038 86.522386 
L 96.674658 83.850217 
L 97.014277 71.054647 
L 97.353896 72.276276 
L 97.693515 65.312435 
L 98.033135 76.899308 
L 98.372754 84.07011 
L 98.712373 57.88917 
L 99.051993 58.930742 
L 99.391612 84.408733 
L 100.07085 65.460301 
L 100.41047 56.257637 
L 100.750089 84.754808 
L 101.089708 59.343572 
L 101.429328 60.290506 
L 101.768947 66.238266 
L 102.108566 82.237367 
L 102.448185 68.278611 
L 102.787805 70.742384 
L 103.127424 61.654391 
L 103.467043 88.323442 
L 103.806663 58.849253 
L 104.146282 71.706725 
L 104.485901 79.874543 
L 104.82552 70.736562 
L 105.16514 46.502683 
L 105.504759 35.153636 
L 106.183998 88.887465 
L 106.523617 49.632149 
L 106.863236 55.676235 
L 107.202855 52.255758 
L 107.542475 74.746419 
L 107.882094 45.453477 
L 108.221713 75.343608 
L 108.561333 72.546868 
L 108.900952 47.686729 
L 109.240571 66.220639 
L 109.58019 58.428448 
L 109.91981 70.984161 
L 110.259429 61.326696 
L 110.599048 70.952014 
L 110.938667 57.006305 
L 111.278287 63.378808 
L 111.617906 61.114041 
L 111.957525 76.484039 
L 112.297145 55.874001 
L 112.636764 43.281456 
L 112.976383 57.632096 
L 113.316002 66.138197 
L 113.655622 90.215207 
L 113.995241 57.145232 
L 114.33486 45.906134 
L 114.67448 71.547673 
L 115.014099 52.8347 
L 115.353718 64.252767 
L 115.693337 80.30741 
L 116.032957 68.309571 
L 116.372576 52.074552 
L 116.712195 56.291398 
L 117.051815 68.064505 
L 117.391434 60.014207 
L 117.731053 86.628689 
L 118.070672 63.183501 
L 118.410292 55.502579 
L 118.749911 70.000264 
L 119.08953 61.430359 
L 119.42915 68.985238 
L 119.768769 55.977559 
L 120.108388 56.443024 
L 120.448007 75.839907 
L 120.787627 81.572602 
L 121.127246 68.746502 
L 121.466865 62.757012 
L 121.806485 67.03931 
L 122.146104 93.6088 
L 122.485723 68.2483 
L 122.825342 74.446195 
L 123.164962 59.686528 
L 123.504581 57.944996 
L 123.8442 77.666238 
L 124.18382 68.99437 
L 124.523439 78.626819 
L 124.863058 72.579565 
L 125.202677 91.157094 
L 125.542297 70.022978 
L 125.881916 78.079855 
L 126.221535 93.850799 
L 126.561155 56.000256 
L 126.900774 104.104622 
L 127.240393 65.107823 
L 127.580012 72.627864 
L 127.919632 68.086786 
L 128.259251 83.157297 
L 128.59887 80.568506 
L 128.93849 72.434129 
L 129.278109 80.293569 
L 129.617728 82.643885 
L 129.957347 87.957159 
L 130.296967 39.786214 
L 130.976205 92.081743 
L 131.315825 88.558176 
L 131.655444 66.286926 
L 131.995063 81.49277 
L 132.334682 72.203807 
L 132.674302 80.784447 
L 133.013921 82.72043 
L 133.35354 88.544258 
L 133.69316 72.598527 
L 134.032779 74.685617 
L 134.372398 82.194818 
L 134.712017 79.294269 
L 135.051637 70.958591 
L 135.391256 95.205383 
L 135.730875 85.513083 
L 136.070495 91.347557 
L 136.410114 81.802274 
L 136.749733 101.84646 
L 137.089352 69.709058 
L 137.428972 99.544031 
L 137.768591 93.18529 
L 138.10821 105.400449 
L 138.44783 87.561707 
L 138.787449 79.172453 
L 139.127068 96.902552 
L 139.466687 97.562787 
L 140.145926 93.798211 
L 140.485545 99.508874 
L 140.825165 86.633486 
L 141.164784 95.6879 
L 141.504403 110.480118 
L 141.844022 117.234308 
L 142.183642 100.371899 
L 142.523261 92.772603 
L 142.86288 89.627079 
L 143.2025 100.991331 
L 143.542119 120.562085 
L 143.881738 106.048826 
L 144.221357 98.475525 
L 144.560977 119.962746 
L 144.900596 97.062832 
L 145.240215 108.17127 
L 145.579835 112.130175 
L 145.919454 112.152893 
L 146.259073 102.388018 
L 146.598692 104.808164 
L 146.938312 123.606041 
L 147.61755 97.058831 
L 147.95717 122.65847 
L 148.296789 107.047371 
L 148.636408 102.635305 
L 148.976027 128.069407 
L 149.315647 119.235286 
L 149.655266 115.004543 
L 149.994885 122.713657 
L 150.334505 122.644925 
L 150.674124 133.183526 
L 151.353362 115.149335 
L 151.692982 109.417074 
L 152.032601 149.063639 
L 152.37222 110.474238 
L 152.71184 129.531706 
L 153.051459 129.575243 
L 153.391078 135.220831 
L 153.730697 119.303055 
L 154.070317 130.752191 
L 154.409936 127.640403 
L 154.749555 122.412518 
L 155.089175 130.960852 
L 155.428794 131.547809 
L 155.768413 143.21511 
L 156.108032 136.430944 
L 156.447652 144.921815 
L 156.787271 130.571023 
L 157.12689 108.019009 
L 157.46651 128.239598 
L 157.806129 102.62111 
L 158.485367 140.058808 
L 158.824987 140.137119 
L 159.164606 125.276877 
L 159.504225 146.281797 
L 159.843845 150.821214 
L 160.183464 112.034279 
L 160.523083 150.367716 
L 160.862702 128.384531 
L 161.541941 153.201049 
L 161.88156 129.071312 
L 162.22118 148.040315 
L 162.560799 133.475397 
L 162.900418 141.504779 
L 163.240037 136.400384 
L 163.579657 178.148497 
L 163.919276 151.418252 
L 164.258895 151.743409 
L 164.598514 161.173134 
L 164.938134 153.144106 
L 165.277753 153.095891 
L 165.617372 144.286442 
L 165.956992 171.456362 
L 166.296611 135.875618 
L 166.63623 136.594587 
L 166.975849 152.704334 
L 167.315469 160.038249 
L 167.655088 159.01512 
L 167.994707 154.739289 
L 168.334327 169.455441 
L 168.673946 153.975782 
L 169.013565 161.389565 
L 169.353184 165.133778 
L 169.692804 148.837784 
L 170.032423 148.13492 
L 170.372042 149.684002 
L 170.711662 130.077593 
L 171.3909 173.689234 
L 171.730519 157.860904 
L 172.070139 157.236227 
L 172.409758 178.366874 
L 172.749377 163.878003 
L 173.088997 135.689532 
L 173.428616 164.566541 
L 173.768235 183.232965 
L 174.107854 178.322974 
L 174.787093 145.02921 
L 175.126712 153.655437 
L 175.466332 143.485144 
L 175.805951 163.201396 
L 176.14557 147.095284 
L 176.485189 172.48529 
L 176.824809 161.403016 
L 177.504047 176.875241 
L 177.843667 167.849952 
L 178.183286 143.563353 
L 178.522905 158.30891 
L 178.862524 189.321543 
L 179.202144 176.807279 
L 179.541763 176.292891 
L 179.881382 170.468045 
L 180.221002 178.154915 
L 180.560621 165.534493 
L 180.90024 189.299719 
L 181.239859 179.907259 
L 181.579479 161.725363 
L 181.919098 181.004958 
L 182.258717 173.912254 
L 182.937956 184.885898 
L 183.277575 151.77754 
L 183.617194 181.390212 
L 184.296433 192.668346 
L 184.975672 164.293921 
L 185.315291 198.306202 
L 185.65491 179.119162 
L 185.994529 178.008886 
L 186.334149 184.24468 
L 186.673768 196.747084 
L 187.013387 190.124125 
L 187.353007 187.186365 
L 187.692626 162.140483 
L 188.032245 175.985717 
L 188.371864 158.474046 
L 188.711484 197.32486 
L 189.390722 173.982777 
L 189.730342 172.020865 
L 190.40958 193.30807 
L 190.749199 199.823604 
L 191.088819 176.919273 
L 191.428438 196.946456 
L 191.768057 196.035248 
L 192.107677 200.626364 
L 192.447296 178.979861 
L 192.786915 179.716812 
L 193.126534 190.604188 
L 193.466154 162.094635 
L 193.805773 168.450102 
L 194.145392 178.226898 
L 194.485012 196.031985 
L 194.824631 158.752648 
L 195.503869 196.966197 
L 195.843489 187.523301 
L 196.183108 187.557978 
L 196.522727 194.112832 
L 196.522727 194.112832 
" style="fill:none;stroke:#0000ff;stroke-linecap:square;stroke-width:1.5;"/>
   </g>
   <g id="line2d_2">
    <path clip-path="url(#p9818891d74)" d="M 22.977273 185.203966 
L 23.996131 163.482434 
L 24.33575 186.83852 
L 24.675369 178.027399 
L 25.014988 190.980615 
L 25.354608 185.600333 
L 25.694227 163.495191 
L 26.033846 156.590146 
L 26.373466 179.515159 
L 26.713085 179.756043 
L 27.052704 173.227369 
L 27.392323 196.189299 
L 27.731943 168.570145 
L 28.071562 195.604375 
L 28.411181 175.000797 
L 28.750801 180.260573 
L 29.09042 183.140832 
L 29.430039 178.105837 
L 29.769658 182.004421 
L 30.109278 176.14479 
L 30.448897 183.065021 
L 30.788516 182.215948 
L 31.128136 169.937968 
L 31.467755 176.901636 
L 31.807374 174.821171 
L 32.146993 194.058189 
L 32.486613 195.853071 
L 32.826232 180.098608 
L 33.165851 170.714102 
L 33.505471 177.862543 
L 33.84509 175.42079 
L 34.184709 179.947166 
L 34.524328 187.439728 
L 34.863948 166.30848 
L 35.543186 184.76297 
L 35.882806 175.597352 
L 36.222425 170.045893 
L 36.562044 176.712938 
L 36.901663 192.774738 
L 37.241283 177.510166 
L 37.580902 175.219988 
L 37.920521 163.519308 
L 38.260141 168.841522 
L 38.59976 171.624026 
L 38.939379 185.945933 
L 39.618618 178.623179 
L 39.958237 171.902172 
L 40.297856 158.345512 
L 40.637476 151.131893 
L 40.977095 158.107472 
L 41.316714 149.525141 
L 41.656333 176.159239 
L 41.995953 162.687628 
L 42.335572 175.144282 
L 42.675191 167.580896 
L 43.014811 152.400929 
L 43.35443 160.564324 
L 43.694049 157.405705 
L 44.033668 143.987754 
L 44.373288 171.902807 
L 44.712907 173.114193 
L 45.052526 162.533924 
L 45.392146 164.524057 
L 45.731765 143.380433 
L 46.071384 172.810594 
L 46.411003 157.586446 
L 46.750623 158.689293 
L 47.090242 176.262487 
L 47.429861 144.630901 
L 47.769481 158.938242 
L 48.1091 151.641945 
L 48.448719 147.412168 
L 48.788338 151.282617 
L 49.127958 157.869151 
L 49.467577 151.377771 
L 49.807196 157.525654 
L 50.146816 155.500365 
L 50.486435 138.967602 
L 50.826054 145.218195 
L 51.505293 174.276677 
L 51.844912 162.473233 
L 52.184531 157.080537 
L 52.524151 159.814919 
L 53.203389 153.082845 
L 53.543008 158.611988 
L 53.882628 147.27279 
L 54.222247 155.4022 
L 54.561866 127.464352 
L 54.901486 155.309845 
L 55.241105 164.770353 
L 55.580724 143.985646 
L 55.920343 158.731685 
L 56.259963 162.559311 
L 56.599582 138.539017 
L 56.939201 138.993022 
L 57.27882 99.593985 
L 57.61844 137.208553 
L 57.958059 139.798131 
L 58.297678 141.198993 
L 58.637298 127.957113 
L 58.976917 138.14197 
L 59.316536 128.981089 
L 59.656155 128.782567 
L 59.995775 146.276719 
L 60.335394 119.89914 
L 60.675013 145.237741 
L 61.014633 146.25075 
L 61.354252 133.110484 
L 61.693871 130.662253 
L 62.03349 141.780969 
L 62.37311 126.398442 
L 62.712729 116.4788 
L 63.052348 127.717978 
L 63.391968 133.820169 
L 63.731587 133.550412 
L 64.410825 96.009934 
L 64.750445 117.082632 
L 65.090064 98.954706 
L 65.429683 125.765999 
L 65.769303 105.101812 
L 66.108922 135.29648 
L 66.448541 110.703215 
L 66.78816 112.068033 
L 67.12778 127.168733 
L 67.467399 122.383347 
L 68.146638 106.618065 
L 68.486257 121.286127 
L 68.825876 114.287641 
L 69.165495 118.858202 
L 69.505115 109.552248 
L 69.844734 118.217596 
L 70.523973 90.090923 
L 70.863592 113.266605 
L 71.203211 113.547566 
L 71.54283 107.514497 
L 71.88245 109.915396 
L 72.222069 106.782715 
L 72.561688 114.892184 
L 72.901308 111.349273 
L 73.240927 114.807681 
L 73.580546 92.911811 
L 73.920165 105.783577 
L 74.599404 80.751251 
L 74.939023 91.233859 
L 75.278643 96.227421 
L 75.618262 96.813693 
L 75.957881 104.448573 
L 76.2975 97.273732 
L 76.63712 107.555823 
L 77.316358 98.305981 
L 77.655978 107.869788 
L 77.995597 79.025147 
L 78.335216 98.711993 
L 78.674835 91.971936 
L 79.014455 90.085473 
L 79.354074 95.847428 
L 79.693693 82.496315 
L 80.033313 85.056945 
L 80.372932 100.65837 
L 80.712551 106.340432 
L 81.05217 105.245493 
L 81.39179 79.72148 
L 81.731409 92.337417 
L 82.071028 66.038613 
L 82.750267 114.367803 
L 83.089886 99.348574 
L 83.429505 90.132866 
L 83.769125 69.59908 
L 84.108744 91.169054 
L 84.448363 86.451284 
L 84.787983 69.059333 
L 85.127602 76.422783 
L 85.467221 81.297476 
L 85.80684 79.618589 
L 86.14646 74.2027 
L 86.486079 84.307908 
L 86.825698 91.001629 
L 87.165318 75.327297 
L 87.504937 75.549744 
L 87.844556 78.281592 
L 88.184175 89.182501 
L 88.523795 82.73688 
L 88.863414 94.08326 
L 89.203033 79.658497 
L 89.542653 75.539318 
L 89.882272 62.940504 
L 90.221891 84.085165 
L 90.56151 60.673051 
L 90.90113 60.830166 
L 91.240749 84.66935 
L 91.580368 76.693246 
L 91.919988 85.964652 
L 92.259607 79.718048 
L 92.599226 86.843833 
L 92.938845 71.667941 
L 93.278465 84.851557 
L 93.618084 71.137063 
L 93.957703 90.319381 
L 94.636942 73.782905 
L 94.976561 85.579097 
L 95.31618 63.007734 
L 95.6558 51.289967 
L 95.995419 82.999142 
L 96.335038 83.765111 
L 96.674658 72.325696 
L 97.014277 72.281219 
L 97.353896 66.009317 
L 98.033135 83.244128 
L 98.372754 60.424672 
L 98.712373 59.080133 
L 99.051993 81.875877 
L 100.07085 57.264928 
L 100.41047 82.005822 
L 100.750089 61.609801 
L 101.089708 60.422442 
L 101.429328 65.656687 
L 101.768947 80.579297 
L 102.108566 69.508679 
L 102.448185 70.619014 
L 102.787805 62.550853 
L 103.127424 85.746186 
L 103.467043 61.538948 
L 104.146282 78.956084 
L 104.485901 71.558518 
L 104.82552 49.008266 
L 105.16514 36.539098 
L 105.844378 86.165678 
L 106.183998 53.285506 
L 106.523617 55.437157 
L 106.863236 52.573902 
L 107.202855 72.529165 
L 107.542475 48.161048 
L 107.882094 72.625354 
L 108.221713 72.554718 
L 108.561333 50.173533 
L 108.900952 64.615924 
L 109.240571 59.047193 
L 109.58019 69.790467 
L 109.91981 62.173074 
L 110.259429 70.074121 
L 110.599048 58.313092 
L 110.938667 62.872235 
L 111.278287 61.289862 
L 111.617906 74.964624 
L 112.297145 44.731619 
L 112.976383 65.158584 
L 113.316002 87.709543 
L 113.655622 60.20167 
L 113.995241 47.33569 
L 114.33486 69.126476 
L 114.67448 54.463879 
L 115.014099 63.273882 
L 115.353718 78.604061 
L 115.693337 69.33902 
L 116.032957 53.800999 
L 116.372576 56.042362 
L 116.712195 66.862292 
L 117.051815 60.699012 
L 117.391434 84.035723 
L 117.731053 65.268721 
L 118.070672 56.479194 
L 118.410292 68.648162 
L 118.749911 62.152143 
L 119.08953 68.301931 
L 119.42915 57.209996 
L 119.768769 56.519727 
L 120.108388 73.907892 
L 120.448007 80.806132 
L 120.787627 69.952465 
L 121.127246 63.47656 
L 121.466865 66.683034 
L 121.806485 90.916226 
L 122.146104 70.515091 
L 122.485723 74.053088 
L 122.825342 61.123191 
L 123.164962 58.262823 
L 123.504581 75.725898 
L 123.8442 69.667523 
L 124.18382 77.730892 
L 124.523439 73.094696 
L 124.863058 89.350853 
L 125.202677 71.955766 
L 125.542297 77.467447 
L 125.881916 92.212466 
L 126.221535 59.62148 
L 126.561155 99.656308 
L 126.900774 68.562676 
L 127.240393 72.221344 
L 127.580012 68.500242 
L 127.919632 81.691592 
L 128.259251 80.680817 
L 128.59887 73.258801 
L 128.93849 79.590095 
L 129.278109 82.338507 
L 129.617728 87.395298 
L 129.957347 44.547128 
L 130.636586 89.590733 
L 130.976205 88.661431 
L 131.315825 68.524381 
L 131.655444 80.195935 
L 131.995063 73.003018 
L 132.334682 80.006306 
L 132.674302 82.449015 
L 133.013921 87.934736 
L 133.35354 74.132147 
L 133.69316 74.630268 
L 134.032779 81.438363 
L 134.372398 79.508679 
L 134.712017 71.813602 
L 135.051637 92.866205 
L 135.391256 86.248396 
L 135.730875 90.837643 
L 136.070495 82.70581 
L 136.410114 99.932396 
L 136.749733 72.731392 
L 137.089352 96.862768 
L 137.428972 93.553039 
L 137.768591 104.215708 
L 138.10821 89.227108 
L 138.44783 80.177921 
L 138.787449 95.23009 
L 139.127068 97.329517 
L 139.466687 96.013758 
L 139.806307 94.019765 
L 140.145926 98.959964 
L 140.485545 87.866135 
L 140.825165 94.905723 
L 141.164784 108.92268 
L 141.504403 116.403146 
L 141.844022 101.975025 
L 142.183642 93.692843 
L 142.523261 90.03366 
L 142.86288 99.895564 
L 143.2025 118.495433 
L 143.881738 99.357321 
L 144.221357 117.902204 
L 144.560977 99.146769 
L 144.900596 107.268819 
L 145.240215 111.644039 
L 145.579835 112.102008 
L 145.919454 103.359418 
L 146.259073 104.663291 
L 146.598692 121.711766 
L 147.277931 98.5116 
L 147.61755 120.243783 
L 147.95717 108.367015 
L 148.296789 103.208476 
L 148.636408 125.583313 
L 149.315647 115.491098 
L 149.655266 121.991401 
L 149.994885 122.579573 
L 150.334505 132.12313 
L 151.353362 110.085567 
L 151.692982 145.165831 
L 152.032601 113.943397 
L 152.37222 127.972875 
L 152.71184 129.415006 
L 153.051459 134.640249 
L 153.391078 120.836775 
L 153.730697 129.760649 
L 154.070317 127.852427 
L 154.409936 122.956509 
L 154.749555 130.160418 
L 155.089175 131.40907 
L 155.428794 142.034505 
L 155.768413 136.9913 
L 156.108032 144.128763 
L 156.447652 131.926797 
L 156.787271 110.40979 
L 157.12689 126.456617 
L 157.46651 105.00466 
L 158.145748 138.110607 
L 158.485367 139.934467 
L 158.824987 126.742636 
L 159.164606 144.32788 
L 159.504225 150.171879 
L 159.843845 115.848039 
L 160.183464 146.915748 
L 160.523083 130.237653 
L 161.202322 151.890816 
L 161.541941 131.353262 
L 161.88156 146.371609 
L 162.22118 134.765018 
L 162.560799 140.830802 
L 162.900418 136.843426 
L 163.240037 174.017989 
L 163.579657 153.678224 
L 163.919276 151.93689 
L 164.258895 160.249509 
L 164.598514 153.854645 
L 164.938134 153.171764 
L 165.277753 145.174976 
L 165.617372 168.828221 
L 165.956992 139.170878 
L 166.296611 136.852216 
L 166.63623 151.11912 
L 166.975849 159.146334 
L 167.315469 159.028239 
L 167.655088 155.168182 
L 167.994707 168.026713 
L 168.334327 155.380875 
L 169.013565 164.699269 
L 169.353184 150.423932 
L 169.692804 148.363821 
L 170.032423 149.551983 
L 170.372042 132.025032 
L 171.051281 171.418128 
L 171.3909 159.216627 
L 171.730519 157.434264 
L 172.070139 176.273613 
L 172.409758 165.117563 
L 172.749377 138.632335 
L 173.428616 181.10698 
L 173.768235 178.601375 
L 174.447474 146.741846 
L 174.787093 152.964077 
L 175.126712 144.433035 
L 175.466332 161.324562 
L 175.805951 148.518211 
L 176.14557 170.088583 
L 176.485189 162.271572 
L 177.164428 176.106094 
L 177.504047 168.675566 
L 177.843667 146.074573 
L 178.183286 157.085474 
L 178.522905 186.097935 
L 178.862524 177.736344 
L 179.202144 176.437234 
L 179.541763 171.064961 
L 179.881382 177.44592 
L 180.221002 166.725637 
L 180.560621 187.042303 
L 180.90024 180.62076 
L 181.239859 163.614899 
L 181.579479 179.265954 
L 181.919098 174.447625 
L 182.598337 184.362799 
L 182.937956 155.036066 
L 183.277575 178.754795 
L 183.956814 192.031175 
L 184.636052 165.81772 
L 184.975672 195.057348 
L 185.315291 180.712976 
L 185.65491 178.279296 
L 185.994529 183.648138 
L 186.334149 195.437191 
L 186.673768 190.655429 
L 187.013387 187.533265 
L 187.353007 164.679761 
L 187.692626 174.855121 
L 188.032245 160.112152 
L 188.371864 193.603589 
L 188.711484 187.42665 
L 189.051103 175.327163 
L 189.390722 172.351494 
L 190.40958 199.053298 
L 190.749199 179.132675 
L 191.088819 195.165075 
L 191.428438 195.948225 
L 191.768057 200.158545 
L 192.107677 181.097727 
L 192.447296 179.854903 
L 192.786915 189.529251 
L 193.126534 164.838095 
L 193.466154 168.088898 
L 193.805773 177.213095 
L 194.145392 194.150088 
L 194.485012 162.292391 
L 195.16425 194.980837 
L 195.503869 188.269054 
L 195.843489 187.629083 
L 196.183108 193.464459 
L 196.183108 193.464459 
" style="fill:none;stroke:#ff0000;stroke-linecap:square;stroke-width:1.5;"/>
   </g>
   <g id="patch_3">
    <path d="M 14.3 208.9 
L 14.3 26.88 
" style="fill:none;stroke:#000000;stroke-linecap:square;stroke-linejoin:miter;stroke-width:0.8;"/>
   </g>
   <g id="patch_4">
    <path d="M 205.2 208.9 
L 205.2 26.88 
" style="fill:none;stroke:#000000;stroke-linecap:square;stroke-linejoin:miter;stroke-width:0.8;"/>
   </g>
   <g id="patch_5">
    <path d="M 14.3 208.9 
L 205.2 208.9 
" style="fill:none;stroke:#000000;stroke-linecap:square;stroke-linejoin:miter;stroke-width:0.8;"/>
   </g>
   <g id="patch_6">
    <path d="M 14.3 26.88 
L 205.2 26.88 
" style="fill:none;stroke:#000000;stroke-linecap:square;stroke-linejoin:miter;stroke-width:0.8;"/>
   </g>
   <g id="text_1">
    <!-- EMA: 0.1 -->
    <defs>
     <path d="M 9.8125 72.90625 
L 55.90625 72.90625 
L 55.90625 64.59375 
L 19.671875 64.59375 
L 19.671875 43.015625 
L 54.390625 43.015625 
L 54.390625 34.71875 
L 19.671875 34.71875 
L 19.671875 8.296875 
L 56.78125 8.296875 
L 56.78125 0 
L 9.8125 0 
z
" id="DejaVuSans-69"/>
     <path d="M 9.8125 72.90625 
L 24.515625 72.90625 
L 43.109375 23.296875 
L 61.8125 72.90625 
L 76.515625 72.90625 
L 76.515625 0 
L 66.890625 0 
L 66.890625 64.015625 
L 48.09375 14.015625 
L 38.1875 14.015625 
L 19.390625 64.015625 
L 19.390625 0 
L 9.8125 0 
z
" id="DejaVuSans-77"/>
     <path d="M 34.1875 63.1875 
L 20.796875 26.90625 
L 47.609375 26.90625 
z
M 28.609375 72.90625 
L 39.796875 72.90625 
L 67.578125 0 
L 57.328125 0 
L 50.6875 18.703125 
L 17.828125 18.703125 
L 11.1875 0 
L 0.78125 0 
z
" id="DejaVuSans-65"/>
     <path d="M 11.71875 12.40625 
L 22.015625 12.40625 
L 22.015625 0 
L 11.71875 0 
z
M 11.71875 51.703125 
L 22.015625 51.703125 
L 22.015625 39.3125 
L 11.71875 39.3125 
z
" id="DejaVuSans-58"/>
     <path id="DejaVuSans-32"/>
     <path d="M 31.78125 66.40625 
Q 24.171875 66.40625 20.328125 58.90625 
Q 16.5 51.421875 16.5 36.375 
Q 16.5 21.390625 20.328125 13.890625 
Q 24.171875 6.390625 31.78125 6.390625 
Q 39.453125 6.390625 43.28125 13.890625 
Q 47.125 21.390625 47.125 36.375 
Q 47.125 51.421875 43.28125 58.90625 
Q 39.453125 66.40625 31.78125 66.40625 
z
M 31.78125 74.21875 
Q 44.046875 74.21875 50.515625 64.515625 
Q 56.984375 54.828125 56.984375 36.375 
Q 56.984375 17.96875 50.515625 8.265625 
Q 44.046875 -1.421875 31.78125 -1.421875 
Q 19.53125 -1.421875 13.0625 8.265625 
Q 6.59375 17.96875 6.59375 36.375 
Q 6.59375 54.828125 13.0625 64.515625 
Q 19.53125 74.21875 31.78125 74.21875 
z
" id="DejaVuSans-48"/>
     <path d="M 10.6875 12.40625 
L 21 12.40625 
L 21 0 
L 10.6875 0 
z
" id="DejaVuSans-46"/>
     <path d="M 12.40625 8.296875 
L 28.515625 8.296875 
L 28.515625 63.921875 
L 10.984375 60.40625 
L 10.984375 69.390625 
L 28.421875 72.90625 
L 38.28125 72.90625 
L 38.28125 8.296875 
L 54.390625 8.296875 
L 54.390625 0 
L 12.40625 0 
z
" id="DejaVuSans-49"/>
    </defs>
    <g transform="translate(83.3125 20.88)scale(0.12 -0.12)">
     <use xlink:href="#DejaVuSans-69"/>
     <use x="63.183594" xlink:href="#DejaVuSans-77"/>
     <use x="149.462891" xlink:href="#DejaVuSans-65"/>
     <use x="216.121094" xlink:href="#DejaVuSans-58"/>
     <use x="249.8125" xlink:href="#DejaVuSans-32"/>
     <use x="281.599609" xlink:href="#DejaVuSans-48"/>
     <use x="345.222656" xlink:href="#DejaVuSans-46"/>
     <use x="377.009766" xlink:href="#DejaVuSans-49"/>
    </g>
   </g>
  </g>
  <g id="axes_2">
   <g id="patch_7">
    <path d="M 14.3 421.3 
L 205.2 421.3 
L 205.2 239.28 
L 14.3 239.28 
z
" style="fill:#ffffff;"/>
   </g>
   <g id="matplotlib.axis_3"/>
   <g id="matplotlib.axis_4"/>
   <g id="line2d_3">
    <path clip-path="url(#pdd155d67fa)" d="M 22.977273 392.584477 
L 23.316892 398.161683 
L 23.996131 381.170029 
L 24.33575 375.200995 
L 24.675369 401.833645 
L 25.014988 389.448389 
L 25.354608 404.819862 
L 25.694227 397.402526 
L 26.033846 373.439064 
L 26.373466 368.22292 
L 26.713085 394.462383 
L 27.052704 392.182807 
L 27.392323 384.90196 
L 27.731943 411.140626 
L 28.071562 377.90135 
L 28.411181 411.008179 
L 28.750801 385.111511 
L 29.09042 393.244993 
L 29.430039 395.860866 
L 29.769658 389.946393 
L 30.109278 394.837598 
L 30.448897 387.893723 
L 30.788516 396.23394 
L 31.128136 394.52161 
L 31.467755 380.973745 
L 31.807374 390.075375 
L 32.146993 386.990011 
L 32.486613 408.595635 
L 32.826232 408.452502 
L 33.165851 390.748113 
L 33.505471 382.07138 
L 33.84509 391.056815 
L 34.184709 387.549484 
L 34.524328 392.850093 
L 34.863948 400.672239 
L 35.203567 376.360568 
L 35.882806 398.218934 
L 36.222425 386.97895 
L 36.562044 381.829066 
L 36.901663 389.853721 
L 37.241283 406.959377 
L 37.580902 388.214106 
L 37.920521 387.365527 
L 38.260141 374.619234 
L 38.59976 381.832876 
L 38.939379 384.333193 
L 39.278998 399.937254 
L 39.618618 394.152318 
L 39.958237 390.628899 
L 40.297856 383.555393 
L 40.637476 369.239216 
L 40.977095 362.73038 
L 41.316714 371.282536 
L 41.656333 360.971551 
L 41.995953 391.518583 
L 42.335572 373.590782 
L 42.675191 388.928358 
L 43.014811 379.140524 
L 43.35443 363.114267 
L 43.694049 373.871372 
L 44.033668 369.454751 
L 44.373288 354.89687 
L 44.712907 387.404484 
L 45.052526 385.648793 
L 45.392146 373.758335 
L 45.731765 377.145182 
L 46.071384 353.431141 
L 46.411003 388.480613 
L 46.750623 368.294873 
L 47.090242 371.211835 
L 47.429861 390.615067 
L 47.769481 353.516282 
L 48.1091 372.927946 
L 48.448719 363.231245 
L 48.788338 359.342194 
L 49.127958 364.112668 
L 49.467577 371.000988 
L 49.807196 363.056508 
L 50.146816 370.608753 
L 50.486435 367.675332 
L 50.826054 349.530628 
L 51.165673 358.312704 
L 51.844912 388.194183 
L 52.184531 373.561742 
L 52.524151 368.881352 
L 52.86377 372.518742 
L 53.203389 368.028202 
L 53.543008 365.15351 
L 53.882628 371.62634 
L 54.222247 358.412878 
L 54.561866 368.705468 
L 54.901486 336.760147 
L 55.241105 370.80379 
L 55.580724 378.221522 
L 55.920343 354.076234 
L 56.259963 372.770134 
L 56.599582 375.384604 
L 56.939201 348.270095 
L 57.27882 351.443468 
L 57.61844 307.61631 
L 57.958059 353.787949 
L 58.297678 352.485862 
L 58.637298 353.754645 
L 58.976917 338.885793 
L 59.316536 351.673623 
L 59.656155 340.363213 
L 59.995775 341.160508 
L 60.335394 360.620513 
L 60.675013 329.368299 
L 61.014633 360.453142 
L 61.354252 358.763308 
L 61.693871 344.050454 
L 62.03349 342.790227 
L 62.37311 355.416384 
L 62.712729 337.089272 
L 63.052348 327.776618 
L 63.391968 341.366776 
L 63.731587 346.89819 
L 64.071206 345.920439 
L 64.750445 306.243878 
L 65.090064 331.824042 
L 65.429683 309.340493 
L 65.769303 341.145032 
L 66.108922 315.205789 
L 66.448541 351.051444 
L 66.78816 320.37063 
L 67.12778 324.619679 
L 67.467399 341.246588 
L 68.486257 318.090989 
L 68.825876 335.315912 
L 69.165495 325.910032 
L 69.505115 331.766043 
L 69.844734 320.918253 
L 70.184353 331.580412 
L 70.863592 300.891507 
L 71.203211 328.24168 
L 71.54283 325.978784 
L 71.88245 319.244155 
L 72.222069 322.582161 
L 72.561688 318.834638 
L 72.901308 328.193235 
L 73.240927 323.355616 
L 73.580546 327.591948 
L 73.920165 302.878935 
L 74.259785 319.613774 
L 74.939023 291.707598 
L 75.278643 304.798593 
L 75.618262 309.182259 
L 75.957881 309.278834 
L 76.2975 317.696891 
L 76.63712 308.876529 
L 76.976739 321.098278 
L 77.655978 310.19507 
L 77.995597 321.332432 
L 78.335216 288.220187 
L 78.674835 313.299419 
L 79.014455 303.623039 
L 79.354074 302.275862 
L 79.693693 308.887644 
L 80.033313 293.412856 
L 80.372932 297.741456 
L 80.712551 314.791863 
L 81.05217 319.371773 
L 81.39179 317.523832 
L 81.731409 289.285479 
L 82.071028 306.139191 
L 82.410648 275.516521 
L 82.750267 309.820405 
L 83.089886 328.999534 
L 83.429505 310.079772 
L 83.769125 301.508899 
L 84.108744 279.71755 
L 84.448363 305.965716 
L 84.787983 298.327084 
L 85.127602 279.526895 
L 85.467221 289.640942 
L 85.80684 294.239106 
L 86.14646 291.832045 
L 86.486079 286.000935 
L 86.825698 297.830707 
L 87.165318 304.145373 
L 87.504937 285.9857 
L 87.844556 287.974455 
L 88.184175 290.985131 
L 88.523795 302.793712 
L 88.863414 294.420702 
L 89.203033 307.74397 
L 89.542653 290.455744 
L 89.882272 287.481633 
L 90.221891 273.940637 
L 90.56151 298.834571 
L 90.90113 270.471697 
L 91.240749 273.247618 
L 91.580368 299.718147 
L 91.919988 288.207013 
L 92.259607 299.394809 
L 92.599226 291.423983 
L 92.938845 300.035586 
L 93.278465 282.381729 
L 93.618084 298.716401 
L 93.957703 282.013226 
L 94.297323 304.850751 
L 94.976561 285.179185 
L 95.31618 299.289786 
L 95.6558 272.899805 
L 95.995419 262.387994 
L 96.335038 298.922386 
L 96.674658 296.250217 
L 97.014277 283.454647 
L 97.353896 284.676276 
L 97.693515 277.712435 
L 98.033135 289.299308 
L 98.372754 296.47011 
L 98.712373 270.28917 
L 99.051993 271.330742 
L 99.391612 296.808733 
L 100.07085 277.860301 
L 100.41047 268.657637 
L 100.750089 297.154808 
L 101.089708 271.743572 
L 101.429328 272.690506 
L 101.768947 278.638266 
L 102.108566 294.637367 
L 102.448185 280.678611 
L 102.787805 283.142384 
L 103.127424 274.054391 
L 103.467043 300.723442 
L 103.806663 271.249253 
L 104.146282 284.106725 
L 104.485901 292.274543 
L 104.82552 283.136562 
L 105.16514 258.902683 
L 105.504759 247.553636 
L 106.183998 301.287465 
L 106.523617 262.032149 
L 106.863236 268.076235 
L 107.202855 264.655758 
L 107.542475 287.146419 
L 107.882094 257.853477 
L 108.221713 287.743608 
L 108.561333 284.946868 
L 108.900952 260.086729 
L 109.240571 278.620639 
L 109.58019 270.828448 
L 109.91981 283.384161 
L 110.259429 273.726696 
L 110.599048 283.352014 
L 110.938667 269.406305 
L 111.278287 275.778808 
L 111.617906 273.514041 
L 111.957525 288.884039 
L 112.297145 268.274001 
L 112.636764 255.681456 
L 112.976383 270.032096 
L 113.316002 278.538197 
L 113.655622 302.615207 
L 113.995241 269.545232 
L 114.33486 258.306134 
L 114.67448 283.947673 
L 115.014099 265.2347 
L 115.353718 276.652767 
L 115.693337 292.70741 
L 116.032957 280.709571 
L 116.372576 264.474552 
L 116.712195 268.691398 
L 117.051815 280.464505 
L 117.391434 272.414207 
L 117.731053 299.028689 
L 118.070672 275.583501 
L 118.410292 267.902579 
L 118.749911 282.400264 
L 119.08953 273.830359 
L 119.42915 281.385238 
L 119.768769 268.377559 
L 120.108388 268.843024 
L 120.448007 288.239907 
L 120.787627 293.972602 
L 121.127246 281.146502 
L 121.466865 275.157012 
L 121.806485 279.43931 
L 122.146104 306.0088 
L 122.485723 280.6483 
L 122.825342 286.846195 
L 123.164962 272.086528 
L 123.504581 270.344996 
L 123.8442 290.066238 
L 124.18382 281.39437 
L 124.523439 291.026819 
L 124.863058 284.979565 
L 125.202677 303.557094 
L 125.542297 282.422978 
L 125.881916 290.479855 
L 126.221535 306.250799 
L 126.561155 268.400256 
L 126.900774 316.504622 
L 127.240393 277.507823 
L 127.580012 285.027864 
L 127.919632 280.486786 
L 128.259251 295.557297 
L 128.59887 292.968506 
L 128.93849 284.834129 
L 129.278109 292.693569 
L 129.617728 295.043885 
L 129.957347 300.357159 
L 130.296967 252.186214 
L 130.976205 304.481743 
L 131.315825 300.958176 
L 131.655444 278.686926 
L 131.995063 293.89277 
L 132.334682 284.603807 
L 132.674302 293.184447 
L 133.013921 295.12043 
L 133.35354 300.944258 
L 133.69316 284.998527 
L 134.032779 287.085617 
L 134.372398 294.594818 
L 134.712017 291.694269 
L 135.051637 283.358591 
L 135.391256 307.605383 
L 135.730875 297.913083 
L 136.070495 303.747557 
L 136.410114 294.202274 
L 136.749733 314.24646 
L 137.089352 282.109058 
L 137.428972 311.944031 
L 137.768591 305.58529 
L 138.10821 317.800449 
L 138.44783 299.961707 
L 138.787449 291.572453 
L 139.127068 309.302552 
L 139.466687 309.962787 
L 140.145926 306.198211 
L 140.485545 311.908874 
L 140.825165 299.033486 
L 141.164784 308.0879 
L 141.504403 322.880118 
L 141.844022 329.634308 
L 142.183642 312.771899 
L 142.523261 305.172603 
L 142.86288 302.027079 
L 143.2025 313.391331 
L 143.542119 332.962085 
L 143.881738 318.448826 
L 144.221357 310.875525 
L 144.560977 332.362746 
L 144.900596 309.462832 
L 145.240215 320.57127 
L 145.579835 324.530175 
L 145.919454 324.552893 
L 146.259073 314.788018 
L 146.598692 317.208164 
L 146.938312 336.006041 
L 147.61755 309.458831 
L 147.95717 335.05847 
L 148.296789 319.447371 
L 148.636408 315.035305 
L 148.976027 340.469407 
L 149.315647 331.635286 
L 149.655266 327.404543 
L 149.994885 335.113657 
L 150.334505 335.044925 
L 150.674124 345.583526 
L 151.353362 327.549335 
L 151.692982 321.817074 
L 152.032601 361.463639 
L 152.37222 322.874238 
L 152.71184 341.931706 
L 153.051459 341.975243 
L 153.391078 347.620831 
L 153.730697 331.703055 
L 154.070317 343.152191 
L 154.409936 340.040403 
L 154.749555 334.812518 
L 155.089175 343.360852 
L 155.428794 343.947809 
L 155.768413 355.61511 
L 156.108032 348.830944 
L 156.447652 357.321815 
L 156.787271 342.971023 
L 157.12689 320.419009 
L 157.46651 340.639598 
L 157.806129 315.02111 
L 158.485367 352.458808 
L 158.824987 352.537119 
L 159.164606 337.676877 
L 159.504225 358.681797 
L 159.843845 363.221214 
L 160.183464 324.434279 
L 160.523083 362.767716 
L 160.862702 340.784531 
L 161.541941 365.601049 
L 161.88156 341.471312 
L 162.22118 360.440315 
L 162.560799 345.875397 
L 162.900418 353.904779 
L 163.240037 348.800384 
L 163.579657 390.548497 
L 163.919276 363.818252 
L 164.258895 364.143409 
L 164.598514 373.573134 
L 164.938134 365.544106 
L 165.277753 365.495891 
L 165.617372 356.686442 
L 165.956992 383.856362 
L 166.296611 348.275618 
L 166.63623 348.994587 
L 166.975849 365.104334 
L 167.315469 372.438249 
L 167.655088 371.41512 
L 167.994707 367.139289 
L 168.334327 381.855441 
L 168.673946 366.375782 
L 169.013565 373.789565 
L 169.353184 377.533778 
L 169.692804 361.237784 
L 170.032423 360.53492 
L 170.372042 362.084002 
L 170.711662 342.477593 
L 171.3909 386.089234 
L 171.730519 370.260904 
L 172.070139 369.636227 
L 172.409758 390.766874 
L 172.749377 376.278003 
L 173.088997 348.089532 
L 173.428616 376.966541 
L 173.768235 395.632965 
L 174.107854 390.722974 
L 174.787093 357.42921 
L 175.126712 366.055437 
L 175.466332 355.885144 
L 175.805951 375.601396 
L 176.14557 359.495284 
L 176.485189 384.88529 
L 176.824809 373.803016 
L 177.504047 389.275241 
L 177.843667 380.249952 
L 178.183286 355.963353 
L 178.522905 370.70891 
L 178.862524 401.721543 
L 179.202144 389.207279 
L 179.541763 388.692891 
L 179.881382 382.868045 
L 180.221002 390.554915 
L 180.560621 377.934493 
L 180.90024 401.699719 
L 181.239859 392.307259 
L 181.579479 374.125363 
L 181.919098 393.404958 
L 182.258717 386.312254 
L 182.937956 397.285898 
L 183.277575 364.17754 
L 183.617194 393.790212 
L 184.296433 405.068346 
L 184.975672 376.693921 
L 185.315291 410.706202 
L 185.65491 391.519162 
L 185.994529 390.408886 
L 186.334149 396.64468 
L 186.673768 409.147084 
L 187.013387 402.524125 
L 187.353007 399.586365 
L 187.692626 374.540483 
L 188.032245 388.385717 
L 188.371864 370.874046 
L 188.711484 409.72486 
L 189.390722 386.382777 
L 189.730342 384.420865 
L 190.40958 405.70807 
L 190.749199 412.223604 
L 191.088819 389.319273 
L 191.428438 409.346456 
L 191.768057 408.435248 
L 192.107677 413.026364 
L 192.447296 391.379861 
L 192.786915 392.116812 
L 193.126534 403.004188 
L 193.466154 374.494635 
L 193.805773 380.850102 
L 194.145392 390.626898 
L 194.485012 408.431985 
L 194.824631 371.152648 
L 195.503869 409.366197 
L 195.843489 399.923301 
L 196.183108 399.957978 
L 196.522727 406.512832 
L 196.522727 406.512832 
" style="fill:none;stroke:#0000ff;stroke-linecap:square;stroke-width:1.5;"/>
   </g>
   <g id="line2d_4">
    <path clip-path="url(#pdd155d67fa)" d="M 22.977273 395.373083 
L 23.316892 392.055155 
L 23.996131 380.906795 
L 24.33575 391.370219 
L 24.675369 390.409305 
L 25.014988 397.614582 
L 25.354608 397.508552 
L 26.033846 376.848364 
L 26.373466 385.655372 
L 26.713085 388.91909 
L 27.052704 386.910524 
L 27.392323 399.025572 
L 27.731943 388.463461 
L 28.071562 399.735819 
L 28.411181 392.423667 
L 28.750801 392.834328 
L 29.09042 394.347595 
L 29.430039 392.146996 
L 29.769658 393.492296 
L 30.109278 390.693009 
L 30.448897 393.463474 
L 30.788516 393.992543 
L 31.128136 387.483143 
L 31.467755 388.779261 
L 31.807374 387.884635 
L 32.146993 398.240134 
L 32.486613 403.346318 
L 33.165851 389.5593 
L 33.505471 390.308059 
L 33.84509 388.928772 
L 34.184709 390.889433 
L 34.524328 395.780835 
L 34.863948 386.070703 
L 35.203567 387.36227 
L 35.543186 392.790602 
L 35.882806 389.884775 
L 36.222425 385.856921 
L 36.562044 387.855322 
L 36.901663 397.40735 
L 37.241283 392.810727 
L 37.580902 390.088124 
L 37.920521 382.35368 
L 38.260141 382.093281 
L 38.59976 383.213237 
L 38.939379 391.575246 
L 39.278998 392.863782 
L 39.618618 391.746341 
L 39.958237 387.650868 
L 40.637476 370.587711 
L 40.977095 370.935123 
L 41.316714 365.953338 
L 41.656333 378.73596 
L 41.995953 376.163371 
L 42.335572 382.545864 
L 42.675191 380.843195 
L 43.014811 371.97873 
L 43.35443 372.925051 
L 43.694049 371.1899 
L 44.033668 363.043385 
L 44.373288 375.223936 
L 44.712907 380.436366 
L 45.052526 377.097349 
L 45.392146 377.121268 
L 45.731765 365.276204 
L 46.071384 376.87841 
L 46.411003 372.586642 
L 46.750623 371.899238 
L 47.090242 381.257151 
L 47.429861 367.386716 
L 47.769481 370.157332 
L 48.448719 363.018241 
L 48.788338 363.565455 
L 49.127958 367.283222 
L 49.467577 365.169865 
L 49.807196 367.889308 
L 50.146816 367.782322 
L 50.486435 358.656476 
L 50.826054 358.48459 
L 51.165673 366.607465 
L 51.505293 377.400826 
L 51.844912 375.481286 
L 52.184531 372.181318 
L 52.524151 372.350028 
L 53.203389 367.671311 
L 53.543008 369.648825 
L 53.882628 364.030852 
L 54.222247 366.36816 
L 54.561866 351.564154 
L 55.241105 369.702746 
L 55.580724 361.889491 
L 56.259963 371.35721 
L 56.599582 359.813652 
L 56.939201 355.62856 
L 57.27882 331.622436 
L 57.61844 342.705192 
L 57.958059 347.595527 
L 58.297678 350.675086 
L 58.637298 344.780439 
L 58.976917 348.227031 
L 59.316536 344.295122 
L 59.656155 342.727815 
L 59.995775 351.674164 
L 60.335394 340.521231 
L 60.675013 350.487186 
L 61.014633 354.625247 
L 61.354252 349.337851 
L 61.693871 346.064039 
L 62.03349 350.740211 
L 62.712729 335.84568 
L 63.052348 338.606228 
L 63.391968 342.752209 
L 63.731587 344.336324 
L 64.071206 335.117829 
L 64.410825 320.680854 
L 64.750445 326.252448 
L 65.090064 317.79647 
L 65.429683 329.470751 
L 65.769303 322.338271 
L 66.108922 336.694858 
L 66.448541 328.532743 
L 66.78816 326.57621 
L 67.12778 333.911399 
L 67.467399 334.081518 
L 67.807018 330.309309 
L 68.146638 324.200149 
L 68.486257 329.75803 
L 68.825876 327.834031 
L 69.165495 329.800036 
L 69.505115 325.359145 
L 69.844734 328.469779 
L 70.184353 321.914842 
L 70.523973 311.403174 
L 70.863592 319.822426 
L 71.203211 322.900606 
L 71.54283 321.07238 
L 71.88245 321.82727 
L 72.222069 320.330954 
L 72.561688 324.262095 
L 72.901308 323.808855 
L 73.240927 325.700402 
L 73.580546 314.289669 
L 73.920165 316.951721 
L 74.259785 310.879046 
L 74.599404 301.293322 
L 74.939023 303.045957 
L 75.278643 306.114109 
L 75.618262 307.696471 
L 75.957881 312.696683 
L 76.2975 310.786605 
L 76.63712 315.94244 
L 76.976739 315.364879 
L 77.316358 312.779975 
L 77.655978 317.056204 
L 77.995597 302.638193 
L 78.335216 307.968808 
L 79.014455 304.035895 
L 79.354074 306.46177 
L 79.693693 299.937315 
L 80.033313 298.839386 
L 80.712551 313.093698 
L 81.05217 315.308766 
L 81.39179 302.297122 
L 81.731409 304.218156 
L 82.071028 289.867339 
L 82.410648 299.843871 
L 82.750267 314.421703 
L 83.089886 312.250737 
L 83.429505 306.879818 
L 83.769125 293.298684 
L 84.108744 299.6322 
L 84.448363 298.979641 
L 84.787983 289.25327 
L 85.127602 289.447107 
L 85.467221 291.843109 
L 85.80684 291.837577 
L 86.14646 288.919257 
L 86.825698 298.760175 
L 87.165318 292.372937 
L 87.504937 290.173695 
L 87.844556 290.579412 
L 88.184175 296.686562 
L 88.523795 295.553633 
L 88.863414 301.648799 
L 89.542653 291.766951 
L 89.882272 282.853794 
L 90.221891 290.844181 
L 90.56151 280.657941 
L 90.90113 276.952779 
L 91.240749 288.335465 
L 91.580368 288.271238 
L 91.919988 293.833026 
L 92.259607 292.628504 
L 92.599226 296.332045 
L 92.938845 289.35689 
L 93.278465 294.036646 
L 93.618084 288.024938 
L 93.957703 296.437845 
L 94.297323 295.410275 
L 94.636942 290.29473 
L 94.976561 294.792258 
L 95.6558 273.117012 
L 95.995419 286.019699 
L 96.335038 291.134958 
L 96.674658 287.294803 
L 97.014277 285.985539 
L 97.353896 281.848988 
L 97.693515 285.574149 
L 98.033135 291.022129 
L 98.372754 280.655653 
L 98.712373 275.993193 
L 99.051993 286.400964 
L 99.391612 286.053242 
L 99.731231 281.956772 
L 100.07085 275.307203 
L 100.41047 286.231006 
L 100.750089 278.987292 
L 101.089708 275.8389 
L 101.429328 277.23858 
L 101.768947 285.937973 
L 102.108566 283.30829 
L 102.448185 283.225337 
L 102.787805 278.639862 
L 103.127424 289.68165 
L 103.467043 280.465453 
L 103.806663 282.28609 
L 104.146282 287.280314 
L 104.485901 285.208437 
L 105.16514 259.804595 
L 105.504759 268.333235 
L 105.844378 284.810348 
L 106.183998 273.421253 
L 106.863236 267.702249 
L 107.202855 277.424333 
L 107.542475 267.63891 
L 107.882094 277.691261 
L 108.221713 281.319067 
L 108.561333 270.702901 
L 108.900952 274.661768 
L 109.240571 272.745108 
L 109.58019 278.064637 
L 109.91981 275.895665 
L 110.259429 279.623839 
L 110.599048 274.515075 
L 110.938667 275.146942 
L 111.278287 274.330491 
L 111.617906 281.607264 
L 111.957525 274.940633 
L 112.297145 265.311047 
L 112.636764 267.671576 
L 112.976383 273.104887 
L 113.316002 287.860046 
L 113.995241 268.504388 
L 114.33486 276.226033 
L 114.67448 270.730371 
L 115.014099 273.691573 
L 115.353718 283.199492 
L 115.693337 281.954531 
L 116.032957 273.21454 
L 116.372576 270.952969 
L 116.712195 275.708735 
L 117.051815 274.06147 
L 117.391434 286.54508 
L 118.070672 274.483434 
L 118.410292 278.44185 
L 118.749911 276.136104 
L 119.08953 278.760674 
L 119.42915 273.569115 
L 119.768769 271.206068 
L 120.448007 286.847795 
L 120.787627 283.997149 
L 121.127246 279.577081 
L 121.466865 279.508195 
L 121.806485 292.758496 
L 122.146104 286.703397 
L 122.485723 286.774795 
L 122.825342 279.430662 
L 123.164962 274.887831 
L 123.504581 282.477036 
L 123.8442 281.935705 
L 124.18382 286.481264 
L 124.523439 285.730412 
L 124.863058 294.643753 
L 125.202677 288.533366 
L 125.542297 289.506611 
L 125.881916 297.878703 
L 126.221535 283.13948 
L 126.561155 299.822053 
L 126.900774 288.664939 
L 127.240393 286.846399 
L 127.580012 283.66659 
L 127.919632 289.611945 
L 128.259251 291.290226 
L 128.59887 288.06218 
L 129.278109 292.710879 
L 129.617728 296.53402 
L 129.957347 274.360118 
L 130.296967 278.222802 
L 130.636586 291.35227 
L 130.976205 296.155223 
L 131.315825 287.421075 
L 131.655444 290.656923 
L 131.995063 287.630364 
L 133.013921 296.854089 
L 133.35354 290.926308 
L 133.69316 289.00596 
L 134.032779 291.80039 
L 134.372398 291.747327 
L 134.712017 287.552958 
L 135.051637 297.579171 
L 135.391256 297.746127 
L 135.730875 300.746844 
L 136.070495 297.474559 
L 136.410114 305.860509 
L 136.749733 293.984785 
L 137.089352 302.964408 
L 137.428972 304.274848 
L 137.768591 311.037648 
L 138.44783 298.536065 
L 138.787449 303.919309 
L 139.127068 306.941047 
L 139.466687 307.604306 
L 139.806307 306.901258 
L 140.145926 309.405066 
L 140.485545 304.219274 
L 140.825165 306.153588 
L 141.504403 322.075581 
L 142.523261 306.662626 
L 142.86288 310.02698 
L 143.2025 321.494531 
L 143.542119 319.971678 
L 143.881738 315.423601 
L 144.221357 323.893173 
L 144.560977 316.678003 
L 144.900596 318.624637 
L 145.240215 321.577405 
L 145.579835 323.065149 
L 145.919454 318.926583 
L 146.259073 318.067372 
L 146.598692 327.036707 
L 146.938312 324.949093 
L 147.277931 317.203961 
L 147.61755 326.131216 
L 148.296789 318.912299 
L 148.636408 329.690853 
L 148.976027 330.663069 
L 149.315647 329.033806 
L 149.655266 332.073731 
L 149.994885 333.559328 
L 150.334505 339.571427 
L 150.674124 337.909919 
L 151.353362 327.273351 
L 151.692982 344.368495 
L 152.032601 333.621366 
L 152.37222 337.776536 
L 152.71184 339.875889 
L 153.051459 343.74836 
L 153.391078 337.725708 
L 153.730697 340.438949 
L 154.070317 340.239676 
L 154.409936 337.526097 
L 154.749555 340.443475 
L 155.089175 342.195642 
L 155.428794 348.905376 
L 155.768413 348.868159 
L 156.108032 353.094987 
L 156.447652 348.033006 
L 156.787271 334.226007 
L 157.12689 337.432803 
L 157.46651 326.226956 
L 157.806129 330.467 
L 158.145748 341.462904 
L 158.485367 347.000012 
L 158.824987 342.338444 
L 159.504225 356.865666 
L 159.843845 340.649973 
L 160.183464 351.708844 
L 160.523083 346.246687 
L 160.862702 349.92055 
L 161.202322 357.760799 
L 161.541941 349.616055 
L 161.88156 355.028184 
L 162.22118 350.45179 
L 162.560799 352.178284 
L 162.900418 350.489334 
L 163.240037 370.518915 
L 163.579657 367.168583 
L 163.919276 365.655997 
L 164.258895 369.614564 
L 164.598514 367.579335 
L 164.938134 366.537613 
L 165.277753 361.612028 
L 165.617372 372.734194 
L 165.956992 360.504906 
L 166.296611 354.749747 
L 167.315469 368.798882 
L 167.655088 367.969086 
L 167.994707 374.912261 
L 168.334327 370.644021 
L 168.673946 372.216795 
L 169.013565 374.875286 
L 169.353184 368.056535 
L 169.692804 364.295727 
L 170.032423 363.189863 
L 170.372042 352.833728 
L 170.711662 359.158915 
L 171.051281 372.624075 
L 171.730519 370.539358 
L 172.070139 380.653119 
L 172.409758 378.465561 
L 172.749377 363.277547 
L 173.088997 370.122046 
L 173.428616 382.877506 
L 173.768235 386.800243 
L 174.107854 379.764256 
L 174.447474 368.596734 
L 174.787093 367.326086 
L 175.126712 361.605614 
L 175.466332 368.603505 
L 175.805951 364.049395 
L 176.14557 374.467342 
L 176.485189 374.13518 
L 176.824809 378.243504 
L 177.164428 383.759372 
L 177.504047 382.004662 
L 177.843667 368.984007 
L 178.183286 369.846458 
L 178.522905 385.784 
L 178.862524 387.49564 
L 179.202144 388.094267 
L 179.541763 385.481156 
L 179.881382 388.018037 
L 180.221002 382.976265 
L 180.560621 392.337989 
L 180.90024 392.322623 
L 181.239859 383.22399 
L 181.579479 388.314476 
L 181.919098 387.313365 
L 182.258717 389.973426 
L 182.598337 393.629661 
L 182.937956 378.903602 
L 183.956814 399.004548 
L 184.296433 394.773835 
L 184.636052 385.733876 
L 184.975672 398.220037 
L 185.315291 394.869599 
L 185.65491 392.639242 
L 185.994529 394.641963 
L 186.334149 401.894521 
L 186.673768 402.209321 
L 187.013387 400.897845 
L 187.353007 387.719166 
L 187.692626 388.052442 
L 188.032245 379.463244 
L 188.371864 394.594054 
L 188.711484 396.867187 
L 189.390722 388.022923 
L 189.730342 391.432674 
L 190.40958 405.396983 
L 190.749199 397.358127 
L 191.088819 403.352286 
L 191.428438 405.893769 
L 191.768057 409.460061 
L 192.107677 400.419961 
L 192.447296 396.268387 
L 192.786915 399.636284 
L 193.126534 387.065459 
L 193.466154 383.957781 
L 193.805773 387.292338 
L 194.145392 397.86216 
L 194.485012 384.507406 
L 194.824631 387.833352 
L 195.16425 398.599776 
L 195.503869 399.261537 
L 195.843489 399.60976 
L 196.183108 403.061296 
L 196.183108 403.061296 
" style="fill:none;stroke:#ff0000;stroke-linecap:square;stroke-width:1.5;"/>
   </g>
   <g id="patch_8">
    <path d="M 14.3 421.3 
L 14.3 239.28 
" style="fill:none;stroke:#000000;stroke-linecap:square;stroke-linejoin:miter;stroke-width:0.8;"/>
   </g>
   <g id="patch_9">
    <path d="M 205.2 421.3 
L 205.2 239.28 
" style="fill:none;stroke:#000000;stroke-linecap:square;stroke-linejoin:miter;stroke-width:0.8;"/>
   </g>
   <g id="patch_10">
    <path d="M 14.3 421.3 
L 205.2 421.3 
" style="fill:none;stroke:#000000;stroke-linecap:square;stroke-linejoin:miter;stroke-width:0.8;"/>
   </g>
   <g id="patch_11">
    <path d="M 14.3 239.28 
L 205.2 239.28 
" style="fill:none;stroke:#000000;stroke-linecap:square;stroke-linejoin:miter;stroke-width:0.8;"/>
   </g>
   <g id="text_2">
    <!-- EMA: 0.5 -->
    <defs>
     <path d="M 10.796875 72.90625 
L 49.515625 72.90625 
L 49.515625 64.59375 
L 19.828125 64.59375 
L 19.828125 46.734375 
Q 21.96875 47.46875 24.109375 47.828125 
Q 26.265625 48.1875 28.421875 48.1875 
Q 40.625 48.1875 47.75 41.5 
Q 54.890625 34.8125 54.890625 23.390625 
Q 54.890625 11.625 47.5625 5.09375 
Q 40.234375 -1.421875 26.90625 -1.421875 
Q 22.3125 -1.421875 17.546875 -0.640625 
Q 12.796875 0.140625 7.71875 1.703125 
L 7.71875 11.625 
Q 12.109375 9.234375 16.796875 8.0625 
Q 21.484375 6.890625 26.703125 6.890625 
Q 35.15625 6.890625 40.078125 11.328125 
Q 45.015625 15.765625 45.015625 23.390625 
Q 45.015625 31 40.078125 35.4375 
Q 35.15625 39.890625 26.703125 39.890625 
Q 22.75 39.890625 18.8125 39.015625 
Q 14.890625 38.140625 10.796875 36.28125 
z
" id="DejaVuSans-53"/>
    </defs>
    <g transform="translate(83.3125 233.28)scale(0.12 -0.12)">
     <use xlink:href="#DejaVuSans-69"/>
     <use x="63.183594" xlink:href="#DejaVuSans-77"/>
     <use x="149.462891" xlink:href="#DejaVuSans-65"/>
     <use x="216.121094" xlink:href="#DejaVuSans-58"/>
     <use x="249.8125" xlink:href="#DejaVuSans-32"/>
     <use x="281.599609" xlink:href="#DejaVuSans-48"/>
     <use x="345.222656" xlink:href="#DejaVuSans-46"/>
     <use x="377.009766" xlink:href="#DejaVuSans-53"/>
    </g>
   </g>
  </g>
  <g id="axes_3">
   <g id="patch_12">
    <path d="M 14.3 633.7 
L 205.2 633.7 
L 205.2 451.68 
L 14.3 451.68 
z
" style="fill:#ffffff;"/>
   </g>
   <g id="matplotlib.axis_5"/>
   <g id="matplotlib.axis_6"/>
   <g id="line2d_5">
    <path clip-path="url(#p7d439056ed)" d="M 22.977273 604.984477 
L 23.316892 610.561683 
L 23.996131 593.570029 
L 24.33575 587.600995 
L 24.675369 614.233645 
L 25.014988 601.848389 
L 25.354608 617.219862 
L 25.694227 609.802526 
L 26.033846 585.839064 
L 26.373466 580.62292 
L 26.713085 606.862383 
L 27.052704 604.582807 
L 27.392323 597.30196 
L 27.731943 623.540626 
L 28.071562 590.30135 
L 28.411181 623.408179 
L 28.750801 597.511511 
L 29.09042 605.644993 
L 29.430039 608.260866 
L 29.769658 602.346393 
L 30.109278 607.237598 
L 30.448897 600.293723 
L 30.788516 608.63394 
L 31.128136 606.92161 
L 31.467755 593.373745 
L 31.807374 602.475375 
L 32.146993 599.390011 
L 32.486613 620.995635 
L 32.826232 620.852502 
L 33.165851 603.148113 
L 33.505471 594.47138 
L 33.84509 603.456815 
L 34.184709 599.949484 
L 34.524328 605.250093 
L 34.863948 613.072239 
L 35.203567 588.760568 
L 35.882806 610.618934 
L 36.222425 599.37895 
L 36.562044 594.229066 
L 36.901663 602.253721 
L 37.241283 619.359377 
L 37.580902 600.614106 
L 37.920521 599.765527 
L 38.260141 587.019234 
L 38.59976 594.232876 
L 38.939379 596.733193 
L 39.278998 612.337254 
L 39.618618 606.552318 
L 39.958237 603.028899 
L 40.297856 595.955393 
L 40.637476 581.639216 
L 40.977095 575.13038 
L 41.316714 583.682536 
L 41.656333 573.371551 
L 41.995953 603.918583 
L 42.335572 585.990782 
L 42.675191 601.328358 
L 43.014811 591.540524 
L 43.35443 575.514267 
L 43.694049 586.271372 
L 44.033668 581.854751 
L 44.373288 567.29687 
L 44.712907 599.804484 
L 45.052526 598.048793 
L 45.392146 586.158335 
L 45.731765 589.545182 
L 46.071384 565.831141 
L 46.411003 600.880613 
L 46.750623 580.694873 
L 47.090242 583.611835 
L 47.429861 603.015067 
L 47.769481 565.916282 
L 48.1091 585.327946 
L 48.448719 575.631245 
L 48.788338 571.742194 
L 49.127958 576.512668 
L 49.467577 583.400988 
L 49.807196 575.456508 
L 50.146816 583.008753 
L 50.486435 580.075332 
L 50.826054 561.930628 
L 51.165673 570.712704 
L 51.844912 600.594183 
L 52.184531 585.961742 
L 52.524151 581.281352 
L 52.86377 584.918742 
L 53.203389 580.428202 
L 53.543008 577.55351 
L 53.882628 584.02634 
L 54.222247 570.812878 
L 54.561866 581.105468 
L 54.901486 549.160147 
L 55.241105 583.20379 
L 55.580724 590.621522 
L 55.920343 566.476234 
L 56.259963 585.170134 
L 56.599582 587.784604 
L 56.939201 560.670095 
L 57.27882 563.843468 
L 57.61844 520.01631 
L 57.958059 566.187949 
L 58.297678 564.885862 
L 58.637298 566.154645 
L 58.976917 551.285793 
L 59.316536 564.073623 
L 59.656155 552.763213 
L 59.995775 553.560508 
L 60.335394 573.020513 
L 60.675013 541.768299 
L 61.014633 572.853142 
L 61.354252 571.163308 
L 61.693871 556.450454 
L 62.03349 555.190227 
L 62.37311 567.816384 
L 62.712729 549.489272 
L 63.052348 540.176618 
L 63.391968 553.766776 
L 63.731587 559.29819 
L 64.071206 558.320439 
L 64.750445 518.643878 
L 65.090064 544.224042 
L 65.429683 521.740493 
L 65.769303 553.545032 
L 66.108922 527.605789 
L 66.448541 563.451444 
L 66.78816 532.77063 
L 67.12778 537.019679 
L 67.467399 553.646588 
L 68.486257 530.490989 
L 68.825876 547.715912 
L 69.165495 538.310032 
L 69.505115 544.166043 
L 69.844734 533.318253 
L 70.184353 543.980412 
L 70.863592 513.291507 
L 71.203211 540.64168 
L 71.54283 538.378784 
L 71.88245 531.644155 
L 72.222069 534.982161 
L 72.561688 531.234638 
L 72.901308 540.593235 
L 73.240927 535.755616 
L 73.580546 539.991948 
L 73.920165 515.278935 
L 74.259785 532.013774 
L 74.939023 504.107598 
L 75.278643 517.198593 
L 75.618262 521.582259 
L 75.957881 521.678834 
L 76.2975 530.096891 
L 76.63712 521.276529 
L 76.976739 533.498278 
L 77.655978 522.59507 
L 77.995597 533.732432 
L 78.335216 500.620187 
L 78.674835 525.699419 
L 79.014455 516.023039 
L 79.354074 514.675862 
L 79.693693 521.287644 
L 80.033313 505.812856 
L 80.372932 510.141456 
L 80.712551 527.191863 
L 81.05217 531.771773 
L 81.39179 529.923832 
L 81.731409 501.685479 
L 82.071028 518.539191 
L 82.410648 487.916521 
L 82.750267 522.220405 
L 83.089886 541.399534 
L 83.429505 522.479772 
L 83.769125 513.908899 
L 84.108744 492.11755 
L 84.448363 518.365716 
L 84.787983 510.727084 
L 85.127602 491.926895 
L 85.467221 502.040942 
L 85.80684 506.639106 
L 86.14646 504.232045 
L 86.486079 498.400935 
L 86.825698 510.230707 
L 87.165318 516.545373 
L 87.504937 498.3857 
L 87.844556 500.374455 
L 88.184175 503.385131 
L 88.523795 515.193712 
L 88.863414 506.820702 
L 89.203033 520.14397 
L 89.542653 502.855744 
L 89.882272 499.881633 
L 90.221891 486.340637 
L 90.56151 511.234571 
L 90.90113 482.871697 
L 91.240749 485.647618 
L 91.580368 512.118147 
L 91.919988 500.607013 
L 92.259607 511.794809 
L 92.599226 503.823983 
L 92.938845 512.435586 
L 93.278465 494.781729 
L 93.618084 511.116401 
L 93.957703 494.413226 
L 94.297323 517.250751 
L 94.976561 497.579185 
L 95.31618 511.689786 
L 95.6558 485.299805 
L 95.995419 474.787994 
L 96.335038 511.322386 
L 96.674658 508.650217 
L 97.014277 495.854647 
L 97.353896 497.076276 
L 97.693515 490.112435 
L 98.033135 501.699308 
L 98.372754 508.87011 
L 98.712373 482.68917 
L 99.051993 483.730742 
L 99.391612 509.208733 
L 100.07085 490.260301 
L 100.41047 481.057637 
L 100.750089 509.554808 
L 101.089708 484.143572 
L 101.429328 485.090506 
L 101.768947 491.038266 
L 102.108566 507.037367 
L 102.448185 493.078611 
L 102.787805 495.542384 
L 103.127424 486.454391 
L 103.467043 513.123442 
L 103.806663 483.649253 
L 104.146282 496.506725 
L 104.485901 504.674543 
L 104.82552 495.536562 
L 105.16514 471.302683 
L 105.504759 459.953636 
L 106.183998 513.687465 
L 106.523617 474.432149 
L 106.863236 480.476235 
L 107.202855 477.055758 
L 107.542475 499.546419 
L 107.882094 470.253477 
L 108.221713 500.143608 
L 108.561333 497.346868 
L 108.900952 472.486729 
L 109.240571 491.020639 
L 109.58019 483.228448 
L 109.91981 495.784161 
L 110.259429 486.126696 
L 110.599048 495.752014 
L 110.938667 481.806305 
L 111.278287 488.178808 
L 111.617906 485.914041 
L 111.957525 501.284039 
L 112.297145 480.674001 
L 112.636764 468.081456 
L 112.976383 482.432096 
L 113.316002 490.938197 
L 113.655622 515.015207 
L 113.995241 481.945232 
L 114.33486 470.706134 
L 114.67448 496.347673 
L 115.014099 477.6347 
L 115.353718 489.052767 
L 115.693337 505.10741 
L 116.032957 493.109571 
L 116.372576 476.874552 
L 116.712195 481.091398 
L 117.051815 492.864505 
L 117.391434 484.814207 
L 117.731053 511.428689 
L 118.070672 487.983501 
L 118.410292 480.302579 
L 118.749911 494.800264 
L 119.08953 486.230359 
L 119.42915 493.785238 
L 119.768769 480.777559 
L 120.108388 481.243024 
L 120.448007 500.639907 
L 120.787627 506.372602 
L 121.127246 493.546502 
L 121.466865 487.557012 
L 121.806485 491.83931 
L 122.146104 518.4088 
L 122.485723 493.0483 
L 122.825342 499.246195 
L 123.164962 484.486528 
L 123.504581 482.744996 
L 123.8442 502.466238 
L 124.18382 493.79437 
L 124.523439 503.426819 
L 124.863058 497.379565 
L 125.202677 515.957094 
L 125.542297 494.822978 
L 125.881916 502.879855 
L 126.221535 518.650799 
L 126.561155 480.800256 
L 126.900774 528.904622 
L 127.240393 489.907823 
L 127.580012 497.427864 
L 127.919632 492.886786 
L 128.259251 507.957297 
L 128.59887 505.368506 
L 128.93849 497.234129 
L 129.278109 505.093569 
L 129.617728 507.443885 
L 129.957347 512.757159 
L 130.296967 464.586214 
L 130.976205 516.881743 
L 131.315825 513.358176 
L 131.655444 491.086926 
L 131.995063 506.29277 
L 132.334682 497.003807 
L 132.674302 505.584447 
L 133.013921 507.52043 
L 133.35354 513.344258 
L 133.69316 497.398527 
L 134.032779 499.485617 
L 134.372398 506.994818 
L 134.712017 504.094269 
L 135.051637 495.758591 
L 135.391256 520.005383 
L 135.730875 510.313083 
L 136.070495 516.147557 
L 136.410114 506.602274 
L 136.749733 526.64646 
L 137.089352 494.509058 
L 137.428972 524.344031 
L 137.768591 517.98529 
L 138.10821 530.200449 
L 138.44783 512.361707 
L 138.787449 503.972453 
L 139.127068 521.702552 
L 139.466687 522.362787 
L 140.145926 518.598211 
L 140.485545 524.308874 
L 140.825165 511.433486 
L 141.164784 520.4879 
L 141.504403 535.280118 
L 141.844022 542.034308 
L 142.183642 525.171899 
L 142.523261 517.572603 
L 142.86288 514.427079 
L 143.2025 525.791331 
L 143.542119 545.362085 
L 143.881738 530.848826 
L 144.221357 523.275525 
L 144.560977 544.762746 
L 144.900596 521.862832 
L 145.240215 532.97127 
L 145.579835 536.930175 
L 145.919454 536.952893 
L 146.259073 527.188018 
L 146.598692 529.608164 
L 146.938312 548.406041 
L 147.61755 521.858831 
L 147.95717 547.45847 
L 148.296789 531.847371 
L 148.636408 527.435305 
L 148.976027 552.869407 
L 149.315647 544.035286 
L 149.655266 539.804543 
L 149.994885 547.513657 
L 150.334505 547.444925 
L 150.674124 557.983526 
L 151.353362 539.949335 
L 151.692982 534.217074 
L 152.032601 573.863639 
L 152.37222 535.274238 
L 152.71184 554.331706 
L 153.051459 554.375243 
L 153.391078 560.020831 
L 153.730697 544.103055 
L 154.070317 555.552191 
L 154.409936 552.440403 
L 154.749555 547.212518 
L 155.089175 555.760852 
L 155.428794 556.347809 
L 155.768413 568.01511 
L 156.108032 561.230944 
L 156.447652 569.721815 
L 156.787271 555.371023 
L 157.12689 532.819009 
L 157.46651 553.039598 
L 157.806129 527.42111 
L 158.485367 564.858808 
L 158.824987 564.937119 
L 159.164606 550.076877 
L 159.504225 571.081797 
L 159.843845 575.621214 
L 160.183464 536.834279 
L 160.523083 575.167716 
L 160.862702 553.184531 
L 161.541941 578.001049 
L 161.88156 553.871312 
L 162.22118 572.840315 
L 162.560799 558.275397 
L 162.900418 566.304779 
L 163.240037 561.200384 
L 163.579657 602.948497 
L 163.919276 576.218252 
L 164.258895 576.543409 
L 164.598514 585.973134 
L 164.938134 577.944106 
L 165.277753 577.895891 
L 165.617372 569.086442 
L 165.956992 596.256362 
L 166.296611 560.675618 
L 166.63623 561.394587 
L 166.975849 577.504334 
L 167.315469 584.838249 
L 167.655088 583.81512 
L 167.994707 579.539289 
L 168.334327 594.255441 
L 168.673946 578.775782 
L 169.013565 586.189565 
L 169.353184 589.933778 
L 169.692804 573.637784 
L 170.032423 572.93492 
L 170.372042 574.484002 
L 170.711662 554.877593 
L 171.3909 598.489234 
L 171.730519 582.660904 
L 172.070139 582.036227 
L 172.409758 603.166874 
L 172.749377 588.678003 
L 173.088997 560.489532 
L 173.428616 589.366541 
L 173.768235 608.032965 
L 174.107854 603.122974 
L 174.787093 569.82921 
L 175.126712 578.455437 
L 175.466332 568.285144 
L 175.805951 588.001396 
L 176.14557 571.895284 
L 176.485189 597.28529 
L 176.824809 586.203016 
L 177.504047 601.675241 
L 177.843667 592.649952 
L 178.183286 568.363353 
L 178.522905 583.10891 
L 178.862524 614.121543 
L 179.202144 601.607279 
L 179.541763 601.092891 
L 179.881382 595.268045 
L 180.221002 602.954915 
L 180.560621 590.334493 
L 180.90024 614.099719 
L 181.239859 604.707259 
L 181.579479 586.525363 
L 181.919098 605.804958 
L 182.258717 598.712254 
L 182.937956 609.685898 
L 183.277575 576.57754 
L 183.617194 606.190212 
L 184.296433 617.468346 
L 184.975672 589.093921 
L 185.315291 623.106202 
L 185.65491 603.919162 
L 185.994529 602.808886 
L 186.334149 609.04468 
L 186.673768 621.547084 
L 187.013387 614.924125 
L 187.353007 611.986365 
L 187.692626 586.940483 
L 188.032245 600.785717 
L 188.371864 583.274046 
L 188.711484 622.12486 
L 189.390722 598.782777 
L 189.730342 596.820865 
L 190.40958 618.10807 
L 190.749199 624.623604 
L 191.088819 601.719273 
L 191.428438 621.746456 
L 191.768057 620.835248 
L 192.107677 625.426364 
L 192.447296 603.779861 
L 192.786915 604.516812 
L 193.126534 615.404188 
L 193.466154 586.894635 
L 193.805773 593.250102 
L 194.145392 603.026898 
L 194.485012 620.831985 
L 194.824631 583.552648 
L 195.503869 621.766197 
L 195.843489 612.323301 
L 196.183108 612.357978 
L 196.522727 618.912832 
L 196.522727 618.912832 
" style="fill:none;stroke:#0000ff;stroke-linecap:square;stroke-width:1.5;"/>
   </g>
   <g id="line2d_6">
    <path clip-path="url(#p7d439056ed)" d="M 22.977273 605.542199 
L 23.316892 605.101702 
L 23.656511 603.948535 
L 23.996131 602.313782 
L 24.33575 603.505767 
L 24.675369 603.340027 
L 25.014988 604.728011 
L 25.354608 605.235461 
L 26.033846 601.02853 
L 26.373466 601.611914 
L 26.713085 601.909002 
L 27.052704 601.448299 
L 27.392323 603.657534 
L 27.731943 602.321916 
L 28.071562 604.430543 
L 28.411181 603.738639 
L 28.750801 603.929275 
L 29.09042 604.362433 
L 29.430039 604.16083 
L 29.769658 604.468507 
L 30.109278 604.051029 
L 30.448897 604.509321 
L 30.788516 604.750551 
L 31.128136 603.612869 
L 31.467755 603.49912 
L 31.807374 603.088209 
L 32.486613 606.476308 
L 32.826232 606.14349 
L 33.165851 604.976278 
L 33.505471 604.824331 
L 33.84509 604.336848 
L 34.184709 604.428173 
L 34.524328 605.292579 
L 34.863948 603.639379 
L 35.203567 603.380823 
L 35.543186 604.104636 
L 35.882806 603.632067 
L 36.222425 602.691766 
L 36.562044 602.64796 
L 36.901663 604.319104 
L 37.580902 603.530295 
L 37.920521 601.879187 
L 38.260141 601.114557 
L 38.59976 600.676419 
L 38.939379 601.842505 
L 39.278998 602.313486 
L 39.618618 602.385028 
L 39.958237 601.742064 
L 41.316714 593.658609 
L 41.656333 594.684606 
L 41.995953 593.815223 
L 42.335572 594.566537 
L 42.675191 594.263934 
L 43.014811 592.388969 
L 43.35443 591.77721 
L 43.694049 590.784965 
L 44.033668 588.436154 
L 44.712907 590.420567 
L 45.052526 589.994345 
L 45.392146 589.949428 
L 45.731765 587.537598 
L 46.071384 588.871899 
L 46.411003 588.054196 
L 46.750623 587.609959 
L 47.090242 589.150472 
L 47.429861 586.827051 
L 47.769481 586.677139 
L 48.788338 583.421829 
L 49.127958 583.419743 
L 49.467577 582.623418 
L 49.807196 582.661951 
L 50.146816 582.403288 
L 50.486435 580.356022 
L 50.826054 579.391691 
L 51.165673 580.165556 
L 51.505293 582.208419 
L 51.844912 582.583751 
L 52.184531 582.45351 
L 52.524151 582.700034 
L 52.86377 582.472849 
L 53.203389 581.980916 
L 53.543008 582.18546 
L 53.882628 581.048203 
L 54.222247 581.05393 
L 54.561866 577.86455 
L 54.901486 578.398474 
L 55.241105 579.620779 
L 55.580724 578.306324 
L 56.259963 579.871895 
L 56.939201 576.540889 
L 57.27882 570.88843 
L 58.297678 569.494082 
L 58.637298 567.673252 
L 58.976917 567.313289 
L 59.656155 564.628504 
L 59.995775 565.467705 
L 60.335394 563.097764 
L 61.014633 564.782302 
L 61.693871 563.073228 
L 62.03349 563.547544 
L 62.37311 562.141717 
L 62.712729 559.945207 
L 63.052348 559.327363 
L 63.731587 559.224045 
L 64.071206 557.131573 
L 64.410825 553.282803 
L 64.750445 552.376927 
L 65.090064 549.313283 
L 65.429683 549.736458 
L 65.769303 547.52339 
L 66.108922 549.116196 
L 66.448541 547.481639 
L 66.78816 546.435443 
L 67.12778 547.156557 
L 67.467399 547.106065 
L 67.807018 546.289168 
L 68.146638 544.70935 
L 68.486257 545.010007 
L 68.825876 544.340009 
L 69.165495 544.322612 
L 69.505115 543.222176 
L 69.844734 543.298 
L 70.184353 541.744191 
L 70.523973 538.898921 
L 70.863592 539.073197 
L 71.203211 539.003756 
L 71.54283 538.267796 
L 71.88245 537.939233 
L 72.222069 537.268773 
L 72.561688 537.601219 
L 72.901308 537.416659 
L 73.240927 537.674188 
L 73.580546 535.434663 
L 73.920165 535.092574 
L 74.259785 533.303954 
L 74.599404 530.384318 
L 74.939023 529.065746 
L 75.618262 527.653542 
L 75.957881 527.897877 
L 76.2975 527.235743 
L 76.63712 527.861996 
L 76.976739 527.794528 
L 77.316358 527.274581 
L 77.655978 527.920366 
L 77.995597 525.190348 
L 78.335216 525.241256 
L 79.014455 523.355078 
L 79.354074 523.148334 
L 79.693693 521.414786 
L 80.033313 520.287454 
L 80.372932 520.977895 
L 81.05217 522.843938 
L 81.39179 520.728091 
L 81.731409 520.509201 
L 82.071028 517.249932 
L 82.410648 517.746978 
L 82.750267 520.112234 
L 83.089886 520.348989 
L 83.429505 519.704979 
L 83.769125 516.946236 
L 84.108744 517.088183 
L 84.448363 516.452073 
L 84.787983 513.999555 
L 85.127602 512.803694 
L 85.80684 511.391716 
L 86.14646 510.092639 
L 86.486079 510.106446 
L 86.825698 510.75034 
L 87.504937 508.599931 
L 87.844556 508.078451 
L 88.184175 508.789975 
L 88.523795 508.593049 
L 88.863414 509.748143 
L 89.542653 508.141173 
L 89.882272 505.961118 
L 90.221891 506.488463 
L 90.90113 502.278868 
L 91.240749 503.262795 
L 91.580368 502.997217 
L 91.919988 503.876975 
L 92.259607 503.871674 
L 92.599226 504.728066 
L 92.938845 503.733433 
L 93.278465 504.47173 
L 93.618084 503.465881 
L 93.957703 504.844367 
L 94.297323 505.0382 
L 94.636942 504.292299 
L 94.976561 505.032048 
L 95.31618 503.058825 
L 95.6558 500.23174 
L 96.335038 502.071748 
L 97.014277 501.01266 
L 97.353896 499.922638 
L 97.693515 500.100304 
L 98.033135 500.977284 
L 98.712373 497.606698 
L 99.051993 498.766901 
L 99.391612 498.700761 
L 99.731231 497.856715 
L 100.07085 496.176806 
L 100.41047 497.514608 
L 101.089708 495.068802 
L 101.429328 494.665748 
L 101.768947 495.90291 
L 102.108566 495.62048 
L 102.448185 495.612671 
L 102.787805 494.696844 
L 103.127424 496.539504 
L 103.467043 495.250478 
L 103.806663 495.376103 
L 104.146282 496.305947 
L 104.485901 496.229009 
L 104.82552 493.736377 
L 105.16514 490.358102 
L 105.504759 490.248477 
L 105.844378 492.592377 
L 106.183998 490.776352 
L 106.863236 488.477283 
L 107.202855 489.584197 
L 107.542475 487.651124 
L 108.221713 489.745022 
L 108.561333 488.019196 
L 108.900952 488.319338 
L 109.240571 487.810246 
L 109.58019 488.607636 
L 109.91981 488.359539 
L 110.259429 489.098785 
L 110.599048 488.369535 
L 110.938667 488.350459 
L 111.278287 488.106815 
L 111.617906 489.424534 
L 111.957525 488.549478 
L 112.297145 486.502674 
L 112.636764 486.095614 
L 112.976383 486.579871 
L 113.316002 489.423408 
L 113.655622 488.675587 
L 113.995241 486.878642 
L 114.33486 487.825547 
L 114.67448 486.806461 
L 115.014099 487.031094 
L 115.353718 488.838729 
L 115.693337 489.26581 
L 116.032957 488.02668 
L 116.372576 487.333149 
L 116.712195 487.886281 
L 117.051815 487.579073 
L 117.391434 489.964033 
L 117.731053 489.765981 
L 118.070672 488.819639 
L 118.410292 489.417699 
L 118.749911 489.098966 
L 119.08953 489.56759 
L 119.768769 487.944027 
L 120.108388 489.213614 
L 120.448007 490.929512 
L 120.787627 491.19121 
L 121.127246 490.82779 
L 121.466865 490.928942 
L 121.806485 493.676928 
L 122.146104 493.614065 
L 122.485723 494.17728 
L 123.164962 492.161882 
L 123.504581 493.192317 
L 123.8442 493.252521 
L 124.18382 494.269951 
L 124.523439 494.580911 
L 124.863058 496.718531 
L 125.202677 496.528978 
L 125.542297 497.164067 
L 125.881916 499.312741 
L 126.221535 497.461491 
L 126.561155 500.605805 
L 126.900774 499.536006 
L 127.240393 499.325191 
L 127.580012 498.68135 
L 127.919632 499.608945 
L 128.259251 500.184903 
L 128.59887 499.889824 
L 129.278109 501.113566 
L 129.617728 502.277927 
L 129.957347 498.508754 
L 130.296967 498.106429 
L 130.976205 501.321383 
L 131.315825 500.297937 
L 131.655444 500.89742 
L 131.995063 500.508057 
L 132.674302 501.666167 
L 133.013921 502.833978 
L 133.35354 502.290434 
L 133.69316 502.009953 
L 134.032779 502.508439 
L 134.372398 502.667022 
L 134.712017 501.976179 
L 135.051637 503.779101 
L 135.391256 504.4325 
L 135.730875 505.604006 
L 136.070495 505.703833 
L 136.410114 507.798095 
L 136.749733 506.469193 
L 137.089352 508.256676 
L 137.428972 509.229539 
L 137.768591 511.32663 
L 138.10821 511.430138 
L 138.44783 510.68437 
L 139.466687 513.626218 
L 139.806307 514.123416 
L 140.145926 515.141961 
L 140.485545 514.771114 
L 140.825165 515.342791 
L 141.504403 519.806304 
L 141.844022 520.342865 
L 142.183642 520.065837 
L 142.523261 519.501962 
L 142.86288 520.130898 
L 143.2025 522.654018 
L 143.542119 523.473499 
L 143.881738 523.453702 
L 144.221357 525.584606 
L 144.560977 525.212428 
L 144.900596 525.988312 
L 145.579835 528.069537 
L 145.919454 527.981386 
L 146.259073 528.144063 
L 146.598692 530.170262 
L 146.938312 530.679384 
L 147.277931 529.797329 
L 147.61755 531.563444 
L 147.95717 531.591837 
L 148.296789 531.176183 
L 148.636408 533.345506 
L 148.976027 534.414484 
L 149.315647 534.95349 
L 149.994885 537.333049 
L 150.334505 539.398097 
L 150.674124 540.323129 
L 151.013743 540.28575 
L 151.353362 539.678882 
L 151.692982 543.097359 
L 152.032601 542.315047 
L 153.051459 546.144393 
L 153.391078 545.940259 
L 153.730697 546.901453 
L 154.070317 547.455348 
L 154.409936 547.431065 
L 155.089175 549.072421 
L 155.428794 550.96669 
L 155.768413 551.993116 
L 156.108032 553.765986 
L 156.447652 553.92649 
L 156.787271 551.815741 
L 157.12689 551.938127 
L 157.46651 549.486425 
L 157.806129 549.248487 
L 158.485367 552.22228 
L 158.824987 552.007739 
L 159.504225 556.085753 
L 159.843845 554.160605 
L 160.183464 556.261317 
L 160.523083 555.953638 
L 160.862702 556.957716 
L 161.202322 559.062049 
L 161.541941 558.542976 
L 161.88156 559.972709 
L 162.22118 559.802978 
L 162.560799 560.453158 
L 162.900418 560.527881 
L 163.240037 564.769943 
L 163.919276 566.977638 
L 164.258895 568.877188 
L 164.938134 570.59508 
L 165.277753 570.444217 
L 165.617372 573.025431 
L 166.296611 570.750863 
L 166.63623 571.426211 
L 167.315469 573.872186 
L 167.655088 574.438896 
L 167.994707 576.420551 
L 168.334327 576.656073 
L 169.013565 578.841859 
L 170.032423 577.45292 
L 170.372042 575.195387 
L 170.711662 575.464259 
L 171.051281 577.766757 
L 171.730519 578.634179 
L 172.070139 581.087449 
L 172.409758 581.846504 
L 172.749377 579.710805 
L 173.088997 580.67638 
L 173.768235 585.383132 
L 174.107854 585.357644 
L 174.447474 583.804801 
L 174.787093 583.269864 
L 175.126712 581.771392 
L 175.466332 582.394393 
L 175.805951 581.344481 
L 176.14557 582.938561 
L 176.485189 583.265006 
L 176.824809 584.413687 
L 177.164428 586.139842 
L 177.504047 586.790852 
L 177.843667 584.948102 
L 178.183286 584.764181 
L 178.522905 587.699917 
L 179.202144 590.290878 
L 179.541763 590.788595 
L 179.881382 592.005228 
L 180.221002 591.838153 
L 180.560621 594.064309 
L 180.90024 595.128604 
L 181.239859 594.268279 
L 181.579479 595.421947 
L 181.919098 595.750977 
L 182.258717 596.679228 
L 182.598337 597.979896 
L 182.937956 595.83966 
L 183.277575 596.874714 
L 183.956814 600.289467 
L 184.296433 600.554832 
L 184.636052 599.408742 
L 184.975672 601.778487 
L 185.315291 601.992554 
L 185.65491 602.074186 
L 185.994529 602.771237 
L 186.334149 604.648822 
L 186.673768 605.676352 
L 187.013387 606.307353 
L 187.353007 604.370665 
L 187.692626 604.01217 
L 188.032245 601.938359 
L 188.371864 603.957008 
L 188.711484 604.715341 
L 189.390722 603.39196 
L 189.730342 603.777007 
L 190.069961 605.210114 
L 190.40958 607.151465 
L 190.749199 606.608245 
L 191.768057 610.996683 
L 192.447296 609.69918 
L 192.786915 610.26968 
L 193.126534 607.932175 
L 193.466154 606.463966 
L 193.805773 606.120261 
L 194.145392 607.591432 
L 194.485012 605.187552 
L 194.824631 605.024728 
L 195.16425 606.698877 
L 195.843489 607.770986 
L 196.183108 608.885172 
L 196.183108 608.885172 
" style="fill:none;stroke:#ff0000;stroke-linecap:square;stroke-width:1.5;"/>
   </g>
   <g id="patch_13">
    <path d="M 14.3 633.7 
L 14.3 451.68 
" style="fill:none;stroke:#000000;stroke-linecap:square;stroke-linejoin:miter;stroke-width:0.8;"/>
   </g>
   <g id="patch_14">
    <path d="M 205.2 633.7 
L 205.2 451.68 
" style="fill:none;stroke:#000000;stroke-linecap:square;stroke-linejoin:miter;stroke-width:0.8;"/>
   </g>
   <g id="patch_15">
    <path d="M 14.3 633.7 
L 205.2 633.7 
" style="fill:none;stroke:#000000;stroke-linecap:square;stroke-linejoin:miter;stroke-width:0.8;"/>
   </g>
   <g id="patch_16">
    <path d="M 14.3 451.68 
L 205.2 451.68 
" style="fill:none;stroke:#000000;stroke-linecap:square;stroke-linejoin:miter;stroke-width:0.8;"/>
   </g>
   <g id="text_3">
    <!-- EMA: 0.9 -->
    <defs>
     <path d="M 10.984375 1.515625 
L 10.984375 10.5 
Q 14.703125 8.734375 18.5 7.8125 
Q 22.3125 6.890625 25.984375 6.890625 
Q 35.75 6.890625 40.890625 13.453125 
Q 46.046875 20.015625 46.78125 33.40625 
Q 43.953125 29.203125 39.59375 26.953125 
Q 35.25 24.703125 29.984375 24.703125 
Q 19.046875 24.703125 12.671875 31.3125 
Q 6.296875 37.9375 6.296875 49.421875 
Q 6.296875 60.640625 12.9375 67.421875 
Q 19.578125 74.21875 30.609375 74.21875 
Q 43.265625 74.21875 49.921875 64.515625 
Q 56.59375 54.828125 56.59375 36.375 
Q 56.59375 19.140625 48.40625 8.859375 
Q 40.234375 -1.421875 26.421875 -1.421875 
Q 22.703125 -1.421875 18.890625 -0.6875 
Q 15.09375 0.046875 10.984375 1.515625 
z
M 30.609375 32.421875 
Q 37.25 32.421875 41.125 36.953125 
Q 45.015625 41.5 45.015625 49.421875 
Q 45.015625 57.28125 41.125 61.84375 
Q 37.25 66.40625 30.609375 66.40625 
Q 23.96875 66.40625 20.09375 61.84375 
Q 16.21875 57.28125 16.21875 49.421875 
Q 16.21875 41.5 20.09375 36.953125 
Q 23.96875 32.421875 30.609375 32.421875 
z
" id="DejaVuSans-57"/>
    </defs>
    <g transform="translate(83.3125 445.68)scale(0.12 -0.12)">
     <use xlink:href="#DejaVuSans-69"/>
     <use x="63.183594" xlink:href="#DejaVuSans-77"/>
     <use x="149.462891" xlink:href="#DejaVuSans-65"/>
     <use x="216.121094" xlink:href="#DejaVuSans-58"/>
     <use x="249.8125" xlink:href="#DejaVuSans-32"/>
     <use x="281.599609" xlink:href="#DejaVuSans-48"/>
     <use x="345.222656" xlink:href="#DejaVuSans-46"/>
     <use x="377.009766" xlink:href="#DejaVuSans-57"/>
    </g>
   </g>
  </g>
 </g>
 <defs>
  <clipPath id="p9818891d74">
   <rect height="182.02" width="190.9" x="14.3" y="26.88"/>
  </clipPath>
  <clipPath id="pdd155d67fa">
   <rect height="182.02" width="190.9" x="14.3" y="239.28"/>
  </clipPath>
  <clipPath id="p7d439056ed">
   <rect height="182.02" width="190.9" x="14.3" y="451.68"/>
  </clipPath>
 </defs>
</svg>
