<?xml version="1.0" encoding="utf-8" standalone="no"?>
<!DOCTYPE svg PUBLIC "-//W3C//DTD SVG 1.1//EN"
  "http://www.w3.org/Graphics/SVG/1.1/DTD/svg11.dtd">
<!-- Created with matplotlib (https://matplotlib.org/) -->
<svg height="345.6pt" version="1.1" viewBox="0 0 460.8 345.6" width="460.8pt" xmlns="http://www.w3.org/2000/svg" xmlns:xlink="http://www.w3.org/1999/xlink">
 <defs>
  <style type="text/css">
*{stroke-linecap:butt;stroke-linejoin:round;}
  </style>
 </defs>
 <g id="figure_1">
  <g id="patch_1">
   <path d="M 0 345.6 
L 460.8 345.6 
L 460.8 0 
L 0 0 
z
" style="fill:#ffffff;"/>
  </g>
  <g id="axes_1">
   <g id="patch_2">
    <path d="M 57.6 307.584 
L 119.172414 307.584 
L 119.172414 41.472 
L 57.6 41.472 
z
" style="fill:#ffffff;"/>
   </g>
   <g id="matplotlib.axis_1">
    <g id="xtick_1">
     <g id="line2d_1">
      <defs>
       <path d="M 0 0 
L 0 3.5 
" id="md5c78141bc" style="stroke:#000000;stroke-width:0.8;"/>
      </defs>
      <g>
       <use style="stroke:#000000;stroke-width:0.8;" x="60.398746" xlink:href="#md5c78141bc" y="307.584"/>
      </g>
     </g>
     <g id="text_1">
      <!-- 0 -->
      <defs>
       <path d="M 31.78125 66.40625 
Q 24.171875 66.40625 20.328125 58.90625 
Q 16.5 51.421875 16.5 36.375 
Q 16.5 21.390625 20.328125 13.890625 
Q 24.171875 6.390625 31.78125 6.390625 
Q 39.453125 6.390625 43.28125 13.890625 
Q 47.125 21.390625 47.125 36.375 
Q 47.125 51.421875 43.28125 58.90625 
Q 39.453125 66.40625 31.78125 66.40625 
z
M 31.78125 74.21875 
Q 44.046875 74.21875 50.515625 64.515625 
Q 56.984375 54.828125 56.984375 36.375 
Q 56.984375 17.96875 50.515625 8.265625 
Q 44.046875 -1.421875 31.78125 -1.421875 
Q 19.53125 -1.421875 13.0625 8.265625 
Q 6.59375 17.96875 6.59375 36.375 
Q 6.59375 54.828125 13.0625 64.515625 
Q 19.53125 74.21875 31.78125 74.21875 
z
" id="DejaVuSans-48"/>
      </defs>
      <g transform="translate(57.217496 322.182437)scale(0.1 -0.1)">
       <use xlink:href="#DejaVuSans-48"/>
      </g>
     </g>
    </g>
    <g id="xtick_2">
     <g id="line2d_2">
      <g>
       <use style="stroke:#000000;stroke-width:0.8;" x="91.495925" xlink:href="#md5c78141bc" y="307.584"/>
      </g>
     </g>
     <g id="text_2">
      <!-- 5 -->
      <defs>
       <path d="M 10.796875 72.90625 
L 49.515625 72.90625 
L 49.515625 64.59375 
L 19.828125 64.59375 
L 19.828125 46.734375 
Q 21.96875 47.46875 24.109375 47.828125 
Q 26.265625 48.1875 28.421875 48.1875 
Q 40.625 48.1875 47.75 41.5 
Q 54.890625 34.8125 54.890625 23.390625 
Q 54.890625 11.625 47.5625 5.09375 
Q 40.234375 -1.421875 26.90625 -1.421875 
Q 22.3125 -1.421875 17.546875 -0.640625 
Q 12.796875 0.140625 7.71875 1.703125 
L 7.71875 11.625 
Q 12.109375 9.234375 16.796875 8.0625 
Q 21.484375 6.890625 26.703125 6.890625 
Q 35.15625 6.890625 40.078125 11.328125 
Q 45.015625 15.765625 45.015625 23.390625 
Q 45.015625 31 40.078125 35.4375 
Q 35.15625 39.890625 26.703125 39.890625 
Q 22.75 39.890625 18.8125 39.015625 
Q 14.890625 38.140625 10.796875 36.28125 
z
" id="DejaVuSans-53"/>
      </defs>
      <g transform="translate(88.314675 322.182437)scale(0.1 -0.1)">
       <use xlink:href="#DejaVuSans-53"/>
      </g>
     </g>
    </g>
   </g>
   <g id="matplotlib.axis_2">
    <g id="ytick_1">
     <g id="line2d_3">
      <defs>
       <path d="M 0 0 
L -3.5 0 
" id="m8409d9181f" style="stroke:#000000;stroke-width:0.8;"/>
      </defs>
      <g>
       <use style="stroke:#000000;stroke-width:0.8;" x="57.6" xlink:href="#m8409d9181f" y="306.545243"/>
      </g>
     </g>
     <g id="text_3">
      <!-- 200 -->
      <defs>
       <path d="M 19.1875 8.296875 
L 53.609375 8.296875 
L 53.609375 0 
L 7.328125 0 
L 7.328125 8.296875 
Q 12.9375 14.109375 22.625 23.890625 
Q 32.328125 33.6875 34.8125 36.53125 
Q 39.546875 41.84375 41.421875 45.53125 
Q 43.3125 49.21875 43.3125 52.78125 
Q 43.3125 58.59375 39.234375 62.25 
Q 35.15625 65.921875 28.609375 65.921875 
Q 23.96875 65.921875 18.8125 64.3125 
Q 13.671875 62.703125 7.8125 59.421875 
L 7.8125 69.390625 
Q 13.765625 71.78125 18.9375 73 
Q 24.125 74.21875 28.421875 74.21875 
Q 39.75 74.21875 46.484375 68.546875 
Q 53.21875 62.890625 53.21875 53.421875 
Q 53.21875 48.921875 51.53125 44.890625 
Q 49.859375 40.875 45.40625 35.40625 
Q 44.1875 33.984375 37.640625 27.21875 
Q 31.109375 20.453125 19.1875 8.296875 
z
" id="DejaVuSans-50"/>
      </defs>
      <g transform="translate(31.5125 310.344462)scale(0.1 -0.1)">
       <use xlink:href="#DejaVuSans-50"/>
       <use x="63.623047" xlink:href="#DejaVuSans-48"/>
       <use x="127.246094" xlink:href="#DejaVuSans-48"/>
      </g>
     </g>
    </g>
    <g id="ytick_2">
     <g id="line2d_4">
      <g>
       <use style="stroke:#000000;stroke-width:0.8;" x="57.6" xlink:href="#m8409d9181f" y="270.064746"/>
      </g>
     </g>
     <g id="text_4">
      <!-- 300 -->
      <defs>
       <path d="M 40.578125 39.3125 
Q 47.65625 37.796875 51.625 33 
Q 55.609375 28.21875 55.609375 21.1875 
Q 55.609375 10.40625 48.1875 4.484375 
Q 40.765625 -1.421875 27.09375 -1.421875 
Q 22.515625 -1.421875 17.65625 -0.515625 
Q 12.796875 0.390625 7.625 2.203125 
L 7.625 11.71875 
Q 11.71875 9.328125 16.59375 8.109375 
Q 21.484375 6.890625 26.8125 6.890625 
Q 36.078125 6.890625 40.9375 10.546875 
Q 45.796875 14.203125 45.796875 21.1875 
Q 45.796875 27.640625 41.28125 31.265625 
Q 36.765625 34.90625 28.71875 34.90625 
L 20.21875 34.90625 
L 20.21875 43.015625 
L 29.109375 43.015625 
Q 36.375 43.015625 40.234375 45.921875 
Q 44.09375 48.828125 44.09375 54.296875 
Q 44.09375 59.90625 40.109375 62.90625 
Q 36.140625 65.921875 28.71875 65.921875 
Q 24.65625 65.921875 20.015625 65.03125 
Q 15.375 64.15625 9.8125 62.3125 
L 9.8125 71.09375 
Q 15.4375 72.65625 20.34375 73.4375 
Q 25.25 74.21875 29.59375 74.21875 
Q 40.828125 74.21875 47.359375 69.109375 
Q 53.90625 64.015625 53.90625 55.328125 
Q 53.90625 49.265625 50.4375 45.09375 
Q 46.96875 40.921875 40.578125 39.3125 
z
" id="DejaVuSans-51"/>
      </defs>
      <g transform="translate(31.5125 273.863965)scale(0.1 -0.1)">
       <use xlink:href="#DejaVuSans-51"/>
       <use x="63.623047" xlink:href="#DejaVuSans-48"/>
       <use x="127.246094" xlink:href="#DejaVuSans-48"/>
      </g>
     </g>
    </g>
    <g id="ytick_3">
     <g id="line2d_5">
      <g>
       <use style="stroke:#000000;stroke-width:0.8;" x="57.6" xlink:href="#m8409d9181f" y="233.584248"/>
      </g>
     </g>
     <g id="text_5">
      <!-- 400 -->
      <defs>
       <path d="M 37.796875 64.3125 
L 12.890625 25.390625 
L 37.796875 25.390625 
z
M 35.203125 72.90625 
L 47.609375 72.90625 
L 47.609375 25.390625 
L 58.015625 25.390625 
L 58.015625 17.1875 
L 47.609375 17.1875 
L 47.609375 0 
L 37.796875 0 
L 37.796875 17.1875 
L 4.890625 17.1875 
L 4.890625 26.703125 
z
" id="DejaVuSans-52"/>
      </defs>
      <g transform="translate(31.5125 237.383467)scale(0.1 -0.1)">
       <use xlink:href="#DejaVuSans-52"/>
       <use x="63.623047" xlink:href="#DejaVuSans-48"/>
       <use x="127.246094" xlink:href="#DejaVuSans-48"/>
      </g>
     </g>
    </g>
    <g id="ytick_4">
     <g id="line2d_6">
      <g>
       <use style="stroke:#000000;stroke-width:0.8;" x="57.6" xlink:href="#m8409d9181f" y="197.103751"/>
      </g>
     </g>
     <g id="text_6">
      <!-- 500 -->
      <g transform="translate(31.5125 200.902969)scale(0.1 -0.1)">
       <use xlink:href="#DejaVuSans-53"/>
       <use x="63.623047" xlink:href="#DejaVuSans-48"/>
       <use x="127.246094" xlink:href="#DejaVuSans-48"/>
      </g>
     </g>
    </g>
    <g id="ytick_5">
     <g id="line2d_7">
      <g>
       <use style="stroke:#000000;stroke-width:0.8;" x="57.6" xlink:href="#m8409d9181f" y="160.623253"/>
      </g>
     </g>
     <g id="text_7">
      <!-- 600 -->
      <defs>
       <path d="M 33.015625 40.375 
Q 26.375 40.375 22.484375 35.828125 
Q 18.609375 31.296875 18.609375 23.390625 
Q 18.609375 15.53125 22.484375 10.953125 
Q 26.375 6.390625 33.015625 6.390625 
Q 39.65625 6.390625 43.53125 10.953125 
Q 47.40625 15.53125 47.40625 23.390625 
Q 47.40625 31.296875 43.53125 35.828125 
Q 39.65625 40.375 33.015625 40.375 
z
M 52.59375 71.296875 
L 52.59375 62.3125 
Q 48.875 64.0625 45.09375 64.984375 
Q 41.3125 65.921875 37.59375 65.921875 
Q 27.828125 65.921875 22.671875 59.328125 
Q 17.53125 52.734375 16.796875 39.40625 
Q 19.671875 43.65625 24.015625 45.921875 
Q 28.375 48.1875 33.59375 48.1875 
Q 44.578125 48.1875 50.953125 41.515625 
Q 57.328125 34.859375 57.328125 23.390625 
Q 57.328125 12.15625 50.6875 5.359375 
Q 44.046875 -1.421875 33.015625 -1.421875 
Q 20.359375 -1.421875 13.671875 8.265625 
Q 6.984375 17.96875 6.984375 36.375 
Q 6.984375 53.65625 15.1875 63.9375 
Q 23.390625 74.21875 37.203125 74.21875 
Q 40.921875 74.21875 44.703125 73.484375 
Q 48.484375 72.75 52.59375 71.296875 
z
" id="DejaVuSans-54"/>
      </defs>
      <g transform="translate(31.5125 164.422472)scale(0.1 -0.1)">
       <use xlink:href="#DejaVuSans-54"/>
       <use x="63.623047" xlink:href="#DejaVuSans-48"/>
       <use x="127.246094" xlink:href="#DejaVuSans-48"/>
      </g>
     </g>
    </g>
    <g id="ytick_6">
     <g id="line2d_8">
      <g>
       <use style="stroke:#000000;stroke-width:0.8;" x="57.6" xlink:href="#m8409d9181f" y="124.142756"/>
      </g>
     </g>
     <g id="text_8">
      <!-- 700 -->
      <defs>
       <path d="M 8.203125 72.90625 
L 55.078125 72.90625 
L 55.078125 68.703125 
L 28.609375 0 
L 18.3125 0 
L 43.21875 64.59375 
L 8.203125 64.59375 
z
" id="DejaVuSans-55"/>
      </defs>
      <g transform="translate(31.5125 127.941974)scale(0.1 -0.1)">
       <use xlink:href="#DejaVuSans-55"/>
       <use x="63.623047" xlink:href="#DejaVuSans-48"/>
       <use x="127.246094" xlink:href="#DejaVuSans-48"/>
      </g>
     </g>
    </g>
    <g id="ytick_7">
     <g id="line2d_9">
      <g>
       <use style="stroke:#000000;stroke-width:0.8;" x="57.6" xlink:href="#m8409d9181f" y="87.662258"/>
      </g>
     </g>
     <g id="text_9">
      <!-- 800 -->
      <defs>
       <path d="M 31.78125 34.625 
Q 24.75 34.625 20.71875 30.859375 
Q 16.703125 27.09375 16.703125 20.515625 
Q 16.703125 13.921875 20.71875 10.15625 
Q 24.75 6.390625 31.78125 6.390625 
Q 38.8125 6.390625 42.859375 10.171875 
Q 46.921875 13.96875 46.921875 20.515625 
Q 46.921875 27.09375 42.890625 30.859375 
Q 38.875 34.625 31.78125 34.625 
z
M 21.921875 38.8125 
Q 15.578125 40.375 12.03125 44.71875 
Q 8.5 49.078125 8.5 55.328125 
Q 8.5 64.0625 14.71875 69.140625 
Q 20.953125 74.21875 31.78125 74.21875 
Q 42.671875 74.21875 48.875 69.140625 
Q 55.078125 64.0625 55.078125 55.328125 
Q 55.078125 49.078125 51.53125 44.71875 
Q 48 40.375 41.703125 38.8125 
Q 48.828125 37.15625 52.796875 32.3125 
Q 56.78125 27.484375 56.78125 20.515625 
Q 56.78125 9.90625 50.3125 4.234375 
Q 43.84375 -1.421875 31.78125 -1.421875 
Q 19.734375 -1.421875 13.25 4.234375 
Q 6.78125 9.90625 6.78125 20.515625 
Q 6.78125 27.484375 10.78125 32.3125 
Q 14.796875 37.15625 21.921875 38.8125 
z
M 18.3125 54.390625 
Q 18.3125 48.734375 21.84375 45.5625 
Q 25.390625 42.390625 31.78125 42.390625 
Q 38.140625 42.390625 41.71875 45.5625 
Q 45.3125 48.734375 45.3125 54.390625 
Q 45.3125 60.0625 41.71875 63.234375 
Q 38.140625 66.40625 31.78125 66.40625 
Q 25.390625 66.40625 21.84375 63.234375 
Q 18.3125 60.0625 18.3125 54.390625 
z
" id="DejaVuSans-56"/>
      </defs>
      <g transform="translate(31.5125 91.461477)scale(0.1 -0.1)">
       <use xlink:href="#DejaVuSans-56"/>
       <use x="63.623047" xlink:href="#DejaVuSans-48"/>
       <use x="127.246094" xlink:href="#DejaVuSans-48"/>
      </g>
     </g>
    </g>
    <g id="ytick_8">
     <g id="line2d_10">
      <g>
       <use style="stroke:#000000;stroke-width:0.8;" x="57.6" xlink:href="#m8409d9181f" y="51.18176"/>
      </g>
     </g>
     <g id="text_10">
      <!-- 900 -->
      <defs>
       <path d="M 10.984375 1.515625 
L 10.984375 10.5 
Q 14.703125 8.734375 18.5 7.8125 
Q 22.3125 6.890625 25.984375 6.890625 
Q 35.75 6.890625 40.890625 13.453125 
Q 46.046875 20.015625 46.78125 33.40625 
Q 43.953125 29.203125 39.59375 26.953125 
Q 35.25 24.703125 29.984375 24.703125 
Q 19.046875 24.703125 12.671875 31.3125 
Q 6.296875 37.9375 6.296875 49.421875 
Q 6.296875 60.640625 12.9375 67.421875 
Q 19.578125 74.21875 30.609375 74.21875 
Q 43.265625 74.21875 49.921875 64.515625 
Q 56.59375 54.828125 56.59375 36.375 
Q 56.59375 19.140625 48.40625 8.859375 
Q 40.234375 -1.421875 26.421875 -1.421875 
Q 22.703125 -1.421875 18.890625 -0.6875 
Q 15.09375 0.046875 10.984375 1.515625 
z
M 30.609375 32.421875 
Q 37.25 32.421875 41.125 36.953125 
Q 45.015625 41.5 45.015625 49.421875 
Q 45.015625 57.28125 41.125 61.84375 
Q 37.25 66.40625 30.609375 66.40625 
Q 23.96875 66.40625 20.09375 61.84375 
Q 16.21875 57.28125 16.21875 49.421875 
Q 16.21875 41.5 20.09375 36.953125 
Q 23.96875 32.421875 30.609375 32.421875 
z
" id="DejaVuSans-57"/>
      </defs>
      <g transform="translate(31.5125 54.980979)scale(0.1 -0.1)">
       <use xlink:href="#DejaVuSans-57"/>
       <use x="63.623047" xlink:href="#DejaVuSans-48"/>
       <use x="127.246094" xlink:href="#DejaVuSans-48"/>
      </g>
     </g>
    </g>
   </g>
   <g id="line2d_11">
    <path clip-path="url(#p4011fa30e7)" d="M 60.398746 53.568045 
L 66.618182 54.044046 
L 72.837618 54.519401 
L 79.057053 54.994244 
L 85.276489 55.468464 
L 91.495925 55.942038 
L 97.715361 56.415011 
L 103.934796 56.88736 
L 110.154232 57.359042 
L 116.373668 57.8301 
" style="fill:none;stroke:#ff0000;stroke-linecap:square;stroke-opacity:0.5;stroke-width:1.5;"/>
   </g>
   <g id="line2d_12">
    <path clip-path="url(#p4011fa30e7)" d="M 60.398746 53.568 
L 66.618182 54.044046 
L 72.837618 54.519423 
L 79.057053 54.9942 
L 85.276489 55.468464 
L 91.495925 55.942016 
L 97.715361 56.414988 
L 103.934796 56.887338 
L 110.154232 57.359042 
L 116.373668 57.830055 
" style="fill:none;stroke:#ff0000;stroke-dasharray:7.4,3.2;stroke-dashoffset:0;stroke-opacity:0.5;stroke-width:2;"/>
   </g>
   <g id="line2d_13">
    <path clip-path="url(#p4011fa30e7)" d="M 60.398746 53.568045 
L 66.618182 58.302159 
L 72.837618 62.978116 
L 79.057053 67.595112 
L 85.276489 72.152614 
L 91.495925 76.650153 
L 97.715361 81.087285 
L 103.934796 85.463676 
L 110.154232 89.779258 
L 116.373668 94.033987 
" style="fill:none;stroke:#0000ff;stroke-linecap:square;stroke-opacity:0.5;stroke-width:1.5;"/>
   </g>
   <g id="line2d_14">
    <path clip-path="url(#p4011fa30e7)" d="M 60.398746 53.568 
L 66.618182 58.302159 
L 72.837618 62.978005 
L 79.057053 67.595045 
L 85.276489 72.152569 
L 91.495925 76.650064 
L 97.715361 81.087152 
L 103.934796 85.463587 
L 110.154232 89.779102 
L 116.373668 94.033787 
" style="fill:none;stroke:#0000ff;stroke-dasharray:7.4,3.2;stroke-dashoffset:0;stroke-opacity:0.5;stroke-width:2;"/>
   </g>
   <g id="line2d_15">
    <path clip-path="url(#p4011fa30e7)" d="M 60.398746 53.568045 
L 66.618182 98.326747 
L 72.837618 137.522753 
L 79.057053 171.598463 
L 85.276489 201.079132 
L 91.495925 226.459474 
L 97.715361 248.18748 
L 103.934796 266.678955 
L 110.154232 282.323264 
L 116.373668 295.488 
" style="fill:none;stroke:#008000;stroke-linecap:square;stroke-opacity:0.5;stroke-width:1.5;"/>
   </g>
   <g id="line2d_16">
    <path clip-path="url(#p4011fa30e7)" d="M 60.398746 53.568 
L 66.618182 98.326413 
L 72.837618 137.522219 
L 79.057053 171.598085 
L 85.276489 201.078653 
L 91.495925 226.458895 
L 97.715361 248.186979 
L 103.934796 266.678399 
L 110.154232 282.322696 
L 116.373668 295.487449 
" style="fill:none;stroke:#008000;stroke-dasharray:7.4,3.2;stroke-dashoffset:0;stroke-opacity:0.5;stroke-width:2;"/>
   </g>
   <g id="patch_3">
    <path d="M 57.6 307.584 
L 57.6 41.472 
" style="fill:none;stroke:#000000;stroke-linecap:square;stroke-linejoin:miter;stroke-width:0.8;"/>
   </g>
   <g id="patch_4">
    <path d="M 119.172414 307.584 
L 119.172414 41.472 
" style="fill:none;stroke:#000000;stroke-linecap:square;stroke-linejoin:miter;stroke-width:0.8;"/>
   </g>
   <g id="patch_5">
    <path d="M 57.6 307.584 
L 119.172414 307.584 
" style="fill:none;stroke:#000000;stroke-linecap:square;stroke-linejoin:miter;stroke-width:0.8;"/>
   </g>
   <g id="patch_6">
    <path d="M 57.6 41.472 
L 119.172414 41.472 
" style="fill:none;stroke:#000000;stroke-linecap:square;stroke-linejoin:miter;stroke-width:0.8;"/>
   </g>
   <g id="text_11">
    <!-- lr:0.1 -->
    <defs>
     <path d="M 9.421875 75.984375 
L 18.40625 75.984375 
L 18.40625 0 
L 9.421875 0 
z
" id="DejaVuSans-108"/>
     <path d="M 41.109375 46.296875 
Q 39.59375 47.171875 37.8125 47.578125 
Q 36.03125 48 33.890625 48 
Q 26.265625 48 22.1875 43.046875 
Q 18.109375 38.09375 18.109375 28.8125 
L 18.109375 0 
L 9.078125 0 
L 9.078125 54.6875 
L 18.109375 54.6875 
L 18.109375 46.1875 
Q 20.953125 51.171875 25.484375 53.578125 
Q 30.03125 56 36.53125 56 
Q 37.453125 56 38.578125 55.875 
Q 39.703125 55.765625 41.0625 55.515625 
z
" id="DejaVuSans-114"/>
     <path d="M 11.71875 12.40625 
L 22.015625 12.40625 
L 22.015625 0 
L 11.71875 0 
z
M 11.71875 51.703125 
L 22.015625 51.703125 
L 22.015625 39.3125 
L 11.71875 39.3125 
z
" id="DejaVuSans-58"/>
     <path d="M 10.6875 12.40625 
L 21 12.40625 
L 21 0 
L 10.6875 0 
z
" id="DejaVuSans-46"/>
     <path d="M 12.40625 8.296875 
L 28.515625 8.296875 
L 28.515625 63.921875 
L 10.984375 60.40625 
L 10.984375 69.390625 
L 28.421875 72.90625 
L 38.28125 72.90625 
L 38.28125 8.296875 
L 54.390625 8.296875 
L 54.390625 0 
L 12.40625 0 
z
" id="DejaVuSans-49"/>
    </defs>
    <g transform="translate(72.690582 35.472)scale(0.12 -0.12)">
     <use xlink:href="#DejaVuSans-108"/>
     <use x="27.783203" xlink:href="#DejaVuSans-114"/>
     <use x="68.880859" xlink:href="#DejaVuSans-58"/>
     <use x="102.572266" xlink:href="#DejaVuSans-48"/>
     <use x="166.195312" xlink:href="#DejaVuSans-46"/>
     <use x="197.982422" xlink:href="#DejaVuSans-49"/>
    </g>
   </g>
  </g>
  <g id="axes_2">
   <g id="patch_7">
    <path d="M 131.486897 307.584 
L 193.05931 307.584 
L 193.05931 41.472 
L 131.486897 41.472 
z
" style="fill:#ffffff;"/>
   </g>
   <g id="matplotlib.axis_3">
    <g id="xtick_3">
     <g id="line2d_17">
      <g>
       <use style="stroke:#000000;stroke-width:0.8;" x="134.285643" xlink:href="#md5c78141bc" y="307.584"/>
      </g>
     </g>
     <g id="text_12">
      <!-- 0 -->
      <g transform="translate(131.104393 322.182437)scale(0.1 -0.1)">
       <use xlink:href="#DejaVuSans-48"/>
      </g>
     </g>
    </g>
    <g id="xtick_4">
     <g id="line2d_18">
      <g>
       <use style="stroke:#000000;stroke-width:0.8;" x="190.825968" xlink:href="#md5c78141bc" y="307.584"/>
      </g>
     </g>
     <g id="text_13">
      <!-- 100 -->
      <g transform="translate(181.282218 322.182437)scale(0.1 -0.1)">
       <use xlink:href="#DejaVuSans-49"/>
       <use x="63.623047" xlink:href="#DejaVuSans-48"/>
       <use x="127.246094" xlink:href="#DejaVuSans-48"/>
      </g>
     </g>
    </g>
   </g>
   <g id="matplotlib.axis_4">
    <g id="ytick_9">
     <g id="line2d_19">
      <g>
       <use style="stroke:#000000;stroke-width:0.8;" x="131.486897" xlink:href="#m8409d9181f" y="295.503483"/>
      </g>
     </g>
     <g id="text_14">
      <!-- 0 -->
      <g transform="translate(118.124397 299.302702)scale(0.1 -0.1)">
       <use xlink:href="#DejaVuSans-48"/>
      </g>
     </g>
    </g>
    <g id="ytick_10">
     <g id="line2d_20">
      <g>
       <use style="stroke:#000000;stroke-width:0.8;" x="131.486897" xlink:href="#m8409d9181f" y="241.346433"/>
      </g>
     </g>
     <g id="text_15">
      <!-- 200 -->
      <g transform="translate(105.399397 245.145651)scale(0.1 -0.1)">
       <use xlink:href="#DejaVuSans-50"/>
       <use x="63.623047" xlink:href="#DejaVuSans-48"/>
       <use x="127.246094" xlink:href="#DejaVuSans-48"/>
      </g>
     </g>
    </g>
    <g id="ytick_11">
     <g id="line2d_21">
      <g>
       <use style="stroke:#000000;stroke-width:0.8;" x="131.486897" xlink:href="#m8409d9181f" y="187.189382"/>
      </g>
     </g>
     <g id="text_16">
      <!-- 400 -->
      <g transform="translate(105.399397 190.988601)scale(0.1 -0.1)">
       <use xlink:href="#DejaVuSans-52"/>
       <use x="63.623047" xlink:href="#DejaVuSans-48"/>
       <use x="127.246094" xlink:href="#DejaVuSans-48"/>
      </g>
     </g>
    </g>
    <g id="ytick_12">
     <g id="line2d_22">
      <g>
       <use style="stroke:#000000;stroke-width:0.8;" x="131.486897" xlink:href="#m8409d9181f" y="133.032332"/>
      </g>
     </g>
     <g id="text_17">
      <!-- 600 -->
      <g transform="translate(105.399397 136.831551)scale(0.1 -0.1)">
       <use xlink:href="#DejaVuSans-54"/>
       <use x="63.623047" xlink:href="#DejaVuSans-48"/>
       <use x="127.246094" xlink:href="#DejaVuSans-48"/>
      </g>
     </g>
    </g>
    <g id="ytick_13">
     <g id="line2d_23">
      <g>
       <use style="stroke:#000000;stroke-width:0.8;" x="131.486897" xlink:href="#m8409d9181f" y="78.875282"/>
      </g>
     </g>
     <g id="text_18">
      <!-- 800 -->
      <g transform="translate(105.399397 82.6745)scale(0.1 -0.1)">
       <use xlink:href="#DejaVuSans-56"/>
       <use x="63.623047" xlink:href="#DejaVuSans-48"/>
       <use x="127.246094" xlink:href="#DejaVuSans-48"/>
      </g>
     </g>
    </g>
   </g>
   <g id="line2d_24">
    <path clip-path="url(#pc8f3737c4d)" d="M 134.285643 53.568033 
L 134.851046 53.921356 
L 135.416449 54.2742 
L 135.981852 54.626664 
L 136.547256 54.978665 
L 137.112659 55.330187 
L 137.678062 55.681262 
L 138.243465 56.031875 
L 138.808869 56.381992 
L 139.374272 56.731646 
L 139.939675 57.080804 
L 140.505078 57.4295 
L 141.070482 57.777683 
L 141.635885 58.12537 
L 142.201288 58.472545 
L 142.766691 58.819208 
L 143.332095 59.165325 
L 143.897498 59.51093 
L 144.462901 59.856039 
L 145.028304 60.200586 
L 145.593708 60.544621 
L 146.159111 60.888094 
L 146.724514 61.231087 
L 147.289917 61.573453 
L 147.855321 61.915322 
L 148.420724 62.256597 
L 148.986127 62.597359 
L 149.55153 62.93756 
L 150.116934 63.277182 
L 150.682337 63.616258 
L 151.24774 63.954773 
L 151.813143 64.292709 
L 152.378547 64.630116 
L 152.94395 64.966945 
L 153.509353 65.303196 
L 154.074756 65.6389 
L 154.64016 65.973994 
L 155.205563 66.308558 
L 155.770966 66.642528 
L 156.336369 66.975969 
L 156.901773 67.308798 
L 157.467176 67.641065 
L 158.032579 67.972754 
L 158.597982 68.303897 
L 159.163386 68.634462 
L 159.728789 68.964449 
L 160.294192 69.29389 
L 160.859595 69.622752 
L 161.424999 69.951037 
L 161.990402 70.278742 
L 162.555805 70.605903 
L 163.121208 70.932484 
L 163.686612 71.258504 
L 164.252015 71.583946 
L 164.817418 71.908858 
L 165.382821 72.233192 
L 165.948225 72.556948 
L 166.513628 72.880158 
L 167.079031 73.202823 
L 167.644434 73.524909 
L 168.209838 73.846467 
L 168.775241 74.167413 
L 169.340644 74.487847 
L 169.906047 74.807718 
L 170.471451 75.127044 
L 171.036854 75.445792 
L 171.602257 75.763995 
L 172.16766 76.081652 
L 172.733064 76.39878 
L 173.298467 76.715363 
L 173.86387 77.031367 
L 174.429273 77.346842 
L 174.994677 77.661772 
L 175.56008 77.976173 
L 176.125483 78.290013 
L 176.690886 78.603306 
L 177.25629 78.916104 
L 177.821693 79.228357 
L 178.387096 79.540031 
L 178.952499 79.851193 
L 179.517903 80.161809 
L 180.083306 80.471913 
L 180.648709 80.781505 
L 181.214112 81.090534 
L 181.779516 81.399068 
L 182.344919 81.707057 
L 182.910322 82.014516 
L 183.475725 82.321447 
L 184.041129 82.627865 
L 184.606532 82.933771 
L 185.171935 83.239149 
L 185.737338 83.543997 
L 186.302742 83.848316 
L 186.868145 84.152156 
L 187.433548 84.455467 
L 187.998951 84.758266 
L 188.564355 85.060536 
L 189.129758 85.362311 
L 189.695161 85.663556 
L 190.260564 85.964322 
" style="fill:none;stroke:#ff0000;stroke-linecap:square;stroke-opacity:0.5;stroke-width:1.5;"/>
   </g>
   <g id="line2d_25">
    <path clip-path="url(#pc8f3737c4d)" d="M 134.285643 53.568 
L 134.851046 53.921356 
L 135.416449 54.274217 
L 135.981852 54.626631 
L 136.547256 54.978665 
L 137.112659 55.33017 
L 137.678062 55.681246 
L 138.243465 56.031858 
L 138.808869 56.381992 
L 139.374272 56.731613 
L 139.939675 57.080771 
L 140.505078 57.429466 
L 141.070482 57.77765 
L 141.635885 58.12532 
L 142.201288 58.472479 
L 142.766691 58.819142 
L 143.332095 59.165292 
L 143.897498 59.510913 
L 144.462901 59.855989 
L 145.028304 60.200569 
L 145.593708 60.544588 
L 146.159111 60.888044 
L 146.724514 61.231004 
L 147.289917 61.57342 
L 147.855321 61.91524 
L 148.420724 62.256531 
L 148.986127 62.597277 
L 149.55153 62.937461 
L 150.116934 63.277132 
L 150.682337 63.616143 
L 151.24774 63.954674 
L 151.813143 64.292659 
L 152.378547 64.630017 
L 152.94395 64.966829 
L 153.509353 65.303113 
L 154.074756 65.638785 
L 154.64016 65.973911 
L 155.205563 66.30841 
L 155.770966 66.642429 
L 156.336369 66.975853 
L 156.901773 67.308682 
L 157.467176 67.640933 
L 158.032579 67.972622 
L 158.597982 68.303765 
L 159.163386 68.634363 
L 159.728789 68.96435 
L 160.294192 69.293774 
L 160.859595 69.622604 
L 161.424999 69.950921 
L 161.990402 70.278594 
L 162.555805 70.60577 
L 163.121208 70.932352 
L 163.686612 71.258389 
L 164.252015 71.583814 
L 164.817418 71.908726 
L 165.382821 72.23306 
L 165.948225 72.556799 
L 166.513628 72.880059 
L 167.079031 73.202674 
L 167.644434 73.524777 
L 168.209838 73.846285 
L 168.775241 74.167281 
L 169.340644 74.487698 
L 169.906047 74.807553 
L 170.471451 75.126863 
L 171.036854 75.445627 
L 171.602257 75.763829 
L 172.16766 76.081503 
L 172.733064 76.398598 
L 173.298467 76.715164 
L 173.86387 77.031202 
L 174.429273 77.346677 
L 174.994677 77.66159 
L 175.56008 77.975992 
L 176.125483 78.289847 
L 176.690886 78.603125 
L 177.25629 78.915939 
L 177.821693 79.228142 
L 178.387096 79.539849 
L 178.952499 79.851011 
L 179.517903 80.161644 
L 180.083306 80.471764 
L 180.648709 80.781306 
L 181.214112 81.090369 
L 181.779516 81.398837 
L 182.344919 81.706875 
L 182.910322 82.014318 
L 183.475725 82.321249 
L 184.041129 82.6277 
L 184.606532 82.933573 
L 185.171935 83.23895 
L 185.737338 83.543765 
L 186.302742 83.848151 
L 186.868145 84.151958 
L 187.433548 84.455269 
L 187.998951 84.758085 
L 188.564355 85.060305 
L 189.129758 85.362096 
L 189.695161 85.663374 
L 190.260564 85.964107 
" style="fill:none;stroke:#ff0000;stroke-dasharray:7.4,3.2;stroke-dashoffset:0;stroke-opacity:0.5;stroke-width:2;"/>
   </g>
   <g id="line2d_26">
    <path clip-path="url(#pc8f3737c4d)" d="M 134.285643 53.568033 
L 134.851046 57.082044 
L 135.416449 60.552884 
L 135.981852 63.979961 
L 136.547256 67.362876 
L 137.112659 70.701282 
L 137.678062 73.99485 
L 138.243465 77.243331 
L 138.808869 80.446676 
L 139.374272 83.604851 
L 139.939675 86.717939 
L 140.505078 89.786122 
L 141.070482 92.809533 
L 141.635885 95.788468 
L 142.201288 98.723127 
L 142.766691 101.613872 
L 143.332095 104.460984 
L 143.897498 107.264844 
L 144.462901 110.025849 
L 145.028304 112.744362 
L 145.593708 115.420862 
L 146.159111 118.055746 
L 146.724514 120.649526 
L 147.289917 123.202665 
L 147.855321 125.715643 
L 148.420724 128.188988 
L 148.986127 130.623229 
L 149.55153 133.018895 
L 150.116934 135.376515 
L 150.682337 137.6967 
L 151.24774 139.979897 
L 151.813143 142.226751 
L 152.378547 144.437772 
L 152.94395 146.613459 
L 153.509353 148.754437 
L 154.074756 150.861237 
L 154.64016 152.934337 
L 155.205563 154.9743 
L 155.770966 156.98163 
L 156.336369 158.956863 
L 156.901773 160.900504 
L 157.467176 162.813057 
L 158.032579 164.695002 
L 158.597982 166.546866 
L 159.163386 168.369097 
L 159.728789 170.162206 
L 160.294192 171.926649 
L 160.859595 173.662895 
L 161.424999 175.371417 
L 161.990402 177.052669 
L 162.555805 178.707114 
L 163.121208 180.335155 
L 163.686612 181.937274 
L 164.252015 183.513882 
L 164.817418 185.065411 
L 165.382821 186.592296 
L 165.948225 188.09492 
L 166.513628 189.573711 
L 167.079031 191.029066 
L 167.644434 192.461415 
L 168.209838 193.871096 
L 168.775241 195.258532 
L 169.340644 196.62406 
L 169.906047 197.968095 
L 170.471451 199.290999 
L 171.036854 200.593104 
L 171.602257 201.874797 
L 172.16766 203.136401 
L 172.733064 204.378271 
L 173.298467 205.600755 
L 173.86387 206.804182 
L 174.429273 207.988868 
L 174.994677 209.155142 
L 175.56008 210.303327 
L 176.125483 211.433719 
L 176.690886 212.546626 
L 177.25629 213.642361 
L 177.821693 214.721205 
L 178.387096 215.783439 
L 178.952499 216.829385 
L 179.517903 217.859291 
L 180.083306 218.873438 
L 180.648709 219.8721 
L 181.214112 220.855539 
L 181.779516 221.824021 
L 182.344919 222.777794 
L 182.910322 223.717121 
L 183.475725 224.642252 
L 184.041129 225.5534 
L 184.606532 226.450831 
L 185.171935 227.334771 
L 185.737338 228.205452 
L 186.302742 229.063093 
L 186.868145 229.907917 
L 187.433548 230.740147 
L 187.998951 231.559981 
L 188.564355 232.367647 
L 189.129758 233.163335 
L 189.695161 233.94726 
L 190.260564 234.719602 
" style="fill:none;stroke:#0000ff;stroke-linecap:square;stroke-opacity:0.5;stroke-width:1.5;"/>
   </g>
   <g id="line2d_27">
    <path clip-path="url(#pc8f3737c4d)" d="M 134.285643 53.568 
L 134.851046 57.082044 
L 135.416449 60.552802 
L 135.981852 63.979911 
L 136.547256 67.362843 
L 137.112659 70.701216 
L 137.678062 73.994751 
L 138.243465 77.243265 
L 138.808869 80.44656 
L 139.374272 83.604702 
L 139.939675 86.717774 
L 140.505078 89.785924 
L 141.070482 92.809318 
L 141.635885 95.788253 
L 142.201288 98.722895 
L 142.766691 101.61364 
L 143.332095 104.460736 
L 143.897498 107.264563 
L 144.462901 110.025568 
L 145.028304 112.744064 
L 145.593708 115.420531 
L 146.159111 118.055415 
L 146.724514 120.649146 
L 147.289917 123.202302 
L 147.855321 125.715246 
L 148.420724 128.188575 
L 148.986127 130.622816 
L 149.55153 133.018482 
L 150.116934 135.376085 
L 150.682337 137.696221 
L 151.24774 139.979451 
L 151.813143 142.226238 
L 152.378547 144.43726 
L 152.94395 146.612963 
L 153.509353 148.753941 
L 154.074756 150.860691 
L 154.64016 152.933808 
L 155.205563 154.973755 
L 155.770966 156.981084 
L 156.336369 158.956309 
L 156.901773 160.899942 
L 157.467176 162.812495 
L 158.032579 164.694431 
L 158.597982 166.546271 
L 159.163386 168.368535 
L 159.728789 170.161628 
L 160.294192 171.926062 
L 160.859595 173.662309 
L 161.424999 175.370823 
L 161.990402 177.052074 
L 162.555805 178.706494 
L 163.121208 180.334569 
L 163.686612 181.936671 
L 164.252015 183.513271 
L 164.817418 185.064824 
L 165.382821 186.591676 
L 165.948225 188.094308 
L 166.513628 189.573116 
L 167.079031 191.028487 
L 167.644434 192.460811 
L 168.209838 193.870493 
L 168.775241 195.257912 
L 169.340644 196.623457 
L 169.906047 197.967491 
L 170.471451 199.290404 
L 171.036854 200.5925 
L 171.602257 201.874177 
L 172.16766 203.135806 
L 172.733064 204.377684 
L 173.298467 205.60016 
L 173.86387 206.803587 
L 174.429273 207.988281 
L 174.994677 209.154555 
L 175.56008 210.30274 
L 176.125483 211.433124 
L 176.690886 212.54604 
L 177.25629 213.641766 
L 177.821693 214.720627 
L 178.387096 215.782869 
L 178.952499 216.828798 
L 179.517903 217.858704 
L 180.083306 218.87286 
L 180.648709 219.871529 
L 181.214112 220.854969 
L 181.779516 221.823442 
L 182.344919 222.777232 
L 182.910322 223.716559 
L 183.475725 224.641673 
L 184.041129 225.55283 
L 184.606532 226.450261 
L 185.171935 227.334205 
L 185.737338 228.204882 
L 186.302742 229.062531 
L 186.868145 229.907351 
L 187.433548 230.739589 
L 187.998951 231.559436 
L 188.564355 232.367094 
L 189.129758 233.162786 
L 189.695161 233.94671 
L 190.260564 234.719061 
" style="fill:none;stroke:#0000ff;stroke-dasharray:7.4,3.2;stroke-dashoffset:0;stroke-opacity:0.5;stroke-width:2;"/>
   </g>
   <g id="line2d_28">
    <path clip-path="url(#pc8f3737c4d)" d="M 134.285643 53.568033 
L 134.851046 86.791255 
L 135.416449 115.885431 
L 135.981852 141.178945 
L 136.547256 163.061679 
L 137.112659 181.900848 
L 137.678062 198.028982 
L 138.243465 211.754723 
L 138.808869 223.367087 
L 139.374272 233.138928 
L 139.939675 241.326021 
L 140.505078 248.164965 
L 141.070482 253.87161 
L 141.635885 258.63882 
L 142.201288 262.635855 
L 142.766691 266.008703 
L 143.332095 268.880233 
L 143.897498 271.350696 
L 144.462901 273.499896 
L 145.028304 275.390507 
L 145.593708 277.071286 
L 146.159111 278.579954 
L 146.724514 279.945414 
L 147.289917 281.189276 
L 147.855321 282.327153 
L 148.420724 283.369997 
L 148.986127 284.32548 
L 149.55153 285.199521 
L 150.116934 285.99785 
L 150.682337 286.727092 
L 151.24774 287.395018 
L 151.813143 288.010135 
L 152.378547 288.580896 
L 152.94395 289.114801 
L 153.509353 289.617723 
L 154.074756 290.093712 
L 154.64016 290.545173 
L 155.205563 290.973139 
L 155.770966 291.377538 
L 156.336369 291.757439 
L 156.901773 292.111356 
L 157.467176 292.437615 
L 158.032579 292.734819 
L 158.597982 293.002277 
L 159.163386 293.240259 
L 159.728789 293.45006 
L 160.294192 293.633941 
L 160.859595 293.794928 
L 161.424999 293.936443 
L 161.990402 294.061889 
L 162.555805 294.174334 
L 163.121208 294.276327 
L 163.686612 294.369863 
L 164.252015 294.456446 
L 164.817418 294.537174 
L 165.382821 294.612806 
L 165.948225 294.683837 
L 166.513628 294.750601 
L 167.079031 294.813335 
L 167.644434 294.872216 
L 168.209838 294.927356 
L 168.775241 294.978802 
L 169.340644 295.026533 
L 169.906047 295.070495 
L 170.471451 295.110629 
L 171.036854 295.146913 
L 171.602257 295.179413 
L 172.16766 295.20833 
L 172.733064 295.233993 
L 173.298467 295.256815 
L 173.86387 295.277237 
L 174.429273 295.295672 
L 174.994677 295.312466 
L 175.56008 295.327888 
L 176.125483 295.342132 
L 176.690886 295.355342 
L 177.25629 295.367632 
L 177.821693 295.379095 
L 178.387096 295.389802 
L 178.952499 295.399798 
L 179.517903 295.409105 
L 180.083306 295.417733 
L 180.648709 295.42569 
L 181.214112 295.432984 
L 181.779516 295.43963 
L 182.344919 295.445655 
L 182.910322 295.451094 
L 183.475725 295.45599 
L 184.041129 295.460385 
L 184.606532 295.464326 
L 185.171935 295.467861 
L 185.737338 295.47104 
L 186.302742 295.473909 
L 186.868145 295.476508 
L 187.433548 295.478872 
L 187.998951 295.481027 
L 188.564355 295.482997 
L 189.129758 295.484803 
L 189.695161 295.486465 
L 190.260564 295.488 
" style="fill:none;stroke:#008000;stroke-linecap:square;stroke-opacity:0.5;stroke-width:1.5;"/>
   </g>
   <g id="line2d_29">
    <path clip-path="url(#pc8f3737c4d)" d="M 134.285643 53.568 
L 134.851046 86.791007 
L 135.416449 115.885034 
L 135.981852 141.178664 
L 136.547256 163.061324 
L 137.112659 181.900418 
L 137.678062 198.02861 
L 138.243465 211.75431 
L 138.808869 223.366666 
L 139.374272 233.138519 
L 139.939675 241.325629 
L 140.505078 248.164609 
L 141.070482 253.871284 
L 141.635885 258.638531 
L 142.201288 262.635591 
L 142.766691 266.008467 
L 143.332095 268.880028 
L 143.897498 271.350514 
L 144.462901 273.499733 
L 145.028304 275.390361 
L 145.593708 277.071154 
L 146.159111 278.57983 
L 146.724514 279.9453 
L 147.289917 281.18917 
L 147.855321 282.327056 
L 148.420724 283.369907 
L 148.986127 284.325395 
L 149.55153 285.19944 
L 150.116934 285.997778 
L 150.682337 286.727023 
L 151.24774 287.394952 
L 151.813143 288.010073 
L 152.378547 288.580838 
L 152.94395 289.114741 
L 153.509353 289.617664 
L 154.074756 290.093657 
L 154.64016 290.545115 
L 155.205563 290.973083 
L 155.770966 291.377482 
L 156.336369 291.757384 
L 156.901773 292.111302 
L 157.467176 292.437564 
L 158.032579 292.734771 
L 158.597982 293.002232 
L 159.163386 293.240219 
L 159.728789 293.450023 
L 160.294192 293.633907 
L 160.859595 293.794898 
L 161.424999 293.936416 
L 161.990402 294.061864 
L 162.555805 294.174311 
L 163.121208 294.276306 
L 163.686612 294.369844 
L 164.252015 294.456428 
L 164.817418 294.537157 
L 165.382821 294.612789 
L 165.948225 294.683822 
L 166.513628 294.750586 
L 167.079031 294.813321 
L 167.644434 294.872202 
L 168.209838 294.927343 
L 168.775241 294.97879 
L 169.340644 295.026521 
L 169.906047 295.070483 
L 170.471451 295.110619 
L 171.036854 295.146903 
L 171.602257 295.179404 
L 172.16766 295.208322 
L 172.733064 295.233986 
L 173.298467 295.256808 
L 173.86387 295.277231 
L 174.429273 295.295666 
L 174.994677 295.312461 
L 175.56008 295.327883 
L 176.125483 295.342128 
L 176.690886 295.355338 
L 177.25629 295.367628 
L 177.821693 295.379091 
L 178.387096 295.389799 
L 178.952499 295.399795 
L 179.517903 295.409102 
L 180.083306 295.41773 
L 180.648709 295.425687 
L 181.214112 295.432981 
L 181.779516 295.439627 
L 182.344919 295.445652 
L 182.910322 295.451092 
L 183.475725 295.455988 
L 184.041129 295.460383 
L 184.606532 295.464324 
L 185.171935 295.46786 
L 185.737338 295.471039 
L 186.302742 295.473908 
L 186.868145 295.476507 
L 187.433548 295.478871 
L 187.998951 295.481026 
L 188.564355 295.482996 
L 189.129758 295.484802 
L 189.695161 295.486464 
L 190.260564 295.487999 
" style="fill:none;stroke:#008000;stroke-dasharray:7.4,3.2;stroke-dashoffset:0;stroke-opacity:0.5;stroke-width:2;"/>
   </g>
   <g id="patch_8">
    <path d="M 131.486897 307.584 
L 131.486897 41.472 
" style="fill:none;stroke:#000000;stroke-linecap:square;stroke-linejoin:miter;stroke-width:0.8;"/>
   </g>
   <g id="patch_9">
    <path d="M 193.05931 307.584 
L 193.05931 41.472 
" style="fill:none;stroke:#000000;stroke-linecap:square;stroke-linejoin:miter;stroke-width:0.8;"/>
   </g>
   <g id="patch_10">
    <path d="M 131.486897 307.584 
L 193.05931 307.584 
" style="fill:none;stroke:#000000;stroke-linecap:square;stroke-linejoin:miter;stroke-width:0.8;"/>
   </g>
   <g id="patch_11">
    <path d="M 131.486897 41.472 
L 193.05931 41.472 
" style="fill:none;stroke:#000000;stroke-linecap:square;stroke-linejoin:miter;stroke-width:0.8;"/>
   </g>
   <g id="text_19">
    <!-- lr:0.1 -->
    <g transform="translate(146.577478 35.472)scale(0.12 -0.12)">
     <use xlink:href="#DejaVuSans-108"/>
     <use x="27.783203" xlink:href="#DejaVuSans-114"/>
     <use x="68.880859" xlink:href="#DejaVuSans-58"/>
     <use x="102.572266" xlink:href="#DejaVuSans-48"/>
     <use x="166.195312" xlink:href="#DejaVuSans-46"/>
     <use x="197.982422" xlink:href="#DejaVuSans-49"/>
    </g>
   </g>
  </g>
  <g id="axes_3">
   <g id="patch_12">
    <path d="M 205.373793 307.584 
L 266.946207 307.584 
L 266.946207 41.472 
L 205.373793 41.472 
z
" style="fill:#ffffff;"/>
   </g>
   <g id="matplotlib.axis_5">
    <g id="xtick_5">
     <g id="line2d_30">
      <g>
       <use style="stroke:#000000;stroke-width:0.8;" x="208.172539" xlink:href="#md5c78141bc" y="307.584"/>
      </g>
     </g>
     <g id="text_20">
      <!-- 0 -->
      <g transform="translate(204.991289 322.182437)scale(0.1 -0.1)">
       <use xlink:href="#DejaVuSans-48"/>
      </g>
     </g>
    </g>
    <g id="xtick_6">
     <g id="line2d_31">
      <g>
       <use style="stroke:#000000;stroke-width:0.8;" x="264.428742" xlink:href="#md5c78141bc" y="307.584"/>
      </g>
     </g>
     <g id="text_21">
      <!-- 200 -->
      <g transform="translate(254.884992 322.182437)scale(0.1 -0.1)">
       <use xlink:href="#DejaVuSans-50"/>
       <use x="63.623047" xlink:href="#DejaVuSans-48"/>
       <use x="127.246094" xlink:href="#DejaVuSans-48"/>
      </g>
     </g>
    </g>
   </g>
   <g id="matplotlib.axis_6">
    <g id="ytick_14">
     <g id="line2d_32">
      <g>
       <use style="stroke:#000000;stroke-width:0.8;" x="205.373793" xlink:href="#m8409d9181f" y="295.488"/>
      </g>
     </g>
     <g id="text_22">
      <!-- 0 -->
      <g transform="translate(192.011293 299.287219)scale(0.1 -0.1)">
       <use xlink:href="#DejaVuSans-48"/>
      </g>
     </g>
    </g>
    <g id="ytick_15">
     <g id="line2d_33">
      <g>
       <use style="stroke:#000000;stroke-width:0.8;" x="205.373793" xlink:href="#m8409d9181f" y="241.334416"/>
      </g>
     </g>
     <g id="text_23">
      <!-- 200 -->
      <g transform="translate(179.286293 245.133635)scale(0.1 -0.1)">
       <use xlink:href="#DejaVuSans-50"/>
       <use x="63.623047" xlink:href="#DejaVuSans-48"/>
       <use x="127.246094" xlink:href="#DejaVuSans-48"/>
      </g>
     </g>
    </g>
    <g id="ytick_16">
     <g id="line2d_34">
      <g>
       <use style="stroke:#000000;stroke-width:0.8;" x="205.373793" xlink:href="#m8409d9181f" y="187.180831"/>
      </g>
     </g>
     <g id="text_24">
      <!-- 400 -->
      <g transform="translate(179.286293 190.98005)scale(0.1 -0.1)">
       <use xlink:href="#DejaVuSans-52"/>
       <use x="63.623047" xlink:href="#DejaVuSans-48"/>
       <use x="127.246094" xlink:href="#DejaVuSans-48"/>
      </g>
     </g>
    </g>
    <g id="ytick_17">
     <g id="line2d_35">
      <g>
       <use style="stroke:#000000;stroke-width:0.8;" x="205.373793" xlink:href="#m8409d9181f" y="133.027247"/>
      </g>
     </g>
     <g id="text_25">
      <!-- 600 -->
      <g transform="translate(179.286293 136.826465)scale(0.1 -0.1)">
       <use xlink:href="#DejaVuSans-54"/>
       <use x="63.623047" xlink:href="#DejaVuSans-48"/>
       <use x="127.246094" xlink:href="#DejaVuSans-48"/>
      </g>
     </g>
    </g>
    <g id="ytick_18">
     <g id="line2d_36">
      <g>
       <use style="stroke:#000000;stroke-width:0.8;" x="205.373793" xlink:href="#m8409d9181f" y="78.873662"/>
      </g>
     </g>
     <g id="text_26">
      <!-- 800 -->
      <g transform="translate(179.286293 82.672881)scale(0.1 -0.1)">
       <use xlink:href="#DejaVuSans-56"/>
       <use x="63.623047" xlink:href="#DejaVuSans-48"/>
       <use x="127.246094" xlink:href="#DejaVuSans-48"/>
      </g>
     </g>
    </g>
   </g>
   <g id="line2d_37">
    <path clip-path="url(#pf518c929e0)" d="M 208.172539 53.568033 
L 215.767127 62.93696 
L 222.799152 71.257372 
L 229.831177 79.226715 
L 236.863203 86.861398 
L 244.176509 94.467376 
L 251.489815 101.752362 
L 259.084403 108.997023 
L 264.147461 113.654367 
L 264.147461 113.654367 
" style="fill:none;stroke:#ff0000;stroke-linecap:square;stroke-opacity:0.5;stroke-width:1.5;"/>
   </g>
   <g id="line2d_38">
    <path clip-path="url(#pf518c929e0)" d="M 208.172539 53.568 
L 215.767127 62.936861 
L 222.799152 71.257257 
L 229.831177 79.2265 
L 236.863203 86.86115 
L 244.176509 94.467111 
L 251.489815 101.752064 
L 259.084403 108.996693 
L 264.147461 113.654003 
L 264.147461 113.654003 
" style="fill:none;stroke:#ff0000;stroke-dasharray:7.4,3.2;stroke-dashoffset:0;stroke-opacity:0.5;stroke-width:2;"/>
   </g>
   <g id="line2d_39">
    <path clip-path="url(#pf518c929e0)" d="M 208.172539 53.568033 
L 210.422787 80.444956 
L 212.673035 104.457727 
L 214.642002 123.198209 
L 216.61097 139.974367 
L 218.579937 154.967811 
L 220.548904 168.36175 
L 222.517871 180.327043 
L 224.486838 191.020269 
L 226.455805 200.583695 
L 228.424772 209.145185 
L 230.393739 216.818937 
L 232.362706 223.706232 
L 234.612954 230.728809 
L 236.863203 236.957396 
L 239.113451 242.492525 
L 241.363699 247.420765 
L 243.613947 251.816749 
L 245.864195 255.744982 
L 248.114443 259.261346 
L 250.645972 262.7852 
L 253.177501 265.9089 
L 255.70903 268.6838 
L 258.24056 271.154119 
L 261.05337 273.587905 
L 263.86618 275.737508 
L 264.147461 275.938361 
L 264.147461 275.938361 
" style="fill:none;stroke:#0000ff;stroke-linecap:square;stroke-opacity:0.5;stroke-width:1.5;"/>
   </g>
   <g id="line2d_40">
    <path clip-path="url(#pf518c929e0)" d="M 208.172539 53.568 
L 210.422787 80.44484 
L 212.673035 104.457479 
L 214.642002 123.197845 
L 216.61097 139.973921 
L 218.579937 154.967265 
L 220.548904 168.361188 
L 222.517871 180.326456 
L 224.486838 191.01969 
L 226.455805 200.583091 
L 228.424772 209.144598 
L 230.393739 216.81835 
L 232.362706 223.705671 
L 234.612954 230.728251 
L 236.863203 236.956867 
L 239.113451 242.492005 
L 241.363699 247.420269 
L 243.613947 251.816265 
L 245.864195 255.744524 
L 248.114443 259.260912 
L 250.645972 262.784789 
L 253.177501 265.908509 
L 255.70903 268.68343 
L 258.24056 271.153779 
L 261.05337 273.587583 
L 263.86618 275.737214 
L 264.147461 275.93807 
L 264.147461 275.93807 
" style="fill:none;stroke:#0000ff;stroke-dasharray:7.4,3.2;stroke-dashoffset:0;stroke-opacity:0.5;stroke-width:2;"/>
   </g>
   <g id="line2d_41">
    <path clip-path="url(#pf518c929e0)" d="M 208.172539 53.568033 
L 209.016382 141.173339 
L 209.578944 181.892635 
L 210.141506 211.7446 
L 210.704068 233.127437 
L 211.26663 248.152511 
L 211.829192 258.625697 
L 212.391754 265.995108 
L 213.235597 273.485822 
L 214.07944 278.565555 
L 214.923284 282.312514 
L 215.767127 285.184697 
L 216.61097 287.380054 
L 217.736094 289.602617 
L 218.861218 291.362319 
L 219.986342 292.719514 
L 220.830185 293.434709 
L 221.955309 294.046498 
L 223.361714 294.521753 
L 225.330681 294.963353 
L 227.580929 295.241348 
L 231.518863 295.417506 
L 238.83217 295.482468 
L 264.147461 295.488 
L 264.147461 295.488 
" style="fill:none;stroke:#008000;stroke-linecap:square;stroke-opacity:0.5;stroke-width:1.5;"/>
   </g>
   <g id="line2d_42">
    <path clip-path="url(#pf518c929e0)" d="M 208.172539 53.568 
L 209.016382 141.173058 
L 209.578944 181.892205 
L 210.141506 211.744187 
L 210.704068 233.127028 
L 211.26663 248.152156 
L 211.829192 258.625408 
L 212.391754 265.994872 
L 213.235597 273.485659 
L 214.07944 278.565431 
L 214.923284 282.312417 
L 215.767127 285.184617 
L 216.61097 287.379988 
L 217.736094 289.602558 
L 218.861218 291.362264 
L 219.986342 292.719465 
L 220.830185 293.434671 
L 221.955309 294.046474 
L 223.361714 294.521736 
L 225.330681 294.96334 
L 227.580929 295.241341 
L 231.518863 295.417503 
L 238.83217 295.482468 
L 264.147461 295.488 
L 264.147461 295.488 
" style="fill:none;stroke:#008000;stroke-dasharray:7.4,3.2;stroke-dashoffset:0;stroke-opacity:0.5;stroke-width:2;"/>
   </g>
   <g id="patch_13">
    <path d="M 205.373793 307.584 
L 205.373793 41.472 
" style="fill:none;stroke:#000000;stroke-linecap:square;stroke-linejoin:miter;stroke-width:0.8;"/>
   </g>
   <g id="patch_14">
    <path d="M 266.946207 307.584 
L 266.946207 41.472 
" style="fill:none;stroke:#000000;stroke-linecap:square;stroke-linejoin:miter;stroke-width:0.8;"/>
   </g>
   <g id="patch_15">
    <path d="M 205.373793 307.584 
L 266.946207 307.584 
" style="fill:none;stroke:#000000;stroke-linecap:square;stroke-linejoin:miter;stroke-width:0.8;"/>
   </g>
   <g id="patch_16">
    <path d="M 205.373793 41.472 
L 266.946207 41.472 
" style="fill:none;stroke:#000000;stroke-linecap:square;stroke-linejoin:miter;stroke-width:0.8;"/>
   </g>
   <g id="text_27">
    <!-- lr:0.1 -->
    <g transform="translate(220.464375 35.472)scale(0.12 -0.12)">
     <use xlink:href="#DejaVuSans-108"/>
     <use x="27.783203" xlink:href="#DejaVuSans-114"/>
     <use x="68.880859" xlink:href="#DejaVuSans-58"/>
     <use x="102.572266" xlink:href="#DejaVuSans-48"/>
     <use x="166.195312" xlink:href="#DejaVuSans-46"/>
     <use x="197.982422" xlink:href="#DejaVuSans-49"/>
    </g>
   </g>
  </g>
  <g id="axes_4">
   <g id="patch_17">
    <path d="M 279.26069 307.584 
L 340.833103 307.584 
L 340.833103 41.472 
L 279.26069 41.472 
z
" style="fill:#ffffff;"/>
   </g>
   <g id="matplotlib.axis_7">
    <g id="xtick_7">
     <g id="line2d_43">
      <g>
       <use style="stroke:#000000;stroke-width:0.8;" x="282.059436" xlink:href="#md5c78141bc" y="307.584"/>
      </g>
     </g>
     <g id="text_28">
      <!-- 0 -->
      <g transform="translate(278.878186 322.182437)scale(0.1 -0.1)">
       <use xlink:href="#DejaVuSans-48"/>
      </g>
     </g>
    </g>
    <g id="xtick_8">
     <g id="line2d_44">
      <g>
       <use style="stroke:#000000;stroke-width:0.8;" x="317.131442" xlink:href="#md5c78141bc" y="307.584"/>
      </g>
     </g>
     <g id="text_29">
      <!-- 250 -->
      <g transform="translate(307.587692 322.182437)scale(0.1 -0.1)">
       <use xlink:href="#DejaVuSans-50"/>
       <use x="63.623047" xlink:href="#DejaVuSans-53"/>
       <use x="127.246094" xlink:href="#DejaVuSans-48"/>
      </g>
     </g>
    </g>
   </g>
   <g id="matplotlib.axis_8">
    <g id="ytick_19">
     <g id="line2d_45">
      <g>
       <use style="stroke:#000000;stroke-width:0.8;" x="279.26069" xlink:href="#m8409d9181f" y="295.488"/>
      </g>
     </g>
     <g id="text_30">
      <!-- 0 -->
      <g transform="translate(265.89819 299.287219)scale(0.1 -0.1)">
       <use xlink:href="#DejaVuSans-48"/>
      </g>
     </g>
    </g>
    <g id="ytick_20">
     <g id="line2d_46">
      <g>
       <use style="stroke:#000000;stroke-width:0.8;" x="279.26069" xlink:href="#m8409d9181f" y="241.334415"/>
      </g>
     </g>
     <g id="text_31">
      <!-- 200 -->
      <g transform="translate(253.17319 245.133634)scale(0.1 -0.1)">
       <use xlink:href="#DejaVuSans-50"/>
       <use x="63.623047" xlink:href="#DejaVuSans-48"/>
       <use x="127.246094" xlink:href="#DejaVuSans-48"/>
      </g>
     </g>
    </g>
    <g id="ytick_21">
     <g id="line2d_47">
      <g>
       <use style="stroke:#000000;stroke-width:0.8;" x="279.26069" xlink:href="#m8409d9181f" y="187.180831"/>
      </g>
     </g>
     <g id="text_32">
      <!-- 400 -->
      <g transform="translate(253.17319 190.98005)scale(0.1 -0.1)">
       <use xlink:href="#DejaVuSans-52"/>
       <use x="63.623047" xlink:href="#DejaVuSans-48"/>
       <use x="127.246094" xlink:href="#DejaVuSans-48"/>
      </g>
     </g>
    </g>
    <g id="ytick_22">
     <g id="line2d_48">
      <g>
       <use style="stroke:#000000;stroke-width:0.8;" x="279.26069" xlink:href="#m8409d9181f" y="133.027246"/>
      </g>
     </g>
     <g id="text_33">
      <!-- 600 -->
      <g transform="translate(253.17319 136.826465)scale(0.1 -0.1)">
       <use xlink:href="#DejaVuSans-54"/>
       <use x="63.623047" xlink:href="#DejaVuSans-48"/>
       <use x="127.246094" xlink:href="#DejaVuSans-48"/>
      </g>
     </g>
    </g>
    <g id="ytick_23">
     <g id="line2d_49">
      <g>
       <use style="stroke:#000000;stroke-width:0.8;" x="279.26069" xlink:href="#m8409d9181f" y="78.873662"/>
      </g>
     </g>
     <g id="text_34">
      <!-- 800 -->
      <g transform="translate(253.17319 82.672881)scale(0.1 -0.1)">
       <use xlink:href="#DejaVuSans-56"/>
       <use x="63.623047" xlink:href="#DejaVuSans-48"/>
       <use x="127.246094" xlink:href="#DejaVuSans-48"/>
      </g>
     </g>
    </g>
   </g>
   <g id="line2d_50">
    <path clip-path="url(#p5f5b066606)" d="M 282.059436 53.568033 
L 286.969517 65.638128 
L 291.458733 76.080211 
L 295.94795 85.962249 
L 300.577455 95.608554 
L 305.20696 104.742261 
L 309.976753 113.654367 
L 314.746545 122.095421 
L 319.656626 130.325963 
L 324.566707 138.12201 
L 329.476788 145.511509 
L 334.527157 152.714672 
L 338.034357 157.492873 
L 338.034357 157.492873 
" style="fill:none;stroke:#ff0000;stroke-linecap:square;stroke-opacity:0.5;stroke-width:1.5;"/>
   </g>
   <g id="line2d_51">
    <path clip-path="url(#p5f5b066606)" d="M 282.059436 53.568 
L 286.969517 65.638012 
L 291.458733 76.080062 
L 295.94795 85.962034 
L 300.577455 95.608273 
L 305.20696 104.741947 
L 309.976753 113.654003 
L 314.746545 122.095025 
L 319.656626 130.32555 
L 324.566707 138.121564 
L 329.617076 145.716435 
L 334.667445 152.908758 
L 338.034357 157.492328 
L 338.034357 157.492328 
" style="fill:none;stroke:#ff0000;stroke-dasharray:7.4,3.2;stroke-dashoffset:0;stroke-opacity:0.5;stroke-width:2;"/>
   </g>
   <g id="line2d_52">
    <path clip-path="url(#p5f5b066606)" d="M 282.059436 53.568033 
L 283.602604 89.783805 
L 285.145772 120.645233 
L 286.548653 144.431957 
L 287.951533 164.68789 
L 289.354413 181.929059 
L 290.757293 196.614905 
L 292.160173 209.145185 
L 293.563054 219.861457 
L 295.106222 229.896632 
L 296.64939 238.402585 
L 298.192559 245.638818 
L 299.735727 251.816748 
L 301.278895 257.109126 
L 302.822063 261.657811 
L 304.50552 265.9089 
L 306.188976 269.539082 
L 307.872432 272.650846 
L 309.555888 275.328401 
L 311.379633 277.819253 
L 313.203377 279.953992 
L 315.167409 281.921926 
L 317.27173 283.715074 
L 319.516338 285.332352 
L 321.901235 286.77792 
L 324.566707 288.124385 
L 327.372468 289.295144 
L 330.599092 290.39365 
L 334.106293 291.351867 
L 338.034357 292.200135 
L 338.034357 292.200135 
" style="fill:none;stroke:#0000ff;stroke-linecap:square;stroke-opacity:0.5;stroke-width:1.5;"/>
   </g>
   <g id="line2d_53">
    <path clip-path="url(#p5f5b066606)" d="M 282.059436 53.568 
L 283.602604 89.783606 
L 285.145772 120.644853 
L 286.548653 144.431445 
L 287.951533 164.68732 
L 289.354413 181.928456 
L 290.757293 196.614302 
L 292.160173 209.144598 
L 293.563054 219.860886 
L 295.106222 229.896066 
L 296.64939 238.40206 
L 298.192559 245.638318 
L 299.735727 251.816265 
L 301.278895 257.108676 
L 302.822063 261.657392 
L 304.50552 265.908509 
L 306.188976 269.538723 
L 307.872432 272.650519 
L 309.555888 275.328104 
L 311.379633 277.81898 
L 313.203377 279.953746 
L 315.167409 281.921702 
L 317.27173 283.714873 
L 319.516338 285.332171 
L 321.901235 286.777761 
L 324.566707 288.124245 
L 327.372468 289.295023 
L 330.599092 290.393545 
L 334.106293 291.351779 
L 338.034357 292.200061 
L 338.034357 292.200061 
" style="fill:none;stroke:#0000ff;stroke-dasharray:7.4,3.2;stroke-dashoffset:0;stroke-opacity:0.5;stroke-width:2;"/>
   </g>
   <g id="line2d_54">
    <path clip-path="url(#p5f5b066606)" d="M 282.059436 53.568033 
L 282.620588 163.054672 
L 283.041452 211.7446 
L 283.462316 241.314005 
L 283.88318 258.625697 
L 284.304044 268.866453 
L 284.865196 277.056983 
L 285.426348 282.312513 
L 286.127788 286.712171 
L 286.829229 289.602617 
L 287.670957 292.09609 
L 288.232109 293.224921 
L 288.793261 293.92106 
L 289.494701 294.44103 
L 290.617005 294.963352 
L 291.739309 295.241348 
L 293.703342 295.417505 
L 297.35083 295.482468 
L 328.494772 295.488 
L 338.034357 295.488 
L 338.034357 295.488 
" style="fill:none;stroke:#008000;stroke-linecap:square;stroke-opacity:0.5;stroke-width:1.5;"/>
   </g>
   <g id="line2d_55">
    <path clip-path="url(#p5f5b066606)" d="M 282.059436 53.568 
L 282.620588 163.054317 
L 283.041452 211.744187 
L 283.462316 241.313613 
L 283.88318 258.625407 
L 284.304044 268.866249 
L 284.865196 277.05685 
L 285.426348 282.312416 
L 286.127788 286.712102 
L 286.829229 289.602558 
L 287.670957 292.096036 
L 288.232109 293.22488 
L 288.793261 293.921033 
L 289.494701 294.441012 
L 290.617005 294.96334 
L 291.739309 295.241341 
L 293.703342 295.417503 
L 297.35083 295.482468 
L 328.494772 295.488 
L 338.034357 295.488 
L 338.034357 295.488 
" style="fill:none;stroke:#008000;stroke-dasharray:7.4,3.2;stroke-dashoffset:0;stroke-opacity:0.5;stroke-width:2;"/>
   </g>
   <g id="patch_18">
    <path d="M 279.26069 307.584 
L 279.26069 41.472 
" style="fill:none;stroke:#000000;stroke-linecap:square;stroke-linejoin:miter;stroke-width:0.8;"/>
   </g>
   <g id="patch_19">
    <path d="M 340.833103 307.584 
L 340.833103 41.472 
" style="fill:none;stroke:#000000;stroke-linecap:square;stroke-linejoin:miter;stroke-width:0.8;"/>
   </g>
   <g id="patch_20">
    <path d="M 279.26069 307.584 
L 340.833103 307.584 
" style="fill:none;stroke:#000000;stroke-linecap:square;stroke-linejoin:miter;stroke-width:0.8;"/>
   </g>
   <g id="patch_21">
    <path d="M 279.26069 41.472 
L 340.833103 41.472 
" style="fill:none;stroke:#000000;stroke-linecap:square;stroke-linejoin:miter;stroke-width:0.8;"/>
   </g>
   <g id="text_35">
    <!-- lr:0.1 -->
    <g transform="translate(294.351272 35.472)scale(0.12 -0.12)">
     <use xlink:href="#DejaVuSans-108"/>
     <use x="27.783203" xlink:href="#DejaVuSans-114"/>
     <use x="68.880859" xlink:href="#DejaVuSans-58"/>
     <use x="102.572266" xlink:href="#DejaVuSans-48"/>
     <use x="166.195312" xlink:href="#DejaVuSans-46"/>
     <use x="197.982422" xlink:href="#DejaVuSans-49"/>
    </g>
   </g>
  </g>
  <g id="axes_5">
   <g id="patch_22">
    <path d="M 353.147586 307.584 
L 414.72 307.584 
L 414.72 41.472 
L 353.147586 41.472 
z
" style="fill:#ffffff;"/>
   </g>
   <g id="matplotlib.axis_9">
    <g id="xtick_9">
     <g id="line2d_56">
      <g>
       <use style="stroke:#000000;stroke-width:0.8;" x="355.946332" xlink:href="#md5c78141bc" y="307.584"/>
      </g>
     </g>
     <g id="text_36">
      <!-- 0 -->
      <g transform="translate(352.765082 322.182437)scale(0.1 -0.1)">
       <use xlink:href="#DejaVuSans-48"/>
      </g>
     </g>
    </g>
    <g id="xtick_10">
     <g id="line2d_57">
      <g>
       <use style="stroke:#000000;stroke-width:0.8;" x="411.977285" xlink:href="#md5c78141bc" y="307.584"/>
      </g>
     </g>
     <g id="text_37">
      <!-- 1000 -->
      <g transform="translate(399.252285 322.182437)scale(0.1 -0.1)">
       <use xlink:href="#DejaVuSans-49"/>
       <use x="63.623047" xlink:href="#DejaVuSans-48"/>
       <use x="127.246094" xlink:href="#DejaVuSans-48"/>
       <use x="190.869141" xlink:href="#DejaVuSans-48"/>
      </g>
     </g>
    </g>
   </g>
   <g id="matplotlib.axis_10">
    <g id="ytick_24">
     <g id="line2d_58">
      <g>
       <use style="stroke:#000000;stroke-width:0.8;" x="353.147586" xlink:href="#m8409d9181f" y="295.488"/>
      </g>
     </g>
     <g id="text_38">
      <!-- 0 -->
      <g transform="translate(339.785086 299.287219)scale(0.1 -0.1)">
       <use xlink:href="#DejaVuSans-48"/>
      </g>
     </g>
    </g>
    <g id="ytick_25">
     <g id="line2d_59">
      <g>
       <use style="stroke:#000000;stroke-width:0.8;" x="353.147586" xlink:href="#m8409d9181f" y="241.334415"/>
      </g>
     </g>
     <g id="text_39">
      <!-- 200 -->
      <g transform="translate(327.060086 245.133634)scale(0.1 -0.1)">
       <use xlink:href="#DejaVuSans-50"/>
       <use x="63.623047" xlink:href="#DejaVuSans-48"/>
       <use x="127.246094" xlink:href="#DejaVuSans-48"/>
      </g>
     </g>
    </g>
    <g id="ytick_26">
     <g id="line2d_60">
      <g>
       <use style="stroke:#000000;stroke-width:0.8;" x="353.147586" xlink:href="#m8409d9181f" y="187.180831"/>
      </g>
     </g>
     <g id="text_40">
      <!-- 400 -->
      <g transform="translate(327.060086 190.98005)scale(0.1 -0.1)">
       <use xlink:href="#DejaVuSans-52"/>
       <use x="63.623047" xlink:href="#DejaVuSans-48"/>
       <use x="127.246094" xlink:href="#DejaVuSans-48"/>
      </g>
     </g>
    </g>
    <g id="ytick_27">
     <g id="line2d_61">
      <g>
       <use style="stroke:#000000;stroke-width:0.8;" x="353.147586" xlink:href="#m8409d9181f" y="133.027246"/>
      </g>
     </g>
     <g id="text_41">
      <!-- 600 -->
      <g transform="translate(327.060086 136.826465)scale(0.1 -0.1)">
       <use xlink:href="#DejaVuSans-54"/>
       <use x="63.623047" xlink:href="#DejaVuSans-48"/>
       <use x="127.246094" xlink:href="#DejaVuSans-48"/>
      </g>
     </g>
    </g>
    <g id="ytick_28">
     <g id="line2d_62">
      <g>
       <use style="stroke:#000000;stroke-width:0.8;" x="353.147586" xlink:href="#m8409d9181f" y="78.873662"/>
      </g>
     </g>
     <g id="text_42">
      <!-- 800 -->
      <g transform="translate(327.060086 82.672881)scale(0.1 -0.1)">
       <use xlink:href="#DejaVuSans-56"/>
       <use x="63.623047" xlink:href="#DejaVuSans-48"/>
       <use x="127.246094" xlink:href="#DejaVuSans-48"/>
      </g>
     </g>
    </g>
   </g>
   <g id="line2d_63">
    <path clip-path="url(#pf81db5c047)" d="M 355.946332 53.568033 
L 358.859942 71.257372 
L 361.605458 86.562189 
L 364.407006 100.92758 
L 367.264585 114.417637 
L 370.122163 126.853543 
L 373.035773 138.554951 
L 376.005413 149.561426 
L 378.975054 159.72385 
L 382.000725 169.286532 
L 385.026397 178.118716 
L 388.052068 186.281805 
L 391.133771 193.965291 
L 394.215473 201.064595 
L 397.353206 207.742204 
L 400.546971 214.01552 
L 403.740735 219.804556 
L 406.99053 225.239573 
L 410.296356 230.336423 
L 411.921254 232.693314 
L 411.921254 232.693314 
" style="fill:none;stroke:#ff0000;stroke-linecap:square;stroke-opacity:0.5;stroke-width:1.5;"/>
   </g>
   <g id="line2d_64">
    <path clip-path="url(#pf81db5c047)" d="M 355.946332 53.568 
L 358.859942 71.257256 
L 361.605458 86.561974 
L 364.407006 100.927283 
L 367.264585 114.417257 
L 370.122163 126.853097 
L 373.035773 138.554472 
L 376.005413 149.560914 
L 378.975054 159.723337 
L 382.000725 169.285987 
L 385.026397 178.118162 
L 388.052068 186.281227 
L 391.133771 193.964704 
L 394.215473 201.064008 
L 397.353206 207.74165 
L 400.546971 214.014975 
L 403.740735 219.803994 
L 406.99053 225.239028 
L 410.296356 230.33589 
L 411.921254 232.692776 
L 411.921254 232.692776 
" style="fill:none;stroke:#ff0000;stroke-dasharray:7.4,3.2;stroke-dashoffset:0;stroke-opacity:0.5;stroke-width:2;"/>
   </g>
   <g id="line2d_65">
    <path clip-path="url(#pf81db5c047)" d="M 355.946332 53.568033 
L 356.954889 110.022236 
L 357.907416 150.85501 
L 358.803911 180.327043 
L 359.700406 203.126829 
L 360.652932 221.813253 
L 361.605458 236.218668 
L 362.557985 247.420765 
L 363.566542 256.660671 
L 364.575099 263.868202 
L 365.583656 269.539082 
L 366.648244 274.26077 
L 367.712832 277.995281 
L 368.833451 281.116647 
L 369.95407 283.604484 
L 371.13072 285.6957 
L 372.363401 287.447563 
L 373.708144 288.967261 
L 375.108918 290.219081 
L 376.677785 291.317531 
L 378.414744 292.253171 
L 380.375828 293.048633 
L 382.617066 293.713541 
L 385.306551 294.271939 
L 388.612378 294.721306 
L 392.87073 295.064487 
L 398.810011 295.30437 
L 408.391304 295.442446 
L 411.921254 295.46129 
L 411.921254 295.46129 
" style="fill:none;stroke:#0000ff;stroke-linecap:square;stroke-opacity:0.5;stroke-width:1.5;"/>
   </g>
   <g id="line2d_66">
    <path clip-path="url(#pf81db5c047)" d="M 355.946332 53.568 
L 356.954889 110.021955 
L 357.907416 150.854465 
L 358.803911 180.326456 
L 359.700406 203.126234 
L 360.652932 221.812675 
L 361.605458 236.218122 
L 362.557985 247.420269 
L 363.566542 256.660212 
L 364.575099 263.867795 
L 365.583656 269.538723 
L 366.648244 274.260456 
L 367.712832 277.995013 
L 368.833451 281.116412 
L 369.95407 283.604281 
L 371.13072 285.695524 
L 372.363401 287.447413 
L 373.708144 288.967134 
L 375.108918 290.218973 
L 376.677785 291.317442 
L 378.414744 292.253098 
L 380.375828 293.048574 
L 382.617066 293.713496 
L 385.306551 294.271905 
L 388.612378 294.721283 
L 392.87073 295.064472 
L 398.810011 295.304363 
L 408.391304 295.442444 
L 411.921254 295.461289 
L 411.921254 295.461289 
" style="fill:none;stroke:#0000ff;stroke-dasharray:7.4,3.2;stroke-dashoffset:0;stroke-opacity:0.5;stroke-width:2;"/>
   </g>
   <g id="line2d_67">
    <path clip-path="url(#pf81db5c047)" d="M 355.946332 53.568033 
L 356.282518 198.019737 
L 356.618704 253.858791 
L 356.954889 273.485822 
L 357.347106 283.355291 
L 357.739323 288.565856 
L 358.243601 292.422329 
L 358.635818 293.92106 
L 359.084066 294.668407 
L 359.644375 295.16395 
L 360.260716 295.36362 
L 361.381335 295.469321 
L 365.751749 295.487997 
L 411.921254 295.488 
L 411.921254 295.488 
" style="fill:none;stroke:#008000;stroke-linecap:square;stroke-opacity:0.5;stroke-width:1.5;"/>
   </g>
   <g id="line2d_68">
    <path clip-path="url(#pf81db5c047)" d="M 355.946332 53.568 
L 356.282518 198.019365 
L 356.618704 253.858465 
L 356.954889 273.485658 
L 357.347106 283.3552 
L 357.739323 288.565798 
L 358.243601 292.422277 
L 358.635818 293.921033 
L 359.084066 294.668391 
L 359.644375 295.163941 
L 360.260716 295.363616 
L 361.381335 295.46932 
L 365.751749 295.487997 
L 411.921254 295.488 
L 411.921254 295.488 
" style="fill:none;stroke:#008000;stroke-dasharray:7.4,3.2;stroke-dashoffset:0;stroke-opacity:0.5;stroke-width:2;"/>
   </g>
   <g id="patch_23">
    <path d="M 353.147586 307.584 
L 353.147586 41.472 
" style="fill:none;stroke:#000000;stroke-linecap:square;stroke-linejoin:miter;stroke-width:0.8;"/>
   </g>
   <g id="patch_24">
    <path d="M 414.72 307.584 
L 414.72 41.472 
" style="fill:none;stroke:#000000;stroke-linecap:square;stroke-linejoin:miter;stroke-width:0.8;"/>
   </g>
   <g id="patch_25">
    <path d="M 353.147586 307.584 
L 414.72 307.584 
" style="fill:none;stroke:#000000;stroke-linecap:square;stroke-linejoin:miter;stroke-width:0.8;"/>
   </g>
   <g id="patch_26">
    <path d="M 353.147586 41.472 
L 414.72 41.472 
" style="fill:none;stroke:#000000;stroke-linecap:square;stroke-linejoin:miter;stroke-width:0.8;"/>
   </g>
   <g id="text_43">
    <!-- lr:0.1 -->
    <g transform="translate(368.238168 35.472)scale(0.12 -0.12)">
     <use xlink:href="#DejaVuSans-108"/>
     <use x="27.783203" xlink:href="#DejaVuSans-114"/>
     <use x="68.880859" xlink:href="#DejaVuSans-58"/>
     <use x="102.572266" xlink:href="#DejaVuSans-48"/>
     <use x="166.195312" xlink:href="#DejaVuSans-46"/>
     <use x="197.982422" xlink:href="#DejaVuSans-49"/>
    </g>
   </g>
  </g>
  <g id="text_44">
   <!-- Adam Optimization quadratic loss (-:TF, - -:SJ) -->
   <defs>
    <path d="M 34.1875 63.1875 
L 20.796875 26.90625 
L 47.609375 26.90625 
z
M 28.609375 72.90625 
L 39.796875 72.90625 
L 67.578125 0 
L 57.328125 0 
L 50.6875 18.703125 
L 17.828125 18.703125 
L 11.1875 0 
L 0.78125 0 
z
" id="DejaVuSans-65"/>
    <path d="M 45.40625 46.390625 
L 45.40625 75.984375 
L 54.390625 75.984375 
L 54.390625 0 
L 45.40625 0 
L 45.40625 8.203125 
Q 42.578125 3.328125 38.25 0.953125 
Q 33.9375 -1.421875 27.875 -1.421875 
Q 17.96875 -1.421875 11.734375 6.484375 
Q 5.515625 14.40625 5.515625 27.296875 
Q 5.515625 40.1875 11.734375 48.09375 
Q 17.96875 56 27.875 56 
Q 33.9375 56 38.25 53.625 
Q 42.578125 51.265625 45.40625 46.390625 
z
M 14.796875 27.296875 
Q 14.796875 17.390625 18.875 11.75 
Q 22.953125 6.109375 30.078125 6.109375 
Q 37.203125 6.109375 41.296875 11.75 
Q 45.40625 17.390625 45.40625 27.296875 
Q 45.40625 37.203125 41.296875 42.84375 
Q 37.203125 48.484375 30.078125 48.484375 
Q 22.953125 48.484375 18.875 42.84375 
Q 14.796875 37.203125 14.796875 27.296875 
z
" id="DejaVuSans-100"/>
    <path d="M 34.28125 27.484375 
Q 23.390625 27.484375 19.1875 25 
Q 14.984375 22.515625 14.984375 16.5 
Q 14.984375 11.71875 18.140625 8.90625 
Q 21.296875 6.109375 26.703125 6.109375 
Q 34.1875 6.109375 38.703125 11.40625 
Q 43.21875 16.703125 43.21875 25.484375 
L 43.21875 27.484375 
z
M 52.203125 31.203125 
L 52.203125 0 
L 43.21875 0 
L 43.21875 8.296875 
Q 40.140625 3.328125 35.546875 0.953125 
Q 30.953125 -1.421875 24.3125 -1.421875 
Q 15.921875 -1.421875 10.953125 3.296875 
Q 6 8.015625 6 15.921875 
Q 6 25.140625 12.171875 29.828125 
Q 18.359375 34.515625 30.609375 34.515625 
L 43.21875 34.515625 
L 43.21875 35.40625 
Q 43.21875 41.609375 39.140625 45 
Q 35.0625 48.390625 27.6875 48.390625 
Q 23 48.390625 18.546875 47.265625 
Q 14.109375 46.140625 10.015625 43.890625 
L 10.015625 52.203125 
Q 14.9375 54.109375 19.578125 55.046875 
Q 24.21875 56 28.609375 56 
Q 40.484375 56 46.34375 49.84375 
Q 52.203125 43.703125 52.203125 31.203125 
z
" id="DejaVuSans-97"/>
    <path d="M 52 44.1875 
Q 55.375 50.25 60.0625 53.125 
Q 64.75 56 71.09375 56 
Q 79.640625 56 84.28125 50.015625 
Q 88.921875 44.046875 88.921875 33.015625 
L 88.921875 0 
L 79.890625 0 
L 79.890625 32.71875 
Q 79.890625 40.578125 77.09375 44.375 
Q 74.3125 48.1875 68.609375 48.1875 
Q 61.625 48.1875 57.5625 43.546875 
Q 53.515625 38.921875 53.515625 30.90625 
L 53.515625 0 
L 44.484375 0 
L 44.484375 32.71875 
Q 44.484375 40.625 41.703125 44.40625 
Q 38.921875 48.1875 33.109375 48.1875 
Q 26.21875 48.1875 22.15625 43.53125 
Q 18.109375 38.875 18.109375 30.90625 
L 18.109375 0 
L 9.078125 0 
L 9.078125 54.6875 
L 18.109375 54.6875 
L 18.109375 46.1875 
Q 21.1875 51.21875 25.484375 53.609375 
Q 29.78125 56 35.6875 56 
Q 41.65625 56 45.828125 52.96875 
Q 50 49.953125 52 44.1875 
z
" id="DejaVuSans-109"/>
    <path id="DejaVuSans-32"/>
    <path d="M 39.40625 66.21875 
Q 28.65625 66.21875 22.328125 58.203125 
Q 16.015625 50.203125 16.015625 36.375 
Q 16.015625 22.609375 22.328125 14.59375 
Q 28.65625 6.59375 39.40625 6.59375 
Q 50.140625 6.59375 56.421875 14.59375 
Q 62.703125 22.609375 62.703125 36.375 
Q 62.703125 50.203125 56.421875 58.203125 
Q 50.140625 66.21875 39.40625 66.21875 
z
M 39.40625 74.21875 
Q 54.734375 74.21875 63.90625 63.9375 
Q 73.09375 53.65625 73.09375 36.375 
Q 73.09375 19.140625 63.90625 8.859375 
Q 54.734375 -1.421875 39.40625 -1.421875 
Q 24.03125 -1.421875 14.8125 8.828125 
Q 5.609375 19.09375 5.609375 36.375 
Q 5.609375 53.65625 14.8125 63.9375 
Q 24.03125 74.21875 39.40625 74.21875 
z
" id="DejaVuSans-79"/>
    <path d="M 18.109375 8.203125 
L 18.109375 -20.796875 
L 9.078125 -20.796875 
L 9.078125 54.6875 
L 18.109375 54.6875 
L 18.109375 46.390625 
Q 20.953125 51.265625 25.265625 53.625 
Q 29.59375 56 35.59375 56 
Q 45.5625 56 51.78125 48.09375 
Q 58.015625 40.1875 58.015625 27.296875 
Q 58.015625 14.40625 51.78125 6.484375 
Q 45.5625 -1.421875 35.59375 -1.421875 
Q 29.59375 -1.421875 25.265625 0.953125 
Q 20.953125 3.328125 18.109375 8.203125 
z
M 48.6875 27.296875 
Q 48.6875 37.203125 44.609375 42.84375 
Q 40.53125 48.484375 33.40625 48.484375 
Q 26.265625 48.484375 22.1875 42.84375 
Q 18.109375 37.203125 18.109375 27.296875 
Q 18.109375 17.390625 22.1875 11.75 
Q 26.265625 6.109375 33.40625 6.109375 
Q 40.53125 6.109375 44.609375 11.75 
Q 48.6875 17.390625 48.6875 27.296875 
z
" id="DejaVuSans-112"/>
    <path d="M 18.3125 70.21875 
L 18.3125 54.6875 
L 36.8125 54.6875 
L 36.8125 47.703125 
L 18.3125 47.703125 
L 18.3125 18.015625 
Q 18.3125 11.328125 20.140625 9.421875 
Q 21.96875 7.515625 27.59375 7.515625 
L 36.8125 7.515625 
L 36.8125 0 
L 27.59375 0 
Q 17.1875 0 13.234375 3.875 
Q 9.28125 7.765625 9.28125 18.015625 
L 9.28125 47.703125 
L 2.6875 47.703125 
L 2.6875 54.6875 
L 9.28125 54.6875 
L 9.28125 70.21875 
z
" id="DejaVuSans-116"/>
    <path d="M 9.421875 54.6875 
L 18.40625 54.6875 
L 18.40625 0 
L 9.421875 0 
z
M 9.421875 75.984375 
L 18.40625 75.984375 
L 18.40625 64.59375 
L 9.421875 64.59375 
z
" id="DejaVuSans-105"/>
    <path d="M 5.515625 54.6875 
L 48.1875 54.6875 
L 48.1875 46.484375 
L 14.40625 7.171875 
L 48.1875 7.171875 
L 48.1875 0 
L 4.296875 0 
L 4.296875 8.203125 
L 38.09375 47.515625 
L 5.515625 47.515625 
z
" id="DejaVuSans-122"/>
    <path d="M 30.609375 48.390625 
Q 23.390625 48.390625 19.1875 42.75 
Q 14.984375 37.109375 14.984375 27.296875 
Q 14.984375 17.484375 19.15625 11.84375 
Q 23.34375 6.203125 30.609375 6.203125 
Q 37.796875 6.203125 41.984375 11.859375 
Q 46.1875 17.53125 46.1875 27.296875 
Q 46.1875 37.015625 41.984375 42.703125 
Q 37.796875 48.390625 30.609375 48.390625 
z
M 30.609375 56 
Q 42.328125 56 49.015625 48.375 
Q 55.71875 40.765625 55.71875 27.296875 
Q 55.71875 13.875 49.015625 6.21875 
Q 42.328125 -1.421875 30.609375 -1.421875 
Q 18.84375 -1.421875 12.171875 6.21875 
Q 5.515625 13.875 5.515625 27.296875 
Q 5.515625 40.765625 12.171875 48.375 
Q 18.84375 56 30.609375 56 
z
" id="DejaVuSans-111"/>
    <path d="M 54.890625 33.015625 
L 54.890625 0 
L 45.90625 0 
L 45.90625 32.71875 
Q 45.90625 40.484375 42.875 44.328125 
Q 39.84375 48.1875 33.796875 48.1875 
Q 26.515625 48.1875 22.3125 43.546875 
Q 18.109375 38.921875 18.109375 30.90625 
L 18.109375 0 
L 9.078125 0 
L 9.078125 54.6875 
L 18.109375 54.6875 
L 18.109375 46.1875 
Q 21.34375 51.125 25.703125 53.5625 
Q 30.078125 56 35.796875 56 
Q 45.21875 56 50.046875 50.171875 
Q 54.890625 44.34375 54.890625 33.015625 
z
" id="DejaVuSans-110"/>
    <path d="M 14.796875 27.296875 
Q 14.796875 17.390625 18.875 11.75 
Q 22.953125 6.109375 30.078125 6.109375 
Q 37.203125 6.109375 41.296875 11.75 
Q 45.40625 17.390625 45.40625 27.296875 
Q 45.40625 37.203125 41.296875 42.84375 
Q 37.203125 48.484375 30.078125 48.484375 
Q 22.953125 48.484375 18.875 42.84375 
Q 14.796875 37.203125 14.796875 27.296875 
z
M 45.40625 8.203125 
Q 42.578125 3.328125 38.25 0.953125 
Q 33.9375 -1.421875 27.875 -1.421875 
Q 17.96875 -1.421875 11.734375 6.484375 
Q 5.515625 14.40625 5.515625 27.296875 
Q 5.515625 40.1875 11.734375 48.09375 
Q 17.96875 56 27.875 56 
Q 33.9375 56 38.25 53.625 
Q 42.578125 51.265625 45.40625 46.390625 
L 45.40625 54.6875 
L 54.390625 54.6875 
L 54.390625 -20.796875 
L 45.40625 -20.796875 
z
" id="DejaVuSans-113"/>
    <path d="M 8.5 21.578125 
L 8.5 54.6875 
L 17.484375 54.6875 
L 17.484375 21.921875 
Q 17.484375 14.15625 20.5 10.265625 
Q 23.53125 6.390625 29.59375 6.390625 
Q 36.859375 6.390625 41.078125 11.03125 
Q 45.3125 15.671875 45.3125 23.6875 
L 45.3125 54.6875 
L 54.296875 54.6875 
L 54.296875 0 
L 45.3125 0 
L 45.3125 8.40625 
Q 42.046875 3.421875 37.71875 1 
Q 33.40625 -1.421875 27.6875 -1.421875 
Q 18.265625 -1.421875 13.375 4.4375 
Q 8.5 10.296875 8.5 21.578125 
z
M 31.109375 56 
z
" id="DejaVuSans-117"/>
    <path d="M 48.78125 52.59375 
L 48.78125 44.1875 
Q 44.96875 46.296875 41.140625 47.34375 
Q 37.3125 48.390625 33.40625 48.390625 
Q 24.65625 48.390625 19.8125 42.84375 
Q 14.984375 37.3125 14.984375 27.296875 
Q 14.984375 17.28125 19.8125 11.734375 
Q 24.65625 6.203125 33.40625 6.203125 
Q 37.3125 6.203125 41.140625 7.25 
Q 44.96875 8.296875 48.78125 10.40625 
L 48.78125 2.09375 
Q 45.015625 0.34375 40.984375 -0.53125 
Q 36.96875 -1.421875 32.421875 -1.421875 
Q 20.0625 -1.421875 12.78125 6.34375 
Q 5.515625 14.109375 5.515625 27.296875 
Q 5.515625 40.671875 12.859375 48.328125 
Q 20.21875 56 33.015625 56 
Q 37.15625 56 41.109375 55.140625 
Q 45.0625 54.296875 48.78125 52.59375 
z
" id="DejaVuSans-99"/>
    <path d="M 44.28125 53.078125 
L 44.28125 44.578125 
Q 40.484375 46.53125 36.375 47.5 
Q 32.28125 48.484375 27.875 48.484375 
Q 21.1875 48.484375 17.84375 46.4375 
Q 14.5 44.390625 14.5 40.28125 
Q 14.5 37.15625 16.890625 35.375 
Q 19.28125 33.59375 26.515625 31.984375 
L 29.59375 31.296875 
Q 39.15625 29.25 43.1875 25.515625 
Q 47.21875 21.78125 47.21875 15.09375 
Q 47.21875 7.46875 41.1875 3.015625 
Q 35.15625 -1.421875 24.609375 -1.421875 
Q 20.21875 -1.421875 15.453125 -0.5625 
Q 10.6875 0.296875 5.421875 2 
L 5.421875 11.28125 
Q 10.40625 8.6875 15.234375 7.390625 
Q 20.0625 6.109375 24.8125 6.109375 
Q 31.15625 6.109375 34.5625 8.28125 
Q 37.984375 10.453125 37.984375 14.40625 
Q 37.984375 18.0625 35.515625 20.015625 
Q 33.0625 21.96875 24.703125 23.78125 
L 21.578125 24.515625 
Q 13.234375 26.265625 9.515625 29.90625 
Q 5.8125 33.546875 5.8125 39.890625 
Q 5.8125 47.609375 11.28125 51.796875 
Q 16.75 56 26.8125 56 
Q 31.78125 56 36.171875 55.265625 
Q 40.578125 54.546875 44.28125 53.078125 
z
" id="DejaVuSans-115"/>
    <path d="M 31 75.875 
Q 24.46875 64.65625 21.28125 53.65625 
Q 18.109375 42.671875 18.109375 31.390625 
Q 18.109375 20.125 21.3125 9.0625 
Q 24.515625 -2 31 -13.1875 
L 23.1875 -13.1875 
Q 15.875 -1.703125 12.234375 9.375 
Q 8.59375 20.453125 8.59375 31.390625 
Q 8.59375 42.28125 12.203125 53.3125 
Q 15.828125 64.359375 23.1875 75.875 
z
" id="DejaVuSans-40"/>
    <path d="M 4.890625 31.390625 
L 31.203125 31.390625 
L 31.203125 23.390625 
L 4.890625 23.390625 
z
" id="DejaVuSans-45"/>
    <path d="M -0.296875 72.90625 
L 61.375 72.90625 
L 61.375 64.59375 
L 35.5 64.59375 
L 35.5 0 
L 25.59375 0 
L 25.59375 64.59375 
L -0.296875 64.59375 
z
" id="DejaVuSans-84"/>
    <path d="M 9.8125 72.90625 
L 51.703125 72.90625 
L 51.703125 64.59375 
L 19.671875 64.59375 
L 19.671875 43.109375 
L 48.578125 43.109375 
L 48.578125 34.8125 
L 19.671875 34.8125 
L 19.671875 0 
L 9.8125 0 
z
" id="DejaVuSans-70"/>
    <path d="M 11.71875 12.40625 
L 22.015625 12.40625 
L 22.015625 4 
L 14.015625 -11.625 
L 7.71875 -11.625 
L 11.71875 4 
z
" id="DejaVuSans-44"/>
    <path d="M 53.515625 70.515625 
L 53.515625 60.890625 
Q 47.90625 63.578125 42.921875 64.890625 
Q 37.9375 66.21875 33.296875 66.21875 
Q 25.25 66.21875 20.875 63.09375 
Q 16.5 59.96875 16.5 54.203125 
Q 16.5 49.359375 19.40625 46.890625 
Q 22.3125 44.4375 30.421875 42.921875 
L 36.375 41.703125 
Q 47.40625 39.59375 52.65625 34.296875 
Q 57.90625 29 57.90625 20.125 
Q 57.90625 9.515625 50.796875 4.046875 
Q 43.703125 -1.421875 29.984375 -1.421875 
Q 24.8125 -1.421875 18.96875 -0.25 
Q 13.140625 0.921875 6.890625 3.21875 
L 6.890625 13.375 
Q 12.890625 10.015625 18.65625 8.296875 
Q 24.421875 6.59375 29.984375 6.59375 
Q 38.421875 6.59375 43.015625 9.90625 
Q 47.609375 13.234375 47.609375 19.390625 
Q 47.609375 24.75 44.3125 27.78125 
Q 41.015625 30.8125 33.5 32.328125 
L 27.484375 33.5 
Q 16.453125 35.6875 11.515625 40.375 
Q 6.59375 45.0625 6.59375 53.421875 
Q 6.59375 63.09375 13.40625 68.65625 
Q 20.21875 74.21875 32.171875 74.21875 
Q 37.3125 74.21875 42.625 73.28125 
Q 47.953125 72.359375 53.515625 70.515625 
z
" id="DejaVuSans-83"/>
    <path d="M 9.8125 72.90625 
L 19.671875 72.90625 
L 19.671875 5.078125 
Q 19.671875 -8.109375 14.671875 -14.0625 
Q 9.671875 -20.015625 -1.421875 -20.015625 
L -5.171875 -20.015625 
L -5.171875 -11.71875 
L -2.09375 -11.71875 
Q 4.4375 -11.71875 7.125 -8.046875 
Q 9.8125 -4.390625 9.8125 5.078125 
z
" id="DejaVuSans-74"/>
    <path d="M 8.015625 75.875 
L 15.828125 75.875 
Q 23.140625 64.359375 26.78125 53.3125 
Q 30.421875 42.28125 30.421875 31.390625 
Q 30.421875 20.453125 26.78125 9.375 
Q 23.140625 -1.703125 15.828125 -13.1875 
L 8.015625 -13.1875 
Q 14.5 -2 17.703125 9.0625 
Q 20.90625 20.125 20.90625 31.390625 
Q 20.90625 42.671875 17.703125 53.65625 
Q 14.5 64.65625 8.015625 75.875 
z
" id="DejaVuSans-41"/>
   </defs>
   <g transform="translate(95.082188 16.030125)scale(0.12 -0.12)">
    <use xlink:href="#DejaVuSans-65"/>
    <use x="68.392578" xlink:href="#DejaVuSans-100"/>
    <use x="131.869141" xlink:href="#DejaVuSans-97"/>
    <use x="193.148438" xlink:href="#DejaVuSans-109"/>
    <use x="290.560547" xlink:href="#DejaVuSans-32"/>
    <use x="322.347656" xlink:href="#DejaVuSans-79"/>
    <use x="401.058594" xlink:href="#DejaVuSans-112"/>
    <use x="464.535156" xlink:href="#DejaVuSans-116"/>
    <use x="503.744141" xlink:href="#DejaVuSans-105"/>
    <use x="531.527344" xlink:href="#DejaVuSans-109"/>
    <use x="628.939453" xlink:href="#DejaVuSans-105"/>
    <use x="656.722656" xlink:href="#DejaVuSans-122"/>
    <use x="709.212891" xlink:href="#DejaVuSans-97"/>
    <use x="770.492188" xlink:href="#DejaVuSans-116"/>
    <use x="809.701172" xlink:href="#DejaVuSans-105"/>
    <use x="837.484375" xlink:href="#DejaVuSans-111"/>
    <use x="898.666016" xlink:href="#DejaVuSans-110"/>
    <use x="962.044922" xlink:href="#DejaVuSans-32"/>
    <use x="993.832031" xlink:href="#DejaVuSans-113"/>
    <use x="1057.308594" xlink:href="#DejaVuSans-117"/>
    <use x="1120.6875" xlink:href="#DejaVuSans-97"/>
    <use x="1181.966797" xlink:href="#DejaVuSans-100"/>
    <use x="1245.443359" xlink:href="#DejaVuSans-114"/>
    <use x="1286.556641" xlink:href="#DejaVuSans-97"/>
    <use x="1347.835938" xlink:href="#DejaVuSans-116"/>
    <use x="1387.044922" xlink:href="#DejaVuSans-105"/>
    <use x="1414.828125" xlink:href="#DejaVuSans-99"/>
    <use x="1469.808594" xlink:href="#DejaVuSans-32"/>
    <use x="1501.595703" xlink:href="#DejaVuSans-108"/>
    <use x="1529.378906" xlink:href="#DejaVuSans-111"/>
    <use x="1590.560547" xlink:href="#DejaVuSans-115"/>
    <use x="1642.660156" xlink:href="#DejaVuSans-115"/>
    <use x="1694.759766" xlink:href="#DejaVuSans-32"/>
    <use x="1726.546875" xlink:href="#DejaVuSans-40"/>
    <use x="1765.560547" xlink:href="#DejaVuSans-45"/>
    <use x="1801.644531" xlink:href="#DejaVuSans-58"/>
    <use x="1835.335938" xlink:href="#DejaVuSans-84"/>
    <use x="1896.419922" xlink:href="#DejaVuSans-70"/>
    <use x="1953.939453" xlink:href="#DejaVuSans-44"/>
    <use x="1985.726562" xlink:href="#DejaVuSans-32"/>
    <use x="2017.513672" xlink:href="#DejaVuSans-45"/>
    <use x="2053.597656" xlink:href="#DejaVuSans-45"/>
    <use x="2089.681641" xlink:href="#DejaVuSans-58"/>
    <use x="2123.373047" xlink:href="#DejaVuSans-83"/>
    <use x="2186.849609" xlink:href="#DejaVuSans-74"/>
    <use x="2216.341797" xlink:href="#DejaVuSans-41"/>
   </g>
  </g>
 </g>
 <defs>
  <clipPath id="p4011fa30e7">
   <rect height="266.112" width="61.572414" x="57.6" y="41.472"/>
  </clipPath>
  <clipPath id="pc8f3737c4d">
   <rect height="266.112" width="61.572414" x="131.486897" y="41.472"/>
  </clipPath>
  <clipPath id="pf518c929e0">
   <rect height="266.112" width="61.572414" x="205.373793" y="41.472"/>
  </clipPath>
  <clipPath id="p5f5b066606">
   <rect height="266.112" width="61.572414" x="279.26069" y="41.472"/>
  </clipPath>
  <clipPath id="pf81db5c047">
   <rect height="266.112" width="61.572414" x="353.147586" y="41.472"/>
  </clipPath>
 </defs>
</svg>
