<?xml version="1.0" encoding="utf-8" standalone="no"?>
<!DOCTYPE svg PUBLIC "-//W3C//DTD SVG 1.1//EN"
  "http://www.w3.org/Graphics/SVG/1.1/DTD/svg11.dtd">
<!-- Created with matplotlib (https://matplotlib.org/) -->
<svg height="648pt" version="1.1" viewBox="0 0 216 648" width="216pt" xmlns="http://www.w3.org/2000/svg" xmlns:xlink="http://www.w3.org/1999/xlink">
 <defs>
  <style type="text/css">
*{stroke-linecap:butt;stroke-linejoin:round;}
  </style>
 </defs>
 <g id="figure_1">
  <g id="patch_1">
   <path d="M 0 648 
L 216 648 
L 216 0 
L 0 0 
z
" style="fill:#ffffff;"/>
  </g>
  <g id="axes_1">
   <g id="patch_2">
    <path d="M 14.3 208.9 
L 205.2 208.9 
L 205.2 26.88 
L 14.3 26.88 
z
" style="fill:#ffffff;"/>
   </g>
   <g id="matplotlib.axis_1"/>
   <g id="matplotlib.axis_2"/>
   <g id="line2d_1">
    <path clip-path="url(#p21bcdf781a)" d="M 22.977273 156.893267 
L 23.316892 172.861426 
L 23.656511 154.844338 
L 23.996131 165.910537 
L 24.33575 157.325549 
L 24.675369 164.036018 
L 25.014988 160.044259 
L 25.354608 167.575187 
L 25.694227 147.863145 
L 26.033846 165.990372 
L 26.373466 162.796963 
L 26.713085 146.305041 
L 27.052704 181.733306 
L 27.392323 180.69775 
L 27.731943 155.822766 
L 28.071562 179.235057 
L 28.411181 144.682494 
L 28.750801 170.446617 
L 29.09042 173.905458 
L 29.430039 144.250219 
L 29.769658 148.891524 
L 30.109278 144.384904 
L 30.448897 154.732505 
L 30.788516 173.952623 
L 31.128136 143.150372 
L 31.467755 166.883639 
L 31.807374 154.810905 
L 32.146993 152.932234 
L 32.486613 164.789455 
L 32.826232 156.017419 
L 33.165851 152.318502 
L 33.505471 158.023055 
L 33.84509 173.970155 
L 34.524328 146.58466 
L 34.863948 168.519448 
L 35.203567 162.171431 
L 35.543186 164.968665 
L 35.882806 139.438567 
L 36.222425 152.046979 
L 36.562044 154.597287 
L 36.901663 167.197713 
L 37.241283 152.390008 
L 37.580902 165.377119 
L 37.920521 157.202379 
L 38.260141 164.161485 
L 38.59976 149.295319 
L 38.939379 149.984982 
L 39.278998 158.218092 
L 39.618618 151.136345 
L 39.958237 167.118065 
L 40.297856 171.072595 
L 40.637476 149.357402 
L 40.977095 151.917998 
L 41.316714 146.306373 
L 41.656333 126.586289 
L 42.335572 161.980773 
L 42.675191 139.140157 
L 43.014811 165.474471 
L 43.35443 155.577888 
L 43.694049 150.756315 
L 44.033668 130.631211 
L 44.373288 157.222936 
L 44.712907 157.621504 
L 45.052526 149.092665 
L 45.392146 154.808256 
L 45.731765 134.565339 
L 46.071384 158.361712 
L 46.411003 158.581272 
L 46.750623 150.231757 
L 47.090242 150.361855 
L 47.429861 123.072134 
L 48.448719 156.202246 
L 48.788338 132.838845 
L 49.127958 152.608394 
L 49.467577 158.047753 
L 49.807196 127.366574 
L 50.146816 136.396959 
L 50.486435 129.169082 
L 50.826054 135.228474 
L 51.165673 128.718954 
L 51.505293 144.752778 
L 51.844912 148.38971 
L 52.184531 128.89167 
L 52.524151 144.664138 
L 52.86377 142.813948 
L 53.203389 139.636682 
L 53.543008 133.822827 
L 53.882628 137.312515 
L 54.222247 147.956906 
L 54.561866 139.28828 
L 54.901486 156.085895 
L 55.241105 124.079445 
L 55.580724 148.007851 
L 55.920343 141.904621 
L 56.259963 128.538356 
L 56.599582 136.64021 
L 56.939201 110.860897 
L 57.27882 141.485502 
L 57.61844 123.666339 
L 57.958059 126.411604 
L 58.297678 138.218994 
L 58.637298 118.946133 
L 58.976917 125.967883 
L 59.316536 114.935549 
L 59.656155 113.727689 
L 59.995775 98.324517 
L 60.335394 106.794604 
L 60.675013 124.950338 
L 61.014633 122.877584 
L 61.354252 107.478058 
L 61.693871 111.731389 
L 62.03349 111.253502 
L 62.37311 135.481594 
L 62.712729 117.284895 
L 63.052348 124.50382 
L 63.391968 112.63934 
L 63.731587 116.159016 
L 64.071206 104.400221 
L 64.410825 110.287742 
L 64.750445 104.471162 
L 65.090064 117.629735 
L 65.429683 122.251019 
L 66.108922 110.738409 
L 66.448541 105.727071 
L 66.78816 84.362625 
L 67.12778 109.081848 
L 67.467399 118.507247 
L 67.807018 111.142681 
L 68.146638 111.797008 
L 68.486257 100.741367 
L 68.825876 122.387384 
L 69.165495 104.07197 
L 69.844734 100.937317 
L 70.184353 109.444007 
L 70.523973 104.850522 
L 70.863592 117.290593 
L 71.203211 106.404132 
L 71.54283 106.322278 
L 71.88245 95.129046 
L 72.222069 111.831244 
L 72.561688 89.859198 
L 72.901308 81.378931 
L 73.240927 120.042195 
L 73.580546 91.918084 
L 73.920165 88.543046 
L 74.259785 102.416883 
L 74.939023 95.643623 
L 75.278643 96.858503 
L 75.618262 96.382534 
L 75.957881 110.85017 
L 76.2975 79.087855 
L 76.63712 79.298449 
L 76.976739 99.571742 
L 77.316358 106.184179 
L 77.655978 83.700793 
L 77.995597 95.210553 
L 78.335216 86.726762 
L 78.674835 91.239461 
L 79.014455 79.532548 
L 79.354074 78.933813 
L 79.693693 94.026595 
L 80.033313 100.719518 
L 80.372932 102.367045 
L 80.712551 77.648659 
L 81.05217 96.932732 
L 81.39179 88.876983 
L 81.731409 89.32792 
L 82.071028 82.80474 
L 82.410648 103.036785 
L 82.750267 79.096213 
L 83.089886 74.885548 
L 83.769125 83.063343 
L 84.448363 74.237207 
L 84.787983 108.694964 
L 85.127602 56.097261 
L 85.467221 72.86866 
L 85.80684 83.878125 
L 86.14646 80.522987 
L 86.486079 70.304886 
L 86.825698 76.562047 
L 87.165318 97.202853 
L 87.504937 51.620907 
L 87.844556 75.142786 
L 88.184175 62.240515 
L 88.523795 80.673271 
L 88.863414 55.685306 
L 89.203033 69.036031 
L 89.542653 65.063035 
L 89.882272 82.87816 
L 90.221891 57.605094 
L 90.56151 62.948781 
L 90.90113 55.808763 
L 91.240749 76.687465 
L 91.580368 74.683571 
L 91.919988 43.616078 
L 92.259607 80.316031 
L 92.599226 69.768048 
L 92.938845 55.38283 
L 93.278465 66.48252 
L 93.618084 60.789617 
L 93.957703 71.276609 
L 94.297323 62.46389 
L 94.636942 80.613847 
L 94.976561 47.623442 
L 95.31618 66.885445 
L 95.6558 72.772621 
L 95.995419 57.633813 
L 96.674658 79.102259 
L 97.014277 78.960374 
L 97.353896 56.201646 
L 97.693515 65.34021 
L 98.033135 64.796643 
L 98.372754 51.194915 
L 98.712373 75.24504 
L 99.731231 61.096594 
L 100.07085 62.385025 
L 100.41047 64.872927 
L 100.750089 62.188843 
L 101.089708 62.497773 
L 101.429328 69.058175 
L 101.768947 69.907414 
L 102.108566 57.750346 
L 102.448185 70.42825 
L 102.787805 73.206533 
L 103.127424 63.743314 
L 103.467043 61.896189 
L 103.806663 35.153636 
L 104.146282 67.660545 
L 104.485901 49.379016 
L 104.82552 51.426394 
L 105.16514 72.656909 
L 105.504759 50.934915 
L 106.183998 88.586407 
L 106.523617 52.524562 
L 106.863236 78.488118 
L 107.202855 54.107997 
L 107.542475 66.562096 
L 107.882094 40.690264 
L 108.221713 47.16564 
L 108.561333 63.906707 
L 108.900952 66.467605 
L 109.240571 72.25163 
L 109.58019 63.723788 
L 109.91981 61.954322 
L 110.259429 62.891332 
L 110.938667 52.534982 
L 111.278287 55.087495 
L 111.617906 67.399629 
L 111.957525 74.868835 
L 112.297145 44.04006 
L 112.636764 66.735825 
L 112.976383 66.394608 
L 113.316002 65.025616 
L 113.655622 79.676201 
L 113.995241 64.723565 
L 114.33486 64.84047 
L 114.67448 52.824074 
L 115.014099 52.076776 
L 115.353718 59.85312 
L 115.693337 49.753896 
L 116.032957 56.412233 
L 116.372576 60.47464 
L 116.712195 58.678914 
L 117.051815 62.711295 
L 117.391434 65.126827 
L 117.731053 63.898599 
L 118.070672 73.558862 
L 118.410292 58.224762 
L 118.749911 72.454038 
L 119.08953 52.436538 
L 119.42915 64.669351 
L 119.768769 61.590918 
L 120.108388 56.917437 
L 120.448007 55.500504 
L 120.787627 80.135735 
L 121.466865 53.623576 
L 121.806485 82.294995 
L 122.146104 59.579227 
L 122.485723 88.975959 
L 123.164962 64.258898 
L 123.504581 83.234593 
L 123.8442 76.137417 
L 124.18382 81.803038 
L 124.523439 47.733597 
L 124.863058 64.40598 
L 125.202677 60.290347 
L 125.542297 69.328542 
L 125.881916 71.108681 
L 126.221535 85.373171 
L 126.561155 71.127567 
L 126.900774 76.661591 
L 127.240393 59.180138 
L 127.919632 53.220755 
L 128.259251 60.370666 
L 128.59887 76.75247 
L 128.93849 82.847948 
L 129.278109 62.503333 
L 129.617728 67.432978 
L 129.957347 91.262031 
L 130.296967 68.274122 
L 130.636586 63.640247 
L 130.976205 72.397444 
L 131.315825 75.522233 
L 131.995063 90.312791 
L 132.334682 66.005136 
L 132.674302 78.689043 
L 133.013921 78.318797 
L 133.35354 57.119876 
L 133.69316 69.145243 
L 134.372398 76.086079 
L 134.712017 61.390208 
L 135.051637 59.684689 
L 135.391256 68.8904 
L 135.730875 73.221171 
L 136.070495 103.228523 
L 136.410114 79.295453 
L 136.749733 82.610364 
L 137.089352 80.663409 
L 137.428972 71.832978 
L 137.768591 112.948001 
L 138.10821 89.565692 
L 138.44783 80.857008 
L 139.127068 100.537353 
L 139.466687 75.898639 
L 139.806307 82.97928 
L 140.145926 97.291692 
L 140.485545 83.684058 
L 140.825165 78.66647 
L 141.164784 88.232775 
L 141.504403 80.043004 
L 142.523261 103.385318 
L 142.86288 92.142922 
L 143.2025 89.645539 
L 143.542119 82.728669 
L 143.881738 94.245676 
L 144.221357 88.53605 
L 144.560977 104.809389 
L 144.900596 103.409095 
L 145.240215 96.608763 
L 145.579835 107.624756 
L 145.919454 87.576284 
L 146.259073 92.127004 
L 146.598692 94.77264 
L 146.938312 94.733323 
L 147.277931 76.817888 
L 147.95717 124.599998 
L 148.296789 98.771388 
L 148.636408 102.154952 
L 149.315647 113.648328 
L 149.994885 102.133504 
L 150.334505 110.310215 
L 150.674124 78.822156 
L 151.013743 116.632199 
L 151.353362 115.428368 
L 151.692982 132.550754 
L 152.032601 105.201251 
L 152.37222 130.837178 
L 152.71184 115.205287 
L 153.051459 112.94328 
L 153.391078 118.372117 
L 153.730697 92.034237 
L 154.070317 100.884796 
L 154.409936 97.952725 
L 154.749555 122.860923 
L 155.089175 101.346296 
L 155.428794 108.964504 
L 156.108032 104.379616 
L 156.447652 126.385308 
L 156.787271 121.692842 
L 157.12689 108.156676 
L 157.46651 147.573012 
L 157.806129 102.275431 
L 158.145748 113.500848 
L 158.485367 120.743263 
L 158.824987 118.4519 
L 159.164606 132.873271 
L 159.504225 126.020011 
L 159.843845 110.677543 
L 160.183464 109.136425 
L 160.523083 94.364759 
L 160.862702 125.527353 
L 161.202322 132.603806 
L 161.541941 131.645615 
L 161.88156 137.828193 
L 162.22118 128.096054 
L 162.560799 123.647326 
L 162.900418 128.867503 
L 163.240037 117.031366 
L 163.579657 132.315285 
L 163.919276 134.181953 
L 164.258895 137.375198 
L 164.598514 149.575564 
L 164.938134 149.472501 
L 165.277753 145.799243 
L 165.617372 119.069595 
L 165.956992 124.149589 
L 166.296611 119.464423 
L 166.63623 149.896148 
L 166.975849 157.504927 
L 167.315469 143.676799 
L 167.655088 135.054705 
L 167.994707 132.082791 
L 168.334327 126.612555 
L 168.673946 135.608095 
L 169.013565 120.112652 
L 169.353184 142.342837 
L 170.032423 159.551414 
L 170.372042 151.382474 
L 170.711662 139.475647 
L 171.051281 152.491609 
L 171.3909 132.92487 
L 171.730519 128.229882 
L 172.070139 170.448866 
L 172.409758 135.351541 
L 172.749377 170.087602 
L 173.088997 141.511489 
L 173.428616 132.962557 
L 174.107854 161.598963 
L 174.447474 154.45922 
L 174.787093 151.397426 
L 175.126712 151.024018 
L 175.466332 151.748368 
L 175.805951 151.215205 
L 176.14557 148.138607 
L 176.485189 164.291642 
L 176.824809 154.116874 
L 177.164428 135.189984 
L 177.504047 156.626564 
L 177.843667 157.739908 
L 178.183286 141.42264 
L 178.522905 181.957235 
L 178.862524 141.180631 
L 179.202144 161.602428 
L 179.541763 153.265906 
L 179.881382 154.438909 
L 180.221002 145.536523 
L 180.560621 159.287993 
L 180.90024 164.221597 
L 181.239859 142.852003 
L 181.579479 183.606593 
L 181.919098 157.721819 
L 182.258717 173.186866 
L 182.598337 167.105775 
L 182.937956 136.923303 
L 183.277575 159.947183 
L 183.617194 157.667955 
L 183.956814 179.806234 
L 184.636052 158.699156 
L 184.975672 157.292102 
L 185.315291 154.733233 
L 185.65491 161.759565 
L 185.994529 156.363662 
L 186.334149 157.480591 
L 186.673768 182.948563 
L 187.013387 162.673421 
L 187.353007 154.908685 
L 187.692626 157.15352 
L 188.032245 167.939976 
L 188.711484 176.78574 
L 189.390722 152.478938 
L 189.730342 186.71603 
L 190.069961 172.713312 
L 190.40958 178.22917 
L 190.749199 157.238181 
L 191.088819 172.209948 
L 191.428438 171.493592 
L 191.768057 168.896424 
L 192.107677 161.788596 
L 192.447296 171.20503 
L 192.786915 200.626364 
L 193.126534 161.239574 
L 193.466154 162.550658 
L 194.145392 179.637093 
L 194.485012 163.954115 
L 194.824631 163.783997 
L 195.16425 173.268022 
L 195.503869 170.594152 
L 195.843489 178.566228 
L 196.183108 170.386444 
L 196.522727 185.599324 
L 196.522727 185.599324 
" style="fill:none;stroke:#0000ff;stroke-linecap:square;stroke-width:1.5;"/>
   </g>
   <g id="line2d_2">
    <path clip-path="url(#p21bcdf781a)" d="M 22.977273 171.264607 
L 23.316892 156.486365 
L 23.656511 164.968119 
L 23.996131 158.089807 
L 24.33575 163.441394 
L 24.675369 160.383971 
L 25.014988 166.856065 
L 25.354608 149.762439 
L 25.694227 164.367578 
L 26.033846 162.954022 
L 26.373466 147.96994 
L 26.713085 178.35697 
L 27.052704 180.46367 
L 27.392323 158.286855 
L 27.731943 177.140243 
L 28.071562 147.928269 
L 28.411181 168.194783 
L 28.750801 173.334385 
L 29.09042 147.158635 
L 29.430039 148.718232 
L 29.769658 144.818235 
L 30.109278 153.741077 
L 30.448897 171.931467 
L 30.788516 146.02848 
L 31.128136 164.79812 
L 31.467755 155.809626 
L 31.807374 153.219969 
L 32.146993 163.632508 
L 32.486613 156.778926 
L 32.826232 152.764542 
L 33.165851 157.497204 
L 33.505471 172.322857 
L 34.184709 147.891453 
L 34.524328 166.456648 
L 34.863948 162.599954 
L 35.203567 164.731791 
L 35.543186 141.967887 
L 35.882806 151.039071 
L 36.222425 154.241464 
L 36.562044 165.902083 
L 36.901663 153.741215 
L 37.241283 164.21353 
L 37.580902 157.903494 
L 37.920521 163.535685 
L 38.260141 150.719353 
L 38.59976 150.058418 
L 38.939379 157.402121 
L 39.278998 151.762919 
L 39.618618 165.582552 
L 39.958237 170.523589 
L 40.297856 151.47402 
L 40.637476 151.873598 
L 40.977095 146.863096 
L 41.316714 128.61397 
L 41.656333 140.64292 
L 41.995953 159.846987 
L 42.335572 141.21084 
L 42.675191 163.048106 
L 43.35443 151.313174 
L 43.694049 132.699407 
L 44.033668 154.770583 
L 44.373288 157.33641 
L 44.712907 149.917041 
L 45.052526 154.319134 
L 45.392146 136.540717 
L 45.731765 156.17961 
L 46.071384 158.341104 
L 46.411003 151.04269 
L 46.750623 150.429939 
L 47.090242 125.807914 
L 47.769481 141.312622 
L 48.1091 154.713283 
L 48.448719 135.026289 
L 48.788338 150.850181 
L 49.127958 157.327993 
L 49.467577 130.362715 
L 49.807196 135.793535 
L 50.146816 129.831527 
L 50.486435 134.68878 
L 50.826054 129.315937 
L 51.165673 143.209093 
L 51.505293 147.871649 
L 51.844912 130.789667 
L 52.184531 143.276689 
L 52.524151 142.860223 
L 52.86377 139.959037 
L 53.203389 134.436447 
L 53.543008 137.024907 
L 53.882628 146.863704 
L 54.222247 140.045821 
L 54.561866 154.481884 
L 54.901486 127.119689 
L 55.241105 145.919033 
L 55.580724 142.306059 
L 55.920343 129.915126 
L 56.259963 135.9677 
L 56.599582 113.371578 
L 56.939201 138.67411 
L 57.27882 125.167116 
L 57.61844 126.287155 
L 57.958059 137.02581 
L 58.297678 120.7541 
L 58.637298 125.446505 
L 58.976917 115.986645 
L 59.316536 113.953584 
L 59.656155 99.887425 
L 59.995775 106.103886 
L 60.335394 123.065693 
L 60.675013 122.896394 
L 61.014633 109.019892 
L 61.354252 111.460239 
L 61.693871 111.274175 
L 62.03349 133.060851 
L 62.37311 118.862491 
L 62.712729 123.939687 
L 63.052348 113.769374 
L 63.391968 115.920051 
L 63.731587 105.552204 
L 64.071206 109.814188 
L 64.410825 105.005465 
L 64.750445 116.367308 
L 65.090064 121.662648 
L 66.108922 106.283923 
L 66.448541 86.554753 
L 66.78816 106.829139 
L 67.12778 117.339436 
L 67.467399 111.762357 
L 67.807018 111.793543 
L 68.146638 101.846585 
L 68.486257 120.333304 
L 68.825876 105.698104 
L 69.165495 102.736249 
L 69.505115 101.11721 
L 69.844734 108.611327 
L 70.184353 105.226603 
L 70.523973 116.084194 
L 70.863592 107.372139 
L 71.203211 106.427265 
L 71.54283 96.258869 
L 71.88245 110.274007 
L 72.222069 91.900681 
L 72.561688 82.431106 
L 72.901308 116.281086 
L 73.240927 94.354384 
L 73.580546 89.12418 
L 73.920165 101.087613 
L 74.259785 99.354937 
L 74.599404 96.014756 
L 74.939023 96.774128 
L 75.278643 96.421694 
L 75.618262 109.407322 
L 75.957881 82.119802 
L 76.2975 79.580584 
L 76.63712 97.572627 
L 76.976739 105.323023 
L 77.316358 85.863016 
L 77.655978 94.275799 
L 77.995597 87.481665 
L 78.335216 90.863683 
L 78.674835 80.665663 
L 79.014455 79.106999 
L 79.354074 92.534636 
L 79.693693 99.90103 
L 80.033313 102.120445 
L 80.372932 80.095839 
L 80.712551 95.249044 
L 81.05217 89.51419 
L 81.39179 89.346549 
L 81.731409 83.458921 
L 82.071028 101.078999 
L 82.410648 81.294491 
L 82.750267 75.526444 
L 83.429505 82.637698 
L 84.108744 74.665289 
L 84.448363 105.291997 
L 84.787983 61.016735 
L 85.467221 82.658662 
L 85.80684 80.736556 
L 86.14646 71.348055 
L 86.486079 76.040649 
L 86.825698 95.086635 
L 87.165318 55.967482 
L 87.504937 73.225255 
L 87.844556 63.33899 
L 88.184175 78.939844 
L 88.523795 58.010763 
L 88.863414 67.933506 
L 89.203033 65.350082 
L 89.542653 81.125352 
L 89.882272 59.957119 
L 90.221891 62.649617 
L 90.56151 56.49285 
L 90.90113 74.668005 
L 91.240749 74.682015 
L 91.580368 46.72267 
L 91.919988 76.956697 
L 92.259607 70.486916 
L 92.599226 56.893239 
L 92.938845 65.523592 
L 93.278465 61.263014 
L 93.618084 70.275253 
L 93.957703 63.245027 
L 94.297323 78.876967 
L 94.636942 50.748795 
L 94.976561 65.271782 
L 95.31618 72.022537 
L 95.6558 59.072685 
L 96.335038 78.061321 
L 96.674658 78.870467 
L 97.014277 58.468534 
L 97.353896 64.653043 
L 97.693515 64.782285 
L 98.033135 52.553652 
L 98.372754 72.975902 
L 98.712373 70.875426 
L 99.051993 67.02843 
L 99.391612 61.689779 
L 99.731231 62.3155 
L 100.07085 64.617186 
L 100.41047 62.431681 
L 100.750089 62.491165 
L 101.089708 68.401475 
L 101.429328 69.756821 
L 101.768947 58.950997 
L 102.108566 69.280527 
L 102.448185 72.813933 
L 102.787805 64.650376 
L 103.127424 62.171604 
L 103.467043 37.855434 
L 103.806663 64.680036 
L 104.146282 50.909118 
L 104.485901 51.374667 
L 104.82552 70.528688 
L 105.16514 52.894288 
L 105.844378 86.773777 
L 106.183998 55.949484 
L 106.523617 76.234255 
L 106.863236 56.320617 
L 107.202855 65.53795 
L 107.542475 43.175033 
L 107.882094 46.76658 
L 108.221713 62.192696 
L 108.561333 66.040115 
L 108.900952 71.630481 
L 109.240571 64.514458 
L 109.58019 62.210335 
L 109.91981 62.823235 
L 110.599048 53.054185 
L 110.938667 54.884167 
L 111.617906 73.99676 
L 111.957525 47.035731 
L 112.297145 64.765814 
L 112.636764 66.231728 
L 112.976383 65.146225 
L 113.316002 78.223205 
L 113.655622 66.073529 
L 113.995241 64.963775 
L 114.33486 54.038046 
L 114.67448 52.272902 
L 115.014099 59.0951 
L 115.353718 50.688016 
L 116.032957 60.011158 
L 116.372576 58.812139 
L 117.051815 64.846285 
L 117.391434 63.993369 
L 117.731053 72.602315 
L 118.070672 59.662519 
L 118.410292 71.174887 
L 118.749911 54.31037 
L 119.08953 63.633452 
L 119.42915 61.795171 
L 119.768769 57.405214 
L 120.108388 55.690975 
L 120.448007 77.691262 
L 121.127246 54.919801 
L 121.466865 79.557476 
L 121.806485 61.577054 
L 122.146104 86.23607 
L 122.825342 65.505374 
L 123.164962 81.461672 
L 123.504581 76.669842 
L 123.8442 81.289719 
L 124.18382 51.089207 
L 124.523439 63.074302 
L 124.863058 60.568748 
L 125.202677 68.452562 
L 125.542297 70.843069 
L 125.881916 83.92016 
L 126.221535 72.406827 
L 126.561155 76.236117 
L 126.900774 60.88574 
L 127.580012 53.586272 
L 127.919632 59.692225 
L 128.259251 75.046448 
L 128.59887 82.067796 
L 128.93849 64.459782 
L 129.278109 67.135658 
L 129.617728 88.849396 
L 129.957347 70.331653 
L 130.296967 64.309389 
L 130.636586 71.588639 
L 130.976205 75.128873 
L 131.655444 89.487049 
L 131.995063 68.353331 
L 132.334682 77.65547 
L 132.674302 78.252464 
L 133.013921 59.233136 
L 133.35354 68.15403 
L 134.032779 75.736301 
L 134.372398 62.824821 
L 134.712017 59.998701 
L 135.051637 68.001231 
L 135.391256 72.699178 
L 135.730875 100.175588 
L 136.070495 81.383468 
L 136.410114 82.487674 
L 136.749733 80.845836 
L 137.089352 72.734263 
L 137.428972 108.926627 
L 137.768591 91.501788 
L 138.10821 81.921486 
L 138.44783 88.759959 
L 138.787449 99.359613 
L 139.127068 78.244736 
L 139.466687 82.505826 
L 139.806307 95.813105 
L 140.145926 84.896964 
L 140.485545 79.289517 
L 140.825165 87.338449 
L 141.164784 80.772552 
L 142.183642 102.418938 
L 142.523261 93.170523 
L 142.86288 89.99804 
L 143.2025 83.455607 
L 143.542119 93.166669 
L 143.881738 88.999113 
L 144.221357 103.228361 
L 144.560977 103.391022 
L 144.900596 97.28699 
L 145.240215 106.59098 
L 145.579835 89.477754 
L 146.259073 94.481585 
L 146.598692 94.70815 
L 146.938312 78.606916 
L 147.61755 122.365347 
L 147.95717 101.130785 
L 148.296789 102.052535 
L 148.976027 113.017875 
L 149.315647 108.804088 
L 149.655266 102.800563 
L 149.994885 109.55925 
L 150.334505 81.895866 
L 150.674124 113.158566 
L 151.013743 115.201388 
L 151.353362 130.815816 
L 151.692982 107.762708 
L 152.032601 128.529731 
L 152.37222 116.537731 
L 152.71184 113.302725 
L 153.051459 117.865177 
L 153.391078 94.617332 
L 153.730697 100.25805 
L 154.070317 98.183259 
L 154.409936 120.393156 
L 154.749555 103.250982 
L 155.089175 108.393152 
L 155.768413 104.617464 
L 156.108032 124.208524 
L 156.447652 121.944411 
L 156.787271 109.53545 
L 157.12689 143.769254 
L 157.46651 106.424814 
L 158.145748 119.948261 
L 158.485367 118.601536 
L 158.824987 131.446097 
L 159.164606 126.562619 
L 159.504225 112.266051 
L 159.843845 109.449388 
L 160.183464 95.873222 
L 160.523083 122.56194 
L 160.862702 131.599618 
L 161.202322 131.641016 
L 161.541941 137.209475 
L 161.88156 129.007397 
L 162.22118 124.183333 
L 162.560799 128.399087 
L 162.900418 118.168138 
L 163.240037 130.900569 
L 163.919276 137.02306 
L 164.258895 148.320313 
L 164.598514 149.357284 
L 164.938134 146.155045 
L 165.277753 121.778139 
L 165.617372 123.912443 
L 165.956992 119.909225 
L 166.296611 146.897452 
L 166.63623 156.444179 
L 167.315469 136.044588 
L 167.655088 132.478972 
L 167.994707 127.199197 
L 168.334327 134.767205 
L 168.673946 121.578107 
L 169.013565 140.266363 
L 169.692804 158.545827 
L 170.032423 152.098809 
L 170.372042 140.737961 
L 170.711662 151.316245 
L 171.051281 134.764007 
L 171.3909 128.883295 
L 171.730519 166.292307 
L 172.070139 138.445617 
L 172.409758 166.923398 
L 172.749377 144.052678 
L 173.088997 134.07157 
L 173.428616 145.046793 
L 173.768235 159.943744 
L 174.107854 155.007673 
L 174.447474 151.758449 
L 174.787093 151.097459 
L 175.126712 151.683276 
L 175.466332 151.262012 
L 175.805951 148.450947 
L 176.14557 162.707575 
L 176.485189 154.975943 
L 176.824809 137.168578 
L 177.164428 154.680765 
L 177.504047 157.433992 
L 177.843667 143.023776 
L 178.183286 178.063884 
L 178.522905 144.868954 
L 178.862524 159.92908 
L 179.202144 153.932223 
L 179.541763 154.388241 
L 179.881382 146.421697 
L 180.221002 158.001365 
L 180.560621 163.59957 
L 180.90024 144.92676 
L 181.239859 179.738614 
L 181.579479 159.923497 
L 181.919098 171.860527 
L 182.258717 167.581249 
L 182.598337 139.989097 
L 182.937956 157.951372 
L 183.277575 157.696295 
L 183.617194 177.595242 
L 184.296433 159.775285 
L 184.975672 155.013952 
L 185.315291 161.085 
L 185.65491 156.835796 
L 185.994529 157.416112 
L 186.334149 180.395318 
L 186.673768 164.445612 
L 187.013387 155.862378 
L 187.353007 157.024407 
L 187.692626 166.848419 
L 188.371864 176.352634 
L 188.711484 167.180558 
L 189.051103 153.949098 
L 189.390722 183.439335 
L 189.730342 173.785917 
L 190.069961 177.784842 
L 190.40958 159.292846 
L 190.749199 170.918231 
L 191.088819 171.436058 
L 191.428438 169.150387 
L 191.768057 162.524774 
L 192.107677 170.337005 
L 192.447296 197.59742 
L 192.786915 164.875355 
L 193.126534 162.783126 
L 193.466154 169.244999 
L 193.805773 178.597876 
L 194.145392 165.418491 
L 194.485012 163.947447 
L 194.824631 172.335961 
L 195.16425 170.768331 
L 195.503869 177.786438 
L 195.843489 171.126446 
L 196.183108 184.152037 
L 196.183108 184.152037 
" style="fill:none;stroke:#ff0000;stroke-linecap:square;stroke-width:1.5;"/>
   </g>
   <g id="patch_3">
    <path d="M 14.3 208.9 
L 14.3 26.88 
" style="fill:none;stroke:#000000;stroke-linecap:square;stroke-linejoin:miter;stroke-width:0.8;"/>
   </g>
   <g id="patch_4">
    <path d="M 205.2 208.9 
L 205.2 26.88 
" style="fill:none;stroke:#000000;stroke-linecap:square;stroke-linejoin:miter;stroke-width:0.8;"/>
   </g>
   <g id="patch_5">
    <path d="M 14.3 208.9 
L 205.2 208.9 
" style="fill:none;stroke:#000000;stroke-linecap:square;stroke-linejoin:miter;stroke-width:0.8;"/>
   </g>
   <g id="patch_6">
    <path d="M 14.3 26.88 
L 205.2 26.88 
" style="fill:none;stroke:#000000;stroke-linecap:square;stroke-linejoin:miter;stroke-width:0.8;"/>
   </g>
   <g id="text_1">
    <!-- EMA: 0.1 -->
    <defs>
     <path d="M 9.8125 72.90625 
L 55.90625 72.90625 
L 55.90625 64.59375 
L 19.671875 64.59375 
L 19.671875 43.015625 
L 54.390625 43.015625 
L 54.390625 34.71875 
L 19.671875 34.71875 
L 19.671875 8.296875 
L 56.78125 8.296875 
L 56.78125 0 
L 9.8125 0 
z
" id="DejaVuSans-69"/>
     <path d="M 9.8125 72.90625 
L 24.515625 72.90625 
L 43.109375 23.296875 
L 61.8125 72.90625 
L 76.515625 72.90625 
L 76.515625 0 
L 66.890625 0 
L 66.890625 64.015625 
L 48.09375 14.015625 
L 38.1875 14.015625 
L 19.390625 64.015625 
L 19.390625 0 
L 9.8125 0 
z
" id="DejaVuSans-77"/>
     <path d="M 34.1875 63.1875 
L 20.796875 26.90625 
L 47.609375 26.90625 
z
M 28.609375 72.90625 
L 39.796875 72.90625 
L 67.578125 0 
L 57.328125 0 
L 50.6875 18.703125 
L 17.828125 18.703125 
L 11.1875 0 
L 0.78125 0 
z
" id="DejaVuSans-65"/>
     <path d="M 11.71875 12.40625 
L 22.015625 12.40625 
L 22.015625 0 
L 11.71875 0 
z
M 11.71875 51.703125 
L 22.015625 51.703125 
L 22.015625 39.3125 
L 11.71875 39.3125 
z
" id="DejaVuSans-58"/>
     <path id="DejaVuSans-32"/>
     <path d="M 31.78125 66.40625 
Q 24.171875 66.40625 20.328125 58.90625 
Q 16.5 51.421875 16.5 36.375 
Q 16.5 21.390625 20.328125 13.890625 
Q 24.171875 6.390625 31.78125 6.390625 
Q 39.453125 6.390625 43.28125 13.890625 
Q 47.125 21.390625 47.125 36.375 
Q 47.125 51.421875 43.28125 58.90625 
Q 39.453125 66.40625 31.78125 66.40625 
z
M 31.78125 74.21875 
Q 44.046875 74.21875 50.515625 64.515625 
Q 56.984375 54.828125 56.984375 36.375 
Q 56.984375 17.96875 50.515625 8.265625 
Q 44.046875 -1.421875 31.78125 -1.421875 
Q 19.53125 -1.421875 13.0625 8.265625 
Q 6.59375 17.96875 6.59375 36.375 
Q 6.59375 54.828125 13.0625 64.515625 
Q 19.53125 74.21875 31.78125 74.21875 
z
" id="DejaVuSans-48"/>
     <path d="M 10.6875 12.40625 
L 21 12.40625 
L 21 0 
L 10.6875 0 
z
" id="DejaVuSans-46"/>
     <path d="M 12.40625 8.296875 
L 28.515625 8.296875 
L 28.515625 63.921875 
L 10.984375 60.40625 
L 10.984375 69.390625 
L 28.421875 72.90625 
L 38.28125 72.90625 
L 38.28125 8.296875 
L 54.390625 8.296875 
L 54.390625 0 
L 12.40625 0 
z
" id="DejaVuSans-49"/>
    </defs>
    <g transform="translate(83.3125 20.88)scale(0.12 -0.12)">
     <use xlink:href="#DejaVuSans-69"/>
     <use x="63.183594" xlink:href="#DejaVuSans-77"/>
     <use x="149.462891" xlink:href="#DejaVuSans-65"/>
     <use x="216.121094" xlink:href="#DejaVuSans-58"/>
     <use x="249.8125" xlink:href="#DejaVuSans-32"/>
     <use x="281.599609" xlink:href="#DejaVuSans-48"/>
     <use x="345.222656" xlink:href="#DejaVuSans-46"/>
     <use x="377.009766" xlink:href="#DejaVuSans-49"/>
    </g>
   </g>
  </g>
  <g id="axes_2">
   <g id="patch_7">
    <path d="M 14.3 421.3 
L 205.2 421.3 
L 205.2 239.28 
L 14.3 239.28 
z
" style="fill:#ffffff;"/>
   </g>
   <g id="matplotlib.axis_3"/>
   <g id="matplotlib.axis_4"/>
   <g id="line2d_3">
    <path clip-path="url(#p1c25eab1d7)" d="M 22.977273 369.293267 
L 23.316892 385.261426 
L 23.656511 367.244338 
L 23.996131 378.310537 
L 24.33575 369.725549 
L 24.675369 376.436018 
L 25.014988 372.444259 
L 25.354608 379.975187 
L 25.694227 360.263145 
L 26.033846 378.390372 
L 26.373466 375.196963 
L 26.713085 358.705041 
L 27.052704 394.133306 
L 27.392323 393.09775 
L 27.731943 368.222766 
L 28.071562 391.635057 
L 28.411181 357.082494 
L 28.750801 382.846617 
L 29.09042 386.305458 
L 29.430039 356.650219 
L 29.769658 361.291524 
L 30.109278 356.784904 
L 30.448897 367.132505 
L 30.788516 386.352623 
L 31.128136 355.550372 
L 31.467755 379.283639 
L 31.807374 367.210905 
L 32.146993 365.332234 
L 32.486613 377.189455 
L 32.826232 368.417419 
L 33.165851 364.718502 
L 33.505471 370.423055 
L 33.84509 386.370155 
L 34.524328 358.98466 
L 34.863948 380.919448 
L 35.203567 374.571431 
L 35.543186 377.368665 
L 35.882806 351.838567 
L 36.222425 364.446979 
L 36.562044 366.997287 
L 36.901663 379.597713 
L 37.241283 364.790008 
L 37.580902 377.777119 
L 37.920521 369.602379 
L 38.260141 376.561485 
L 38.59976 361.695319 
L 38.939379 362.384982 
L 39.278998 370.618092 
L 39.618618 363.536345 
L 39.958237 379.518065 
L 40.297856 383.472595 
L 40.637476 361.757402 
L 40.977095 364.317998 
L 41.316714 358.706373 
L 41.656333 338.986289 
L 42.335572 374.380773 
L 42.675191 351.540157 
L 43.014811 377.874471 
L 43.35443 367.977888 
L 43.694049 363.156315 
L 44.033668 343.031211 
L 44.373288 369.622936 
L 44.712907 370.021504 
L 45.052526 361.492665 
L 45.392146 367.208256 
L 45.731765 346.965339 
L 46.071384 370.761712 
L 46.411003 370.981272 
L 46.750623 362.631757 
L 47.090242 362.761855 
L 47.429861 335.472134 
L 48.448719 368.602246 
L 48.788338 345.238845 
L 49.127958 365.008394 
L 49.467577 370.447753 
L 49.807196 339.766574 
L 50.146816 348.796959 
L 50.486435 341.569082 
L 50.826054 347.628474 
L 51.165673 341.118954 
L 51.505293 357.152778 
L 51.844912 360.78971 
L 52.184531 341.29167 
L 52.524151 357.064138 
L 52.86377 355.213948 
L 53.203389 352.036682 
L 53.543008 346.222827 
L 53.882628 349.712515 
L 54.222247 360.356906 
L 54.561866 351.68828 
L 54.901486 368.485895 
L 55.241105 336.479445 
L 55.580724 360.407851 
L 55.920343 354.304621 
L 56.259963 340.938356 
L 56.599582 349.04021 
L 56.939201 323.260897 
L 57.27882 353.885502 
L 57.61844 336.066339 
L 57.958059 338.811604 
L 58.297678 350.618994 
L 58.637298 331.346133 
L 58.976917 338.367883 
L 59.316536 327.335549 
L 59.656155 326.127689 
L 59.995775 310.724517 
L 60.335394 319.194604 
L 60.675013 337.350338 
L 61.014633 335.277584 
L 61.354252 319.878058 
L 61.693871 324.131389 
L 62.03349 323.653502 
L 62.37311 347.881594 
L 62.712729 329.684895 
L 63.052348 336.90382 
L 63.391968 325.03934 
L 63.731587 328.559016 
L 64.071206 316.800221 
L 64.410825 322.687742 
L 64.750445 316.871162 
L 65.090064 330.029735 
L 65.429683 334.651019 
L 66.108922 323.138409 
L 66.448541 318.127071 
L 66.78816 296.762625 
L 67.12778 321.481848 
L 67.467399 330.907247 
L 67.807018 323.542681 
L 68.146638 324.197008 
L 68.486257 313.141367 
L 68.825876 334.787384 
L 69.165495 316.47197 
L 69.844734 313.337317 
L 70.184353 321.844007 
L 70.523973 317.250522 
L 70.863592 329.690593 
L 71.203211 318.804132 
L 71.54283 318.722278 
L 71.88245 307.529046 
L 72.222069 324.231244 
L 72.561688 302.259198 
L 72.901308 293.778931 
L 73.240927 332.442195 
L 73.580546 304.318084 
L 73.920165 300.943046 
L 74.259785 314.816883 
L 74.939023 308.043623 
L 75.278643 309.258503 
L 75.618262 308.782534 
L 75.957881 323.25017 
L 76.2975 291.487855 
L 76.63712 291.698449 
L 76.976739 311.971742 
L 77.316358 318.584179 
L 77.655978 296.100793 
L 77.995597 307.610553 
L 78.335216 299.126762 
L 78.674835 303.639461 
L 79.014455 291.932548 
L 79.354074 291.333813 
L 79.693693 306.426595 
L 80.033313 313.119518 
L 80.372932 314.767045 
L 80.712551 290.048659 
L 81.05217 309.332732 
L 81.39179 301.276983 
L 81.731409 301.72792 
L 82.071028 295.20474 
L 82.410648 315.436785 
L 82.750267 291.496213 
L 83.089886 287.285548 
L 83.769125 295.463343 
L 84.448363 286.637207 
L 84.787983 321.094964 
L 85.127602 268.497261 
L 85.467221 285.26866 
L 85.80684 296.278125 
L 86.14646 292.922987 
L 86.486079 282.704886 
L 86.825698 288.962047 
L 87.165318 309.602853 
L 87.504937 264.020907 
L 87.844556 287.542786 
L 88.184175 274.640515 
L 88.523795 293.073271 
L 88.863414 268.085306 
L 89.203033 281.436031 
L 89.542653 277.463035 
L 89.882272 295.27816 
L 90.221891 270.005094 
L 90.56151 275.348781 
L 90.90113 268.208763 
L 91.240749 289.087465 
L 91.580368 287.083571 
L 91.919988 256.016078 
L 92.259607 292.716031 
L 92.599226 282.168048 
L 92.938845 267.78283 
L 93.278465 278.88252 
L 93.618084 273.189617 
L 93.957703 283.676609 
L 94.297323 274.86389 
L 94.636942 293.013847 
L 94.976561 260.023442 
L 95.31618 279.285445 
L 95.6558 285.172621 
L 95.995419 270.033813 
L 96.674658 291.502259 
L 97.014277 291.360374 
L 97.353896 268.601646 
L 97.693515 277.74021 
L 98.033135 277.196643 
L 98.372754 263.594915 
L 98.712373 287.64504 
L 99.731231 273.496594 
L 100.07085 274.785025 
L 100.41047 277.272927 
L 100.750089 274.588843 
L 101.089708 274.897773 
L 101.429328 281.458175 
L 101.768947 282.307414 
L 102.108566 270.150346 
L 102.448185 282.82825 
L 102.787805 285.606533 
L 103.127424 276.143314 
L 103.467043 274.296189 
L 103.806663 247.553636 
L 104.146282 280.060545 
L 104.485901 261.779016 
L 104.82552 263.826394 
L 105.16514 285.056909 
L 105.504759 263.334915 
L 106.183998 300.986407 
L 106.523617 264.924562 
L 106.863236 290.888118 
L 107.202855 266.507997 
L 107.542475 278.962096 
L 107.882094 253.090264 
L 108.221713 259.56564 
L 108.561333 276.306707 
L 108.900952 278.867605 
L 109.240571 284.65163 
L 109.58019 276.123788 
L 109.91981 274.354322 
L 110.259429 275.291332 
L 110.938667 264.934982 
L 111.278287 267.487495 
L 111.617906 279.799629 
L 111.957525 287.268835 
L 112.297145 256.44006 
L 112.636764 279.135825 
L 112.976383 278.794608 
L 113.316002 277.425616 
L 113.655622 292.076201 
L 113.995241 277.123565 
L 114.33486 277.24047 
L 114.67448 265.224074 
L 115.014099 264.476776 
L 115.353718 272.25312 
L 115.693337 262.153896 
L 116.032957 268.812233 
L 116.372576 272.87464 
L 116.712195 271.078914 
L 117.051815 275.111295 
L 117.391434 277.526827 
L 117.731053 276.298599 
L 118.070672 285.958862 
L 118.410292 270.624762 
L 118.749911 284.854038 
L 119.08953 264.836538 
L 119.42915 277.069351 
L 119.768769 273.990918 
L 120.108388 269.317437 
L 120.448007 267.900504 
L 120.787627 292.535735 
L 121.466865 266.023576 
L 121.806485 294.694995 
L 122.146104 271.979227 
L 122.485723 301.375959 
L 123.164962 276.658898 
L 123.504581 295.634593 
L 123.8442 288.537417 
L 124.18382 294.203038 
L 124.523439 260.133597 
L 124.863058 276.80598 
L 125.202677 272.690347 
L 125.542297 281.728542 
L 125.881916 283.508681 
L 126.221535 297.773171 
L 126.561155 283.527567 
L 126.900774 289.061591 
L 127.240393 271.580138 
L 127.919632 265.620755 
L 128.259251 272.770666 
L 128.59887 289.15247 
L 128.93849 295.247948 
L 129.278109 274.903333 
L 129.617728 279.832978 
L 129.957347 303.662031 
L 130.296967 280.674122 
L 130.636586 276.040247 
L 130.976205 284.797444 
L 131.315825 287.922233 
L 131.995063 302.712791 
L 132.334682 278.405136 
L 132.674302 291.089043 
L 133.013921 290.718797 
L 133.35354 269.519876 
L 133.69316 281.545243 
L 134.372398 288.486079 
L 134.712017 273.790208 
L 135.051637 272.084689 
L 135.391256 281.2904 
L 135.730875 285.621171 
L 136.070495 315.628523 
L 136.410114 291.695453 
L 136.749733 295.010364 
L 137.089352 293.063409 
L 137.428972 284.232978 
L 137.768591 325.348001 
L 138.10821 301.965692 
L 138.44783 293.257008 
L 139.127068 312.937353 
L 139.466687 288.298639 
L 139.806307 295.37928 
L 140.145926 309.691692 
L 140.485545 296.084058 
L 140.825165 291.06647 
L 141.164784 300.632775 
L 141.504403 292.443004 
L 142.523261 315.785318 
L 142.86288 304.542922 
L 143.2025 302.045539 
L 143.542119 295.128669 
L 143.881738 306.645676 
L 144.221357 300.93605 
L 144.560977 317.209389 
L 144.900596 315.809095 
L 145.240215 309.008763 
L 145.579835 320.024756 
L 145.919454 299.976284 
L 146.259073 304.527004 
L 146.598692 307.17264 
L 146.938312 307.133323 
L 147.277931 289.217888 
L 147.95717 336.999998 
L 148.296789 311.171388 
L 148.636408 314.554952 
L 149.315647 326.048328 
L 149.994885 314.533504 
L 150.334505 322.710215 
L 150.674124 291.222156 
L 151.013743 329.032199 
L 151.353362 327.828368 
L 151.692982 344.950754 
L 152.032601 317.601251 
L 152.37222 343.237178 
L 152.71184 327.605287 
L 153.051459 325.34328 
L 153.391078 330.772117 
L 153.730697 304.434237 
L 154.070317 313.284796 
L 154.409936 310.352725 
L 154.749555 335.260923 
L 155.089175 313.746296 
L 155.428794 321.364504 
L 156.108032 316.779616 
L 156.447652 338.785308 
L 156.787271 334.092842 
L 157.12689 320.556676 
L 157.46651 359.973012 
L 157.806129 314.675431 
L 158.145748 325.900848 
L 158.485367 333.143263 
L 158.824987 330.8519 
L 159.164606 345.273271 
L 159.504225 338.420011 
L 159.843845 323.077543 
L 160.183464 321.536425 
L 160.523083 306.764759 
L 160.862702 337.927353 
L 161.202322 345.003806 
L 161.541941 344.045615 
L 161.88156 350.228193 
L 162.22118 340.496054 
L 162.560799 336.047326 
L 162.900418 341.267503 
L 163.240037 329.431366 
L 163.579657 344.715285 
L 163.919276 346.581953 
L 164.258895 349.775198 
L 164.598514 361.975564 
L 164.938134 361.872501 
L 165.277753 358.199243 
L 165.617372 331.469595 
L 165.956992 336.549589 
L 166.296611 331.864423 
L 166.63623 362.296148 
L 166.975849 369.904927 
L 167.315469 356.076799 
L 167.655088 347.454705 
L 167.994707 344.482791 
L 168.334327 339.012555 
L 168.673946 348.008095 
L 169.013565 332.512652 
L 169.353184 354.742837 
L 170.032423 371.951414 
L 170.372042 363.782474 
L 170.711662 351.875647 
L 171.051281 364.891609 
L 171.3909 345.32487 
L 171.730519 340.629882 
L 172.070139 382.848866 
L 172.409758 347.751541 
L 172.749377 382.487602 
L 173.088997 353.911489 
L 173.428616 345.362557 
L 174.107854 373.998963 
L 174.447474 366.85922 
L 174.787093 363.797426 
L 175.126712 363.424018 
L 175.466332 364.148368 
L 175.805951 363.615205 
L 176.14557 360.538607 
L 176.485189 376.691642 
L 176.824809 366.516874 
L 177.164428 347.589984 
L 177.504047 369.026564 
L 177.843667 370.139908 
L 178.183286 353.82264 
L 178.522905 394.357235 
L 178.862524 353.580631 
L 179.202144 374.002428 
L 179.541763 365.665906 
L 179.881382 366.838909 
L 180.221002 357.936523 
L 180.560621 371.687993 
L 180.90024 376.621597 
L 181.239859 355.252003 
L 181.579479 396.006593 
L 181.919098 370.121819 
L 182.258717 385.586866 
L 182.598337 379.505775 
L 182.937956 349.323303 
L 183.277575 372.347183 
L 183.617194 370.067955 
L 183.956814 392.206234 
L 184.636052 371.099156 
L 184.975672 369.692102 
L 185.315291 367.133233 
L 185.65491 374.159565 
L 185.994529 368.763662 
L 186.334149 369.880591 
L 186.673768 395.348563 
L 187.013387 375.073421 
L 187.353007 367.308685 
L 187.692626 369.55352 
L 188.032245 380.339976 
L 188.711484 389.18574 
L 189.390722 364.878938 
L 189.730342 399.11603 
L 190.069961 385.113312 
L 190.40958 390.62917 
L 190.749199 369.638181 
L 191.088819 384.609948 
L 191.428438 383.893592 
L 191.768057 381.296424 
L 192.107677 374.188596 
L 192.447296 383.60503 
L 192.786915 413.026364 
L 193.126534 373.639574 
L 193.466154 374.950658 
L 194.145392 392.037093 
L 194.485012 376.354115 
L 194.824631 376.183997 
L 195.16425 385.668022 
L 195.503869 382.994152 
L 195.843489 390.966228 
L 196.183108 382.786444 
L 196.522727 397.999324 
L 196.522727 397.999324 
" style="fill:none;stroke:#0000ff;stroke-linecap:square;stroke-width:1.5;"/>
   </g>
   <g id="line2d_4">
    <path clip-path="url(#p1c25eab1d7)" d="M 22.977273 377.277346 
L 23.316892 372.260843 
L 23.656511 375.28569 
L 23.996131 372.505618 
L 24.33575 374.470819 
L 24.675369 373.457537 
L 25.014988 376.716363 
L 25.354608 368.489753 
L 25.694227 373.440065 
L 26.033846 374.318515 
L 26.373466 366.511776 
L 26.713085 380.322542 
L 27.052704 386.710148 
L 27.392323 377.466459 
L 27.731943 384.550756 
L 28.071562 370.816625 
L 28.750801 381.568542 
L 29.09042 369.109379 
L 29.769658 360.992675 
L 30.109278 364.062589 
L 30.448897 375.207607 
L 30.788516 365.37899 
L 31.128136 372.331316 
L 31.807374 367.55167 
L 32.146993 372.370563 
L 32.486613 370.393992 
L 32.826232 367.556245 
L 33.165851 368.989648 
L 33.505471 377.679902 
L 33.84509 374.162336 
L 34.184709 366.5735 
L 34.524328 373.746472 
L 34.863948 374.158954 
L 35.203567 375.763807 
L 35.543186 363.801189 
L 35.882806 364.124083 
L 36.222425 365.560685 
L 36.562044 372.579198 
L 36.901663 368.684604 
L 37.241283 373.230862 
L 37.580902 371.416621 
L 37.920521 373.989053 
L 38.260141 367.842185 
L 38.59976 365.113584 
L 38.939379 367.865838 
L 39.278998 365.701093 
L 39.958237 378.041087 
L 40.297856 369.899246 
L 40.637476 367.108622 
L 40.977095 362.907499 
L 41.316714 350.946894 
L 41.656333 352.663183 
L 41.995953 363.521975 
L 42.335572 357.531066 
L 42.675191 367.702769 
L 43.014811 367.840329 
L 43.35443 365.498323 
L 43.694049 354.264768 
L 44.033668 361.943852 
L 44.373288 365.982677 
L 44.712907 363.737672 
L 45.052526 365.472962 
L 45.392146 356.219151 
L 45.731765 363.490434 
L 46.071384 367.235854 
L 46.411003 364.933807 
L 46.750623 363.847832 
L 47.090242 349.659982 
L 47.429861 347.695573 
L 47.769481 351.189308 
L 48.1091 359.895776 
L 48.448719 352.567312 
L 49.127958 364.617804 
L 49.467577 352.192189 
L 49.807196 350.494575 
L 50.146816 346.031829 
L 50.486435 346.830151 
L 50.826054 343.974552 
L 51.505293 355.676686 
L 51.844912 348.484178 
L 52.184531 352.774157 
L 52.524151 353.994054 
L 52.86377 353.015369 
L 53.203389 349.619097 
L 53.543008 349.665805 
L 53.882628 355.011356 
L 54.222247 353.349818 
L 54.561866 360.917857 
L 54.901486 348.69865 
L 55.241105 354.55325 
L 55.580724 354.428935 
L 55.920343 347.683646 
L 56.259963 348.361928 
L 56.599582 335.811412 
L 56.939201 344.848458 
L 57.27882 340.457399 
L 57.61844 339.634501 
L 57.958059 345.126747 
L 58.297678 338.23644 
L 58.637298 338.302161 
L 58.976917 332.818855 
L 59.316536 329.473272 
L 59.656155 320.098895 
L 59.995775 319.646749 
L 60.335394 328.498544 
L 60.675013 331.888064 
L 61.014633 325.883061 
L 61.693871 324.330363 
L 62.03349 336.105979 
L 62.37311 332.895437 
L 62.712729 334.899628 
L 63.052348 329.969484 
L 63.391968 329.26425 
L 63.731587 323.032235 
L 64.071206 322.859988 
L 64.410825 319.865576 
L 65.090064 329.799337 
L 65.429683 328.95746 
L 65.769303 326.047934 
L 66.108922 322.087503 
L 66.448541 309.425063 
L 67.12778 323.180351 
L 67.467399 323.361516 
L 67.807018 323.779262 
L 68.146638 318.460315 
L 68.486257 326.62385 
L 68.825876 321.54791 
L 69.505115 315.757425 
L 69.844734 318.800716 
L 70.184353 318.025619 
L 70.523973 323.858106 
L 70.863592 321.33112 
L 71.203211 320.026699 
L 71.54283 313.777872 
L 71.88245 319.004559 
L 72.561688 302.205405 
L 72.901308 317.3238 
L 73.580546 305.881995 
L 73.920165 310.349438 
L 74.259785 310.955929 
L 74.599404 309.499776 
L 74.939023 309.379139 
L 75.278643 309.080838 
L 75.618262 316.165504 
L 75.957881 303.82668 
L 76.2975 297.762565 
L 76.976739 311.725667 
L 77.316358 303.91323 
L 77.655978 305.761891 
L 77.995597 302.444326 
L 78.335216 303.041893 
L 78.674835 297.487221 
L 79.014455 294.410519 
L 80.033313 310.76804 
L 80.372932 300.408349 
L 80.712551 304.870542 
L 81.05217 303.073763 
L 81.39179 302.400841 
L 81.731409 298.802791 
L 82.071028 307.119788 
L 82.750267 293.296775 
L 83.089886 292.434066 
L 83.429505 293.948705 
L 83.769125 292.204494 
L 84.108744 289.420849 
L 84.448363 305.257906 
L 84.787983 286.877584 
L 85.127602 286.073124 
L 85.467221 291.175625 
L 85.80684 292.049307 
L 86.14646 287.377095 
L 86.486079 288.16957 
L 86.825698 298.886211 
L 87.165318 281.453559 
L 87.504937 284.49817 
L 87.844556 279.569344 
L 88.184175 286.321308 
L 88.523795 277.203307 
L 88.863414 279.319669 
L 89.203033 278.391351 
L 89.542653 286.834754 
L 89.882272 278.419923 
L 90.221891 276.884354 
L 90.56151 272.546558 
L 90.90113 280.81701 
L 91.240749 283.950292 
L 91.580368 269.98318 
L 91.919988 281.349606 
L 92.259607 281.758826 
L 92.599226 274.770827 
L 92.938845 276.826673 
L 93.278465 275.008143 
L 93.618084 279.342376 
L 93.957703 277.103131 
L 94.297323 285.058489 
L 94.636942 272.540965 
L 94.976561 275.913203 
L 95.31618 280.542913 
L 95.6558 275.288362 
L 95.995419 278.725076 
L 96.335038 285.113668 
L 96.674658 288.237022 
L 97.014277 278.419336 
L 97.693515 277.638207 
L 98.033135 270.61656 
L 98.372754 279.130799 
L 98.712373 281.08642 
L 99.051993 280.043701 
L 99.391612 276.770148 
L 99.731231 275.777586 
L 100.07085 276.525255 
L 100.41047 275.557049 
L 100.750089 275.227413 
L 101.089708 278.342796 
L 101.429328 280.325105 
L 101.768947 275.237725 
L 102.448185 282.319759 
L 103.127424 276.763862 
L 103.467043 262.158752 
L 103.806663 271.109651 
L 104.146282 266.444332 
L 104.485901 265.135363 
L 104.82552 275.096135 
L 105.16514 269.215521 
L 105.504759 277.013694 
L 105.844378 289.000051 
L 106.183998 276.962306 
L 106.523617 283.925214 
L 106.863236 275.216604 
L 107.202855 277.08935 
L 107.542475 265.089811 
L 107.882094 262.327727 
L 108.561333 274.09241 
L 108.900952 279.37202 
L 109.58019 276.051115 
L 109.91981 275.671226 
L 110.599048 268.775464 
L 110.938667 268.131483 
L 111.617906 280.617196 
L 111.957525 268.528627 
L 112.297145 273.832225 
L 112.636764 276.313414 
L 112.976383 276.869516 
L 113.316002 284.472859 
L 113.655622 280.798211 
L 113.995241 279.019338 
L 114.33486 272.121708 
L 114.67448 268.299242 
L 115.014099 270.276181 
L 115.353718 266.215039 
L 115.693337 267.513637 
L 116.032957 270.194141 
L 116.372576 270.636529 
L 117.051815 275.20037 
L 117.391434 275.749483 
L 117.731053 280.854174 
L 118.070672 275.739469 
L 118.410292 280.296752 
L 118.749911 272.566644 
L 119.08953 274.817998 
L 119.42915 274.404459 
L 120.108388 269.880725 
L 120.448007 281.208229 
L 120.787627 279.480045 
L 121.127246 272.75181 
L 121.466865 283.723404 
L 121.806485 277.851315 
L 122.146104 289.613637 
L 122.485723 288.840181 
L 122.825342 282.749539 
L 123.164962 289.192068 
L 123.504581 288.86474 
L 123.8442 291.533887 
L 124.18382 275.83374 
L 124.523439 276.319858 
L 124.863058 274.505102 
L 125.542297 280.81275 
L 125.881916 289.29296 
L 126.221535 286.410265 
L 126.561155 287.735928 
L 126.900774 279.658032 
L 127.580012 269.932491 
L 127.919632 271.351578 
L 128.59887 287.749985 
L 128.93849 281.326659 
L 129.278109 280.579818 
L 129.617728 292.120926 
L 130.296967 281.218883 
L 130.636586 283.008164 
L 130.976205 285.465197 
L 131.655444 296.52894 
L 131.995063 287.467037 
L 132.334682 289.27804 
L 132.674302 289.998416 
L 133.013921 279.759147 
L 133.35354 280.652193 
L 134.032779 285.776337 
L 134.372398 279.783273 
L 134.712017 275.933979 
L 135.391256 282.116678 
L 135.730875 298.872601 
L 136.070495 295.284027 
L 136.410114 295.147195 
L 136.749733 294.105301 
L 137.089352 289.169137 
L 137.428972 307.25857 
L 137.768591 304.612131 
L 138.10821 298.934568 
L 138.44783 300.427178 
L 138.787449 306.682265 
L 139.127068 297.490452 
L 139.466687 296.434866 
L 139.806307 303.063279 
L 140.485545 295.320071 
L 140.825165 297.976422 
L 141.164784 295.209714 
L 141.504403 298.095128 
L 141.844022 302.437313 
L 142.183642 309.111315 
L 142.86288 304.436328 
L 143.2025 299.782499 
L 143.542119 303.214086 
L 143.881738 302.075068 
L 144.221357 309.642229 
L 144.560977 312.725661 
L 144.900596 310.867211 
L 145.240215 315.445984 
L 145.579835 307.711134 
L 145.919454 306.11907 
L 146.259073 306.645854 
L 146.598692 306.889588 
L 146.938312 298.05374 
L 147.277931 307.667316 
L 147.61755 322.333657 
L 147.95717 316.752523 
L 148.296789 315.653738 
L 148.636408 317.992726 
L 148.976027 322.020527 
L 149.315647 321.378208 
L 149.655266 317.955856 
L 149.994885 320.333035 
L 150.334505 305.777595 
L 150.674124 317.404897 
L 151.013743 322.616632 
L 151.353362 333.783693 
L 151.692982 325.692472 
L 152.032601 334.464825 
L 152.71184 328.189168 
L 153.051459 329.480642 
L 153.391078 316.95744 
L 154.070317 312.736922 
L 154.409936 323.998922 
L 154.749555 318.872609 
L 155.089175 320.118557 
L 155.428794 319.547486 
L 155.768413 318.163551 
L 156.108032 328.47443 
L 156.447652 331.283636 
L 156.787271 325.920156 
L 157.12689 342.946585 
L 157.46651 328.811008 
L 157.806129 327.355928 
L 158.145748 330.249596 
L 158.485367 330.550748 
L 158.824987 337.912009 
L 159.164606 338.166009 
L 159.504225 330.621776 
L 159.843845 326.0791 
L 160.183464 316.42193 
L 160.862702 336.089224 
L 161.541941 345.147805 
L 161.88156 342.82193 
L 162.22118 339.434628 
L 162.560799 340.351066 
L 162.900418 334.891216 
L 163.579657 343.192601 
L 163.919276 346.483899 
L 164.258895 354.229732 
L 164.598514 358.051117 
L 164.938134 358.12518 
L 165.277753 344.797388 
L 165.956992 336.268956 
L 166.63623 359.593741 
L 166.975849 357.83527 
L 167.994707 343.788222 
L 168.334327 345.898159 
L 168.673946 339.205405 
L 169.692804 363.449492 
L 170.032423 363.615984 
L 170.372042 357.745813 
L 170.711662 361.318712 
L 171.3909 346.975837 
L 171.730519 364.912351 
L 172.070139 356.331945 
L 172.409758 369.409772 
L 173.088997 353.511592 
L 173.428616 356.088928 
L 173.768235 365.043945 
L 174.107854 365.951582 
L 174.787093 364.14926 
L 175.126712 364.148813 
L 175.466332 363.882008 
L 175.805951 362.210306 
L 176.14557 369.450973 
L 176.485189 367.983923 
L 176.824809 357.786952 
L 177.164428 363.406757 
L 177.504047 366.773333 
L 177.843667 360.297988 
L 178.183286 377.327611 
L 178.522905 365.454121 
L 178.862524 369.728275 
L 179.202144 367.69709 
L 179.541763 367.268 
L 179.881382 362.602262 
L 180.560621 371.883365 
L 180.90024 363.567686 
L 181.239859 379.787141 
L 181.579479 374.95448 
L 181.919098 380.270674 
L 182.258717 379.888223 
L 182.598337 364.605764 
L 182.937956 368.476471 
L 183.277575 369.272212 
L 183.617194 380.739224 
L 183.956814 380.847906 
L 184.296433 375.973533 
L 184.975672 369.983028 
L 185.315291 372.071296 
L 185.65491 370.417481 
L 185.994529 370.149036 
L 186.334149 382.748802 
L 186.673768 378.911114 
L 187.013387 373.1099 
L 187.353007 371.33171 
L 188.371864 384.921226 
L 188.711484 381.741333 
L 189.051103 373.310133 
L 189.390722 386.213084 
L 189.730342 385.663196 
L 190.069961 388.146178 
L 190.40958 378.89218 
L 190.749199 381.751061 
L 191.088819 382.822323 
L 191.428438 382.059373 
L 191.768057 378.123985 
L 192.107677 380.864508 
L 192.447296 396.945437 
L 192.786915 385.292503 
L 193.126534 380.121582 
L 193.466154 381.242285 
L 193.805773 386.639688 
L 194.145392 381.4969 
L 194.485012 378.84045 
L 194.824631 382.25424 
L 195.16425 382.624197 
L 195.503869 386.79521 
L 195.843489 384.790828 
L 196.183108 391.395073 
L 196.183108 391.395073 
" style="fill:none;stroke:#ff0000;stroke-linecap:square;stroke-width:1.5;"/>
   </g>
   <g id="patch_8">
    <path d="M 14.3 421.3 
L 14.3 239.28 
" style="fill:none;stroke:#000000;stroke-linecap:square;stroke-linejoin:miter;stroke-width:0.8;"/>
   </g>
   <g id="patch_9">
    <path d="M 205.2 421.3 
L 205.2 239.28 
" style="fill:none;stroke:#000000;stroke-linecap:square;stroke-linejoin:miter;stroke-width:0.8;"/>
   </g>
   <g id="patch_10">
    <path d="M 14.3 421.3 
L 205.2 421.3 
" style="fill:none;stroke:#000000;stroke-linecap:square;stroke-linejoin:miter;stroke-width:0.8;"/>
   </g>
   <g id="patch_11">
    <path d="M 14.3 239.28 
L 205.2 239.28 
" style="fill:none;stroke:#000000;stroke-linecap:square;stroke-linejoin:miter;stroke-width:0.8;"/>
   </g>
   <g id="text_2">
    <!-- EMA: 0.5 -->
    <defs>
     <path d="M 10.796875 72.90625 
L 49.515625 72.90625 
L 49.515625 64.59375 
L 19.828125 64.59375 
L 19.828125 46.734375 
Q 21.96875 47.46875 24.109375 47.828125 
Q 26.265625 48.1875 28.421875 48.1875 
Q 40.625 48.1875 47.75 41.5 
Q 54.890625 34.8125 54.890625 23.390625 
Q 54.890625 11.625 47.5625 5.09375 
Q 40.234375 -1.421875 26.90625 -1.421875 
Q 22.3125 -1.421875 17.546875 -0.640625 
Q 12.796875 0.140625 7.71875 1.703125 
L 7.71875 11.625 
Q 12.109375 9.234375 16.796875 8.0625 
Q 21.484375 6.890625 26.703125 6.890625 
Q 35.15625 6.890625 40.078125 11.328125 
Q 45.015625 15.765625 45.015625 23.390625 
Q 45.015625 31 40.078125 35.4375 
Q 35.15625 39.890625 26.703125 39.890625 
Q 22.75 39.890625 18.8125 39.015625 
Q 14.890625 38.140625 10.796875 36.28125 
z
" id="DejaVuSans-53"/>
    </defs>
    <g transform="translate(83.3125 233.28)scale(0.12 -0.12)">
     <use xlink:href="#DejaVuSans-69"/>
     <use x="63.183594" xlink:href="#DejaVuSans-77"/>
     <use x="149.462891" xlink:href="#DejaVuSans-65"/>
     <use x="216.121094" xlink:href="#DejaVuSans-58"/>
     <use x="249.8125" xlink:href="#DejaVuSans-32"/>
     <use x="281.599609" xlink:href="#DejaVuSans-48"/>
     <use x="345.222656" xlink:href="#DejaVuSans-46"/>
     <use x="377.009766" xlink:href="#DejaVuSans-53"/>
    </g>
   </g>
  </g>
  <g id="axes_3">
   <g id="patch_12">
    <path d="M 14.3 633.7 
L 205.2 633.7 
L 205.2 451.68 
L 14.3 451.68 
z
" style="fill:#ffffff;"/>
   </g>
   <g id="matplotlib.axis_5"/>
   <g id="matplotlib.axis_6"/>
   <g id="line2d_5">
    <path clip-path="url(#pdc6d0998e4)" d="M 22.977273 581.693267 
L 23.316892 597.661426 
L 23.656511 579.644338 
L 23.996131 590.710537 
L 24.33575 582.125549 
L 24.675369 588.836018 
L 25.014988 584.844259 
L 25.354608 592.375187 
L 25.694227 572.663145 
L 26.033846 590.790372 
L 26.373466 587.596963 
L 26.713085 571.105041 
L 27.052704 606.533306 
L 27.392323 605.49775 
L 27.731943 580.622766 
L 28.071562 604.035057 
L 28.411181 569.482494 
L 28.750801 595.246617 
L 29.09042 598.705458 
L 29.430039 569.050219 
L 29.769658 573.691524 
L 30.109278 569.184904 
L 30.448897 579.532505 
L 30.788516 598.752623 
L 31.128136 567.950372 
L 31.467755 591.683639 
L 31.807374 579.610905 
L 32.146993 577.732234 
L 32.486613 589.589455 
L 32.826232 580.817419 
L 33.165851 577.118502 
L 33.505471 582.823055 
L 33.84509 598.770155 
L 34.524328 571.38466 
L 34.863948 593.319448 
L 35.203567 586.971431 
L 35.543186 589.768665 
L 35.882806 564.238567 
L 36.222425 576.846979 
L 36.562044 579.397287 
L 36.901663 591.997713 
L 37.241283 577.190008 
L 37.580902 590.177119 
L 37.920521 582.002379 
L 38.260141 588.961485 
L 38.59976 574.095319 
L 38.939379 574.784982 
L 39.278998 583.018092 
L 39.618618 575.936345 
L 39.958237 591.918065 
L 40.297856 595.872595 
L 40.637476 574.157402 
L 40.977095 576.717998 
L 41.316714 571.106373 
L 41.656333 551.386289 
L 42.335572 586.780773 
L 42.675191 563.940157 
L 43.014811 590.274471 
L 43.35443 580.377888 
L 43.694049 575.556315 
L 44.033668 555.431211 
L 44.373288 582.022936 
L 44.712907 582.421504 
L 45.052526 573.892665 
L 45.392146 579.608256 
L 45.731765 559.365339 
L 46.071384 583.161712 
L 46.411003 583.381272 
L 46.750623 575.031757 
L 47.090242 575.161855 
L 47.429861 547.872134 
L 48.448719 581.002246 
L 48.788338 557.638845 
L 49.127958 577.408394 
L 49.467577 582.847753 
L 49.807196 552.166574 
L 50.146816 561.196959 
L 50.486435 553.969082 
L 50.826054 560.028474 
L 51.165673 553.518954 
L 51.505293 569.552778 
L 51.844912 573.18971 
L 52.184531 553.69167 
L 52.524151 569.464138 
L 52.86377 567.613948 
L 53.203389 564.436682 
L 53.543008 558.622827 
L 53.882628 562.112515 
L 54.222247 572.756906 
L 54.561866 564.08828 
L 54.901486 580.885895 
L 55.241105 548.879445 
L 55.580724 572.807851 
L 55.920343 566.704621 
L 56.259963 553.338356 
L 56.599582 561.44021 
L 56.939201 535.660897 
L 57.27882 566.285502 
L 57.61844 548.466339 
L 57.958059 551.211604 
L 58.297678 563.018994 
L 58.637298 543.746133 
L 58.976917 550.767883 
L 59.316536 539.735549 
L 59.656155 538.527689 
L 59.995775 523.124517 
L 60.335394 531.594604 
L 60.675013 549.750338 
L 61.014633 547.677584 
L 61.354252 532.278058 
L 61.693871 536.531389 
L 62.03349 536.053502 
L 62.37311 560.281594 
L 62.712729 542.084895 
L 63.052348 549.30382 
L 63.391968 537.43934 
L 63.731587 540.959016 
L 64.071206 529.200221 
L 64.410825 535.087742 
L 64.750445 529.271162 
L 65.090064 542.429735 
L 65.429683 547.051019 
L 66.108922 535.538409 
L 66.448541 530.527071 
L 66.78816 509.162625 
L 67.12778 533.881848 
L 67.467399 543.307247 
L 67.807018 535.942681 
L 68.146638 536.597008 
L 68.486257 525.541367 
L 68.825876 547.187384 
L 69.165495 528.87197 
L 69.844734 525.737317 
L 70.184353 534.244007 
L 70.523973 529.650522 
L 70.863592 542.090593 
L 71.203211 531.204132 
L 71.54283 531.122278 
L 71.88245 519.929046 
L 72.222069 536.631244 
L 72.561688 514.659198 
L 72.901308 506.178931 
L 73.240927 544.842195 
L 73.580546 516.718084 
L 73.920165 513.343046 
L 74.259785 527.216883 
L 74.939023 520.443623 
L 75.278643 521.658503 
L 75.618262 521.182534 
L 75.957881 535.65017 
L 76.2975 503.887855 
L 76.63712 504.098449 
L 76.976739 524.371742 
L 77.316358 530.984179 
L 77.655978 508.500793 
L 77.995597 520.010553 
L 78.335216 511.526762 
L 78.674835 516.039461 
L 79.014455 504.332548 
L 79.354074 503.733813 
L 79.693693 518.826595 
L 80.033313 525.519518 
L 80.372932 527.167045 
L 80.712551 502.448659 
L 81.05217 521.732732 
L 81.39179 513.676983 
L 81.731409 514.12792 
L 82.071028 507.60474 
L 82.410648 527.836785 
L 82.750267 503.896213 
L 83.089886 499.685548 
L 83.769125 507.863343 
L 84.448363 499.037207 
L 84.787983 533.494964 
L 85.127602 480.897261 
L 85.467221 497.66866 
L 85.80684 508.678125 
L 86.14646 505.322987 
L 86.486079 495.104886 
L 86.825698 501.362047 
L 87.165318 522.002853 
L 87.504937 476.420907 
L 87.844556 499.942786 
L 88.184175 487.040515 
L 88.523795 505.473271 
L 88.863414 480.485306 
L 89.203033 493.836031 
L 89.542653 489.863035 
L 89.882272 507.67816 
L 90.221891 482.405094 
L 90.56151 487.748781 
L 90.90113 480.608763 
L 91.240749 501.487465 
L 91.580368 499.483571 
L 91.919988 468.416078 
L 92.259607 505.116031 
L 92.599226 494.568048 
L 92.938845 480.18283 
L 93.278465 491.28252 
L 93.618084 485.589617 
L 93.957703 496.076609 
L 94.297323 487.26389 
L 94.636942 505.413847 
L 94.976561 472.423442 
L 95.31618 491.685445 
L 95.6558 497.572621 
L 95.995419 482.433813 
L 96.674658 503.902259 
L 97.014277 503.760374 
L 97.353896 481.001646 
L 97.693515 490.14021 
L 98.033135 489.596643 
L 98.372754 475.994915 
L 98.712373 500.04504 
L 99.731231 485.896594 
L 100.07085 487.185025 
L 100.41047 489.672927 
L 100.750089 486.988843 
L 101.089708 487.297773 
L 101.429328 493.858175 
L 101.768947 494.707414 
L 102.108566 482.550346 
L 102.448185 495.22825 
L 102.787805 498.006533 
L 103.127424 488.543314 
L 103.467043 486.696189 
L 103.806663 459.953636 
L 104.146282 492.460545 
L 104.485901 474.179016 
L 104.82552 476.226394 
L 105.16514 497.456909 
L 105.504759 475.734915 
L 106.183998 513.386407 
L 106.523617 477.324562 
L 106.863236 503.288118 
L 107.202855 478.907997 
L 107.542475 491.362096 
L 107.882094 465.490264 
L 108.221713 471.96564 
L 108.561333 488.706707 
L 108.900952 491.267605 
L 109.240571 497.05163 
L 109.58019 488.523788 
L 109.91981 486.754322 
L 110.259429 487.691332 
L 110.938667 477.334982 
L 111.278287 479.887495 
L 111.617906 492.199629 
L 111.957525 499.668835 
L 112.297145 468.84006 
L 112.636764 491.535825 
L 112.976383 491.194608 
L 113.316002 489.825616 
L 113.655622 504.476201 
L 113.995241 489.523565 
L 114.33486 489.64047 
L 114.67448 477.624074 
L 115.014099 476.876776 
L 115.353718 484.65312 
L 115.693337 474.553896 
L 116.032957 481.212233 
L 116.372576 485.27464 
L 116.712195 483.478914 
L 117.051815 487.511295 
L 117.391434 489.926827 
L 117.731053 488.698599 
L 118.070672 498.358862 
L 118.410292 483.024762 
L 118.749911 497.254038 
L 119.08953 477.236538 
L 119.42915 489.469351 
L 119.768769 486.390918 
L 120.108388 481.717437 
L 120.448007 480.300504 
L 120.787627 504.935735 
L 121.466865 478.423576 
L 121.806485 507.094995 
L 122.146104 484.379227 
L 122.485723 513.775959 
L 123.164962 489.058898 
L 123.504581 508.034593 
L 123.8442 500.937417 
L 124.18382 506.603038 
L 124.523439 472.533597 
L 124.863058 489.20598 
L 125.202677 485.090347 
L 125.542297 494.128542 
L 125.881916 495.908681 
L 126.221535 510.173171 
L 126.561155 495.927567 
L 126.900774 501.461591 
L 127.240393 483.980138 
L 127.919632 478.020755 
L 128.259251 485.170666 
L 128.59887 501.55247 
L 128.93849 507.647948 
L 129.278109 487.303333 
L 129.617728 492.232978 
L 129.957347 516.062031 
L 130.296967 493.074122 
L 130.636586 488.440247 
L 130.976205 497.197444 
L 131.315825 500.322233 
L 131.995063 515.112791 
L 132.334682 490.805136 
L 132.674302 503.489043 
L 133.013921 503.118797 
L 133.35354 481.919876 
L 133.69316 493.945243 
L 134.372398 500.886079 
L 134.712017 486.190208 
L 135.051637 484.484689 
L 135.391256 493.6904 
L 135.730875 498.021171 
L 136.070495 528.028523 
L 136.410114 504.095453 
L 136.749733 507.410364 
L 137.089352 505.463409 
L 137.428972 496.632978 
L 137.768591 537.748001 
L 138.10821 514.365692 
L 138.44783 505.657008 
L 139.127068 525.337353 
L 139.466687 500.698639 
L 139.806307 507.77928 
L 140.145926 522.091692 
L 140.485545 508.484058 
L 140.825165 503.46647 
L 141.164784 513.032775 
L 141.504403 504.843004 
L 142.523261 528.185318 
L 142.86288 516.942922 
L 143.2025 514.445539 
L 143.542119 507.528669 
L 143.881738 519.045676 
L 144.221357 513.33605 
L 144.560977 529.609389 
L 144.900596 528.209095 
L 145.240215 521.408763 
L 145.579835 532.424756 
L 145.919454 512.376284 
L 146.259073 516.927004 
L 146.598692 519.57264 
L 146.938312 519.533323 
L 147.277931 501.617888 
L 147.95717 549.399998 
L 148.296789 523.571388 
L 148.636408 526.954952 
L 149.315647 538.448328 
L 149.994885 526.933504 
L 150.334505 535.110215 
L 150.674124 503.622156 
L 151.013743 541.432199 
L 151.353362 540.228368 
L 151.692982 557.350754 
L 152.032601 530.001251 
L 152.37222 555.637178 
L 152.71184 540.005287 
L 153.051459 537.74328 
L 153.391078 543.172117 
L 153.730697 516.834237 
L 154.070317 525.684796 
L 154.409936 522.752725 
L 154.749555 547.660923 
L 155.089175 526.146296 
L 155.428794 533.764504 
L 156.108032 529.179616 
L 156.447652 551.185308 
L 156.787271 546.492842 
L 157.12689 532.956676 
L 157.46651 572.373012 
L 157.806129 527.075431 
L 158.145748 538.300848 
L 158.485367 545.543263 
L 158.824987 543.2519 
L 159.164606 557.673271 
L 159.504225 550.820011 
L 159.843845 535.477543 
L 160.183464 533.936425 
L 160.523083 519.164759 
L 160.862702 550.327353 
L 161.202322 557.403806 
L 161.541941 556.445615 
L 161.88156 562.628193 
L 162.22118 552.896054 
L 162.560799 548.447326 
L 162.900418 553.667503 
L 163.240037 541.831366 
L 163.579657 557.115285 
L 163.919276 558.981953 
L 164.258895 562.175198 
L 164.598514 574.375564 
L 164.938134 574.272501 
L 165.277753 570.599243 
L 165.617372 543.869595 
L 165.956992 548.949589 
L 166.296611 544.264423 
L 166.63623 574.696148 
L 166.975849 582.304927 
L 167.315469 568.476799 
L 167.655088 559.854705 
L 167.994707 556.882791 
L 168.334327 551.412555 
L 168.673946 560.408095 
L 169.013565 544.912652 
L 169.353184 567.142837 
L 170.032423 584.351414 
L 170.372042 576.182474 
L 170.711662 564.275647 
L 171.051281 577.291609 
L 171.3909 557.72487 
L 171.730519 553.029882 
L 172.070139 595.248866 
L 172.409758 560.151541 
L 172.749377 594.887602 
L 173.088997 566.311489 
L 173.428616 557.762557 
L 174.107854 586.398963 
L 174.447474 579.25922 
L 174.787093 576.197426 
L 175.126712 575.824018 
L 175.466332 576.548368 
L 175.805951 576.015205 
L 176.14557 572.938607 
L 176.485189 589.091642 
L 176.824809 578.916874 
L 177.164428 559.989984 
L 177.504047 581.426564 
L 177.843667 582.539908 
L 178.183286 566.22264 
L 178.522905 606.757235 
L 178.862524 565.980631 
L 179.202144 586.402428 
L 179.541763 578.065906 
L 179.881382 579.238909 
L 180.221002 570.336523 
L 180.560621 584.087993 
L 180.90024 589.021597 
L 181.239859 567.652003 
L 181.579479 608.406593 
L 181.919098 582.521819 
L 182.258717 597.986866 
L 182.598337 591.905775 
L 182.937956 561.723303 
L 183.277575 584.747183 
L 183.617194 582.467955 
L 183.956814 604.606234 
L 184.636052 583.499156 
L 184.975672 582.092102 
L 185.315291 579.533233 
L 185.65491 586.559565 
L 185.994529 581.163662 
L 186.334149 582.280591 
L 186.673768 607.748563 
L 187.013387 587.473421 
L 187.353007 579.708685 
L 187.692626 581.95352 
L 188.032245 592.739976 
L 188.711484 601.58574 
L 189.390722 577.278938 
L 189.730342 611.51603 
L 190.069961 597.513312 
L 190.40958 603.02917 
L 190.749199 582.038181 
L 191.088819 597.009948 
L 191.428438 596.293592 
L 191.768057 593.696424 
L 192.107677 586.588596 
L 192.447296 596.00503 
L 192.786915 625.426364 
L 193.126534 586.039574 
L 193.466154 587.350658 
L 194.145392 604.437093 
L 194.485012 588.754115 
L 194.824631 588.583997 
L 195.16425 598.068022 
L 195.503869 595.394152 
L 195.843489 603.366228 
L 196.183108 595.186444 
L 196.522727 610.399324 
L 196.522727 610.399324 
" style="fill:none;stroke:#0000ff;stroke-linecap:square;stroke-width:1.5;"/>
   </g>
   <g id="line2d_6">
    <path clip-path="url(#pdc6d0998e4)" d="M 22.977273 583.290084 
L 23.316892 582.92551 
L 23.656511 583.704014 
L 23.996131 583.546166 
L 24.33575 584.07515 
L 24.675369 584.152061 
L 25.014988 584.974374 
L 25.354608 583.743251 
L 25.694227 584.447965 
L 26.033846 584.762865 
L 26.373466 583.397081 
L 27.052704 587.689411 
L 27.392323 586.982746 
L 27.731943 588.687979 
L 28.071562 586.767431 
L 28.750801 588.724362 
L 29.09042 586.756948 
L 29.769658 583.823856 
L 30.109278 583.39472 
L 30.448897 584.930512 
L 30.788516 583.232498 
L 31.128136 584.077613 
L 31.807374 583.041072 
L 32.146993 583.695912 
L 32.486613 583.408061 
L 32.826232 582.779104 
L 33.165851 582.783499 
L 33.505471 584.382165 
L 33.84509 584.248424 
L 34.184709 582.962047 
L 34.524328 583.997786 
L 34.863948 584.295152 
L 35.203567 584.842505 
L 35.543186 582.78211 
L 35.882806 582.188597 
L 36.222425 581.909466 
L 36.562044 582.918291 
L 36.901663 582.345462 
L 37.241283 583.128627 
L 37.580902 583.016004 
L 37.920521 583.610551 
L 38.59976 581.871621 
L 38.939379 581.986268 
L 39.278998 581.381277 
L 39.958237 583.778721 
L 40.297856 582.816588 
L 40.637476 582.206729 
L 40.977095 581.096693 
L 41.316714 578.125652 
L 41.656333 576.991034 
L 41.995953 577.970009 
L 42.335572 576.567024 
L 42.675191 577.93777 
L 43.014811 578.181783 
L 43.35443 577.919237 
L 43.694049 575.670435 
L 44.373288 576.917266 
L 44.712907 576.614807 
L 45.052526 576.914153 
L 45.392146 575.159272 
L 46.071384 576.701692 
L 46.750623 576.397413 
L 47.090242 573.544884 
L 47.429861 572.003511 
L 47.769481 571.511466 
L 48.1091 572.460544 
L 48.448719 570.978373 
L 48.788338 571.621376 
L 49.127958 572.744014 
L 49.467577 570.686269 
L 49.807196 569.737339 
L 50.146816 568.160513 
L 50.486435 567.347307 
L 50.826054 565.964472 
L 51.165673 566.323302 
L 51.505293 567.009943 
L 51.844912 565.678115 
L 52.184531 566.056718 
L 52.524151 566.212441 
L 52.86377 566.034865 
L 53.203389 565.293661 
L 53.543008 564.975546 
L 53.882628 565.753682 
L 54.222247 565.587141 
L 54.561866 567.117016 
L 54.901486 565.293259 
L 55.241105 566.044717 
L 55.580724 566.110708 
L 55.920343 564.833473 
L 56.259963 564.494146 
L 56.599582 561.61082 
L 56.939201 562.078289 
L 57.61844 559.766544 
L 57.958059 560.091789 
L 58.297678 558.457223 
L 58.637298 557.688289 
L 59.316536 554.156482 
L 59.656155 551.053285 
L 59.995775 549.107417 
L 60.335394 549.171709 
L 60.675013 549.022296 
L 61.014633 547.347872 
L 61.693871 545.244951 
L 62.03349 546.748615 
L 62.37311 546.282243 
L 62.712729 546.584401 
L 63.052348 545.669894 
L 63.391968 545.198806 
L 63.731587 543.598947 
L 64.071206 542.747827 
L 64.410825 541.40016 
L 64.750445 541.503118 
L 65.090064 542.057908 
L 65.429683 541.903675 
L 65.769303 541.267149 
L 66.108922 540.193141 
L 66.448541 537.090088 
L 66.78816 536.769264 
L 67.12778 537.423062 
L 67.807018 537.207223 
L 68.146638 536.040637 
L 68.486257 537.155312 
L 69.505115 534.447227 
L 69.844734 534.426905 
L 70.184353 533.949267 
L 70.523973 534.763399 
L 71.203211 534.078953 
L 71.54283 532.663962 
L 71.88245 533.06069 
L 72.222069 531.220541 
L 72.561688 528.716379 
L 72.901308 530.328961 
L 73.580546 527.40539 
L 73.920165 527.386539 
L 74.259785 527.044127 
L 74.939023 525.911519 
L 75.278643 525.438621 
L 75.618262 526.459776 
L 76.2975 522.192169 
L 76.63712 522.410127 
L 76.976739 523.267532 
L 77.316358 521.790857 
L 77.655978 521.612826 
L 77.995597 520.60422 
L 78.335216 520.147744 
L 79.014455 517.082983 
L 79.354074 517.257344 
L 80.033313 518.991911 
L 80.372932 517.337585 
L 80.712551 517.777099 
L 81.39179 517.04317 
L 81.731409 516.099327 
L 82.071028 517.273072 
L 83.089886 513.276497 
L 83.429505 512.735181 
L 84.108744 510.476641 
L 84.448363 512.778474 
L 84.787983 509.590351 
L 85.127602 508.398183 
L 85.467221 508.426178 
L 85.80684 508.115859 
L 86.14646 506.814762 
L 86.486079 506.269492 
L 86.825698 507.84283 
L 87.165318 504.700637 
L 87.504937 504.224851 
L 87.844556 502.506419 
L 88.184175 502.803104 
L 88.523795 500.571324 
L 88.863414 499.897794 
L 89.203033 498.894319 
L 89.542653 499.772704 
L 89.882272 498.035942 
L 90.221891 497.007227 
L 90.56151 495.36738 
L 90.90113 495.979389 
L 91.240749 496.329809 
L 91.580368 493.538435 
L 91.919988 494.696195 
L 92.259607 494.68338 
L 92.599226 493.233322 
L 92.938845 493.038241 
L 93.278465 492.293378 
L 93.618084 492.6717 
L 93.957703 492.130919 
L 94.297323 493.459213 
L 94.636942 491.355637 
L 94.976561 491.388617 
L 95.31618 492.007018 
L 95.6558 491.049696 
L 95.995419 491.400907 
L 96.674658 493.761974 
L 97.014277 492.485943 
L 97.693515 491.985897 
L 98.033135 490.386797 
L 98.372754 491.352622 
L 98.712373 491.761563 
L 99.051993 491.725505 
L 99.731231 490.746856 
L 100.07085 490.639464 
L 100.750089 489.976739 
L 101.429328 490.799137 
L 101.768947 489.97426 
L 102.108566 490.49966 
L 102.448185 491.250347 
L 102.787805 490.979643 
L 103.127424 490.551298 
L 103.467043 487.49153 
L 103.806663 487.988433 
L 104.485901 485.569379 
L 104.82552 486.758132 
L 105.16514 485.65581 
L 105.504759 486.811419 
L 105.844378 489.468919 
L 106.183998 488.254484 
L 106.523617 489.757847 
L 106.863236 488.67286 
L 107.202855 488.941784 
L 107.542475 486.596632 
L 107.882094 485.133533 
L 108.221713 485.490849 
L 108.561333 486.068525 
L 108.900952 487.166836 
L 109.240571 487.302532 
L 109.91981 487.292075 
L 110.259429 486.758933 
L 110.599048 485.816538 
L 110.938667 485.223633 
L 111.278287 485.921233 
L 111.617906 487.295993 
L 111.957525 485.450397 
L 112.636764 486.572506 
L 112.976383 486.897817 
L 113.316002 488.655658 
L 113.995241 488.832248 
L 114.67448 486.627964 
L 115.014099 486.430479 
L 115.353718 485.24282 
L 115.693337 484.839761 
L 116.032957 484.883247 
L 116.372576 484.742813 
L 116.712195 485.019662 
L 117.391434 485.829199 
L 117.731053 487.082165 
L 118.070672 486.676426 
L 118.410292 487.734187 
L 118.749911 486.68442 
L 119.08953 486.962914 
L 119.42915 486.905716 
L 120.108388 485.778247 
L 120.448007 487.693997 
L 120.787627 487.939784 
L 121.127246 486.988164 
L 121.466865 488.998848 
L 121.806485 488.536886 
L 122.146104 491.060793 
L 122.485723 492.001385 
L 122.825342 491.707136 
L 123.164962 493.339883 
L 123.504581 494.099638 
L 123.8442 495.349977 
L 124.18382 493.068338 
L 124.523439 492.682101 
L 124.863058 491.922924 
L 125.202677 492.143485 
L 125.542297 492.520004 
L 125.881916 494.285322 
L 126.221535 494.449548 
L 126.561155 495.150751 
L 127.240393 492.753363 
L 127.580012 491.280102 
L 127.919632 490.669157 
L 128.259251 491.757487 
L 128.59887 493.346534 
L 128.93849 492.742213 
L 129.278109 492.69129 
L 129.617728 495.028363 
L 129.957347 494.832938 
L 130.296967 494.193669 
L 130.636586 494.494046 
L 130.976205 495.076865 
L 131.315825 496.331677 
L 131.655444 498.20979 
L 131.995063 497.469324 
L 132.674302 498.576046 
L 133.013921 496.91043 
L 133.35354 496.613912 
L 133.69316 496.740622 
L 134.032779 497.155166 
L 134.712017 494.901273 
L 135.051637 494.780186 
L 135.391256 495.104285 
L 135.730875 498.39671 
L 136.070495 498.966586 
L 136.749733 500.376207 
L 137.089352 500.001885 
L 137.428972 503.776499 
L 137.768591 504.835419 
L 138.10821 504.917578 
L 138.44783 505.857798 
L 138.787449 507.805754 
L 139.127068 507.095043 
L 139.466687 507.163467 
L 139.806307 508.656288 
L 140.145926 508.639066 
L 140.485545 508.121807 
L 140.825165 508.612904 
L 141.164784 508.235915 
L 141.504403 508.750379 
L 141.844022 509.793291 
L 142.183642 511.632494 
L 142.523261 512.163537 
L 142.86288 512.391738 
L 143.2025 511.905431 
L 143.542119 512.619456 
L 143.881738 512.691115 
L 144.560977 515.765557 
L 144.900596 516.329878 
L 145.240215 517.939366 
L 145.579835 517.383057 
L 145.919454 517.337452 
L 146.598692 517.758207 
L 146.938312 516.144175 
L 147.277931 517.497846 
L 147.61755 520.688061 
L 147.95717 520.976394 
L 148.296789 521.57425 
L 148.636408 522.689997 
L 148.976027 524.265831 
L 149.315647 525.152837 
L 149.655266 525.330904 
L 149.994885 526.308835 
L 150.334505 524.040167 
L 151.013743 527.224271 
L 151.353362 530.23692 
L 151.692982 530.213353 
L 152.032601 532.755737 
L 152.37222 533.480692 
L 152.71184 533.906951 
L 153.051459 534.833468 
L 153.391078 533.033544 
L 154.070317 531.344074 
L 154.409936 532.975759 
L 154.749555 532.292813 
L 155.089175 532.439982 
L 155.428794 532.333626 
L 155.768413 532.018225 
L 156.108032 533.934933 
L 156.447652 535.190725 
L 156.787271 534.96732 
L 157.12689 538.70789 
L 157.46651 537.544644 
L 157.806129 537.620264 
L 158.145748 538.412564 
L 158.485367 538.896498 
L 158.824987 540.774176 
L 159.164606 541.778759 
L 159.843845 540.427416 
L 160.183464 538.30115 
L 160.523083 539.503771 
L 161.541941 544.790883 
L 161.88156 545.6014 
L 162.22118 545.885993 
L 162.560799 546.664144 
L 162.900418 546.180866 
L 163.919276 549.818086 
L 164.598514 554.473703 
L 164.938134 556.086258 
L 165.277753 554.864592 
L 165.617372 554.273091 
L 165.956992 553.272224 
L 166.975849 559.140964 
L 167.315469 559.212337 
L 167.655088 558.979382 
L 167.994707 558.2227 
L 168.334327 558.44124 
L 168.673946 557.08838 
L 169.013565 558.093826 
L 169.353184 559.816545 
L 169.692804 562.270033 
L 170.032423 563.661277 
L 170.372042 563.722714 
L 170.711662 565.079604 
L 171.051281 564.34413 
L 171.3909 563.212705 
L 171.730519 566.416322 
L 172.070139 565.789843 
L 172.409758 568.699619 
L 172.749377 568.460805 
L 173.088997 567.390981 
L 173.428616 567.758508 
L 173.768235 569.622554 
L 174.107854 570.586221 
L 175.126712 572.108345 
L 175.466332 572.499032 
L 175.805951 572.542988 
L 176.14557 574.197854 
L 176.485189 574.669758 
L 176.824809 573.201779 
L 177.504047 574.875821 
L 177.843667 574.010505 
L 178.183286 577.285177 
L 178.522905 576.154723 
L 178.862524 577.179494 
L 179.541763 577.465213 
L 179.881382 576.752345 
L 180.221002 577.485911 
L 180.560621 578.639479 
L 180.90024 577.540731 
L 181.239859 580.627319 
L 181.579479 580.816767 
L 181.919098 582.533778 
L 182.258717 583.470977 
L 182.598337 581.296208 
L 182.937956 581.641307 
L 183.277575 581.723971 
L 183.617194 584.012198 
L 183.956814 584.946638 
L 184.296433 584.801892 
L 184.636052 584.530912 
L 184.975672 584.031145 
L 185.315291 584.283986 
L 185.994529 583.802817 
L 186.334149 586.197394 
L 186.673768 586.324997 
L 187.013387 585.663366 
L 187.353007 585.292381 
L 187.692626 586.037139 
L 188.371864 588.65764 
L 188.711484 588.88802 
L 189.051103 587.727111 
L 189.390722 590.106002 
L 189.730342 590.846734 
L 190.069961 592.064976 
L 190.40958 591.062296 
L 191.088819 592.120713 
L 191.428438 592.278285 
L 191.768057 591.709315 
L 192.107677 592.138888 
L 192.447296 595.467636 
L 193.126534 593.80741 
L 193.466154 593.902969 
L 193.805773 594.956384 
L 194.485012 593.760938 
L 194.824631 594.191648 
L 195.16425 594.311897 
L 195.503869 595.217331 
L 195.843489 595.214244 
L 196.183108 596.732754 
L 196.183108 596.732754 
" style="fill:none;stroke:#ff0000;stroke-linecap:square;stroke-width:1.5;"/>
   </g>
   <g id="patch_13">
    <path d="M 14.3 633.7 
L 14.3 451.68 
" style="fill:none;stroke:#000000;stroke-linecap:square;stroke-linejoin:miter;stroke-width:0.8;"/>
   </g>
   <g id="patch_14">
    <path d="M 205.2 633.7 
L 205.2 451.68 
" style="fill:none;stroke:#000000;stroke-linecap:square;stroke-linejoin:miter;stroke-width:0.8;"/>
   </g>
   <g id="patch_15">
    <path d="M 14.3 633.7 
L 205.2 633.7 
" style="fill:none;stroke:#000000;stroke-linecap:square;stroke-linejoin:miter;stroke-width:0.8;"/>
   </g>
   <g id="patch_16">
    <path d="M 14.3 451.68 
L 205.2 451.68 
" style="fill:none;stroke:#000000;stroke-linecap:square;stroke-linejoin:miter;stroke-width:0.8;"/>
   </g>
   <g id="text_3">
    <!-- EMA: 0.9 -->
    <defs>
     <path d="M 10.984375 1.515625 
L 10.984375 10.5 
Q 14.703125 8.734375 18.5 7.8125 
Q 22.3125 6.890625 25.984375 6.890625 
Q 35.75 6.890625 40.890625 13.453125 
Q 46.046875 20.015625 46.78125 33.40625 
Q 43.953125 29.203125 39.59375 26.953125 
Q 35.25 24.703125 29.984375 24.703125 
Q 19.046875 24.703125 12.671875 31.3125 
Q 6.296875 37.9375 6.296875 49.421875 
Q 6.296875 60.640625 12.9375 67.421875 
Q 19.578125 74.21875 30.609375 74.21875 
Q 43.265625 74.21875 49.921875 64.515625 
Q 56.59375 54.828125 56.59375 36.375 
Q 56.59375 19.140625 48.40625 8.859375 
Q 40.234375 -1.421875 26.421875 -1.421875 
Q 22.703125 -1.421875 18.890625 -0.6875 
Q 15.09375 0.046875 10.984375 1.515625 
z
M 30.609375 32.421875 
Q 37.25 32.421875 41.125 36.953125 
Q 45.015625 41.5 45.015625 49.421875 
Q 45.015625 57.28125 41.125 61.84375 
Q 37.25 66.40625 30.609375 66.40625 
Q 23.96875 66.40625 20.09375 61.84375 
Q 16.21875 57.28125 16.21875 49.421875 
Q 16.21875 41.5 20.09375 36.953125 
Q 23.96875 32.421875 30.609375 32.421875 
z
" id="DejaVuSans-57"/>
    </defs>
    <g transform="translate(83.3125 445.68)scale(0.12 -0.12)">
     <use xlink:href="#DejaVuSans-69"/>
     <use x="63.183594" xlink:href="#DejaVuSans-77"/>
     <use x="149.462891" xlink:href="#DejaVuSans-65"/>
     <use x="216.121094" xlink:href="#DejaVuSans-58"/>
     <use x="249.8125" xlink:href="#DejaVuSans-32"/>
     <use x="281.599609" xlink:href="#DejaVuSans-48"/>
     <use x="345.222656" xlink:href="#DejaVuSans-46"/>
     <use x="377.009766" xlink:href="#DejaVuSans-57"/>
    </g>
   </g>
  </g>
 </g>
 <defs>
  <clipPath id="p21bcdf781a">
   <rect height="182.02" width="190.9" x="14.3" y="26.88"/>
  </clipPath>
  <clipPath id="p1c25eab1d7">
   <rect height="182.02" width="190.9" x="14.3" y="239.28"/>
  </clipPath>
  <clipPath id="pdc6d0998e4">
   <rect height="182.02" width="190.9" x="14.3" y="451.68"/>
  </clipPath>
 </defs>
</svg>
