<?xml version="1.0" encoding="utf-8" standalone="no"?>
<!DOCTYPE svg PUBLIC "-//W3C//DTD SVG 1.1//EN"
  "http://www.w3.org/Graphics/SVG/1.1/DTD/svg11.dtd">
<!-- Created with matplotlib (https://matplotlib.org/) -->
<svg height="345.6pt" version="1.1" viewBox="0 0 460.8 345.6" width="460.8pt" xmlns="http://www.w3.org/2000/svg" xmlns:xlink="http://www.w3.org/1999/xlink">
 <defs>
  <style type="text/css">
*{stroke-linecap:butt;stroke-linejoin:round;}
  </style>
 </defs>
 <g id="figure_1">
  <g id="patch_1">
   <path d="M 0 345.6 
L 460.8 345.6 
L 460.8 0 
L 0 0 
z
" style="fill:#ffffff;"/>
  </g>
  <g id="axes_1">
   <g id="patch_2">
    <path d="M 57.6 307.584 
L 119.172414 307.584 
L 119.172414 41.472 
L 57.6 41.472 
z
" style="fill:#ffffff;"/>
   </g>
   <g id="matplotlib.axis_1">
    <g id="xtick_1">
     <g id="line2d_1">
      <defs>
       <path d="M 0 0 
L 0 3.5 
" id="mb649d4ea11" style="stroke:#000000;stroke-width:0.8;"/>
      </defs>
      <g>
       <use style="stroke:#000000;stroke-width:0.8;" x="60.398746" xlink:href="#mb649d4ea11" y="307.584"/>
      </g>
     </g>
     <g id="text_1">
      <!-- 0 -->
      <defs>
       <path d="M 31.78125 66.40625 
Q 24.171875 66.40625 20.328125 58.90625 
Q 16.5 51.421875 16.5 36.375 
Q 16.5 21.390625 20.328125 13.890625 
Q 24.171875 6.390625 31.78125 6.390625 
Q 39.453125 6.390625 43.28125 13.890625 
Q 47.125 21.390625 47.125 36.375 
Q 47.125 51.421875 43.28125 58.90625 
Q 39.453125 66.40625 31.78125 66.40625 
z
M 31.78125 74.21875 
Q 44.046875 74.21875 50.515625 64.515625 
Q 56.984375 54.828125 56.984375 36.375 
Q 56.984375 17.96875 50.515625 8.265625 
Q 44.046875 -1.421875 31.78125 -1.421875 
Q 19.53125 -1.421875 13.0625 8.265625 
Q 6.59375 17.96875 6.59375 36.375 
Q 6.59375 54.828125 13.0625 64.515625 
Q 19.53125 74.21875 31.78125 74.21875 
z
" id="DejaVuSans-48"/>
      </defs>
      <g transform="translate(57.217496 322.182437)scale(0.1 -0.1)">
       <use xlink:href="#DejaVuSans-48"/>
      </g>
     </g>
    </g>
    <g id="xtick_2">
     <g id="line2d_2">
      <g>
       <use style="stroke:#000000;stroke-width:0.8;" x="91.495925" xlink:href="#mb649d4ea11" y="307.584"/>
      </g>
     </g>
     <g id="text_2">
      <!-- 5 -->
      <defs>
       <path d="M 10.796875 72.90625 
L 49.515625 72.90625 
L 49.515625 64.59375 
L 19.828125 64.59375 
L 19.828125 46.734375 
Q 21.96875 47.46875 24.109375 47.828125 
Q 26.265625 48.1875 28.421875 48.1875 
Q 40.625 48.1875 47.75 41.5 
Q 54.890625 34.8125 54.890625 23.390625 
Q 54.890625 11.625 47.5625 5.09375 
Q 40.234375 -1.421875 26.90625 -1.421875 
Q 22.3125 -1.421875 17.546875 -0.640625 
Q 12.796875 0.140625 7.71875 1.703125 
L 7.71875 11.625 
Q 12.109375 9.234375 16.796875 8.0625 
Q 21.484375 6.890625 26.703125 6.890625 
Q 35.15625 6.890625 40.078125 11.328125 
Q 45.015625 15.765625 45.015625 23.390625 
Q 45.015625 31 40.078125 35.4375 
Q 35.15625 39.890625 26.703125 39.890625 
Q 22.75 39.890625 18.8125 39.015625 
Q 14.890625 38.140625 10.796875 36.28125 
z
" id="DejaVuSans-53"/>
      </defs>
      <g transform="translate(88.314675 322.182437)scale(0.1 -0.1)">
       <use xlink:href="#DejaVuSans-53"/>
      </g>
     </g>
    </g>
    <g id="text_3">
     <!-- steps -->
     <defs>
      <path d="M 44.28125 53.078125 
L 44.28125 44.578125 
Q 40.484375 46.53125 36.375 47.5 
Q 32.28125 48.484375 27.875 48.484375 
Q 21.1875 48.484375 17.84375 46.4375 
Q 14.5 44.390625 14.5 40.28125 
Q 14.5 37.15625 16.890625 35.375 
Q 19.28125 33.59375 26.515625 31.984375 
L 29.59375 31.296875 
Q 39.15625 29.25 43.1875 25.515625 
Q 47.21875 21.78125 47.21875 15.09375 
Q 47.21875 7.46875 41.1875 3.015625 
Q 35.15625 -1.421875 24.609375 -1.421875 
Q 20.21875 -1.421875 15.453125 -0.5625 
Q 10.6875 0.296875 5.421875 2 
L 5.421875 11.28125 
Q 10.40625 8.6875 15.234375 7.390625 
Q 20.0625 6.109375 24.8125 6.109375 
Q 31.15625 6.109375 34.5625 8.28125 
Q 37.984375 10.453125 37.984375 14.40625 
Q 37.984375 18.0625 35.515625 20.015625 
Q 33.0625 21.96875 24.703125 23.78125 
L 21.578125 24.515625 
Q 13.234375 26.265625 9.515625 29.90625 
Q 5.8125 33.546875 5.8125 39.890625 
Q 5.8125 47.609375 11.28125 51.796875 
Q 16.75 56 26.8125 56 
Q 31.78125 56 36.171875 55.265625 
Q 40.578125 54.546875 44.28125 53.078125 
z
" id="DejaVuSans-115"/>
      <path d="M 18.3125 70.21875 
L 18.3125 54.6875 
L 36.8125 54.6875 
L 36.8125 47.703125 
L 18.3125 47.703125 
L 18.3125 18.015625 
Q 18.3125 11.328125 20.140625 9.421875 
Q 21.96875 7.515625 27.59375 7.515625 
L 36.8125 7.515625 
L 36.8125 0 
L 27.59375 0 
Q 17.1875 0 13.234375 3.875 
Q 9.28125 7.765625 9.28125 18.015625 
L 9.28125 47.703125 
L 2.6875 47.703125 
L 2.6875 54.6875 
L 9.28125 54.6875 
L 9.28125 70.21875 
z
" id="DejaVuSans-116"/>
      <path d="M 56.203125 29.59375 
L 56.203125 25.203125 
L 14.890625 25.203125 
Q 15.484375 15.921875 20.484375 11.0625 
Q 25.484375 6.203125 34.421875 6.203125 
Q 39.59375 6.203125 44.453125 7.46875 
Q 49.3125 8.734375 54.109375 11.28125 
L 54.109375 2.78125 
Q 49.265625 0.734375 44.1875 -0.34375 
Q 39.109375 -1.421875 33.890625 -1.421875 
Q 20.796875 -1.421875 13.15625 6.1875 
Q 5.515625 13.8125 5.515625 26.8125 
Q 5.515625 40.234375 12.765625 48.109375 
Q 20.015625 56 32.328125 56 
Q 43.359375 56 49.78125 48.890625 
Q 56.203125 41.796875 56.203125 29.59375 
z
M 47.21875 32.234375 
Q 47.125 39.59375 43.09375 43.984375 
Q 39.0625 48.390625 32.421875 48.390625 
Q 24.90625 48.390625 20.390625 44.140625 
Q 15.875 39.890625 15.1875 32.171875 
z
" id="DejaVuSans-101"/>
      <path d="M 18.109375 8.203125 
L 18.109375 -20.796875 
L 9.078125 -20.796875 
L 9.078125 54.6875 
L 18.109375 54.6875 
L 18.109375 46.390625 
Q 20.953125 51.265625 25.265625 53.625 
Q 29.59375 56 35.59375 56 
Q 45.5625 56 51.78125 48.09375 
Q 58.015625 40.1875 58.015625 27.296875 
Q 58.015625 14.40625 51.78125 6.484375 
Q 45.5625 -1.421875 35.59375 -1.421875 
Q 29.59375 -1.421875 25.265625 0.953125 
Q 20.953125 3.328125 18.109375 8.203125 
z
M 48.6875 27.296875 
Q 48.6875 37.203125 44.609375 42.84375 
Q 40.53125 48.484375 33.40625 48.484375 
Q 26.265625 48.484375 22.1875 42.84375 
Q 18.109375 37.203125 18.109375 27.296875 
Q 18.109375 17.390625 22.1875 11.75 
Q 26.265625 6.109375 33.40625 6.109375 
Q 40.53125 6.109375 44.609375 11.75 
Q 48.6875 17.390625 48.6875 27.296875 
z
" id="DejaVuSans-112"/>
     </defs>
     <g transform="translate(74.965894 335.860562)scale(0.1 -0.1)">
      <use xlink:href="#DejaVuSans-115"/>
      <use x="52.099609" xlink:href="#DejaVuSans-116"/>
      <use x="91.308594" xlink:href="#DejaVuSans-101"/>
      <use x="152.832031" xlink:href="#DejaVuSans-112"/>
      <use x="216.308594" xlink:href="#DejaVuSans-115"/>
     </g>
    </g>
   </g>
   <g id="matplotlib.axis_2">
    <g id="ytick_1">
     <g id="line2d_3">
      <defs>
       <path d="M 0 0 
L -3.5 0 
" id="m899bed5051" style="stroke:#000000;stroke-width:0.8;"/>
      </defs>
      <g>
       <use style="stroke:#000000;stroke-width:0.8;" x="57.6" xlink:href="#m899bed5051" y="307.340945"/>
      </g>
     </g>
     <g id="text_4">
      <!-- 0 -->
      <g transform="translate(44.2375 311.140164)scale(0.1 -0.1)">
       <use xlink:href="#DejaVuSans-48"/>
      </g>
     </g>
    </g>
    <g id="ytick_2">
     <g id="line2d_4">
      <g>
       <use style="stroke:#000000;stroke-width:0.8;" x="57.6" xlink:href="#m899bed5051" y="250.534089"/>
      </g>
     </g>
     <g id="text_5">
      <!-- 200 -->
      <defs>
       <path d="M 19.1875 8.296875 
L 53.609375 8.296875 
L 53.609375 0 
L 7.328125 0 
L 7.328125 8.296875 
Q 12.9375 14.109375 22.625 23.890625 
Q 32.328125 33.6875 34.8125 36.53125 
Q 39.546875 41.84375 41.421875 45.53125 
Q 43.3125 49.21875 43.3125 52.78125 
Q 43.3125 58.59375 39.234375 62.25 
Q 35.15625 65.921875 28.609375 65.921875 
Q 23.96875 65.921875 18.8125 64.3125 
Q 13.671875 62.703125 7.8125 59.421875 
L 7.8125 69.390625 
Q 13.765625 71.78125 18.9375 73 
Q 24.125 74.21875 28.421875 74.21875 
Q 39.75 74.21875 46.484375 68.546875 
Q 53.21875 62.890625 53.21875 53.421875 
Q 53.21875 48.921875 51.53125 44.890625 
Q 49.859375 40.875 45.40625 35.40625 
Q 44.1875 33.984375 37.640625 27.21875 
Q 31.109375 20.453125 19.1875 8.296875 
z
" id="DejaVuSans-50"/>
      </defs>
      <g transform="translate(31.5125 254.333308)scale(0.1 -0.1)">
       <use xlink:href="#DejaVuSans-50"/>
       <use x="63.623047" xlink:href="#DejaVuSans-48"/>
       <use x="127.246094" xlink:href="#DejaVuSans-48"/>
      </g>
     </g>
    </g>
    <g id="ytick_3">
     <g id="line2d_5">
      <g>
       <use style="stroke:#000000;stroke-width:0.8;" x="57.6" xlink:href="#m899bed5051" y="193.727233"/>
      </g>
     </g>
     <g id="text_6">
      <!-- 400 -->
      <defs>
       <path d="M 37.796875 64.3125 
L 12.890625 25.390625 
L 37.796875 25.390625 
z
M 35.203125 72.90625 
L 47.609375 72.90625 
L 47.609375 25.390625 
L 58.015625 25.390625 
L 58.015625 17.1875 
L 47.609375 17.1875 
L 47.609375 0 
L 37.796875 0 
L 37.796875 17.1875 
L 4.890625 17.1875 
L 4.890625 26.703125 
z
" id="DejaVuSans-52"/>
      </defs>
      <g transform="translate(31.5125 197.526452)scale(0.1 -0.1)">
       <use xlink:href="#DejaVuSans-52"/>
       <use x="63.623047" xlink:href="#DejaVuSans-48"/>
       <use x="127.246094" xlink:href="#DejaVuSans-48"/>
      </g>
     </g>
    </g>
    <g id="ytick_4">
     <g id="line2d_6">
      <g>
       <use style="stroke:#000000;stroke-width:0.8;" x="57.6" xlink:href="#m899bed5051" y="136.920377"/>
      </g>
     </g>
     <g id="text_7">
      <!-- 600 -->
      <defs>
       <path d="M 33.015625 40.375 
Q 26.375 40.375 22.484375 35.828125 
Q 18.609375 31.296875 18.609375 23.390625 
Q 18.609375 15.53125 22.484375 10.953125 
Q 26.375 6.390625 33.015625 6.390625 
Q 39.65625 6.390625 43.53125 10.953125 
Q 47.40625 15.53125 47.40625 23.390625 
Q 47.40625 31.296875 43.53125 35.828125 
Q 39.65625 40.375 33.015625 40.375 
z
M 52.59375 71.296875 
L 52.59375 62.3125 
Q 48.875 64.0625 45.09375 64.984375 
Q 41.3125 65.921875 37.59375 65.921875 
Q 27.828125 65.921875 22.671875 59.328125 
Q 17.53125 52.734375 16.796875 39.40625 
Q 19.671875 43.65625 24.015625 45.921875 
Q 28.375 48.1875 33.59375 48.1875 
Q 44.578125 48.1875 50.953125 41.515625 
Q 57.328125 34.859375 57.328125 23.390625 
Q 57.328125 12.15625 50.6875 5.359375 
Q 44.046875 -1.421875 33.015625 -1.421875 
Q 20.359375 -1.421875 13.671875 8.265625 
Q 6.984375 17.96875 6.984375 36.375 
Q 6.984375 53.65625 15.1875 63.9375 
Q 23.390625 74.21875 37.203125 74.21875 
Q 40.921875 74.21875 44.703125 73.484375 
Q 48.484375 72.75 52.59375 71.296875 
z
" id="DejaVuSans-54"/>
      </defs>
      <g transform="translate(31.5125 140.719596)scale(0.1 -0.1)">
       <use xlink:href="#DejaVuSans-54"/>
       <use x="63.623047" xlink:href="#DejaVuSans-48"/>
       <use x="127.246094" xlink:href="#DejaVuSans-48"/>
      </g>
     </g>
    </g>
    <g id="ytick_5">
     <g id="line2d_7">
      <g>
       <use style="stroke:#000000;stroke-width:0.8;" x="57.6" xlink:href="#m899bed5051" y="80.113521"/>
      </g>
     </g>
     <g id="text_8">
      <!-- 800 -->
      <defs>
       <path d="M 31.78125 34.625 
Q 24.75 34.625 20.71875 30.859375 
Q 16.703125 27.09375 16.703125 20.515625 
Q 16.703125 13.921875 20.71875 10.15625 
Q 24.75 6.390625 31.78125 6.390625 
Q 38.8125 6.390625 42.859375 10.171875 
Q 46.921875 13.96875 46.921875 20.515625 
Q 46.921875 27.09375 42.890625 30.859375 
Q 38.875 34.625 31.78125 34.625 
z
M 21.921875 38.8125 
Q 15.578125 40.375 12.03125 44.71875 
Q 8.5 49.078125 8.5 55.328125 
Q 8.5 64.0625 14.71875 69.140625 
Q 20.953125 74.21875 31.78125 74.21875 
Q 42.671875 74.21875 48.875 69.140625 
Q 55.078125 64.0625 55.078125 55.328125 
Q 55.078125 49.078125 51.53125 44.71875 
Q 48 40.375 41.703125 38.8125 
Q 48.828125 37.15625 52.796875 32.3125 
Q 56.78125 27.484375 56.78125 20.515625 
Q 56.78125 9.90625 50.3125 4.234375 
Q 43.84375 -1.421875 31.78125 -1.421875 
Q 19.734375 -1.421875 13.25 4.234375 
Q 6.78125 9.90625 6.78125 20.515625 
Q 6.78125 27.484375 10.78125 32.3125 
Q 14.796875 37.15625 21.921875 38.8125 
z
M 18.3125 54.390625 
Q 18.3125 48.734375 21.84375 45.5625 
Q 25.390625 42.390625 31.78125 42.390625 
Q 38.140625 42.390625 41.71875 45.5625 
Q 45.3125 48.734375 45.3125 54.390625 
Q 45.3125 60.0625 41.71875 63.234375 
Q 38.140625 66.40625 31.78125 66.40625 
Q 25.390625 66.40625 21.84375 63.234375 
Q 18.3125 60.0625 18.3125 54.390625 
z
" id="DejaVuSans-56"/>
      </defs>
      <g transform="translate(31.5125 83.912739)scale(0.1 -0.1)">
       <use xlink:href="#DejaVuSans-56"/>
       <use x="63.623047" xlink:href="#DejaVuSans-48"/>
       <use x="127.246094" xlink:href="#DejaVuSans-48"/>
      </g>
     </g>
    </g>
   </g>
   <g id="line2d_8">
    <path clip-path="url(#p559b82425c)" d="M 60.398746 53.568035 
L 66.618182 55.042659 
L 72.837618 56.50669 
L 79.057053 57.960112 
L 85.276489 59.403011 
L 91.495925 60.835509 
L 97.715361 62.257708 
L 103.934796 63.669663 
L 110.154232 65.071458 
L 116.373668 66.463163 
" style="fill:none;stroke:#ff0000;stroke-linecap:square;stroke-opacity:0.5;stroke-width:1.5;"/>
   </g>
   <g id="line2d_9">
    <path clip-path="url(#p559b82425c)" d="M 60.398746 53.568 
L 66.618182 55.042676 
L 72.837618 56.506673 
L 79.057053 57.960078 
L 85.276489 59.403011 
L 91.495925 60.835509 
L 97.715361 62.257708 
L 103.934796 63.669663 
L 110.154232 65.071423 
L 116.373668 66.463146 
" style="fill:none;stroke:#ff0000;stroke-dasharray:7.4,3.2;stroke-dashoffset:0;stroke-opacity:0.5;stroke-width:2;"/>
   </g>
   <g id="line2d_10">
    <path clip-path="url(#p559b82425c)" d="M 60.398746 53.568035 
L 66.618182 68.073633 
L 72.837618 81.551427 
L 79.057053 94.084058 
L 85.276489 105.746834 
L 91.495925 116.608563 
L 97.715361 126.732173 
L 103.934796 136.175099 
L 110.154232 144.989957 
L 116.373668 153.224853 
" style="fill:none;stroke:#0000ff;stroke-linecap:square;stroke-opacity:0.5;stroke-width:1.5;"/>
   </g>
   <g id="line2d_11">
    <path clip-path="url(#p559b82425c)" d="M 60.398746 53.568 
L 66.618182 68.073633 
L 72.837618 81.551427 
L 79.057053 94.084024 
L 85.276489 105.746782 
L 91.495925 116.60858 
L 97.715361 126.732173 
L 103.934796 136.175099 
L 110.154232 144.989957 
L 116.373668 153.224836 
" style="fill:none;stroke:#0000ff;stroke-dasharray:7.4,3.2;stroke-dashoffset:0;stroke-opacity:0.5;stroke-width:2;"/>
   </g>
   <g id="line2d_12">
    <path clip-path="url(#p559b82425c)" d="M 60.398746 53.568035 
L 66.618182 174.515861 
L 72.837618 227.546816 
L 79.057053 254.514431 
L 85.276489 269.847211 
L 91.495925 279.33151 
L 97.715361 285.59547 
L 103.934796 289.953685 
L 110.154232 293.115448 
L 116.373668 295.487998 
" style="fill:none;stroke:#008000;stroke-linecap:square;stroke-opacity:0.5;stroke-width:1.5;"/>
   </g>
   <g id="line2d_13">
    <path clip-path="url(#p559b82425c)" d="M 60.398746 53.568 
L 66.618182 174.51587 
L 72.837618 227.546816 
L 79.057053 254.514431 
L 85.276489 269.847211 
L 91.495925 279.331514 
L 97.715361 285.59547 
L 103.934796 289.953685 
L 110.154232 293.115447 
L 116.373668 295.488 
" style="fill:none;stroke:#008000;stroke-dasharray:7.4,3.2;stroke-dashoffset:0;stroke-opacity:0.5;stroke-width:2;"/>
   </g>
   <g id="patch_3">
    <path d="M 57.6 307.584 
L 57.6 41.472 
" style="fill:none;stroke:#000000;stroke-linecap:square;stroke-linejoin:miter;stroke-width:0.8;"/>
   </g>
   <g id="patch_4">
    <path d="M 119.172414 307.584 
L 119.172414 41.472 
" style="fill:none;stroke:#000000;stroke-linecap:square;stroke-linejoin:miter;stroke-width:0.8;"/>
   </g>
   <g id="patch_5">
    <path d="M 57.6 307.584 
L 119.172414 307.584 
" style="fill:none;stroke:#000000;stroke-linecap:square;stroke-linejoin:miter;stroke-width:0.8;"/>
   </g>
   <g id="patch_6">
    <path d="M 57.6 41.472 
L 119.172414 41.472 
" style="fill:none;stroke:#000000;stroke-linecap:square;stroke-linejoin:miter;stroke-width:0.8;"/>
   </g>
   <g id="text_9">
    <!-- lr:0.1 -->
    <defs>
     <path d="M 9.421875 75.984375 
L 18.40625 75.984375 
L 18.40625 0 
L 9.421875 0 
z
" id="DejaVuSans-108"/>
     <path d="M 41.109375 46.296875 
Q 39.59375 47.171875 37.8125 47.578125 
Q 36.03125 48 33.890625 48 
Q 26.265625 48 22.1875 43.046875 
Q 18.109375 38.09375 18.109375 28.8125 
L 18.109375 0 
L 9.078125 0 
L 9.078125 54.6875 
L 18.109375 54.6875 
L 18.109375 46.1875 
Q 20.953125 51.171875 25.484375 53.578125 
Q 30.03125 56 36.53125 56 
Q 37.453125 56 38.578125 55.875 
Q 39.703125 55.765625 41.0625 55.515625 
z
" id="DejaVuSans-114"/>
     <path d="M 11.71875 12.40625 
L 22.015625 12.40625 
L 22.015625 0 
L 11.71875 0 
z
M 11.71875 51.703125 
L 22.015625 51.703125 
L 22.015625 39.3125 
L 11.71875 39.3125 
z
" id="DejaVuSans-58"/>
     <path d="M 10.6875 12.40625 
L 21 12.40625 
L 21 0 
L 10.6875 0 
z
" id="DejaVuSans-46"/>
     <path d="M 12.40625 8.296875 
L 28.515625 8.296875 
L 28.515625 63.921875 
L 10.984375 60.40625 
L 10.984375 69.390625 
L 28.421875 72.90625 
L 38.28125 72.90625 
L 38.28125 8.296875 
L 54.390625 8.296875 
L 54.390625 0 
L 12.40625 0 
z
" id="DejaVuSans-49"/>
    </defs>
    <g transform="translate(72.690582 35.472)scale(0.12 -0.12)">
     <use xlink:href="#DejaVuSans-108"/>
     <use x="27.783203" xlink:href="#DejaVuSans-114"/>
     <use x="68.880859" xlink:href="#DejaVuSans-58"/>
     <use x="102.572266" xlink:href="#DejaVuSans-48"/>
     <use x="166.195312" xlink:href="#DejaVuSans-46"/>
     <use x="197.982422" xlink:href="#DejaVuSans-49"/>
    </g>
   </g>
  </g>
  <g id="axes_2">
   <g id="patch_7">
    <path d="M 131.486897 307.584 
L 193.05931 307.584 
L 193.05931 41.472 
L 131.486897 41.472 
z
" style="fill:#ffffff;"/>
   </g>
   <g id="matplotlib.axis_3">
    <g id="xtick_3">
     <g id="line2d_14">
      <g>
       <use style="stroke:#000000;stroke-width:0.8;" x="134.285643" xlink:href="#mb649d4ea11" y="307.584"/>
      </g>
     </g>
     <g id="text_10">
      <!-- 0 -->
      <g transform="translate(131.104393 322.182437)scale(0.1 -0.1)">
       <use xlink:href="#DejaVuSans-48"/>
      </g>
     </g>
    </g>
    <g id="xtick_4">
     <g id="line2d_15">
      <g>
       <use style="stroke:#000000;stroke-width:0.8;" x="190.825968" xlink:href="#mb649d4ea11" y="307.584"/>
      </g>
     </g>
     <g id="text_11">
      <!-- 100 -->
      <g transform="translate(181.282218 322.182437)scale(0.1 -0.1)">
       <use xlink:href="#DejaVuSans-49"/>
       <use x="63.623047" xlink:href="#DejaVuSans-48"/>
       <use x="127.246094" xlink:href="#DejaVuSans-48"/>
      </g>
     </g>
    </g>
    <g id="text_12">
     <!-- steps -->
     <g transform="translate(148.852791 335.860562)scale(0.1 -0.1)">
      <use xlink:href="#DejaVuSans-115"/>
      <use x="52.099609" xlink:href="#DejaVuSans-116"/>
      <use x="91.308594" xlink:href="#DejaVuSans-101"/>
      <use x="152.832031" xlink:href="#DejaVuSans-112"/>
      <use x="216.308594" xlink:href="#DejaVuSans-115"/>
     </g>
    </g>
   </g>
   <g id="matplotlib.axis_4">
    <g id="ytick_6">
     <g id="line2d_16">
      <g>
       <use style="stroke:#000000;stroke-width:0.8;" x="131.486897" xlink:href="#m899bed5051" y="295.513768"/>
      </g>
     </g>
     <g id="text_13">
      <!-- 0 -->
      <g transform="translate(118.124397 299.312987)scale(0.1 -0.1)">
       <use xlink:href="#DejaVuSans-48"/>
      </g>
     </g>
    </g>
    <g id="ytick_7">
     <g id="line2d_17">
      <g>
       <use style="stroke:#000000;stroke-width:0.8;" x="131.486897" xlink:href="#m899bed5051" y="241.354415"/>
      </g>
     </g>
     <g id="text_14">
      <!-- 200 -->
      <g transform="translate(105.399397 245.153634)scale(0.1 -0.1)">
       <use xlink:href="#DejaVuSans-50"/>
       <use x="63.623047" xlink:href="#DejaVuSans-48"/>
       <use x="127.246094" xlink:href="#DejaVuSans-48"/>
      </g>
     </g>
    </g>
    <g id="ytick_8">
     <g id="line2d_18">
      <g>
       <use style="stroke:#000000;stroke-width:0.8;" x="131.486897" xlink:href="#m899bed5051" y="187.195063"/>
      </g>
     </g>
     <g id="text_15">
      <!-- 400 -->
      <g transform="translate(105.399397 190.994281)scale(0.1 -0.1)">
       <use xlink:href="#DejaVuSans-52"/>
       <use x="63.623047" xlink:href="#DejaVuSans-48"/>
       <use x="127.246094" xlink:href="#DejaVuSans-48"/>
      </g>
     </g>
    </g>
    <g id="ytick_9">
     <g id="line2d_19">
      <g>
       <use style="stroke:#000000;stroke-width:0.8;" x="131.486897" xlink:href="#m899bed5051" y="133.03571"/>
      </g>
     </g>
     <g id="text_16">
      <!-- 600 -->
      <g transform="translate(105.399397 136.834929)scale(0.1 -0.1)">
       <use xlink:href="#DejaVuSans-54"/>
       <use x="63.623047" xlink:href="#DejaVuSans-48"/>
       <use x="127.246094" xlink:href="#DejaVuSans-48"/>
      </g>
     </g>
    </g>
    <g id="ytick_10">
     <g id="line2d_20">
      <g>
       <use style="stroke:#000000;stroke-width:0.8;" x="131.486897" xlink:href="#m899bed5051" y="78.876357"/>
      </g>
     </g>
     <g id="text_17">
      <!-- 800 -->
      <g transform="translate(105.399397 82.675576)scale(0.1 -0.1)">
       <use xlink:href="#DejaVuSans-56"/>
       <use x="63.623047" xlink:href="#DejaVuSans-48"/>
       <use x="127.246094" xlink:href="#DejaVuSans-48"/>
      </g>
     </g>
    </g>
   </g>
   <g id="line2d_21">
    <path clip-path="url(#pc756549b43)" d="M 134.285643 53.568033 
L 134.851046 54.973932 
L 135.416449 56.369732 
L 135.981852 57.755416 
L 136.547256 59.131069 
L 137.112659 60.496804 
L 137.678062 61.852722 
L 138.243465 63.198871 
L 138.808869 64.535335 
L 139.374272 65.86218 
L 139.939675 67.179504 
L 140.505078 68.487408 
L 141.070482 69.785923 
L 141.635885 71.075133 
L 142.201288 72.35517 
L 142.766691 73.626017 
L 143.332095 74.887824 
L 143.897498 76.140606 
L 144.462901 77.384496 
L 145.028304 78.619527 
L 145.593708 79.845814 
L 146.159111 81.063359 
L 146.724514 82.272292 
L 147.289917 83.472647 
L 147.855321 84.664506 
L 148.420724 85.84792 
L 148.986127 87.02302 
L 149.55153 88.189806 
L 150.116934 89.348378 
L 150.682337 90.498801 
L 151.24774 91.641109 
L 151.813143 92.775401 
L 152.378547 93.90176 
L 152.94395 95.020185 
L 153.509353 96.130759 
L 154.074756 97.233598 
L 154.64016 98.328718 
L 155.205563 99.416186 
L 155.770966 100.496084 
L 156.336369 101.568445 
L 156.901773 102.633336 
L 157.467176 103.690854 
L 158.032579 104.741002 
L 158.597982 105.783844 
L 159.163386 106.819496 
L 159.728789 107.847958 
L 160.294192 108.869297 
L 160.859595 109.883578 
L 161.424999 110.890868 
L 161.990402 111.8912 
L 162.555805 112.884672 
L 163.121208 113.871269 
L 163.686612 114.851139 
L 164.252015 115.824199 
L 164.817418 116.790648 
L 165.382821 117.750486 
L 165.948225 118.703695 
L 166.513628 119.650426 
L 167.079031 120.590662 
L 167.644434 121.524517 
L 168.209838 122.451993 
L 168.775241 123.373138 
L 169.340644 124.288019 
L 169.906047 125.196719 
L 170.471451 126.099237 
L 171.036854 126.995623 
L 171.602257 127.885927 
L 172.16766 128.770215 
L 172.733064 129.648552 
L 173.298467 130.52094 
L 173.86387 131.387443 
L 174.429273 132.248112 
L 174.994677 133.102996 
L 175.56008 133.952128 
L 176.125483 134.795558 
L 176.690886 135.633336 
L 177.25629 136.465494 
L 177.821693 137.292065 
L 178.387096 138.113133 
L 178.952499 138.92873 
L 179.517903 139.738839 
L 180.083306 140.543577 
L 180.648709 141.342959 
L 181.214112 142.13702 
L 181.779516 142.925808 
L 182.344919 143.709373 
L 182.910322 144.487699 
L 183.475725 145.260934 
L 184.041129 146.029013 
L 184.606532 146.79205 
L 185.171935 147.550013 
L 185.737338 148.303001 
L 186.302742 149.051015 
L 186.868145 149.794136 
L 187.433548 150.532348 
L 187.998951 151.265717 
L 188.564355 151.994293 
L 189.129758 152.718093 
L 189.695161 153.437149 
L 190.260564 154.151511 
" style="fill:none;stroke:#ff0000;stroke-linecap:square;stroke-opacity:0.5;stroke-width:1.5;"/>
   </g>
   <g id="line2d_22">
    <path clip-path="url(#pc756549b43)" d="M 134.285643 53.568 
L 134.851046 54.973948 
L 135.416449 56.369715 
L 135.981852 57.755383 
L 136.547256 59.131069 
L 137.112659 60.496804 
L 137.678062 61.852722 
L 138.243465 63.198871 
L 138.808869 64.535302 
L 139.374272 65.862163 
L 139.939675 67.179537 
L 140.505078 68.487408 
L 141.070482 69.785906 
L 141.635885 71.075133 
L 142.201288 72.355137 
L 142.766691 73.625984 
L 143.332095 74.887791 
L 143.897498 76.140573 
L 144.462901 77.384513 
L 145.028304 78.619543 
L 145.593708 79.845814 
L 146.159111 81.063342 
L 146.724514 82.272242 
L 147.289917 83.47263 
L 147.855321 84.664489 
L 148.420724 85.847936 
L 148.986127 87.023003 
L 149.55153 88.189789 
L 150.116934 89.348394 
L 150.682337 90.498768 
L 151.24774 91.641076 
L 151.813143 92.775401 
L 152.378547 93.90171 
L 152.94395 95.020152 
L 153.509353 96.130792 
L 154.074756 97.233598 
L 154.64016 98.328718 
L 155.205563 99.416203 
L 155.770966 100.496051 
L 156.336369 101.568478 
L 156.901773 102.633352 
L 157.467176 103.690854 
L 158.032579 104.740985 
L 158.597982 105.783827 
L 159.163386 106.819479 
L 159.728789 107.847958 
L 160.294192 108.869281 
L 160.859595 109.883612 
L 161.424999 110.890868 
L 161.990402 111.8912 
L 162.555805 112.884672 
L 163.121208 113.871269 
L 163.686612 114.851089 
L 164.252015 115.824182 
L 164.817418 116.790631 
L 165.382821 117.750419 
L 165.948225 118.703679 
L 166.513628 119.650426 
L 167.079031 120.590662 
L 167.644434 121.524501 
L 168.209838 122.451976 
L 168.775241 123.373155 
L 169.340644 124.288036 
L 169.906047 125.196719 
L 170.471451 126.099204 
L 171.036854 126.995607 
L 171.602257 127.885927 
L 172.16766 128.770215 
L 172.733064 129.648519 
L 173.298467 130.520907 
L 173.86387 131.387443 
L 174.429273 132.248128 
L 174.994677 133.102979 
L 175.56008 133.952112 
L 176.125483 134.795542 
L 176.690886 135.633319 
L 177.25629 136.465477 
L 177.821693 137.292065 
L 178.387096 138.113133 
L 178.952499 138.92873 
L 179.517903 139.738822 
L 180.083306 140.54356 
L 180.648709 141.342893 
L 181.214112 142.13702 
L 181.779516 142.925792 
L 182.344919 143.70934 
L 182.910322 144.487699 
L 183.475725 145.260901 
L 184.041129 146.029029 
L 184.606532 146.792034 
L 185.171935 147.550013 
L 185.737338 148.302985 
L 186.302742 149.050998 
L 186.868145 149.794103 
L 187.433548 150.532315 
L 187.998951 151.265717 
L 188.564355 151.994277 
L 189.129758 152.71806 
L 189.695161 153.437149 
L 190.260564 154.151494 
" style="fill:none;stroke:#ff0000;stroke-dasharray:7.4,3.2;stroke-dashoffset:0;stroke-opacity:0.5;stroke-width:2;"/>
   </g>
   <g id="line2d_23">
    <path clip-path="url(#pc756549b43)" d="M 134.285643 53.568033 
L 134.851046 67.397593 
L 135.416449 80.247249 
L 135.981852 92.195793 
L 136.547256 103.315021 
L 137.112659 113.670535 
L 137.678062 123.322331 
L 138.243465 132.325166 
L 138.808869 140.729204 
L 139.374272 148.58031 
L 139.939675 155.920483 
L 140.505078 162.788256 
L 141.070482 169.218911 
L 141.635885 175.244858 
L 142.201288 180.895807 
L 142.766691 186.199045 
L 143.332095 191.179704 
L 143.897498 195.86084 
L 144.462901 200.263701 
L 145.028304 204.407822 
L 145.593708 208.311252 
L 146.159111 211.990577 
L 146.724514 215.461128 
L 147.289917 218.737035 
L 147.855321 221.83138 
L 148.420724 224.75623 
L 148.986127 227.522757 
L 149.55153 230.141278 
L 150.116934 232.621356 
L 150.682337 234.971878 
L 151.24774 237.201038 
L 151.813143 239.316485 
L 152.378547 241.325272 
L 152.94395 243.233985 
L 153.509353 245.048728 
L 154.074756 246.775181 
L 154.64016 248.418638 
L 155.205563 249.984013 
L 155.770966 251.475882 
L 156.336369 252.898549 
L 156.901773 254.255979 
L 157.467176 255.551891 
L 158.032579 256.789777 
L 158.597982 257.972864 
L 159.163386 259.104202 
L 159.728789 260.186629 
L 160.294192 261.222803 
L 160.859595 262.215212 
L 161.424999 263.166188 
L 161.990402 264.077925 
L 162.555805 264.952467 
L 163.121208 265.791745 
L 163.686612 266.597563 
L 164.252015 267.371627 
L 164.817418 268.115533 
L 165.382821 268.830779 
L 165.948225 269.518785 
L 166.513628 270.180877 
L 167.079031 270.818317 
L 167.644434 271.432281 
L 168.209838 272.023888 
L 168.775241 272.594187 
L 169.340644 273.144175 
L 169.906047 273.674787 
L 170.471451 274.186911 
L 171.036854 274.681381 
L 171.602257 275.158992 
L 172.16766 275.620495 
L 172.733064 276.066595 
L 173.298467 276.497968 
L 173.86387 276.915252 
L 174.429273 277.319044 
L 174.994677 277.70992 
L 175.56008 278.088424 
L 176.125483 278.45507 
L 176.690886 278.810347 
L 177.25629 279.154717 
L 177.821693 279.488631 
L 178.387096 279.812501 
L 178.952499 280.126727 
L 179.517903 280.431692 
L 180.083306 280.727755 
L 180.648709 281.015261 
L 181.214112 281.294541 
L 181.779516 281.565906 
L 182.344919 281.829653 
L 182.910322 282.086068 
L 183.475725 282.33542 
L 184.041129 282.577974 
L 184.606532 282.813968 
L 185.171935 283.043646 
L 185.737338 283.267232 
L 186.302742 283.484941 
L 186.868145 283.696979 
L 187.433548 283.903543 
L 187.998951 284.104823 
L 188.564355 284.301 
L 189.129758 284.492244 
L 189.695161 284.678726 
L 190.260564 284.8606 
" style="fill:none;stroke:#0000ff;stroke-linecap:square;stroke-opacity:0.5;stroke-width:1.5;"/>
   </g>
   <g id="line2d_24">
    <path clip-path="url(#pc756549b43)" d="M 134.285643 53.568 
L 134.851046 67.397593 
L 135.416449 80.247249 
L 135.981852 92.19576 
L 136.547256 103.314972 
L 137.112659 113.670552 
L 137.678062 123.322331 
L 138.243465 132.325166 
L 138.808869 140.729204 
L 139.374272 148.580294 
L 139.939675 155.920483 
L 140.505078 162.788248 
L 141.070482 169.218928 
L 141.635885 175.244858 
L 142.201288 180.895807 
L 142.766691 186.199037 
L 143.332095 191.179696 
L 143.897498 195.86084 
L 144.462901 200.263676 
L 145.028304 204.40783 
L 145.593708 208.311252 
L 146.159111 211.990561 
L 146.724514 215.461103 
L 147.289917 218.737026 
L 147.855321 221.831388 
L 148.420724 224.75623 
L 148.986127 227.522744 
L 149.55153 230.141262 
L 150.116934 232.621348 
L 150.682337 234.971862 
L 151.24774 237.201043 
L 151.813143 239.316485 
L 152.378547 241.325268 
L 152.94395 243.233993 
L 153.509353 245.048723 
L 154.074756 246.775185 
L 154.64016 248.418638 
L 155.205563 249.984 
L 155.770966 251.475886 
L 156.336369 252.898549 
L 156.901773 254.255966 
L 157.467176 255.551883 
L 158.032579 256.789773 
L 158.597982 257.97286 
L 159.163386 259.104198 
L 159.728789 260.18662 
L 160.294192 261.222801 
L 160.859595 262.215214 
L 161.424999 263.166188 
L 161.990402 264.077919 
L 162.555805 264.952465 
L 163.121208 265.791747 
L 163.686612 266.597565 
L 164.252015 267.371633 
L 164.817418 268.115531 
L 165.382821 268.830779 
L 165.948225 269.518779 
L 166.513628 270.180877 
L 167.079031 270.818315 
L 167.644434 271.432279 
L 168.209838 272.023886 
L 168.775241 272.594187 
L 169.340644 273.144177 
L 169.906047 273.674785 
L 170.471451 274.186905 
L 171.036854 274.681379 
L 171.602257 275.158992 
L 172.16766 275.620492 
L 172.733064 276.066599 
L 173.298467 276.49797 
L 173.86387 276.915252 
L 174.429273 277.319044 
L 174.994677 277.709916 
L 175.56008 278.08842 
L 176.125483 278.455068 
L 176.690886 278.810346 
L 177.25629 279.154721 
L 177.821693 279.48863 
L 178.387096 279.812499 
L 178.952499 280.126726 
L 179.517903 280.431692 
L 180.083306 280.727753 
L 180.648709 281.015262 
L 181.214112 281.294541 
L 181.779516 281.565906 
L 182.344919 281.829652 
L 182.910322 282.086067 
L 183.475725 282.335421 
L 184.041129 282.577972 
L 184.606532 282.813968 
L 185.171935 283.043645 
L 185.737338 283.267233 
L 186.302742 283.484941 
L 186.868145 283.696979 
L 187.433548 283.903542 
L 187.998951 284.104821 
L 188.564355 284.300996 
L 189.129758 284.492244 
L 189.695161 284.678724 
L 190.260564 284.8606 
" style="fill:none;stroke:#0000ff;stroke-dasharray:7.4,3.2;stroke-dashoffset:0;stroke-opacity:0.5;stroke-width:2;"/>
   </g>
   <g id="line2d_25">
    <path clip-path="url(#pc756549b43)" d="M 134.285643 53.568033 
L 134.851046 168.879043 
L 135.416449 219.438472 
L 135.981852 245.149252 
L 136.547256 259.767442 
L 137.112659 268.809722 
L 137.678062 274.781748 
L 138.243465 278.936847 
L 138.808869 281.951255 
L 139.374272 284.213231 
L 139.939675 285.957817 
L 140.505078 287.333987 
L 141.070482 288.440014 
L 141.635885 289.343003 
L 142.201288 290.090162 
L 142.766691 290.715569 
L 143.332095 291.244364 
L 143.897498 291.695465 
L 144.462901 292.083336 
L 145.028304 292.419203 
L 145.593708 292.711896 
L 146.159111 292.968436 
L 146.724514 293.194469 
L 147.289917 293.394577 
L 147.855321 293.572508 
L 148.420724 293.731359 
L 148.986127 293.873701 
L 149.55153 294.001688 
L 150.116934 294.117132 
L 150.682337 294.22157 
L 151.24774 294.316309 
L 151.813143 294.402469 
L 152.378547 294.481014 
L 152.94395 294.552776 
L 153.509353 294.618476 
L 154.074756 294.678746 
L 154.64016 294.734134 
L 155.205563 294.785125 
L 155.770966 294.832142 
L 156.336369 294.875562 
L 156.901773 294.915717 
L 157.467176 294.952905 
L 158.032579 294.987387 
L 158.597982 295.019401 
L 159.163386 295.049156 
L 159.728789 295.076842 
L 160.294192 295.10263 
L 160.859595 295.126673 
L 161.424999 295.14911 
L 161.990402 295.170068 
L 162.555805 295.189659 
L 163.121208 295.207989 
L 163.686612 295.22515 
L 164.252015 295.24123 
L 164.817418 295.256307 
L 165.382821 295.270453 
L 165.948225 295.283734 
L 166.513628 295.29621 
L 167.079031 295.307937 
L 167.644434 295.318966 
L 168.209838 295.329344 
L 168.775241 295.339115 
L 169.340644 295.348318 
L 169.906047 295.356991 
L 170.471451 295.365167 
L 171.036854 295.372879 
L 171.602257 295.380156 
L 172.16766 295.387026 
L 172.733064 295.393513 
L 173.298467 295.399641 
L 173.86387 295.405432 
L 174.429273 295.410907 
L 174.994677 295.416084 
L 175.56008 295.420982 
L 176.125483 295.425616 
L 176.690886 295.430003 
L 177.25629 295.434156 
L 177.821693 295.43809 
L 178.387096 295.441817 
L 178.952499 295.445348 
L 179.517903 295.448695 
L 180.083306 295.451868 
L 180.648709 295.454877 
L 181.214112 295.457732 
L 181.779516 295.46044 
L 182.344919 295.463009 
L 182.910322 295.465448 
L 183.475725 295.467764 
L 184.041129 295.469962 
L 184.606532 295.47205 
L 185.171935 295.474034 
L 185.737338 295.475918 
L 186.302742 295.477709 
L 186.868145 295.47941 
L 187.433548 295.481028 
L 187.998951 295.482566 
L 188.564355 295.484028 
L 189.129758 295.485419 
L 189.695161 295.486742 
L 190.260564 295.488 
" style="fill:none;stroke:#008000;stroke-linecap:square;stroke-opacity:0.5;stroke-width:1.5;"/>
   </g>
   <g id="line2d_26">
    <path clip-path="url(#pc756549b43)" d="M 134.285643 53.568 
L 134.851046 168.879052 
L 135.416449 219.438472 
L 135.981852 245.149252 
L 136.547256 259.767442 
L 137.112659 268.809726 
L 137.678062 274.781748 
L 138.243465 278.936847 
L 138.808869 281.951254 
L 139.374272 284.213233 
L 139.939675 285.957816 
L 140.505078 287.333987 
L 141.070482 288.440014 
L 141.635885 289.343003 
L 142.201288 290.090162 
L 142.766691 290.715569 
L 143.332095 291.244365 
L 143.897498 291.695465 
L 144.462901 292.083335 
L 145.028304 292.419204 
L 145.593708 292.711896 
L 146.159111 292.968436 
L 146.724514 293.194469 
L 147.289917 293.394577 
L 147.855321 293.572508 
L 148.420724 293.731359 
L 148.986127 293.873701 
L 149.55153 294.001688 
L 150.116934 294.117133 
L 150.682337 294.22157 
L 151.24774 294.316309 
L 151.813143 294.402469 
L 152.378547 294.481014 
L 152.94395 294.552776 
L 153.509353 294.618477 
L 154.074756 294.678746 
L 154.64016 294.734134 
L 155.205563 294.785125 
L 155.770966 294.832142 
L 156.336369 294.875562 
L 156.901773 294.915718 
L 157.467176 294.952905 
L 158.032579 294.987387 
L 158.597982 295.019401 
L 159.163386 295.049156 
L 159.728789 295.076842 
L 160.294192 295.10263 
L 160.859595 295.126673 
L 161.424999 295.14911 
L 161.990402 295.170068 
L 162.555805 295.189659 
L 163.121208 295.207989 
L 163.686612 295.22515 
L 164.252015 295.24123 
L 164.817418 295.256307 
L 165.382821 295.270453 
L 165.948225 295.283734 
L 166.513628 295.29621 
L 167.079031 295.307937 
L 167.644434 295.318966 
L 168.209838 295.329344 
L 168.775241 295.339115 
L 169.340644 295.348318 
L 169.906047 295.356991 
L 170.471451 295.365167 
L 171.036854 295.372879 
L 171.602257 295.380156 
L 172.16766 295.387026 
L 172.733064 295.393513 
L 173.298467 295.399641 
L 173.86387 295.405432 
L 174.429273 295.410907 
L 174.994677 295.416084 
L 175.56008 295.420982 
L 176.125483 295.425616 
L 176.690886 295.430003 
L 177.25629 295.434156 
L 177.821693 295.43809 
L 178.387096 295.441817 
L 178.952499 295.445348 
L 179.517903 295.448695 
L 180.083306 295.451868 
L 180.648709 295.454877 
L 181.214112 295.457732 
L 181.779516 295.46044 
L 182.344919 295.463009 
L 182.910322 295.465448 
L 183.475725 295.467764 
L 184.041129 295.469962 
L 184.606532 295.47205 
L 185.171935 295.474034 
L 185.737338 295.475918 
L 186.302742 295.477709 
L 186.868145 295.47941 
L 187.433548 295.481028 
L 187.998951 295.482566 
L 188.564355 295.484028 
L 189.129758 295.485419 
L 189.695161 295.486742 
L 190.260564 295.488 
" style="fill:none;stroke:#008000;stroke-dasharray:7.4,3.2;stroke-dashoffset:0;stroke-opacity:0.5;stroke-width:2;"/>
   </g>
   <g id="patch_8">
    <path d="M 131.486897 307.584 
L 131.486897 41.472 
" style="fill:none;stroke:#000000;stroke-linecap:square;stroke-linejoin:miter;stroke-width:0.8;"/>
   </g>
   <g id="patch_9">
    <path d="M 193.05931 307.584 
L 193.05931 41.472 
" style="fill:none;stroke:#000000;stroke-linecap:square;stroke-linejoin:miter;stroke-width:0.8;"/>
   </g>
   <g id="patch_10">
    <path d="M 131.486897 307.584 
L 193.05931 307.584 
" style="fill:none;stroke:#000000;stroke-linecap:square;stroke-linejoin:miter;stroke-width:0.8;"/>
   </g>
   <g id="patch_11">
    <path d="M 131.486897 41.472 
L 193.05931 41.472 
" style="fill:none;stroke:#000000;stroke-linecap:square;stroke-linejoin:miter;stroke-width:0.8;"/>
   </g>
   <g id="text_18">
    <!-- lr:0.1 -->
    <g transform="translate(146.577478 35.472)scale(0.12 -0.12)">
     <use xlink:href="#DejaVuSans-108"/>
     <use x="27.783203" xlink:href="#DejaVuSans-114"/>
     <use x="68.880859" xlink:href="#DejaVuSans-58"/>
     <use x="102.572266" xlink:href="#DejaVuSans-48"/>
     <use x="166.195312" xlink:href="#DejaVuSans-46"/>
     <use x="197.982422" xlink:href="#DejaVuSans-49"/>
    </g>
   </g>
  </g>
  <g id="axes_3">
   <g id="patch_12">
    <path d="M 205.373793 307.584 
L 266.946207 307.584 
L 266.946207 41.472 
L 205.373793 41.472 
z
" style="fill:#ffffff;"/>
   </g>
   <g id="matplotlib.axis_5">
    <g id="xtick_5">
     <g id="line2d_27">
      <g>
       <use style="stroke:#000000;stroke-width:0.8;" x="208.172539" xlink:href="#mb649d4ea11" y="307.584"/>
      </g>
     </g>
     <g id="text_19">
      <!-- 0 -->
      <g transform="translate(204.991289 322.182437)scale(0.1 -0.1)">
       <use xlink:href="#DejaVuSans-48"/>
      </g>
     </g>
    </g>
    <g id="xtick_6">
     <g id="line2d_28">
      <g>
       <use style="stroke:#000000;stroke-width:0.8;" x="264.428742" xlink:href="#mb649d4ea11" y="307.584"/>
      </g>
     </g>
     <g id="text_20">
      <!-- 200 -->
      <g transform="translate(254.884992 322.182437)scale(0.1 -0.1)">
       <use xlink:href="#DejaVuSans-50"/>
       <use x="63.623047" xlink:href="#DejaVuSans-48"/>
       <use x="127.246094" xlink:href="#DejaVuSans-48"/>
      </g>
     </g>
    </g>
    <g id="text_21">
     <!-- steps -->
     <g transform="translate(222.739688 335.860562)scale(0.1 -0.1)">
      <use xlink:href="#DejaVuSans-115"/>
      <use x="52.099609" xlink:href="#DejaVuSans-116"/>
      <use x="91.308594" xlink:href="#DejaVuSans-101"/>
      <use x="152.832031" xlink:href="#DejaVuSans-112"/>
      <use x="216.308594" xlink:href="#DejaVuSans-115"/>
     </g>
    </g>
   </g>
   <g id="matplotlib.axis_6">
    <g id="ytick_11">
     <g id="line2d_29">
      <g>
       <use style="stroke:#000000;stroke-width:0.8;" x="205.373793" xlink:href="#m899bed5051" y="295.4883"/>
      </g>
     </g>
     <g id="text_22">
      <!-- 0 -->
      <g transform="translate(192.011293 299.287519)scale(0.1 -0.1)">
       <use xlink:href="#DejaVuSans-48"/>
      </g>
     </g>
    </g>
    <g id="ytick_12">
     <g id="line2d_30">
      <g>
       <use style="stroke:#000000;stroke-width:0.8;" x="205.373793" xlink:href="#m899bed5051" y="241.334648"/>
      </g>
     </g>
     <g id="text_23">
      <!-- 200 -->
      <g transform="translate(179.286293 245.133867)scale(0.1 -0.1)">
       <use xlink:href="#DejaVuSans-50"/>
       <use x="63.623047" xlink:href="#DejaVuSans-48"/>
       <use x="127.246094" xlink:href="#DejaVuSans-48"/>
      </g>
     </g>
    </g>
    <g id="ytick_13">
     <g id="line2d_31">
      <g>
       <use style="stroke:#000000;stroke-width:0.8;" x="205.373793" xlink:href="#m899bed5051" y="187.180997"/>
      </g>
     </g>
     <g id="text_24">
      <!-- 400 -->
      <g transform="translate(179.286293 190.980215)scale(0.1 -0.1)">
       <use xlink:href="#DejaVuSans-52"/>
       <use x="63.623047" xlink:href="#DejaVuSans-48"/>
       <use x="127.246094" xlink:href="#DejaVuSans-48"/>
      </g>
     </g>
    </g>
    <g id="ytick_14">
     <g id="line2d_32">
      <g>
       <use style="stroke:#000000;stroke-width:0.8;" x="205.373793" xlink:href="#m899bed5051" y="133.027345"/>
      </g>
     </g>
     <g id="text_25">
      <!-- 600 -->
      <g transform="translate(179.286293 136.826564)scale(0.1 -0.1)">
       <use xlink:href="#DejaVuSans-54"/>
       <use x="63.623047" xlink:href="#DejaVuSans-48"/>
       <use x="127.246094" xlink:href="#DejaVuSans-48"/>
      </g>
     </g>
    </g>
    <g id="ytick_15">
     <g id="line2d_33">
      <g>
       <use style="stroke:#000000;stroke-width:0.8;" x="205.373793" xlink:href="#m899bed5051" y="78.873693"/>
      </g>
     </g>
     <g id="text_26">
      <!-- 800 -->
      <g transform="translate(179.286293 82.672912)scale(0.1 -0.1)">
       <use xlink:href="#DejaVuSans-56"/>
       <use x="63.623047" xlink:href="#DejaVuSans-48"/>
       <use x="127.246094" xlink:href="#DejaVuSans-48"/>
      </g>
     </g>
    </g>
   </g>
   <g id="line2d_34">
    <path clip-path="url(#p3099c2bb9a)" d="M 208.172539 53.568033 
L 211.26663 68.485837 
L 214.360721 82.26927 
L 217.454813 95.015821 
L 220.548904 106.81389 
L 223.642995 117.743729 
L 226.737086 127.878104 
L 229.831177 137.283252 
L 232.925268 146.01928 
L 236.019359 154.140923 
L 239.394732 162.358551 
L 242.770104 169.962852 
L 246.145476 177.006818 
L 249.520848 183.538417 
L 252.89622 189.601104 
L 256.271592 195.234196 
L 259.928246 200.893209 
L 263.584899 206.130899 
L 264.147461 206.901706 
L 264.147461 206.901706 
" style="fill:none;stroke:#ff0000;stroke-linecap:square;stroke-opacity:0.5;stroke-width:1.5;"/>
   </g>
   <g id="line2d_35">
    <path clip-path="url(#p3099c2bb9a)" d="M 208.172539 53.568 
L 211.26663 68.485837 
L 214.360721 82.269221 
L 217.454813 95.015788 
L 220.548904 106.813874 
L 223.642995 117.743663 
L 226.737086 127.878104 
L 229.831177 137.283252 
L 232.925268 146.019296 
L 236.019359 154.140906 
L 239.394732 162.358526 
L 242.770104 169.962844 
L 246.145476 177.00681 
L 249.520848 183.538433 
L 252.89622 189.601112 
L 256.271592 195.234187 
L 259.928246 200.893201 
L 263.584899 206.130883 
L 264.147461 206.901714 
L 264.147461 206.901714 
" style="fill:none;stroke:#ff0000;stroke-dasharray:7.4,3.2;stroke-dashoffset:0;stroke-opacity:0.5;stroke-width:2;"/>
   </g>
   <g id="line2d_36">
    <path clip-path="url(#p3099c2bb9a)" d="M 208.172539 53.568033 
L 209.016382 92.191727 
L 210.141506 132.316876 
L 211.26663 162.77676 
L 212.391754 186.185084 
L 213.516878 204.391944 
L 214.642002 218.719648 
L 215.767127 230.122691 
L 216.892251 239.296933 
L 218.017375 246.754843 
L 219.142499 252.877566 
L 220.267623 257.951348 
L 221.392747 262.193249 
L 222.799152 266.575139 
L 224.205557 270.158075 
L 225.611962 273.121061 
L 227.018367 275.59712 
L 228.424772 277.686326 
L 230.112458 279.788685 
L 231.800144 281.541906 
L 233.769111 283.243053 
L 235.738078 284.654398 
L 237.988327 285.992344 
L 240.519856 287.227077 
L 243.332666 288.343325 
L 246.426757 289.336688 
L 250.08341 290.27486 
L 254.302625 291.124907 
L 259.365684 291.91018 
L 264.147461 292.483965 
L 264.147461 292.483965 
" style="fill:none;stroke:#0000ff;stroke-linecap:square;stroke-opacity:0.5;stroke-width:1.5;"/>
   </g>
   <g id="line2d_37">
    <path clip-path="url(#p3099c2bb9a)" d="M 208.172539 53.568 
L 209.016382 92.191694 
L 210.141506 132.316876 
L 211.26663 162.776751 
L 212.391754 186.185075 
L 213.516878 204.391952 
L 214.642002 218.71964 
L 215.767127 230.122675 
L 216.892251 239.296933 
L 218.017375 246.754847 
L 219.142499 252.877566 
L 220.267623 257.951344 
L 221.392747 262.193251 
L 222.799152 266.575141 
L 224.205557 270.158075 
L 225.611962 273.121063 
L 227.018367 275.597118 
L 228.424772 277.686322 
L 230.112458 279.788683 
L 231.800144 281.541906 
L 233.769111 283.243054 
L 235.738078 284.654396 
L 237.988327 285.992342 
L 240.519856 287.227077 
L 243.332666 288.343325 
L 246.426757 289.336688 
L 250.08341 290.27486 
L 254.302625 291.124906 
L 259.365684 291.910179 
L 264.147461 292.483965 
L 264.147461 292.483965 
" style="fill:none;stroke:#0000ff;stroke-dasharray:7.4,3.2;stroke-dashoffset:0;stroke-opacity:0.5;stroke-width:2;"/>
   </g>
   <g id="line2d_38">
    <path clip-path="url(#p3099c2bb9a)" d="M 208.172539 53.568033 
L 208.45382 168.866905 
L 208.735101 219.421011 
L 209.016382 245.129085 
L 209.578944 268.787065 
L 210.141506 278.913124 
L 210.704068 284.188953 
L 211.26663 287.30938 
L 211.829192 289.318184 
L 212.391754 290.690606 
L 213.235597 292.058229 
L 214.07944 292.943236 
L 215.204565 293.706078 
L 216.329689 294.196238 
L 218.017375 294.653366 
L 220.267623 294.993985 
L 223.642995 295.245011 
L 229.268615 295.404544 
L 241.64498 295.478182 
L 264.147461 295.488 
L 264.147461 295.488 
" style="fill:none;stroke:#008000;stroke-linecap:square;stroke-opacity:0.5;stroke-width:1.5;"/>
   </g>
   <g id="line2d_39">
    <path clip-path="url(#p3099c2bb9a)" d="M 208.172539 53.568 
L 208.45382 168.866913 
L 208.735101 219.421011 
L 209.016382 245.129085 
L 209.578944 268.787069 
L 210.141506 278.913124 
L 210.704068 284.188955 
L 211.26663 287.30938 
L 211.829192 289.318184 
L 212.391754 290.690606 
L 213.235597 292.058228 
L 214.07944 292.943236 
L 215.204565 293.706078 
L 216.329689 294.196238 
L 218.017375 294.653366 
L 220.267623 294.993985 
L 223.642995 295.245011 
L 229.268615 295.404544 
L 241.64498 295.478182 
L 264.147461 295.488 
L 264.147461 295.488 
" style="fill:none;stroke:#008000;stroke-dasharray:7.4,3.2;stroke-dashoffset:0;stroke-opacity:0.5;stroke-width:2;"/>
   </g>
   <g id="patch_13">
    <path d="M 205.373793 307.584 
L 205.373793 41.472 
" style="fill:none;stroke:#000000;stroke-linecap:square;stroke-linejoin:miter;stroke-width:0.8;"/>
   </g>
   <g id="patch_14">
    <path d="M 266.946207 307.584 
L 266.946207 41.472 
" style="fill:none;stroke:#000000;stroke-linecap:square;stroke-linejoin:miter;stroke-width:0.8;"/>
   </g>
   <g id="patch_15">
    <path d="M 205.373793 307.584 
L 266.946207 307.584 
" style="fill:none;stroke:#000000;stroke-linecap:square;stroke-linejoin:miter;stroke-width:0.8;"/>
   </g>
   <g id="patch_16">
    <path d="M 205.373793 41.472 
L 266.946207 41.472 
" style="fill:none;stroke:#000000;stroke-linecap:square;stroke-linejoin:miter;stroke-width:0.8;"/>
   </g>
   <g id="text_27">
    <!-- lr:0.1 -->
    <g transform="translate(220.464375 35.472)scale(0.12 -0.12)">
     <use xlink:href="#DejaVuSans-108"/>
     <use x="27.783203" xlink:href="#DejaVuSans-114"/>
     <use x="68.880859" xlink:href="#DejaVuSans-58"/>
     <use x="102.572266" xlink:href="#DejaVuSans-48"/>
     <use x="166.195312" xlink:href="#DejaVuSans-46"/>
     <use x="197.982422" xlink:href="#DejaVuSans-49"/>
    </g>
   </g>
  </g>
  <g id="axes_4">
   <g id="patch_17">
    <path d="M 279.26069 307.584 
L 340.833103 307.584 
L 340.833103 41.472 
L 279.26069 41.472 
z
" style="fill:#ffffff;"/>
   </g>
   <g id="matplotlib.axis_7">
    <g id="xtick_7">
     <g id="line2d_40">
      <g>
       <use style="stroke:#000000;stroke-width:0.8;" x="282.059436" xlink:href="#mb649d4ea11" y="307.584"/>
      </g>
     </g>
     <g id="text_28">
      <!-- 0 -->
      <g transform="translate(278.878186 322.182437)scale(0.1 -0.1)">
       <use xlink:href="#DejaVuSans-48"/>
      </g>
     </g>
    </g>
    <g id="xtick_8">
     <g id="line2d_41">
      <g>
       <use style="stroke:#000000;stroke-width:0.8;" x="317.131442" xlink:href="#mb649d4ea11" y="307.584"/>
      </g>
     </g>
     <g id="text_29">
      <!-- 250 -->
      <g transform="translate(307.587692 322.182437)scale(0.1 -0.1)">
       <use xlink:href="#DejaVuSans-50"/>
       <use x="63.623047" xlink:href="#DejaVuSans-53"/>
       <use x="127.246094" xlink:href="#DejaVuSans-48"/>
      </g>
     </g>
    </g>
    <g id="text_30">
     <!-- steps -->
     <g transform="translate(296.626584 335.860562)scale(0.1 -0.1)">
      <use xlink:href="#DejaVuSans-115"/>
      <use x="52.099609" xlink:href="#DejaVuSans-116"/>
      <use x="91.308594" xlink:href="#DejaVuSans-101"/>
      <use x="152.832031" xlink:href="#DejaVuSans-112"/>
      <use x="216.308594" xlink:href="#DejaVuSans-115"/>
     </g>
    </g>
   </g>
   <g id="matplotlib.axis_8">
    <g id="ytick_16">
     <g id="line2d_42">
      <g>
       <use style="stroke:#000000;stroke-width:0.8;" x="279.26069" xlink:href="#m899bed5051" y="295.488"/>
      </g>
     </g>
     <g id="text_31">
      <!-- 0 -->
      <g transform="translate(265.89819 299.287219)scale(0.1 -0.1)">
       <use xlink:href="#DejaVuSans-48"/>
      </g>
     </g>
    </g>
    <g id="ytick_17">
     <g id="line2d_43">
      <g>
       <use style="stroke:#000000;stroke-width:0.8;" x="279.26069" xlink:href="#m899bed5051" y="241.334416"/>
      </g>
     </g>
     <g id="text_32">
      <!-- 200 -->
      <g transform="translate(253.17319 245.133634)scale(0.1 -0.1)">
       <use xlink:href="#DejaVuSans-50"/>
       <use x="63.623047" xlink:href="#DejaVuSans-48"/>
       <use x="127.246094" xlink:href="#DejaVuSans-48"/>
      </g>
     </g>
    </g>
    <g id="ytick_18">
     <g id="line2d_44">
      <g>
       <use style="stroke:#000000;stroke-width:0.8;" x="279.26069" xlink:href="#m899bed5051" y="187.180831"/>
      </g>
     </g>
     <g id="text_33">
      <!-- 400 -->
      <g transform="translate(253.17319 190.98005)scale(0.1 -0.1)">
       <use xlink:href="#DejaVuSans-52"/>
       <use x="63.623047" xlink:href="#DejaVuSans-48"/>
       <use x="127.246094" xlink:href="#DejaVuSans-48"/>
      </g>
     </g>
    </g>
    <g id="ytick_19">
     <g id="line2d_45">
      <g>
       <use style="stroke:#000000;stroke-width:0.8;" x="279.26069" xlink:href="#m899bed5051" y="133.027247"/>
      </g>
     </g>
     <g id="text_34">
      <!-- 600 -->
      <g transform="translate(253.17319 136.826465)scale(0.1 -0.1)">
       <use xlink:href="#DejaVuSans-54"/>
       <use x="63.623047" xlink:href="#DejaVuSans-48"/>
       <use x="127.246094" xlink:href="#DejaVuSans-48"/>
      </g>
     </g>
    </g>
    <g id="ytick_20">
     <g id="line2d_46">
      <g>
       <use style="stroke:#000000;stroke-width:0.8;" x="279.26069" xlink:href="#m899bed5051" y="78.873662"/>
      </g>
     </g>
     <g id="text_35">
      <!-- 800 -->
      <g transform="translate(253.17319 82.672881)scale(0.1 -0.1)">
       <use xlink:href="#DejaVuSans-56"/>
       <use x="63.623047" xlink:href="#DejaVuSans-48"/>
       <use x="127.246094" xlink:href="#DejaVuSans-48"/>
      </g>
     </g>
    </g>
   </g>
   <g id="line2d_47">
    <path clip-path="url(#p9d39d5ab79)" d="M 282.059436 53.568033 
L 284.163756 73.623881 
L 286.268076 91.637054 
L 288.372397 107.842177 
L 290.617005 123.365704 
L 292.861614 137.283148 
L 295.106222 149.783887 
L 297.35083 161.032928 
L 299.595439 171.174256 
L 301.840047 180.333703 
L 304.224944 189.112639 
L 306.60984 197.022511 
L 308.994736 204.163652 
L 311.379633 210.623542 
L 313.764529 216.478651 
L 316.289714 222.093119 
L 318.814898 227.173719 
L 321.480371 232.023992 
L 324.145843 236.408411 
L 326.811315 240.380609 
L 329.617076 244.167724 
L 332.563124 247.75984 
L 335.509173 251.00473 
L 338.034357 253.540828 
L 338.034357 253.540828 
" style="fill:none;stroke:#ff0000;stroke-linecap:square;stroke-opacity:0.5;stroke-width:1.5;"/>
   </g>
   <g id="line2d_48">
    <path clip-path="url(#p9d39d5ab79)" d="M 282.059436 53.568 
L 284.163756 73.623848 
L 286.268076 91.637021 
L 288.372397 107.842177 
L 290.617005 123.36572 
L 292.861614 137.283148 
L 295.106222 149.783854 
L 297.35083 161.032911 
L 299.595439 171.174247 
L 301.840047 180.333686 
L 304.224944 189.112631 
L 306.60984 197.022503 
L 308.994736 204.163643 
L 311.379633 210.623526 
L 313.904817 216.805699 
L 316.430002 222.388792 
L 318.955186 227.441562 
L 321.620659 232.265868 
L 324.286131 236.627315 
L 326.951603 240.579148 
L 329.757364 244.34732 
L 332.703412 247.921886 
L 335.649461 251.151302 
L 338.034357 253.540832 
L 338.034357 253.540832 
" style="fill:none;stroke:#ff0000;stroke-dasharray:7.4,3.2;stroke-dashoffset:0;stroke-opacity:0.5;stroke-width:2;"/>
   </g>
   <g id="line2d_49">
    <path clip-path="url(#p9d39d5ab79)" d="M 282.059436 53.568033 
L 282.760876 113.664134 
L 283.462316 155.909582 
L 284.163756 186.184919 
L 284.865196 208.294771 
L 285.706924 227.50423 
L 286.548653 241.305275 
L 287.390381 251.454805 
L 288.232109 259.082312 
L 289.073837 264.929954 
L 290.055853 270.157807 
L 291.037869 274.163415 
L 292.019885 277.295214 
L 293.14219 280.102598 
L 294.264494 282.311056 
L 295.527086 284.276426 
L 296.789678 285.838502 
L 298.192559 287.226787 
L 299.735727 288.442486 
L 301.419183 289.495568 
L 303.383215 290.46209 
L 305.627824 291.318354 
L 308.293296 292.093145 
L 311.519921 292.789975 
L 315.447985 293.401896 
L 320.358066 293.934218 
L 326.811315 294.39641 
L 335.509173 294.779241 
L 338.034357 294.858244 
L 338.034357 294.858244 
" style="fill:none;stroke:#0000ff;stroke-linecap:square;stroke-opacity:0.5;stroke-width:1.5;"/>
   </g>
   <g id="line2d_50">
    <path clip-path="url(#p9d39d5ab79)" d="M 282.059436 53.568 
L 282.760876 113.66415 
L 283.462316 155.909582 
L 284.163756 186.184911 
L 284.865196 208.294771 
L 285.706924 227.504218 
L 286.548653 241.305271 
L 287.390381 251.454809 
L 288.232109 259.082308 
L 289.073837 264.929952 
L 290.055853 270.157807 
L 291.037869 274.163409 
L 292.019885 277.295214 
L 293.14219 280.102597 
L 294.264494 282.311057 
L 295.527086 284.276423 
L 296.789678 285.838502 
L 298.192559 287.226788 
L 299.735727 288.442486 
L 301.419183 289.495568 
L 303.383215 290.462088 
L 305.627824 291.318353 
L 308.293296 292.093144 
L 311.519921 292.789975 
L 315.447985 293.401896 
L 320.358066 293.934218 
L 326.811315 294.39641 
L 335.509173 294.779241 
L 338.034357 294.858244 
L 338.034357 294.858244 
" style="fill:none;stroke:#0000ff;stroke-dasharray:7.4,3.2;stroke-dashoffset:0;stroke-opacity:0.5;stroke-width:2;"/>
   </g>
   <g id="line2d_51">
    <path clip-path="url(#p9d39d5ab79)" d="M 282.059436 53.568033 
L 282.340012 219.420806 
L 282.620588 259.745482 
L 282.901164 274.758188 
L 283.322028 284.188667 
L 283.742892 288.415 
L 284.163756 290.690312 
L 284.724908 292.393765 
L 285.28606 293.369034 
L 285.9875 294.091513 
L 286.829229 294.592804 
L 287.951533 294.961676 
L 289.494701 295.215492 
L 292.160173 295.390327 
L 297.631406 295.473353 
L 324.005555 295.487995 
L 338.034357 295.488 
L 338.034357 295.488 
" style="fill:none;stroke:#008000;stroke-linecap:square;stroke-opacity:0.5;stroke-width:1.5;"/>
   </g>
   <g id="line2d_52">
    <path clip-path="url(#p9d39d5ab79)" d="M 282.059436 53.568 
L 282.340012 219.420806 
L 282.620588 259.745482 
L 282.901164 274.758188 
L 283.322028 284.188669 
L 283.742892 288.414999 
L 284.163756 290.690312 
L 284.724908 292.393766 
L 285.28606 293.369035 
L 285.9875 294.091514 
L 286.829229 294.592804 
L 287.951533 294.961676 
L 289.494701 295.215492 
L 292.160173 295.390327 
L 297.631406 295.473353 
L 324.005555 295.487995 
L 338.034357 295.488 
L 338.034357 295.488 
" style="fill:none;stroke:#008000;stroke-dasharray:7.4,3.2;stroke-dashoffset:0;stroke-opacity:0.5;stroke-width:2;"/>
   </g>
   <g id="patch_18">
    <path d="M 279.26069 307.584 
L 279.26069 41.472 
" style="fill:none;stroke:#000000;stroke-linecap:square;stroke-linejoin:miter;stroke-width:0.8;"/>
   </g>
   <g id="patch_19">
    <path d="M 340.833103 307.584 
L 340.833103 41.472 
" style="fill:none;stroke:#000000;stroke-linecap:square;stroke-linejoin:miter;stroke-width:0.8;"/>
   </g>
   <g id="patch_20">
    <path d="M 279.26069 307.584 
L 340.833103 307.584 
" style="fill:none;stroke:#000000;stroke-linecap:square;stroke-linejoin:miter;stroke-width:0.8;"/>
   </g>
   <g id="patch_21">
    <path d="M 279.26069 41.472 
L 340.833103 41.472 
" style="fill:none;stroke:#000000;stroke-linecap:square;stroke-linejoin:miter;stroke-width:0.8;"/>
   </g>
   <g id="text_36">
    <!-- lr:0.1 -->
    <g transform="translate(294.351272 35.472)scale(0.12 -0.12)">
     <use xlink:href="#DejaVuSans-108"/>
     <use x="27.783203" xlink:href="#DejaVuSans-114"/>
     <use x="68.880859" xlink:href="#DejaVuSans-58"/>
     <use x="102.572266" xlink:href="#DejaVuSans-48"/>
     <use x="166.195312" xlink:href="#DejaVuSans-46"/>
     <use x="197.982422" xlink:href="#DejaVuSans-49"/>
    </g>
   </g>
  </g>
  <g id="axes_5">
   <g id="patch_22">
    <path d="M 353.147586 307.584 
L 414.72 307.584 
L 414.72 41.472 
L 353.147586 41.472 
z
" style="fill:#ffffff;"/>
   </g>
   <g id="matplotlib.axis_9">
    <g id="xtick_9">
     <g id="line2d_53">
      <g>
       <use style="stroke:#000000;stroke-width:0.8;" x="355.946332" xlink:href="#mb649d4ea11" y="307.584"/>
      </g>
     </g>
     <g id="text_37">
      <!-- 0 -->
      <g transform="translate(352.765082 322.182437)scale(0.1 -0.1)">
       <use xlink:href="#DejaVuSans-48"/>
      </g>
     </g>
    </g>
    <g id="xtick_10">
     <g id="line2d_54">
      <g>
       <use style="stroke:#000000;stroke-width:0.8;" x="411.977285" xlink:href="#mb649d4ea11" y="307.584"/>
      </g>
     </g>
     <g id="text_38">
      <!-- 1000 -->
      <g transform="translate(399.252285 322.182437)scale(0.1 -0.1)">
       <use xlink:href="#DejaVuSans-49"/>
       <use x="63.623047" xlink:href="#DejaVuSans-48"/>
       <use x="127.246094" xlink:href="#DejaVuSans-48"/>
       <use x="190.869141" xlink:href="#DejaVuSans-48"/>
      </g>
     </g>
    </g>
    <g id="text_39">
     <!-- steps -->
     <g transform="translate(370.513481 335.860562)scale(0.1 -0.1)">
      <use xlink:href="#DejaVuSans-115"/>
      <use x="52.099609" xlink:href="#DejaVuSans-116"/>
      <use x="91.308594" xlink:href="#DejaVuSans-101"/>
      <use x="152.832031" xlink:href="#DejaVuSans-112"/>
      <use x="216.308594" xlink:href="#DejaVuSans-115"/>
     </g>
    </g>
   </g>
   <g id="matplotlib.axis_10">
    <g id="ytick_21">
     <g id="line2d_55">
      <g>
       <use style="stroke:#000000;stroke-width:0.8;" x="353.147586" xlink:href="#m899bed5051" y="295.488"/>
      </g>
     </g>
     <g id="text_40">
      <!-- 0 -->
      <g transform="translate(339.785086 299.287219)scale(0.1 -0.1)">
       <use xlink:href="#DejaVuSans-48"/>
      </g>
     </g>
    </g>
    <g id="ytick_22">
     <g id="line2d_56">
      <g>
       <use style="stroke:#000000;stroke-width:0.8;" x="353.147586" xlink:href="#m899bed5051" y="241.334415"/>
      </g>
     </g>
     <g id="text_41">
      <!-- 200 -->
      <g transform="translate(327.060086 245.133634)scale(0.1 -0.1)">
       <use xlink:href="#DejaVuSans-50"/>
       <use x="63.623047" xlink:href="#DejaVuSans-48"/>
       <use x="127.246094" xlink:href="#DejaVuSans-48"/>
      </g>
     </g>
    </g>
    <g id="ytick_23">
     <g id="line2d_57">
      <g>
       <use style="stroke:#000000;stroke-width:0.8;" x="353.147586" xlink:href="#m899bed5051" y="187.180831"/>
      </g>
     </g>
     <g id="text_42">
      <!-- 400 -->
      <g transform="translate(327.060086 190.98005)scale(0.1 -0.1)">
       <use xlink:href="#DejaVuSans-52"/>
       <use x="63.623047" xlink:href="#DejaVuSans-48"/>
       <use x="127.246094" xlink:href="#DejaVuSans-48"/>
      </g>
     </g>
    </g>
    <g id="ytick_24">
     <g id="line2d_58">
      <g>
       <use style="stroke:#000000;stroke-width:0.8;" x="353.147586" xlink:href="#m899bed5051" y="133.027246"/>
      </g>
     </g>
     <g id="text_43">
      <!-- 600 -->
      <g transform="translate(327.060086 136.826465)scale(0.1 -0.1)">
       <use xlink:href="#DejaVuSans-54"/>
       <use x="63.623047" xlink:href="#DejaVuSans-48"/>
       <use x="127.246094" xlink:href="#DejaVuSans-48"/>
      </g>
     </g>
    </g>
    <g id="ytick_25">
     <g id="line2d_59">
      <g>
       <use style="stroke:#000000;stroke-width:0.8;" x="353.147586" xlink:href="#m899bed5051" y="78.873662"/>
      </g>
     </g>
     <g id="text_44">
      <!-- 800 -->
      <g transform="translate(327.060086 82.672881)scale(0.1 -0.1)">
       <use xlink:href="#DejaVuSans-56"/>
       <use x="63.623047" xlink:href="#DejaVuSans-48"/>
       <use x="127.246094" xlink:href="#DejaVuSans-48"/>
      </g>
     </g>
    </g>
   </g>
   <g id="line2d_60">
    <path clip-path="url(#pb2b725e789)" d="M 355.946332 53.568033 
L 357.291075 84.661194 
L 358.635818 110.884763 
L 360.036592 133.943567 
L 361.437366 153.426512 
L 362.838139 169.962708 
L 364.294944 184.580176 
L 365.751749 197.022511 
L 367.264585 208.040959 
L 368.77742 217.454293 
L 370.346287 225.812368 
L 371.915154 232.98383 
L 373.540051 239.372526 
L 375.164949 244.880812 
L 376.845878 249.806796 
L 378.582837 254.208473 
L 380.375828 258.139974 
L 382.224849 261.651262 
L 384.129901 264.788028 
L 386.090985 267.591725 
L 388.16413 270.164566 
L 390.293306 272.458376 
L 392.590575 274.604266 
L 394.999906 276.550801 
L 397.57733 278.348898 
L 400.378878 280.02977 
L 403.404549 281.583997 
L 406.710375 283.031117 
L 410.352387 284.381604 
L 411.921254 284.897614 
L 411.921254 284.897614 
" style="fill:none;stroke:#ff0000;stroke-linecap:square;stroke-opacity:0.5;stroke-width:1.5;"/>
   </g>
   <g id="line2d_61">
    <path clip-path="url(#pb2b725e789)" d="M 355.946332 53.568 
L 357.291075 84.661178 
L 358.635818 110.884763 
L 360.036592 133.943551 
L 361.437366 153.426512 
L 362.838139 169.9627 
L 364.294944 184.58016 
L 365.751749 197.022503 
L 367.264585 208.040959 
L 368.77742 217.454268 
L 370.346287 225.81236 
L 371.915154 232.983822 
L 373.540051 239.372521 
L 375.164949 244.880816 
L 376.845878 249.806792 
L 378.582837 254.208473 
L 380.375828 258.13997 
L 382.224849 261.651258 
L 384.129901 264.788026 
L 386.090985 267.591723 
L 388.16413 270.164564 
L 390.293306 272.458378 
L 392.590575 274.60426 
L 394.999906 276.550792 
L 397.57733 278.348897 
L 400.378878 280.029771 
L 403.404549 281.583995 
L 406.710375 283.031115 
L 410.352387 284.381605 
L 411.921254 284.897614 
L 411.921254 284.897614 
" style="fill:none;stroke:#ff0000;stroke-dasharray:7.4,3.2;stroke-dashoffset:0;stroke-opacity:0.5;stroke-width:2;"/>
   </g>
   <g id="line2d_62">
    <path clip-path="url(#pb2b725e789)" d="M 355.946332 53.568033 
L 356.39458 140.719921 
L 356.898858 195.845685 
L 357.403137 227.50423 
L 357.907416 246.754604 
L 358.467725 260.164623 
L 359.028035 268.807853 
L 359.644375 275.135392 
L 360.316747 279.788405 
L 361.045149 283.242768 
L 361.773551 285.68129 
L 362.557985 287.58669 
L 363.398449 289.086119 
L 364.350975 290.338153 
L 365.415563 291.364917 
L 366.648244 292.230625 
L 368.049018 292.939486 
L 369.785978 293.559048 
L 371.971185 294.086635 
L 374.772732 294.522514 
L 378.582837 294.878287 
L 384.129901 295.155164 
L 392.926761 295.348184 
L 409.623985 295.456376 
L 411.921254 295.461971 
L 411.921254 295.461971 
" style="fill:none;stroke:#0000ff;stroke-linecap:square;stroke-opacity:0.5;stroke-width:1.5;"/>
   </g>
   <g id="line2d_63">
    <path clip-path="url(#pb2b725e789)" d="M 355.946332 53.568 
L 356.39458 140.719921 
L 356.898858 195.845685 
L 357.403137 227.504218 
L 357.907416 246.754608 
L 358.467725 260.164615 
L 359.028035 268.807853 
L 359.644375 275.135392 
L 360.316747 279.788403 
L 361.045149 283.242769 
L 361.773551 285.681289 
L 362.557985 287.586689 
L 363.398449 289.086118 
L 364.350975 290.338153 
L 365.415563 291.364917 
L 366.648244 292.230625 
L 368.049018 292.939485 
L 369.785978 293.559047 
L 371.971185 294.086634 
L 374.772732 294.522514 
L 378.582837 294.878287 
L 384.129901 295.155164 
L 392.926761 295.348184 
L 409.623985 295.456376 
L 411.921254 295.461971 
L 411.921254 295.461971 
" style="fill:none;stroke:#0000ff;stroke-dasharray:7.4,3.2;stroke-dashoffset:0;stroke-opacity:0.5;stroke-width:2;"/>
   </g>
   <g id="line2d_64">
    <path clip-path="url(#pb2b725e789)" d="M 355.946332 53.568033 
L 356.114425 245.128848 
L 356.338549 278.912844 
L 356.618704 288.415 
L 356.954889 292.057933 
L 357.291075 293.546947 
L 357.683292 294.37682 
L 358.131539 294.849862 
L 358.74788 295.163926 
L 359.700406 295.361271 
L 361.493397 295.462235 
L 367.880925 295.487834 
L 411.921254 295.488 
L 411.921254 295.488 
" style="fill:none;stroke:#008000;stroke-linecap:square;stroke-opacity:0.5;stroke-width:1.5;"/>
   </g>
   <g id="line2d_65">
    <path clip-path="url(#pb2b725e789)" d="M 355.946332 53.568 
L 356.114425 245.128848 
L 356.338549 278.912844 
L 356.618704 288.414999 
L 356.954889 292.057933 
L 357.291075 293.546947 
L 357.683292 294.37682 
L 358.131539 294.849862 
L 358.74788 295.163926 
L 359.700406 295.361271 
L 361.493397 295.462235 
L 367.880925 295.487834 
L 411.921254 295.488 
L 411.921254 295.488 
" style="fill:none;stroke:#008000;stroke-dasharray:7.4,3.2;stroke-dashoffset:0;stroke-opacity:0.5;stroke-width:2;"/>
   </g>
   <g id="patch_23">
    <path d="M 353.147586 307.584 
L 353.147586 41.472 
" style="fill:none;stroke:#000000;stroke-linecap:square;stroke-linejoin:miter;stroke-width:0.8;"/>
   </g>
   <g id="patch_24">
    <path d="M 414.72 307.584 
L 414.72 41.472 
" style="fill:none;stroke:#000000;stroke-linecap:square;stroke-linejoin:miter;stroke-width:0.8;"/>
   </g>
   <g id="patch_25">
    <path d="M 353.147586 307.584 
L 414.72 307.584 
" style="fill:none;stroke:#000000;stroke-linecap:square;stroke-linejoin:miter;stroke-width:0.8;"/>
   </g>
   <g id="patch_26">
    <path d="M 353.147586 41.472 
L 414.72 41.472 
" style="fill:none;stroke:#000000;stroke-linecap:square;stroke-linejoin:miter;stroke-width:0.8;"/>
   </g>
   <g id="text_45">
    <!-- lr:0.1 -->
    <g transform="translate(368.238168 35.472)scale(0.12 -0.12)">
     <use xlink:href="#DejaVuSans-108"/>
     <use x="27.783203" xlink:href="#DejaVuSans-114"/>
     <use x="68.880859" xlink:href="#DejaVuSans-58"/>
     <use x="102.572266" xlink:href="#DejaVuSans-48"/>
     <use x="166.195312" xlink:href="#DejaVuSans-46"/>
     <use x="197.982422" xlink:href="#DejaVuSans-49"/>
    </g>
   </g>
  </g>
  <g id="text_46">
   <!-- GD Optimization quadratic loss (-:TF, - -:SJ) -->
   <defs>
    <path d="M 59.515625 10.40625 
L 59.515625 29.984375 
L 43.40625 29.984375 
L 43.40625 38.09375 
L 69.28125 38.09375 
L 69.28125 6.78125 
Q 63.578125 2.734375 56.6875 0.65625 
Q 49.8125 -1.421875 42 -1.421875 
Q 24.90625 -1.421875 15.25 8.5625 
Q 5.609375 18.5625 5.609375 36.375 
Q 5.609375 54.25 15.25 64.234375 
Q 24.90625 74.21875 42 74.21875 
Q 49.125 74.21875 55.546875 72.453125 
Q 61.96875 70.703125 67.390625 67.28125 
L 67.390625 56.78125 
Q 61.921875 61.421875 55.765625 63.765625 
Q 49.609375 66.109375 42.828125 66.109375 
Q 29.4375 66.109375 22.71875 58.640625 
Q 16.015625 51.171875 16.015625 36.375 
Q 16.015625 21.625 22.71875 14.15625 
Q 29.4375 6.6875 42.828125 6.6875 
Q 48.046875 6.6875 52.140625 7.59375 
Q 56.25 8.5 59.515625 10.40625 
z
" id="DejaVuSans-71"/>
    <path d="M 19.671875 64.796875 
L 19.671875 8.109375 
L 31.59375 8.109375 
Q 46.6875 8.109375 53.6875 14.9375 
Q 60.6875 21.78125 60.6875 36.53125 
Q 60.6875 51.171875 53.6875 57.984375 
Q 46.6875 64.796875 31.59375 64.796875 
z
M 9.8125 72.90625 
L 30.078125 72.90625 
Q 51.265625 72.90625 61.171875 64.09375 
Q 71.09375 55.28125 71.09375 36.53125 
Q 71.09375 17.671875 61.125 8.828125 
Q 51.171875 0 30.078125 0 
L 9.8125 0 
z
" id="DejaVuSans-68"/>
    <path id="DejaVuSans-32"/>
    <path d="M 39.40625 66.21875 
Q 28.65625 66.21875 22.328125 58.203125 
Q 16.015625 50.203125 16.015625 36.375 
Q 16.015625 22.609375 22.328125 14.59375 
Q 28.65625 6.59375 39.40625 6.59375 
Q 50.140625 6.59375 56.421875 14.59375 
Q 62.703125 22.609375 62.703125 36.375 
Q 62.703125 50.203125 56.421875 58.203125 
Q 50.140625 66.21875 39.40625 66.21875 
z
M 39.40625 74.21875 
Q 54.734375 74.21875 63.90625 63.9375 
Q 73.09375 53.65625 73.09375 36.375 
Q 73.09375 19.140625 63.90625 8.859375 
Q 54.734375 -1.421875 39.40625 -1.421875 
Q 24.03125 -1.421875 14.8125 8.828125 
Q 5.609375 19.09375 5.609375 36.375 
Q 5.609375 53.65625 14.8125 63.9375 
Q 24.03125 74.21875 39.40625 74.21875 
z
" id="DejaVuSans-79"/>
    <path d="M 9.421875 54.6875 
L 18.40625 54.6875 
L 18.40625 0 
L 9.421875 0 
z
M 9.421875 75.984375 
L 18.40625 75.984375 
L 18.40625 64.59375 
L 9.421875 64.59375 
z
" id="DejaVuSans-105"/>
    <path d="M 52 44.1875 
Q 55.375 50.25 60.0625 53.125 
Q 64.75 56 71.09375 56 
Q 79.640625 56 84.28125 50.015625 
Q 88.921875 44.046875 88.921875 33.015625 
L 88.921875 0 
L 79.890625 0 
L 79.890625 32.71875 
Q 79.890625 40.578125 77.09375 44.375 
Q 74.3125 48.1875 68.609375 48.1875 
Q 61.625 48.1875 57.5625 43.546875 
Q 53.515625 38.921875 53.515625 30.90625 
L 53.515625 0 
L 44.484375 0 
L 44.484375 32.71875 
Q 44.484375 40.625 41.703125 44.40625 
Q 38.921875 48.1875 33.109375 48.1875 
Q 26.21875 48.1875 22.15625 43.53125 
Q 18.109375 38.875 18.109375 30.90625 
L 18.109375 0 
L 9.078125 0 
L 9.078125 54.6875 
L 18.109375 54.6875 
L 18.109375 46.1875 
Q 21.1875 51.21875 25.484375 53.609375 
Q 29.78125 56 35.6875 56 
Q 41.65625 56 45.828125 52.96875 
Q 50 49.953125 52 44.1875 
z
" id="DejaVuSans-109"/>
    <path d="M 5.515625 54.6875 
L 48.1875 54.6875 
L 48.1875 46.484375 
L 14.40625 7.171875 
L 48.1875 7.171875 
L 48.1875 0 
L 4.296875 0 
L 4.296875 8.203125 
L 38.09375 47.515625 
L 5.515625 47.515625 
z
" id="DejaVuSans-122"/>
    <path d="M 34.28125 27.484375 
Q 23.390625 27.484375 19.1875 25 
Q 14.984375 22.515625 14.984375 16.5 
Q 14.984375 11.71875 18.140625 8.90625 
Q 21.296875 6.109375 26.703125 6.109375 
Q 34.1875 6.109375 38.703125 11.40625 
Q 43.21875 16.703125 43.21875 25.484375 
L 43.21875 27.484375 
z
M 52.203125 31.203125 
L 52.203125 0 
L 43.21875 0 
L 43.21875 8.296875 
Q 40.140625 3.328125 35.546875 0.953125 
Q 30.953125 -1.421875 24.3125 -1.421875 
Q 15.921875 -1.421875 10.953125 3.296875 
Q 6 8.015625 6 15.921875 
Q 6 25.140625 12.171875 29.828125 
Q 18.359375 34.515625 30.609375 34.515625 
L 43.21875 34.515625 
L 43.21875 35.40625 
Q 43.21875 41.609375 39.140625 45 
Q 35.0625 48.390625 27.6875 48.390625 
Q 23 48.390625 18.546875 47.265625 
Q 14.109375 46.140625 10.015625 43.890625 
L 10.015625 52.203125 
Q 14.9375 54.109375 19.578125 55.046875 
Q 24.21875 56 28.609375 56 
Q 40.484375 56 46.34375 49.84375 
Q 52.203125 43.703125 52.203125 31.203125 
z
" id="DejaVuSans-97"/>
    <path d="M 30.609375 48.390625 
Q 23.390625 48.390625 19.1875 42.75 
Q 14.984375 37.109375 14.984375 27.296875 
Q 14.984375 17.484375 19.15625 11.84375 
Q 23.34375 6.203125 30.609375 6.203125 
Q 37.796875 6.203125 41.984375 11.859375 
Q 46.1875 17.53125 46.1875 27.296875 
Q 46.1875 37.015625 41.984375 42.703125 
Q 37.796875 48.390625 30.609375 48.390625 
z
M 30.609375 56 
Q 42.328125 56 49.015625 48.375 
Q 55.71875 40.765625 55.71875 27.296875 
Q 55.71875 13.875 49.015625 6.21875 
Q 42.328125 -1.421875 30.609375 -1.421875 
Q 18.84375 -1.421875 12.171875 6.21875 
Q 5.515625 13.875 5.515625 27.296875 
Q 5.515625 40.765625 12.171875 48.375 
Q 18.84375 56 30.609375 56 
z
" id="DejaVuSans-111"/>
    <path d="M 54.890625 33.015625 
L 54.890625 0 
L 45.90625 0 
L 45.90625 32.71875 
Q 45.90625 40.484375 42.875 44.328125 
Q 39.84375 48.1875 33.796875 48.1875 
Q 26.515625 48.1875 22.3125 43.546875 
Q 18.109375 38.921875 18.109375 30.90625 
L 18.109375 0 
L 9.078125 0 
L 9.078125 54.6875 
L 18.109375 54.6875 
L 18.109375 46.1875 
Q 21.34375 51.125 25.703125 53.5625 
Q 30.078125 56 35.796875 56 
Q 45.21875 56 50.046875 50.171875 
Q 54.890625 44.34375 54.890625 33.015625 
z
" id="DejaVuSans-110"/>
    <path d="M 14.796875 27.296875 
Q 14.796875 17.390625 18.875 11.75 
Q 22.953125 6.109375 30.078125 6.109375 
Q 37.203125 6.109375 41.296875 11.75 
Q 45.40625 17.390625 45.40625 27.296875 
Q 45.40625 37.203125 41.296875 42.84375 
Q 37.203125 48.484375 30.078125 48.484375 
Q 22.953125 48.484375 18.875 42.84375 
Q 14.796875 37.203125 14.796875 27.296875 
z
M 45.40625 8.203125 
Q 42.578125 3.328125 38.25 0.953125 
Q 33.9375 -1.421875 27.875 -1.421875 
Q 17.96875 -1.421875 11.734375 6.484375 
Q 5.515625 14.40625 5.515625 27.296875 
Q 5.515625 40.1875 11.734375 48.09375 
Q 17.96875 56 27.875 56 
Q 33.9375 56 38.25 53.625 
Q 42.578125 51.265625 45.40625 46.390625 
L 45.40625 54.6875 
L 54.390625 54.6875 
L 54.390625 -20.796875 
L 45.40625 -20.796875 
z
" id="DejaVuSans-113"/>
    <path d="M 8.5 21.578125 
L 8.5 54.6875 
L 17.484375 54.6875 
L 17.484375 21.921875 
Q 17.484375 14.15625 20.5 10.265625 
Q 23.53125 6.390625 29.59375 6.390625 
Q 36.859375 6.390625 41.078125 11.03125 
Q 45.3125 15.671875 45.3125 23.6875 
L 45.3125 54.6875 
L 54.296875 54.6875 
L 54.296875 0 
L 45.3125 0 
L 45.3125 8.40625 
Q 42.046875 3.421875 37.71875 1 
Q 33.40625 -1.421875 27.6875 -1.421875 
Q 18.265625 -1.421875 13.375 4.4375 
Q 8.5 10.296875 8.5 21.578125 
z
M 31.109375 56 
z
" id="DejaVuSans-117"/>
    <path d="M 45.40625 46.390625 
L 45.40625 75.984375 
L 54.390625 75.984375 
L 54.390625 0 
L 45.40625 0 
L 45.40625 8.203125 
Q 42.578125 3.328125 38.25 0.953125 
Q 33.9375 -1.421875 27.875 -1.421875 
Q 17.96875 -1.421875 11.734375 6.484375 
Q 5.515625 14.40625 5.515625 27.296875 
Q 5.515625 40.1875 11.734375 48.09375 
Q 17.96875 56 27.875 56 
Q 33.9375 56 38.25 53.625 
Q 42.578125 51.265625 45.40625 46.390625 
z
M 14.796875 27.296875 
Q 14.796875 17.390625 18.875 11.75 
Q 22.953125 6.109375 30.078125 6.109375 
Q 37.203125 6.109375 41.296875 11.75 
Q 45.40625 17.390625 45.40625 27.296875 
Q 45.40625 37.203125 41.296875 42.84375 
Q 37.203125 48.484375 30.078125 48.484375 
Q 22.953125 48.484375 18.875 42.84375 
Q 14.796875 37.203125 14.796875 27.296875 
z
" id="DejaVuSans-100"/>
    <path d="M 48.78125 52.59375 
L 48.78125 44.1875 
Q 44.96875 46.296875 41.140625 47.34375 
Q 37.3125 48.390625 33.40625 48.390625 
Q 24.65625 48.390625 19.8125 42.84375 
Q 14.984375 37.3125 14.984375 27.296875 
Q 14.984375 17.28125 19.8125 11.734375 
Q 24.65625 6.203125 33.40625 6.203125 
Q 37.3125 6.203125 41.140625 7.25 
Q 44.96875 8.296875 48.78125 10.40625 
L 48.78125 2.09375 
Q 45.015625 0.34375 40.984375 -0.53125 
Q 36.96875 -1.421875 32.421875 -1.421875 
Q 20.0625 -1.421875 12.78125 6.34375 
Q 5.515625 14.109375 5.515625 27.296875 
Q 5.515625 40.671875 12.859375 48.328125 
Q 20.21875 56 33.015625 56 
Q 37.15625 56 41.109375 55.140625 
Q 45.0625 54.296875 48.78125 52.59375 
z
" id="DejaVuSans-99"/>
    <path d="M 31 75.875 
Q 24.46875 64.65625 21.28125 53.65625 
Q 18.109375 42.671875 18.109375 31.390625 
Q 18.109375 20.125 21.3125 9.0625 
Q 24.515625 -2 31 -13.1875 
L 23.1875 -13.1875 
Q 15.875 -1.703125 12.234375 9.375 
Q 8.59375 20.453125 8.59375 31.390625 
Q 8.59375 42.28125 12.203125 53.3125 
Q 15.828125 64.359375 23.1875 75.875 
z
" id="DejaVuSans-40"/>
    <path d="M 4.890625 31.390625 
L 31.203125 31.390625 
L 31.203125 23.390625 
L 4.890625 23.390625 
z
" id="DejaVuSans-45"/>
    <path d="M -0.296875 72.90625 
L 61.375 72.90625 
L 61.375 64.59375 
L 35.5 64.59375 
L 35.5 0 
L 25.59375 0 
L 25.59375 64.59375 
L -0.296875 64.59375 
z
" id="DejaVuSans-84"/>
    <path d="M 9.8125 72.90625 
L 51.703125 72.90625 
L 51.703125 64.59375 
L 19.671875 64.59375 
L 19.671875 43.109375 
L 48.578125 43.109375 
L 48.578125 34.8125 
L 19.671875 34.8125 
L 19.671875 0 
L 9.8125 0 
z
" id="DejaVuSans-70"/>
    <path d="M 11.71875 12.40625 
L 22.015625 12.40625 
L 22.015625 4 
L 14.015625 -11.625 
L 7.71875 -11.625 
L 11.71875 4 
z
" id="DejaVuSans-44"/>
    <path d="M 53.515625 70.515625 
L 53.515625 60.890625 
Q 47.90625 63.578125 42.921875 64.890625 
Q 37.9375 66.21875 33.296875 66.21875 
Q 25.25 66.21875 20.875 63.09375 
Q 16.5 59.96875 16.5 54.203125 
Q 16.5 49.359375 19.40625 46.890625 
Q 22.3125 44.4375 30.421875 42.921875 
L 36.375 41.703125 
Q 47.40625 39.59375 52.65625 34.296875 
Q 57.90625 29 57.90625 20.125 
Q 57.90625 9.515625 50.796875 4.046875 
Q 43.703125 -1.421875 29.984375 -1.421875 
Q 24.8125 -1.421875 18.96875 -0.25 
Q 13.140625 0.921875 6.890625 3.21875 
L 6.890625 13.375 
Q 12.890625 10.015625 18.65625 8.296875 
Q 24.421875 6.59375 29.984375 6.59375 
Q 38.421875 6.59375 43.015625 9.90625 
Q 47.609375 13.234375 47.609375 19.390625 
Q 47.609375 24.75 44.3125 27.78125 
Q 41.015625 30.8125 33.5 32.328125 
L 27.484375 33.5 
Q 16.453125 35.6875 11.515625 40.375 
Q 6.59375 45.0625 6.59375 53.421875 
Q 6.59375 63.09375 13.40625 68.65625 
Q 20.21875 74.21875 32.171875 74.21875 
Q 37.3125 74.21875 42.625 73.28125 
Q 47.953125 72.359375 53.515625 70.515625 
z
" id="DejaVuSans-83"/>
    <path d="M 9.8125 72.90625 
L 19.671875 72.90625 
L 19.671875 5.078125 
Q 19.671875 -8.109375 14.671875 -14.0625 
Q 9.671875 -20.015625 -1.421875 -20.015625 
L -5.171875 -20.015625 
L -5.171875 -11.71875 
L -2.09375 -11.71875 
Q 4.4375 -11.71875 7.125 -8.046875 
Q 9.8125 -4.390625 9.8125 5.078125 
z
" id="DejaVuSans-74"/>
    <path d="M 8.015625 75.875 
L 15.828125 75.875 
Q 23.140625 64.359375 26.78125 53.3125 
Q 30.421875 42.28125 30.421875 31.390625 
Q 30.421875 20.453125 26.78125 9.375 
Q 23.140625 -1.703125 15.828125 -13.1875 
L 8.015625 -13.1875 
Q 14.5 -2 17.703125 9.0625 
Q 20.90625 20.125 20.90625 31.390625 
Q 20.90625 42.671875 17.703125 53.65625 
Q 14.5 64.65625 8.015625 75.875 
z
" id="DejaVuSans-41"/>
   </defs>
   <g transform="translate(103.246875 16.030125)scale(0.12 -0.12)">
    <use xlink:href="#DejaVuSans-71"/>
    <use x="77.490234" xlink:href="#DejaVuSans-68"/>
    <use x="154.492188" xlink:href="#DejaVuSans-32"/>
    <use x="186.279297" xlink:href="#DejaVuSans-79"/>
    <use x="264.990234" xlink:href="#DejaVuSans-112"/>
    <use x="328.466797" xlink:href="#DejaVuSans-116"/>
    <use x="367.675781" xlink:href="#DejaVuSans-105"/>
    <use x="395.458984" xlink:href="#DejaVuSans-109"/>
    <use x="492.871094" xlink:href="#DejaVuSans-105"/>
    <use x="520.654297" xlink:href="#DejaVuSans-122"/>
    <use x="573.144531" xlink:href="#DejaVuSans-97"/>
    <use x="634.423828" xlink:href="#DejaVuSans-116"/>
    <use x="673.632812" xlink:href="#DejaVuSans-105"/>
    <use x="701.416016" xlink:href="#DejaVuSans-111"/>
    <use x="762.597656" xlink:href="#DejaVuSans-110"/>
    <use x="825.976562" xlink:href="#DejaVuSans-32"/>
    <use x="857.763672" xlink:href="#DejaVuSans-113"/>
    <use x="921.240234" xlink:href="#DejaVuSans-117"/>
    <use x="984.619141" xlink:href="#DejaVuSans-97"/>
    <use x="1045.898438" xlink:href="#DejaVuSans-100"/>
    <use x="1109.375" xlink:href="#DejaVuSans-114"/>
    <use x="1150.488281" xlink:href="#DejaVuSans-97"/>
    <use x="1211.767578" xlink:href="#DejaVuSans-116"/>
    <use x="1250.976562" xlink:href="#DejaVuSans-105"/>
    <use x="1278.759766" xlink:href="#DejaVuSans-99"/>
    <use x="1333.740234" xlink:href="#DejaVuSans-32"/>
    <use x="1365.527344" xlink:href="#DejaVuSans-108"/>
    <use x="1393.310547" xlink:href="#DejaVuSans-111"/>
    <use x="1454.492188" xlink:href="#DejaVuSans-115"/>
    <use x="1506.591797" xlink:href="#DejaVuSans-115"/>
    <use x="1558.691406" xlink:href="#DejaVuSans-32"/>
    <use x="1590.478516" xlink:href="#DejaVuSans-40"/>
    <use x="1629.492188" xlink:href="#DejaVuSans-45"/>
    <use x="1665.576172" xlink:href="#DejaVuSans-58"/>
    <use x="1699.267578" xlink:href="#DejaVuSans-84"/>
    <use x="1760.351562" xlink:href="#DejaVuSans-70"/>
    <use x="1817.871094" xlink:href="#DejaVuSans-44"/>
    <use x="1849.658203" xlink:href="#DejaVuSans-32"/>
    <use x="1881.445312" xlink:href="#DejaVuSans-45"/>
    <use x="1917.529297" xlink:href="#DejaVuSans-45"/>
    <use x="1953.613281" xlink:href="#DejaVuSans-58"/>
    <use x="1987.304688" xlink:href="#DejaVuSans-83"/>
    <use x="2050.78125" xlink:href="#DejaVuSans-74"/>
    <use x="2080.273438" xlink:href="#DejaVuSans-41"/>
   </g>
  </g>
 </g>
 <defs>
  <clipPath id="p559b82425c">
   <rect height="266.112" width="61.572414" x="57.6" y="41.472"/>
  </clipPath>
  <clipPath id="pc756549b43">
   <rect height="266.112" width="61.572414" x="131.486897" y="41.472"/>
  </clipPath>
  <clipPath id="p3099c2bb9a">
   <rect height="266.112" width="61.572414" x="205.373793" y="41.472"/>
  </clipPath>
  <clipPath id="p9d39d5ab79">
   <rect height="266.112" width="61.572414" x="279.26069" y="41.472"/>
  </clipPath>
  <clipPath id="pb2b725e789">
   <rect height="266.112" width="61.572414" x="353.147586" y="41.472"/>
  </clipPath>
 </defs>
</svg>
