<?xml version="1.0" encoding="utf-8" standalone="no"?>
<!DOCTYPE svg PUBLIC "-//W3C//DTD SVG 1.1//EN"
  "http://www.w3.org/Graphics/SVG/1.1/DTD/svg11.dtd">
<!-- Created with matplotlib (https://matplotlib.org/) -->
<svg height="144pt" version="1.1" viewBox="0 0 360 144" width="360pt" xmlns="http://www.w3.org/2000/svg" xmlns:xlink="http://www.w3.org/1999/xlink">
 <defs>
  <style type="text/css">
*{stroke-linecap:butt;stroke-linejoin:round;}
  </style>
 </defs>
 <g id="figure_1">
  <g id="patch_1">
   <path d="M 0 144 
L 360 144 
L 360 0 
L 0 0 
z
" style="fill:#ffffff;"/>
  </g>
  <g id="axes_1">
   <g id="patch_2">
    <path d="M 14.3 129.7 
L 349.2 129.7 
L 349.2 26.88 
L 14.3 26.88 
z
" style="fill:#ffffff;"/>
   </g>
   <g id="matplotlib.axis_1"/>
   <g id="matplotlib.axis_2"/>
   <g id="line2d_1">
    <path clip-path="url(#p5dafa7445e)" d="M 29.522727 113.47909 
L 30.118529 116.629559 
L 30.71433 111.305843 
L 31.310132 107.031262 
L 31.905933 103.659457 
L 32.501735 118.703787 
L 33.097536 111.707567 
L 33.693337 120.39065 
L 34.289139 116.200723 
L 34.88494 102.664172 
L 35.480742 99.717661 
L 36.076543 114.539887 
L 36.672345 113.252193 
L 37.268146 109.139367 
L 37.863948 123.961143 
L 38.459749 105.184841 
L 39.055551 123.886325 
L 39.651352 109.257738 
L 40.247154 113.852204 
L 40.842955 115.329866 
L 41.438756 111.988881 
L 42.034558 114.75184 
L 42.630359 110.829363 
L 43.226161 115.540609 
L 43.821962 114.573343 
L 44.417764 106.920385 
L 45.013565 112.061741 
L 45.609367 110.318871 
L 46.205168 122.52352 
L 46.80097 122.442667 
L 47.396771 112.441759 
L 47.992572 107.54042 
L 48.588374 112.616139 
L 49.184175 110.634908 
L 49.779977 113.629132 
L 50.375778 118.047729 
L 50.97158 104.31448 
L 51.567381 111.258739 
L 52.163183 116.661898 
L 52.758984 110.312623 
L 53.354786 107.403541 
L 53.950587 111.936532 
L 54.546389 121.599226 
L 55.14219 111.010341 
L 55.737991 110.530994 
L 56.333793 103.33083 
L 56.929594 107.405693 
L 57.525396 108.81808 
L 58.121197 117.632548 
L 58.716999 114.364736 
L 59.3128 112.374417 
L 59.908602 108.378714 
L 60.504403 100.291749 
L 61.100205 96.615018 
L 61.696006 101.445986 
L 62.291808 95.621486 
L 62.887609 112.876984 
L 63.48341 102.749875 
L 64.079212 111.413811 
L 64.675013 105.88483 
L 65.270815 96.83187 
L 65.866616 102.908375 
L 66.462418 100.413501 
L 67.058219 92.190002 
L 67.654021 110.553 
L 68.249822 109.56124 
L 68.845624 102.844522 
L 69.441425 104.757695 
L 70.037226 91.362037 
L 70.633028 111.160887 
L 71.228829 99.758306 
L 71.824631 101.406048 
L 72.420432 112.366603 
L 73.016234 91.410131 
L 73.612035 102.37545 
L 74.207837 96.897949 
L 74.803638 94.70109 
L 75.39944 97.39585 
L 75.995241 101.286944 
L 76.591043 96.799242 
L 77.186844 101.065377 
L 77.782645 99.408338 
L 78.378447 89.158703 
L 78.974248 94.119549 
L 80.165851 110.999088 
L 80.761653 102.733471 
L 81.357454 100.089598 
L 81.953256 102.144298 
L 82.549057 99.607668 
L 83.144859 97.983803 
L 83.74066 101.640195 
L 84.336461 94.176135 
L 84.932263 99.990244 
L 85.528064 81.944876 
L 86.123866 101.175551 
L 86.719667 105.365701 
L 87.315469 91.726439 
L 87.91127 102.286304 
L 88.507072 103.763174 
L 89.102873 88.44665 
L 89.698675 90.239234 
L 90.294476 65.482018 
L 90.890278 91.563591 
L 91.486079 90.828065 
L 92.08188 91.544779 
L 92.677682 83.145617 
L 93.273483 90.369244 
L 93.869285 83.980186 
L 94.465086 84.430565 
L 95.060888 95.42319 
L 95.656689 77.769347 
L 96.252491 95.328646 
L 96.848292 94.374087 
L 97.444094 86.063046 
L 98.039895 85.351166 
L 98.635696 92.483466 
L 99.231498 82.130793 
L 99.827299 76.870233 
L 100.423101 84.547082 
L 101.018902 87.671684 
L 101.614704 87.119369 
L 102.806307 64.706755 
L 103.402108 79.156554 
L 103.99791 66.45598 
L 104.593711 84.421823 
L 105.189513 69.769186 
L 105.785314 90.017786 
L 106.381115 72.686717 
L 106.976917 75.086932 
L 107.572718 84.47919 
L 108.764321 76.17005 
L 109.360123 71.398986 
L 109.955924 81.129052 
L 110.551726 75.815831 
L 111.147527 79.123791 
L 111.743329 72.99606 
L 112.33913 79.018932 
L 113.530733 61.683292 
L 114.126534 77.132939 
L 114.722336 75.854668 
L 115.318137 72.05039 
L 115.913939 73.935973 
L 116.50974 71.819061 
L 117.105542 77.105573 
L 117.701343 74.372884 
L 118.297145 76.765916 
L 118.892946 62.805956 
L 119.488748 72.259182 
L 120.68035 56.495458 
L 121.276152 63.890338 
L 121.871953 66.366596 
L 122.467755 66.42115 
L 123.063556 71.176367 
L 123.659358 66.193895 
L 124.255159 73.097753 
L 124.850961 69.532798 
L 125.446762 66.938716 
L 126.042564 73.230022 
L 126.638365 54.525479 
L 127.234167 68.69231 
L 127.829968 63.226287 
L 128.425769 62.46529 
L 129.021571 66.200173 
L 129.617372 57.458729 
L 130.213174 59.903882 
L 130.808975 69.535366 
L 131.404777 72.122479 
L 132.000578 71.078609 
L 132.59638 55.127244 
L 133.192181 64.647619 
L 133.787983 47.349394 
L 134.383784 66.727074 
L 134.979585 77.561038 
L 135.575387 66.873586 
L 136.171188 62.032046 
L 136.76699 49.722484 
L 137.362791 64.549626 
L 137.958593 60.234693 
L 138.554394 49.614786 
L 139.150196 55.328039 
L 139.745997 57.925464 
L 140.341799 56.565756 
L 140.9376 53.271861 
L 141.533402 59.954298 
L 142.129203 63.521345 
L 142.725004 53.263255 
L 143.320806 54.386669 
L 143.916607 56.087348 
L 144.512409 62.757815 
L 145.10821 58.028044 
L 145.704012 65.554131 
L 146.299813 55.788307 
L 146.895615 54.108282 
L 147.491416 46.459204 
L 148.087218 60.521363 
L 148.683019 44.499659 
L 149.27882 46.067729 
L 149.874622 61.020481 
L 150.470423 54.518037 
L 151.066225 60.837832 
L 151.662026 56.335249 
L 152.257828 61.199796 
L 152.853629 51.227433 
L 153.449431 60.454611 
L 154.045232 51.019272 
L 154.641034 63.919801 
L 155.832637 52.807668 
L 156.428438 60.778507 
L 157.024239 45.871256 
L 157.620041 39.933312 
L 158.215842 60.570969 
L 158.811644 59.061506 
L 159.407445 51.833506 
L 160.003247 52.523584 
L 160.599048 48.589829 
L 161.19485 55.135056 
L 161.790651 59.18572 
L 162.386453 44.396552 
L 162.982254 44.984919 
L 163.578056 59.377002 
L 164.173857 53.104986 
L 165.36546 43.474927 
L 165.961261 59.572494 
L 166.557063 45.218119 
L 167.152864 45.753026 
L 167.748666 49.112814 
L 168.344467 58.150435 
L 168.940269 50.265371 
L 169.53607 51.657114 
L 170.131872 46.523462 
L 170.727673 61.588355 
L 171.323474 44.938887 
L 171.919276 52.201854 
L 172.515077 56.815715 
L 173.110879 51.653825 
L 173.70668 37.96452 
L 174.302482 31.553636 
L 175.494085 61.906962 
L 176.089886 39.732302 
L 176.685688 43.146503 
L 177.281489 41.214334 
L 177.877291 53.918925 
L 178.473092 37.371841 
L 179.068893 54.256267 
L 179.664695 52.676437 
L 180.260496 38.633367 
L 180.856298 49.102857 
L 181.452099 44.701181 
L 182.047901 51.79369 
L 182.643702 46.338352 
L 183.239504 51.77553 
L 183.835305 43.897837 
L 184.431107 47.497555 
L 185.026908 46.218227 
L 185.622709 54.900477 
L 186.218511 43.258218 
L 186.814312 36.144903 
L 187.410114 44.251335 
L 188.005915 49.056287 
L 188.601717 62.656981 
L 189.197518 43.976315 
L 189.79332 37.627539 
L 190.389121 52.112008 
L 190.984923 41.541368 
L 191.580724 47.99124 
L 192.176526 57.060234 
L 192.772327 50.282859 
L 193.368128 41.111973 
L 193.96393 43.493998 
L 194.559731 50.144426 
L 195.155533 45.596949 
L 195.751334 60.631017 
L 196.347136 47.38723 
L 196.942937 43.048408 
L 197.538739 51.237903 
L 198.13454 46.39691 
L 198.730342 50.664532 
L 199.326143 43.316716 
L 199.921944 43.579649 
L 200.517746 54.536618 
L 201.113547 57.77492 
L 201.709349 50.529674 
L 202.30515 47.146314 
L 202.900952 49.565311 
L 203.496753 64.573963 
L 204.092555 50.248248 
L 204.688356 53.749334 
L 205.284158 45.41185 
L 205.879959 44.428088 
L 206.475761 55.568281 
L 207.071562 50.669691 
L 207.667363 56.110898 
L 208.263165 52.694906 
L 208.858966 63.189037 
L 209.454768 51.250734 
L 210.050569 55.801927 
L 210.646371 64.710665 
L 211.242172 43.329537 
L 211.837974 70.502875 
L 212.433775 48.474246 
L 213.029577 52.722189 
L 213.625378 50.157012 
L 214.22118 58.670087 
L 214.816981 57.207723 
L 215.412782 52.612752 
L 216.008584 57.052416 
L 216.604385 58.38007 
L 217.200187 61.381448 
L 217.795988 34.170501 
L 218.39179 51.060091 
L 218.987591 63.711355 
L 219.583393 61.720952 
L 220.179194 49.140302 
L 220.774996 57.729825 
L 221.370797 52.482647 
L 221.966598 57.329705 
L 222.5624 58.423309 
L 223.158201 61.71309 
L 223.754003 52.705617 
L 224.349804 53.884579 
L 224.945606 58.126399 
L 225.541407 56.487929 
L 226.137209 51.779246 
L 226.73301 65.475846 
L 227.328812 60.000831 
L 227.924613 63.296626 
L 228.520415 57.904658 
L 229.116216 69.227277 
L 229.712017 51.073406 
L 230.307819 67.926674 
L 230.90362 64.33473 
L 231.499422 71.234865 
L 232.095223 61.158063 
L 232.691025 56.419117 
L 233.286826 66.434548 
L 233.882628 66.807503 
L 234.478429 65.8499 
L 235.074231 64.680958 
L 235.670032 67.906815 
L 236.265833 60.633727 
L 236.861635 65.748412 
L 237.457436 74.104284 
L 238.053238 77.919611 
L 238.649039 68.394323 
L 239.244841 64.10161 
L 239.840642 62.324757 
L 240.436444 68.744229 
L 241.032245 79.799415 
L 241.628047 71.601122 
L 242.223848 67.323093 
L 242.81965 79.460859 
L 243.415451 66.525087 
L 244.011252 72.800055 
L 244.607054 75.036373 
L 245.202855 75.049206 
L 245.798657 69.533194 
L 246.394458 70.900294 
L 246.99026 81.518894 
L 248.181863 66.522827 
L 248.777664 80.983627 
L 249.373466 72.165184 
L 249.969267 69.672883 
L 250.565068 84.040174 
L 251.16087 79.049929 
L 251.756671 76.660054 
L 252.352473 81.014802 
L 252.948274 80.975976 
L 253.544076 86.929052 
L 254.735679 76.741845 
L 255.33148 73.503788 
L 255.927282 95.899458 
L 256.523083 74.100962 
L 257.118885 84.866201 
L 257.714686 84.890795 
L 258.310487 88.079892 
L 258.906289 79.088211 
L 259.50209 85.555633 
L 260.097892 83.797837 
L 260.693693 80.844693 
L 261.289495 85.673502 
L 261.885296 86.005064 
L 262.481098 92.595724 
L 263.076899 88.763464 
L 263.672701 93.559812 
L 264.268502 85.453294 
L 264.864304 72.714045 
L 265.460105 84.136312 
L 266.055906 69.664864 
L 267.247509 90.812782 
L 267.843311 90.857019 
L 268.439112 82.462721 
L 269.034914 94.328043 
L 269.630715 96.892282 
L 270.226517 74.982203 
L 270.822318 96.636109 
L 271.41812 84.218182 
L 272.609722 98.236611 
L 273.205524 84.606133 
L 273.801325 95.3214 
L 274.397127 87.093925 
L 274.992928 91.629587 
L 275.58873 88.746201 
L 276.184531 112.328999 
L 276.780333 97.229539 
L 277.376134 97.413215 
L 277.971936 102.739906 
L 278.567737 98.204444 
L 279.163539 98.177208 
L 279.75934 93.200901 
L 280.355141 108.548726 
L 280.950943 88.449769 
L 281.546744 88.855903 
L 282.142546 97.956025 
L 282.738347 102.098828 
L 283.334149 101.52088 
L 283.92995 99.105536 
L 284.525752 107.41844 
L 285.121553 98.674244 
L 285.717355 102.862164 
L 286.313156 104.977206 
L 286.908957 95.771877 
L 287.504759 95.37484 
L 288.10056 96.24989 
L 288.696362 85.174564 
L 289.887965 109.810038 
L 290.483766 100.868883 
L 291.079568 100.516014 
L 291.675369 112.452357 
L 292.271171 104.26784 
L 292.866972 88.344652 
L 293.462774 104.656784 
L 294.058575 115.201129 
L 294.654376 112.427559 
L 295.845979 93.620478 
L 296.441781 98.493287 
L 297.037582 92.748261 
L 297.633384 103.885636 
L 298.229185 94.787568 
L 298.824987 109.12995 
L 299.420788 102.869762 
L 300.01659 107.698843 
L 300.612391 111.609758 
L 301.208192 106.511527 
L 301.803994 92.79244 
L 302.399795 101.121954 
L 302.995597 118.640463 
L 303.591398 111.571368 
L 304.1872 111.280799 
L 304.783001 107.990443 
L 305.378803 112.332625 
L 305.974604 105.203563 
L 306.570406 118.628135 
L 307.166207 113.322494 
L 307.762009 103.05185 
L 308.35781 113.942566 
L 308.953611 109.936018 
L 309.549413 113.506775 
L 310.145214 116.134843 
L 310.741016 97.432495 
L 311.336817 114.160189 
L 312.52842 120.531015 
L 313.720023 104.502785 
L 314.315825 123.715744 
L 314.911626 112.877311 
L 315.507428 112.250135 
L 316.103229 115.77263 
L 316.69903 122.835024 
L 317.294832 119.093828 
L 317.890633 117.434337 
L 318.486435 103.286345 
L 319.082236 111.107282 
L 319.678038 101.215237 
L 320.273839 123.161401 
L 320.869641 117.182375 
L 321.465442 109.975855 
L 322.061244 108.867605 
L 323.252846 120.892384 
L 323.848648 124.572898 
L 324.444449 111.634632 
L 325.040251 122.947646 
L 325.636052 122.43292 
L 326.231854 125.026364 
L 326.827655 112.798622 
L 327.423457 113.214914 
L 328.019258 119.365007 
L 328.61506 103.260446 
L 329.210861 106.850541 
L 329.806663 112.373287 
L 330.402464 122.431077 
L 330.998265 101.372614 
L 332.189868 122.958798 
L 332.78567 117.624667 
L 333.381471 117.644255 
L 333.977273 121.346981 
L 333.977273 121.346981 
" style="fill:none;stroke:#0000ff;stroke-linecap:square;stroke-width:1.5;"/>
   </g>
   <g id="line2d_2">
    <path clip-path="url(#p5dafa7445e)" d="M 29.522727 112.177213 
L 30.118529 110.801068 
L 30.71433 110.592103 
L 31.905933 110.997545 
L 32.501735 113.027718 
L 33.097536 111.675823 
L 33.693337 112.893696 
L 34.289139 111.780405 
L 34.88494 111.545553 
L 36.076543 114.039247 
L 36.672345 114.060441 
L 37.268146 113.818157 
L 37.863948 114.458283 
L 38.459749 113.519503 
L 39.055551 113.693053 
L 39.651352 112.510595 
L 40.247154 112.61671 
L 41.438756 114.195124 
L 42.034558 114.240411 
L 42.630359 113.51927 
L 43.226161 113.69795 
L 43.821962 113.207378 
L 44.417764 113.112955 
L 45.013565 114.225691 
L 45.609367 113.450961 
L 46.205168 113.544949 
L 46.80097 112.958789 
L 47.396771 111.745784 
L 47.992572 111.241962 
L 48.588374 111.681573 
L 49.184175 112.579881 
L 49.779977 112.617424 
L 50.375778 112.307611 
L 50.97158 110.835922 
L 51.567381 111.145042 
L 52.163183 110.900974 
L 52.758984 110.998043 
L 53.950587 111.900342 
L 54.546389 111.544559 
L 55.14219 109.413813 
L 55.737991 107.974279 
L 56.929594 106.294844 
L 57.525396 106.841974 
L 58.716999 105.613278 
L 59.3128 104.765289 
L 59.908602 103.211035 
L 60.504403 102.663999 
L 61.100205 102.676173 
L 61.696006 102.233671 
L 62.291808 103.144372 
L 62.887609 104.538348 
L 63.48341 103.535103 
L 64.079212 103.735886 
L 64.675013 101.730711 
L 65.270815 102.258316 
L 65.866616 102.550957 
L 66.462418 102.400726 
L 67.058219 103.596033 
L 67.654021 103.518047 
L 68.249822 102.700292 
L 68.845624 101.433964 
L 70.037226 99.883434 
L 70.633028 100.875925 
L 71.228829 99.439762 
L 71.824631 99.570469 
L 72.420432 99.370698 
L 73.016234 97.049908 
L 73.612035 97.320848 
L 74.207837 97.422664 
L 74.803638 98.832777 
L 75.39944 99.636016 
L 75.995241 99.90539 
L 76.591043 99.991126 
L 77.186844 100.271968 
L 77.782645 99.96381 
L 78.378447 100.186996 
L 79.57005 101.275808 
L 80.165851 99.130937 
L 80.761653 98.148585 
L 81.357454 98.411807 
L 81.953256 97.575491 
L 82.549057 97.589691 
L 83.144859 98.005243 
L 84.336461 95.911431 
L 84.932263 93.04202 
L 85.528064 92.199353 
L 86.123866 93.087673 
L 86.719667 92.124596 
L 87.315469 89.902587 
L 87.91127 89.766868 
L 89.102873 86.002995 
L 89.698675 86.700649 
L 90.294476 85.45366 
L 90.890278 88.438323 
L 91.486079 88.719373 
L 92.08188 88.242871 
L 92.677682 87.623509 
L 93.273483 88.557294 
L 94.465086 87.022454 
L 95.060888 87.034105 
L 95.656689 86.258955 
L 96.252491 87.193956 
L 96.848292 85.242071 
L 97.444094 82.275338 
L 98.039895 81.584689 
L 98.635696 79.69517 
L 99.231498 78.889006 
L 99.827299 77.652845 
L 100.423101 78.9676 
L 101.614704 76.523089 
L 102.210505 76.259071 
L 102.806307 76.730879 
L 103.402108 77.877208 
L 103.99791 77.101451 
L 104.593711 78.568759 
L 105.189513 77.708159 
L 105.785314 78.64362 
L 106.381115 76.941447 
L 106.976917 77.574668 
L 107.572718 77.0516 
L 108.16852 74.772009 
L 108.764321 74.432517 
L 109.955924 74.46612 
L 110.551726 73.746813 
L 111.147527 73.347135 
L 111.743329 73.145313 
L 112.33913 73.282996 
L 112.934932 73.057694 
L 113.530733 72.352665 
L 114.126534 73.410254 
L 114.722336 72.086433 
L 115.318137 70.150512 
L 116.50974 68.57757 
L 117.701343 67.444858 
L 118.297145 66.626957 
L 118.892946 66.260141 
L 119.488748 66.932827 
L 120.084549 66.400782 
L 120.68035 67.334309 
L 121.276152 67.13731 
L 121.871953 67.617507 
L 123.063556 66.907892 
L 123.659358 66.410273 
L 124.255159 65.536755 
L 124.850961 64.217369 
L 125.446762 64.217626 
L 126.042564 64.736003 
L 126.638365 64.520861 
L 127.234167 64.581037 
L 127.829968 64.176567 
L 128.425769 62.588878 
L 129.021571 63.015058 
L 130.213174 65.092628 
L 130.808975 65.305444 
L 131.404777 63.324158 
L 132.000578 62.566871 
L 132.59638 61.48248 
L 133.192181 60.931234 
L 133.787983 59.999275 
L 134.383784 61.056883 
L 134.979585 60.040752 
L 135.575387 57.611833 
L 136.171188 56.919904 
L 136.76699 57.068836 
L 137.362791 57.422913 
L 137.958593 56.406615 
L 138.554394 55.991881 
L 139.150196 57.306185 
L 139.745997 57.576184 
L 140.341799 58.339051 
L 140.9376 58.261307 
L 141.533402 58.344948 
L 142.129203 56.99544 
L 142.725004 56.695442 
L 143.916607 54.987189 
L 144.512409 55.480503 
L 145.10821 54.656524 
L 145.704012 54.937505 
L 146.299813 54.015616 
L 146.895615 54.556765 
L 147.491416 54.26868 
L 148.087218 55.668219 
L 148.683019 54.718011 
L 149.27882 56.660023 
L 149.874622 57.85391 
L 150.470423 57.032628 
L 151.066225 57.658676 
L 152.257828 54.521827 
L 152.853629 54.45894 
L 153.449431 55.242352 
L 154.045232 54.380238 
L 154.641034 54.530668 
L 155.236835 52.99767 
L 155.832637 52.71052 
L 156.428438 53.348324 
L 157.024239 51.710131 
L 157.620041 51.621496 
L 158.215842 53.565865 
L 158.811644 52.819267 
L 160.003247 50.944594 
L 160.599048 51.649486 
L 161.19485 51.312315 
L 162.386453 49.366823 
L 162.982254 50.742207 
L 163.578056 51.270253 
L 164.769658 49.84011 
L 165.36546 51.131609 
L 165.961261 51.278009 
L 166.557063 50.540944 
L 167.152864 51.700705 
L 167.748666 52.290784 
L 168.344467 51.175954 
L 168.940269 48.516273 
L 169.53607 48.300674 
L 170.131872 49.325657 
L 170.727673 48.64654 
L 171.323474 46.802354 
L 171.919276 46.429899 
L 172.515077 46.601608 
L 173.110879 44.657223 
L 173.70668 44.917464 
L 174.302482 46.388656 
L 174.898283 47.09663 
L 175.494085 47.195978 
L 176.089886 45.475402 
L 176.685688 46.681537 
L 177.281489 47.00072 
L 177.877291 48.056847 
L 178.473092 47.054735 
L 179.068893 48.067308 
L 179.664695 47.263505 
L 180.260496 47.485908 
L 180.856298 47.948395 
L 181.452099 46.652595 
L 182.047901 46.607614 
L 182.643702 46.33387 
L 183.239504 47.965735 
L 184.431107 46.558784 
L 185.026908 47.020232 
L 185.622709 46.552542 
L 186.218511 45.861618 
L 187.410114 48.655619 
L 188.005915 48.34168 
L 188.601717 47.785451 
L 189.197518 46.534196 
L 189.79332 46.696259 
L 190.389121 48.996603 
L 190.984923 48.524129 
L 191.580724 48.674834 
L 192.176526 48.9995 
L 192.772327 47.933168 
L 193.368128 47.971332 
L 193.96393 48.191811 
L 194.559731 48.200377 
L 195.155533 48.639597 
L 195.751334 49.85739 
L 196.347136 48.847259 
L 196.942937 48.823167 
L 197.538739 49.474856 
L 198.13454 50.808462 
L 199.326143 51.502073 
L 199.921944 51.711587 
L 201.113547 51.899596 
L 201.709349 51.189076 
L 202.900952 52.302059 
L 203.496753 53.66443 
L 204.092555 52.332108 
L 204.688356 52.887473 
L 205.284158 53.983608 
L 205.879959 53.775376 
L 206.475761 56.382853 
L 207.071562 55.673451 
L 207.667363 55.878702 
L 208.263165 55.283314 
L 208.858966 55.880831 
L 209.454768 55.282698 
L 210.646371 55.54395 
L 211.242172 54.910891 
L 211.837974 56.716082 
L 212.433775 53.082846 
L 213.029577 53.34143 
L 214.22118 55.596739 
L 214.816981 54.643757 
L 216.604385 54.710689 
L 217.795988 54.748177 
L 218.39179 56.601688 
L 218.987591 56.884137 
L 220.179194 55.802337 
L 220.774996 56.066233 
L 221.966598 57.592655 
L 222.5624 58.189349 
L 223.158201 58.137483 
L 223.754003 58.888902 
L 224.349804 58.725682 
L 224.945606 60.129891 
L 225.541407 60.750724 
L 226.137209 62.225414 
L 226.73301 63.163297 
L 227.328812 62.257624 
L 227.924613 62.900995 
L 228.520415 63.252085 
L 229.116216 64.046607 
L 229.712017 63.591976 
L 230.307819 65.275317 
L 230.90362 64.546024 
L 231.499422 64.687391 
L 232.095223 64.97433 
L 232.691025 66.650489 
L 233.286826 67.848007 
L 233.882628 67.614715 
L 234.478429 67.166439 
L 235.074231 67.455871 
L 235.670032 68.967718 
L 236.265833 69.337149 
L 236.861635 70.006085 
L 237.457436 71.377331 
L 238.053238 70.61941 
L 238.649039 70.107455 
L 239.244841 70.77166 
L 239.840642 71.866419 
L 240.436444 72.587264 
L 242.223848 73.224082 
L 242.81965 73.144055 
L 243.415451 73.296332 
L 244.011252 73.86034 
L 244.607054 73.547623 
L 245.202855 74.448003 
L 245.798657 74.848075 
L 246.394458 75.560762 
L 246.99026 76.572213 
L 247.586061 76.51792 
L 248.777664 79.314748 
L 249.373466 78.89057 
L 249.969267 79.024431 
L 250.565068 81.647088 
L 251.16087 80.653167 
L 251.756671 81.234794 
L 252.948274 82.764377 
L 254.139877 82.438259 
L 254.735679 82.652462 
L 255.33148 83.062747 
L 255.927282 84.279718 
L 256.523083 83.290279 
L 257.118885 85.139755 
L 257.714686 85.529482 
L 258.310487 86.396383 
L 258.906289 86.133723 
L 259.50209 85.496307 
L 260.097892 85.354375 
L 260.693693 83.941077 
L 261.289495 83.935119 
L 262.481098 84.934243 
L 263.076899 83.920942 
L 263.672701 84.477401 
L 264.268502 84.810648 
L 264.864304 83.763538 
L 265.460105 86.155745 
L 266.055906 86.163932 
L 266.651708 88.342872 
L 267.247509 90.088022 
L 267.843311 89.467357 
L 269.034914 90.376915 
L 269.630715 90.107069 
L 270.226517 89.292462 
L 270.822318 93.027141 
L 271.41812 93.086484 
L 272.609722 95.534553 
L 273.205524 95.531335 
L 273.801325 96.888442 
L 274.397127 96.676393 
L 274.992928 98.821874 
L 275.58873 98.503891 
L 276.184531 98.514862 
L 276.780333 97.077564 
L 277.971936 97.975259 
L 278.567737 97.611824 
L 279.163539 98.533222 
L 279.75934 98.582924 
L 280.355141 99.549052 
L 280.950943 99.1919 
L 282.142546 100.576004 
L 282.738347 100.405391 
L 283.334149 98.712965 
L 283.92995 98.377933 
L 284.525752 99.44838 
L 285.121553 98.793426 
L 285.717355 98.977602 
L 286.313156 99.93662 
L 286.908957 99.865686 
L 287.504759 99.122962 
L 288.10056 100.051158 
L 288.696362 101.946281 
L 289.292163 104.671579 
L 289.887965 105.080791 
L 290.483766 103.461836 
L 291.079568 103.224277 
L 292.271171 101.59083 
L 292.866972 100.642802 
L 293.462774 102.721329 
L 294.058575 102.542628 
L 294.654376 101.7924 
L 295.250178 101.71062 
L 295.845979 102.135507 
L 296.441781 102.052704 
L 297.037582 102.315571 
L 297.633384 104.90479 
L 298.229185 105.673363 
L 298.824987 107.322685 
L 299.420788 107.208736 
L 300.01659 108.155023 
L 300.612391 107.905494 
L 301.803994 109.288426 
L 302.399795 110.314369 
L 302.995597 111.59643 
L 303.591398 110.725984 
L 304.1872 110.919526 
L 304.783001 111.40493 
L 305.378803 110.349137 
L 305.974604 110.53189 
L 306.570406 111.752046 
L 307.166207 111.942334 
L 307.762009 111.842679 
L 308.35781 111.987774 
L 308.953611 112.96509 
L 309.549413 113.259221 
L 310.741016 113.097336 
L 311.336817 115.637589 
L 311.932619 116.130952 
L 312.52842 116.133877 
L 313.124222 114.40941 
L 313.720023 114.287545 
L 314.315825 113.958784 
L 314.911626 113.903354 
L 315.507428 114.333859 
L 316.103229 114.10643 
L 317.294832 112.607882 
L 317.890633 112.787737 
L 319.082236 114.336422 
L 319.678038 115.520456 
L 320.273839 117.642228 
L 320.869641 117.828725 
L 321.465442 117.390349 
L 322.061244 117.714256 
L 322.657045 118.763999 
L 323.252846 117.61459 
L 324.444449 114.990437 
L 325.040251 116.070079 
L 325.636052 113.91258 
L 326.231854 112.936691 
L 326.827655 112.729932 
L 328.019258 113.65547 
L 328.61506 113.85367 
L 328.61506 113.85367 
" style="fill:none;stroke:#ff0000;stroke-linecap:square;stroke-width:1.5;"/>
   </g>
   <g id="patch_3">
    <path d="M 14.3 129.7 
L 14.3 26.88 
" style="fill:none;stroke:#000000;stroke-linecap:square;stroke-linejoin:miter;stroke-width:0.8;"/>
   </g>
   <g id="patch_4">
    <path d="M 349.2 129.7 
L 349.2 26.88 
" style="fill:none;stroke:#000000;stroke-linecap:square;stroke-linejoin:miter;stroke-width:0.8;"/>
   </g>
   <g id="patch_5">
    <path d="M 14.3 129.7 
L 349.2 129.7 
" style="fill:none;stroke:#000000;stroke-linecap:square;stroke-linejoin:miter;stroke-width:0.8;"/>
   </g>
   <g id="patch_6">
    <path d="M 14.3 26.88 
L 349.2 26.88 
" style="fill:none;stroke:#000000;stroke-linecap:square;stroke-linejoin:miter;stroke-width:0.8;"/>
   </g>
   <g id="text_1">
    <!-- SMA: 10 -->
    <defs>
     <path d="M 53.515625 70.515625 
L 53.515625 60.890625 
Q 47.90625 63.578125 42.921875 64.890625 
Q 37.9375 66.21875 33.296875 66.21875 
Q 25.25 66.21875 20.875 63.09375 
Q 16.5 59.96875 16.5 54.203125 
Q 16.5 49.359375 19.40625 46.890625 
Q 22.3125 44.4375 30.421875 42.921875 
L 36.375 41.703125 
Q 47.40625 39.59375 52.65625 34.296875 
Q 57.90625 29 57.90625 20.125 
Q 57.90625 9.515625 50.796875 4.046875 
Q 43.703125 -1.421875 29.984375 -1.421875 
Q 24.8125 -1.421875 18.96875 -0.25 
Q 13.140625 0.921875 6.890625 3.21875 
L 6.890625 13.375 
Q 12.890625 10.015625 18.65625 8.296875 
Q 24.421875 6.59375 29.984375 6.59375 
Q 38.421875 6.59375 43.015625 9.90625 
Q 47.609375 13.234375 47.609375 19.390625 
Q 47.609375 24.75 44.3125 27.78125 
Q 41.015625 30.8125 33.5 32.328125 
L 27.484375 33.5 
Q 16.453125 35.6875 11.515625 40.375 
Q 6.59375 45.0625 6.59375 53.421875 
Q 6.59375 63.09375 13.40625 68.65625 
Q 20.21875 74.21875 32.171875 74.21875 
Q 37.3125 74.21875 42.625 73.28125 
Q 47.953125 72.359375 53.515625 70.515625 
z
" id="DejaVuSans-83"/>
     <path d="M 9.8125 72.90625 
L 24.515625 72.90625 
L 43.109375 23.296875 
L 61.8125 72.90625 
L 76.515625 72.90625 
L 76.515625 0 
L 66.890625 0 
L 66.890625 64.015625 
L 48.09375 14.015625 
L 38.1875 14.015625 
L 19.390625 64.015625 
L 19.390625 0 
L 9.8125 0 
z
" id="DejaVuSans-77"/>
     <path d="M 34.1875 63.1875 
L 20.796875 26.90625 
L 47.609375 26.90625 
z
M 28.609375 72.90625 
L 39.796875 72.90625 
L 67.578125 0 
L 57.328125 0 
L 50.6875 18.703125 
L 17.828125 18.703125 
L 11.1875 0 
L 0.78125 0 
z
" id="DejaVuSans-65"/>
     <path d="M 11.71875 12.40625 
L 22.015625 12.40625 
L 22.015625 0 
L 11.71875 0 
z
M 11.71875 51.703125 
L 22.015625 51.703125 
L 22.015625 39.3125 
L 11.71875 39.3125 
z
" id="DejaVuSans-58"/>
     <path id="DejaVuSans-32"/>
     <path d="M 12.40625 8.296875 
L 28.515625 8.296875 
L 28.515625 63.921875 
L 10.984375 60.40625 
L 10.984375 69.390625 
L 28.421875 72.90625 
L 38.28125 72.90625 
L 38.28125 8.296875 
L 54.390625 8.296875 
L 54.390625 0 
L 12.40625 0 
z
" id="DejaVuSans-49"/>
     <path d="M 31.78125 66.40625 
Q 24.171875 66.40625 20.328125 58.90625 
Q 16.5 51.421875 16.5 36.375 
Q 16.5 21.390625 20.328125 13.890625 
Q 24.171875 6.390625 31.78125 6.390625 
Q 39.453125 6.390625 43.28125 13.890625 
Q 47.125 21.390625 47.125 36.375 
Q 47.125 51.421875 43.28125 58.90625 
Q 39.453125 66.40625 31.78125 66.40625 
z
M 31.78125 74.21875 
Q 44.046875 74.21875 50.515625 64.515625 
Q 56.984375 54.828125 56.984375 36.375 
Q 56.984375 17.96875 50.515625 8.265625 
Q 44.046875 -1.421875 31.78125 -1.421875 
Q 19.53125 -1.421875 13.0625 8.265625 
Q 6.59375 17.96875 6.59375 36.375 
Q 6.59375 54.828125 13.0625 64.515625 
Q 19.53125 74.21875 31.78125 74.21875 
z
" id="DejaVuSans-48"/>
    </defs>
    <g transform="translate(157.201562 20.88)scale(0.12 -0.12)">
     <use xlink:href="#DejaVuSans-83"/>
     <use x="63.476562" xlink:href="#DejaVuSans-77"/>
     <use x="149.755859" xlink:href="#DejaVuSans-65"/>
     <use x="216.414062" xlink:href="#DejaVuSans-58"/>
     <use x="250.105469" xlink:href="#DejaVuSans-32"/>
     <use x="281.892578" xlink:href="#DejaVuSans-49"/>
     <use x="345.515625" xlink:href="#DejaVuSans-48"/>
    </g>
   </g>
  </g>
 </g>
 <defs>
  <clipPath id="p5dafa7445e">
   <rect height="102.82" width="334.9" x="14.3" y="26.88"/>
  </clipPath>
 </defs>
</svg>
